<svg width="606" height="380" viewBox="0 0 606 380" fill="none" xmlns="http://www.w3.org/2000/svg">
<g clip-path="url(#clip0_1174_18249)">
<path d="M0 359.998L0.929448 359.999H2.78834L4.64724 359.998L5.57669 359.996L6.50613 359.995L7.43558 359.999L8.36503 359.997L10.2239 359.998L13.0123 359.999H14.8712H15.8006L16.7301 359.998L18.589 359.998L19.5184 359.998L21.3773 359.998L22.3067 359.997L25.0951 359.999L26.0245 359.994L26.954 359.998L30.6718 359.996L31.6012 359.998L35.319 359.997L38.1074 359.999L39.9663 359.998L40.8957 359.996L41.8252 359.997L42.7546 359.998L43.684 359.996L44.6135 359.994L46.4724 359.997L47.4018 359.994L48.3313 359.996L50.1902 359.999L51.1196 359.997L52.0491 359.998L52.9785 359.999L53.908 359.998L55.7669 359.999H57.6258L58.5552 359.997L59.4847 359.999L60.4141 359.998L61.3436 359.994L62.273 359.991L63.2025 359.999H64.1319L65.0613 359.998L67.8497 359.996L68.7791 359.981L69.7086 359.996L70.638 359.994L71.5675 359.998L72.4969 359.998L73.4264 359.993L74.3558 359.998H75.2853H76.2147H77.1442L78.0736 359.997L80.862 359.999L81.7914 359.998L83.6503 359.996L84.5798 359.998L85.5092 359.999L88.2975 359.996L89.227 359.998L90.1564 359.994L91.0859 359.999L92.0153 359.991L92.9448 359.869L93.8742 359.971L94.8037 359.93L95.7331 359.95L96.6626 359.963L97.592 359.946L98.5215 359.926L99.4509 359.954L100.38 359.976L101.31 359.917L102.239 359.946L103.169 359.909L104.098 359.938L105.028 359.925L105.957 359.921L106.887 359.855L107.816 359.701L108.745 359.567L109.675 359.65L110.604 359.746L111.534 359.492L112.463 359.474L113.393 359.828L114.322 359.904L115.252 359.672L116.181 359.46L117.11 359.691L118.04 359.814L118.969 359.885L119.899 359.97L120.828 359.903L121.758 359.906L122.687 359.954L123.617 359.924L124.546 359.938L125.475 359.983L126.405 359.967L127.334 359.851L128.264 359.879L129.193 359.85L130.123 359.953L131.052 359.966L131.982 359.974L132.911 359.966L133.84 359.873L134.77 359.931L135.699 359.932L136.629 359.984L137.558 359.986L138.488 359.958L139.417 359.809L140.347 359.8L141.276 359.899L142.206 359.888L143.135 359.949L144.064 359.975L144.994 359.956L145.923 359.946L146.853 359.95L147.782 359.856L148.712 359.89L149.641 359.853L150.571 359.834L151.5 359.714L152.429 359.868L153.359 359.68L154.288 359.725L155.218 359.77L156.147 359.631L157.077 359.875L158.006 359.837L158.936 359.916L159.865 359.91L160.794 359.719L161.724 359.795L162.653 359.334L163.583 357.394L164.512 359.667L165.442 359.338L166.371 359.618L167.301 357.364L168.23 358.37L169.16 359.542L170.089 359.69L171.018 359.82L171.948 359.843L172.877 359.838L173.807 359.896L174.736 359.807L175.666 359.82L176.595 359.817L177.525 359.451L178.454 359.902L179.383 359.881L180.313 359.81L181.242 359.834L182.172 359.95L183.101 359.914L184.031 359.869L184.96 359.93L185.89 359.94L186.819 359.878L187.748 359.769L188.678 359.678L189.607 359.866L190.537 359.911L191.466 359.814L192.396 359.575L193.325 359.735L194.255 359.918L195.184 359.854L196.113 359.866L197.043 359.935L197.972 359.918L198.902 359.905L199.831 358.316L200.761 358.682L201.69 359.484L202.62 356.386L203.549 359.791L204.479 359.58L205.408 356.14L206.337 359.776L207.267 359.844L208.196 359.895L209.126 359.326L210.055 356.092L210.985 357.716L211.914 359.007L212.844 359.493L213.773 359.396L214.702 359.065L215.632 359.489L216.561 359.48L217.491 359.61L218.42 359.766L219.35 359.266L220.279 358.137L221.209 358.659L222.138 358.307L223.067 350.11L223.997 351.974L224.926 341.874L225.856 347.72L226.785 355.575L227.715 347.985L228.644 359.377L229.574 359.45L230.503 356.918L231.433 358.938L232.362 351.202L233.291 358.05L234.221 356.542L235.15 357.045L236.08 355.278L237.009 344.192L237.939 350.791L238.868 350.998L239.798 338.488L240.727 350.967L241.656 348.625L242.586 350.615L243.515 337.37L244.445 343.823L245.374 340.66L246.304 351.797L247.233 343.014L248.163 346.819L249.092 342.689L250.021 342.995L250.951 353.739L251.88 349.384L252.81 343.878L253.739 343.346L254.669 329.592L255.598 334.595L256.528 339.235L257.457 350.444L258.387 321.024L259.316 336.775L260.245 328.733L261.175 345.389L262.104 325.591L263.034 341.136L263.963 348.046L264.893 339.738L265.822 320.06L266.752 339.216L267.681 298.643L268.61 294.713L269.54 323.998L270.469 323.812L271.399 320.425L272.328 312.492L273.258 336.23L274.187 315.294L275.117 293.538L276.046 323.128L276.975 285.278L277.905 311.94L278.834 314.889L279.764 323.866L280.693 297.175L281.623 310.92L282.552 310.06L283.482 321.724L284.411 312.62L285.34 332.124L286.27 326.374L287.199 300.799L288.129 302.306L289.058 325.838L289.988 322.725L290.917 321.966L291.847 330.894L292.776 280.611L293.706 316.428L294.635 330.677L295.564 319.951L296.494 305.184L297.423 312.462L298.353 336.085L299.282 315.023L300.212 305.598L301.141 325.038L302.071 311.84L303 325.057L303.929 334.717L304.859 329.541L305.788 327.181L306.718 303.16L307.647 322.635L308.577 323.27L309.506 328.877L310.436 335.975L311.365 313.071L312.294 331.446L313.224 323.684L314.153 331.077L315.083 322.514L316.012 316.784L316.942 321.214L317.871 314.39L318.801 318.936L319.73 332.089L320.66 328.387L321.589 329.586L322.518 320.486L323.448 329.478L324.377 304.844L325.307 312.443L326.236 318.183L327.166 336.723L328.095 329.196L329.025 312.786L329.954 328.583L330.883 333.098L331.813 323.454L332.742 329.958L333.672 320.57L334.601 298.135L335.531 316.568L336.46 336.806L337.39 327.345L338.319 306.222L339.248 324.978L340.178 323.032L341.107 315.121L342.037 323.446L342.966 324.256L343.896 319.314L344.825 330.126L345.755 288.198L346.684 306.016L347.613 340.379L348.543 331.266L349.472 322.988L350.402 251.266L351.331 314.878L352.261 321.478L353.19 330.785L354.12 341.572L355.049 327.151L355.979 317.899L356.908 327.238L357.837 326.826L358.767 321.979L359.696 334.213L360.626 308.868L361.555 302.497L362.485 319.247L363.414 329.628L364.344 316.586L365.273 322.131L366.202 310.988L367.132 298.57L368.061 298.638L368.991 311.95L369.92 298.598L370.85 298.628L371.779 315.942L372.709 332.936L373.638 335.808L374.567 288.428L375.497 301.696L376.426 306.183L377.356 300.51L378.285 292.03L379.215 295.29L380.144 288.764L381.074 301.885L382.003 309.429L382.933 302.838L383.862 303.327L384.791 316.872L385.721 299.414L386.65 304.456L387.58 308.102L388.509 324.448L389.439 319.437L390.368 309.542L391.298 314.87L392.227 322.882L393.156 316.942L394.086 323.472L395.015 320.637L395.945 303.034L396.874 308.238L397.804 296.081L398.733 310.649L399.663 317.794L400.592 330.434L401.521 315.932L402.451 310.469L403.38 301.478L404.31 294.348L405.239 283.179L406.169 312.999L407.098 309.422L408.028 316.047L408.957 322.101L409.887 335.941L410.816 332.492L411.745 336.388L412.675 323.882L413.604 325.257L414.534 330.51L415.463 334.21L416.393 320.346L417.322 314.24L418.252 317.738L419.181 329.595L420.11 340.065L421.04 332.572L421.969 331.654L422.899 326.926L423.828 327.953L424.758 305.366L425.687 331.394L426.617 326.103L427.546 332.65L428.475 320.166L429.405 327.911L430.334 327.722L431.264 324.139L432.193 327.615L433.123 329.425L434.052 333.725L434.982 330.354L435.911 312.704L436.84 304.47L437.77 327.681L438.699 318.542L439.629 311.206L440.558 312.473L441.488 327.184L442.417 338.58L443.347 328.691L444.276 280.562L445.206 288.466L446.135 314.806L447.064 334.603L447.994 316.758L448.923 290.219L449.853 323.25L450.782 317.673L451.712 320.086L452.641 325.728L453.571 330.765L454.5 325.814L455.429 320.533L456.359 316.605L457.288 311.246L458.218 327.753L459.147 321.113L460.077 325.41L461.006 305.208L461.936 320.452L462.865 303.725L463.794 318.779L464.724 329.698L465.653 326.971L466.583 313.991L467.512 310.749L468.442 316.713L469.371 319.141L470.301 293.987L471.23 304.403L472.16 289.978L473.089 304.477L474.018 311.182L474.948 328.638L475.877 312.282L476.807 332.112L477.736 324.413L478.666 323.451L479.595 313.27L480.525 287.382L481.454 257.347L482.383 273.851L483.313 266.246L484.242 289.499L485.172 279.485L486.101 299.016L487.031 311.298L487.96 282.527L488.89 280.693L489.819 291.766L490.748 302.856L491.678 284.649L492.607 289.41L493.537 274.626L494.466 281.229L495.396 271.198L496.325 185.915L497.255 274.69L498.184 284.414L499.113 279.742L500.043 249.838L500.972 249.433L501.902 255.163L502.831 242.574L503.761 262.557L504.69 258.908L505.62 293.961L506.549 305.855L507.479 297.678L508.408 299.365L509.337 284.064L510.267 270.813L511.196 264.543L512.126 265.013L513.055 285.262L513.985 269.81L514.914 281.674L515.844 267.096L516.773 284.302L517.702 295.044L518.632 290.001L519.561 284.538L520.491 275.623L521.42 301.834L522.35 275.025L523.279 308.818L524.209 305.514L525.138 312.205L526.068 293.084L526.997 309.931L527.926 286.973L528.856 284.398L529.785 301.752L530.715 302.902L531.644 294.214L532.574 301.817L533.503 272.341L534.432 280.879L535.362 310.593L536.291 305.554L537.221 289.681L538.15 269.514L539.08 286.614L540.009 298.262L540.939 302.018L541.868 292.099L542.798 298.098L543.727 289.558L544.656 289.536L545.586 275.382L546.515 271.598L547.445 257.033L548.374 247.626L549.304 289.043L550.233 296.386L551.163 288.283L552.092 259.19L553.021 317.93L553.951 290.817L554.88 272.126L555.81 306.239L556.739 311.108L557.669 311.443L558.598 294.222L559.528 281.07L560.457 305.638L561.386 282.782L562.316 300.22L563.245 292.038L564.175 289.442L565.104 296.119L566.034 301.677L566.963 288.823L567.893 294.668L568.822 308.495L569.752 313.631L570.681 306.587L571.61 326.376L572.54 315.646L573.469 324.65L574.399 309.782L575.328 312.364L576.258 320.567L577.187 307.373L578.117 298.002L579.046 296.802L579.975 297.846L580.905 317.631L581.834 309.333L582.764 328.205L583.693 289.633L584.623 301.822L585.552 110.1L586.482 126.258L587.411 217.596L588.341 257.538L589.27 243.778L590.199 274.996L591.129 251.396L592.058 295.294L592.988 263.06L593.917 245.966L594.847 285.267L595.776 287.919L596.706 267.44L597.635 241.535L598.564 260.976L599.494 269.568L600.423 290.686L601.353 292.39L602.282 279.281L603.212 268.438L604.141 260.109L605.071 259.305L606 340.096" stroke="#15D6FF" stroke-width="2" stroke-linecap="round"/>
<path d="M0 360H0.929448H2.78834H4.64724H5.57669H6.50613H7.43558H8.36503H10.2239H13.0123H14.8712H15.8006H16.7301H18.589H19.5184H21.3773H22.3067H25.0951H26.0245H26.954H30.6718H31.6012H35.319H38.1074H39.9663H40.8957H41.8252H42.7546H43.684H44.6135H46.4724H47.4018H48.3313H50.1902H51.1196H52.0491H52.9785H53.908H55.7669H57.6258H58.5552H59.4847H60.4141H61.3436H62.273H63.2025H64.1319H65.0613H67.8497H68.7791H69.7086H70.638H71.5675H72.4969H73.4264H74.3558H75.2853H76.2147H77.1442H78.0736H80.862H81.7914H83.6503H84.5798H85.5092H88.2975H89.227H90.1564H91.0859H92.0153H92.9448H93.8742H94.8037H95.7331H96.6626H97.592H98.5215H99.4509H100.38H101.31H102.239H103.169H104.098H105.028H105.957H106.887H107.816H108.745H109.675H110.604H111.534H112.463H113.393H114.322H115.252H116.181H117.11H118.04H118.969H119.899H120.828H121.758H122.687H123.617H124.546H125.475H126.405H127.334H128.264H129.193H130.123H131.052H131.982H132.911H133.84H134.77H135.699H136.629H137.558H138.488H139.417H140.347H141.276H142.206H143.135H144.064H144.994H145.923H146.853H147.782H148.712H149.641H150.571H151.5H152.429H153.359H154.288H155.218H156.147H157.077H158.006H158.936H159.865H160.794H161.724H162.653H163.583H164.512H165.442H166.371H167.301H168.23H169.16H170.089H171.018H171.948H172.877H173.807H174.736H175.666H176.595H177.525H178.454H179.383H180.313H181.242H182.172H183.101H184.031H184.96H185.89H186.819H187.748H188.678H189.607H190.537H191.466H192.396H193.325H194.255H195.184H196.113H197.043H197.972H198.902H199.831H200.761H201.69H202.62H203.549H204.479H205.408H206.337H207.267H208.196H209.126H210.055H210.985H211.914H212.844H213.773H214.702H215.632H216.561H217.491H218.42H219.35H220.279H221.209H222.138H223.067H223.997H224.926H225.856H226.785H227.715H228.644H229.574H230.503H231.433H232.362H233.291H234.221H235.15H236.08H237.009H237.939H238.868H239.798H240.727H241.656H242.586H243.515H244.445H245.374H246.304H247.233H248.163H249.092H250.021H250.951H251.88H252.81H253.739H254.669H255.598H256.528H257.457H258.387H259.316H260.245H261.175H262.104H263.034H263.963H264.893H265.822H266.752H267.681H268.61H269.54H270.469H271.399H272.328H273.258H274.187H275.117H276.046H276.975H277.905H278.834H279.764H280.693H281.623H282.552H283.482H284.411H285.34H286.27H287.199H288.129H289.058H289.988H290.917H291.847H292.776H293.706H294.635H295.564H296.494H297.423H298.353H299.282H300.212H301.141H302.071H303H303.929H304.859H305.788H306.718H307.647H308.577H309.506H310.436H311.365H312.294H313.224H314.153H315.083H316.012H316.942H317.871H318.801H319.73H320.66H321.589H322.518H323.448H324.377H325.307H326.236H327.166H328.095H329.025H329.954H330.883H331.813H332.742H333.672H334.601H335.531H336.46H337.39H338.319H339.248H340.178H341.107H342.037H342.966H343.896H344.825H345.755H346.684H347.613H348.543H349.472H350.402H351.331H352.261H353.19H354.12H355.049H355.979H356.908H357.837H358.767H359.696H360.626H361.555H362.485H363.414H364.344H365.273H366.202H367.132H368.061H368.991H369.92H370.85H371.779H372.709H373.638H374.567H375.497H376.426H377.356H378.285H379.215H380.144H381.074H382.003H382.933H383.862H384.791H385.721H386.65H387.58H388.509H389.439H390.368H391.298H392.227H393.156H394.086H395.015H395.945H396.874H397.804H398.733H399.663H400.592H401.521H402.451H403.38H404.31H405.239H406.169H407.098H408.028H408.957H409.887H410.816H411.745H412.675H413.604H414.534H415.463H416.393H417.322H418.252H419.181H420.11H421.04H421.969H422.899H423.828H424.758H425.687H426.617H427.546H428.475H429.405H430.334H431.264H432.193H433.123H434.052H434.982H435.911H436.84H437.77H438.699H439.629H440.558H441.488H442.417H443.347H444.276H445.206H446.135H447.064H447.994H448.923H449.853H450.782H451.712H452.641H453.571H454.5H455.429H456.359H457.288H458.218H459.147H460.077H461.006H461.936H462.865H463.794H464.724H465.653H466.583H467.512H468.442H469.371H470.301H471.23H472.16H473.089H474.018H474.948H475.877H476.807H477.736H478.666H479.595H480.525H481.454H482.383H483.313H484.242H485.172H486.101H487.031H487.96H488.89H489.819H490.748H491.678H492.607H493.537H494.466H495.396H496.325H497.255H498.184H499.113H500.043H500.972H501.902H502.831H503.761H504.69H505.62H506.549H507.479H508.408H509.337H510.267H511.196H512.126H513.055H513.985H514.914H515.844H516.773H517.702H518.632H519.561H520.491H521.42H522.35H523.279H524.209H525.138H526.068H526.997H527.926H528.856H529.785H530.715H531.644H532.574H533.503H534.432H535.362H536.291H537.221H538.15H539.08H540.009H540.939H541.868H542.798H543.727H544.656H545.586H546.515H547.445H548.374H549.304H550.233H551.163H552.092H553.021H553.951H554.88H555.81H556.739H557.669H558.598H559.528H560.457H561.386H562.316H563.245H564.175H565.104H566.034H566.963H567.893H568.822H569.752H570.681H571.61H572.54H573.469H574.399H575.328H576.258H577.187H578.117H579.046H579.975H580.905H581.834H582.764H583.693H584.623H585.552H586.482H587.411H588.341H589.27H590.199H591.129H592.058H592.988H593.917H594.847H595.776H596.706H597.635H598.564H599.494H600.423H601.353H602.282H603.212H604.141H605.071H606V340.096L605.071 259.305L604.141 260.109L603.212 268.438L602.282 279.281L601.353 292.39L600.423 290.686L599.494 269.568L598.564 260.976L597.635 241.535L596.706 267.44L595.776 287.919L594.847 285.267L593.917 245.966L592.988 263.06L592.058 295.294L591.129 251.396L590.199 274.996L589.27 243.778L588.341 257.538L587.411 217.596L586.482 126.258L585.552 110.1L584.623 301.822L583.693 289.633L582.764 328.205L581.834 309.333L580.905 317.631L579.975 297.846L579.046 296.802L578.117 298.002L577.187 307.373L576.258 320.567L575.328 312.364L574.399 309.782L573.469 324.65L572.54 315.646L571.61 326.376L570.681 306.587L569.752 313.631L568.822 308.495L567.893 294.668L566.963 288.823L566.034 301.677L565.104 296.119L564.175 289.442L563.245 292.038L562.316 300.22L561.386 282.782L560.457 305.638L559.528 281.07L558.598 294.222L557.669 311.443L556.739 311.108L555.81 306.239L554.88 272.126L553.951 290.817L553.021 317.93L552.092 259.19L551.163 288.283L550.233 296.386L549.304 289.043L548.374 247.626L547.445 257.033L546.515 271.598L545.586 275.382L544.656 289.536L543.727 289.558L542.798 298.098L541.868 292.099L540.939 302.018L540.009 298.262L539.08 286.614L538.15 269.514L537.221 289.681L536.291 305.554L535.362 310.593L534.432 280.879L533.503 272.341L532.574 301.817L531.644 294.214L530.715 302.902L529.785 301.752L528.856 284.398L527.926 286.973L526.997 309.931L526.068 293.084L525.138 312.205L524.209 305.514L523.279 308.818L522.35 275.025L521.42 301.834L520.491 275.623L519.561 284.538L518.632 290.001L517.702 295.044L516.773 284.302L515.844 267.096L514.914 281.674L513.985 269.81L513.055 285.262L512.126 265.013L511.196 264.543L510.267 270.813L509.337 284.064L508.408 299.365L507.479 297.678L506.549 305.855L505.62 293.961L504.69 258.908L503.761 262.557L502.831 242.574L501.902 255.163L500.972 249.433L500.043 249.838L499.113 279.742L498.184 284.414L497.255 274.69L496.325 185.915L495.396 271.198L494.466 281.229L493.537 274.626L492.607 289.41L491.678 284.649L490.748 302.856L489.819 291.766L488.89 280.693L487.96 282.527L487.031 311.298L486.101 299.016L485.172 279.485L484.242 289.499L483.313 266.246L482.383 273.851L481.454 257.347L480.525 287.382L479.595 313.27L478.666 323.451L477.736 324.413L476.807 332.112L475.877 312.282L474.948 328.638L474.018 311.182L473.089 304.477L472.16 289.978L471.23 304.403L470.301 293.987L469.371 319.141L468.442 316.713L467.512 310.749L466.583 313.991L465.653 326.971L464.724 329.698L463.794 318.779L462.865 303.725L461.936 320.452L461.006 305.208L460.077 325.41L459.147 321.113L458.218 327.753L457.288 311.246L456.359 316.605L455.429 320.533L454.5 325.814L453.571 330.765L452.641 325.728L451.712 320.086L450.782 317.673L449.853 323.25L448.923 290.219L447.994 316.758L447.064 334.603L446.135 314.806L445.206 288.466L444.276 280.562L443.347 328.691L442.417 338.58L441.488 327.184L440.558 312.473L439.629 311.206L438.699 318.542L437.77 327.681L436.84 304.47L435.911 312.704L434.982 330.354L434.052 333.725L433.123 329.425L432.193 327.615L431.264 324.139L430.334 327.722L429.405 327.911L428.475 320.166L427.546 332.65L426.617 326.103L425.687 331.394L424.758 305.366L423.828 327.953L422.899 326.926L421.969 331.654L421.04 332.572L420.11 340.065L419.181 329.595L418.252 317.738L417.322 314.24L416.393 320.346L415.463 334.21L414.534 330.51L413.604 325.257L412.675 323.882L411.745 336.388L410.816 332.492L409.887 335.941L408.957 322.101L408.028 316.047L407.098 309.422L406.169 312.999L405.239 283.179L404.31 294.348L403.38 301.478L402.451 310.469L401.521 315.932L400.592 330.434L399.663 317.794L398.733 310.649L397.804 296.081L396.874 308.238L395.945 303.034L395.015 320.637L394.086 323.472L393.156 316.942L392.227 322.882L391.298 314.87L390.368 309.542L389.439 319.437L388.509 324.448L387.58 308.102L386.65 304.456L385.721 299.414L384.791 316.872L383.862 303.327L382.933 302.838L382.003 309.429L381.074 301.885L380.144 288.764L379.215 295.29L378.285 292.03L377.356 300.51L376.426 306.183L375.497 301.696L374.567 288.428L373.638 335.808L372.709 332.936L371.779 315.942L370.85 298.628L369.92 298.598L368.991 311.95L368.061 298.638L367.132 298.57L366.202 310.988L365.273 322.131L364.344 316.586L363.414 329.628L362.485 319.247L361.555 302.497L360.626 308.868L359.696 334.213L358.767 321.979L357.837 326.826L356.908 327.238L355.979 317.899L355.049 327.151L354.12 341.572L353.19 330.785L352.261 321.478L351.331 314.878L350.402 251.266L349.472 322.988L348.543 331.266L347.613 340.379L346.684 306.016L345.755 288.198L344.825 330.126L343.896 319.314L342.966 324.256L342.037 323.446L341.107 315.121L340.178 323.032L339.248 324.978L338.319 306.222L337.39 327.345L336.46 336.806L335.531 316.568L334.601 298.135L333.672 320.57L332.742 329.958L331.813 323.454L330.883 333.098L329.954 328.583L329.025 312.786L328.095 329.196L327.166 336.723L326.236 318.183L325.307 312.443L324.377 304.844L323.448 329.478L322.518 320.486L321.589 329.586L320.66 328.387L319.73 332.089L318.801 318.936L317.871 314.39L316.942 321.214L316.012 316.784L315.083 322.514L314.153 331.077L313.224 323.684L312.294 331.446L311.365 313.071L310.436 335.975L309.506 328.877L308.577 323.27L307.647 322.635L306.718 303.16L305.788 327.181L304.859 329.541L303.929 334.717L303 325.057L302.071 311.84L301.141 325.038L300.212 305.598L299.282 315.023L298.353 336.085L297.423 312.462L296.494 305.184L295.564 319.951L294.635 330.677L293.706 316.428L292.776 280.611L291.847 330.894L290.917 321.966L289.988 322.725L289.058 325.838L288.129 302.306L287.199 300.799L286.27 326.374L285.34 332.124L284.411 312.62L283.482 321.724L282.552 310.06L281.623 310.92L280.693 297.175L279.764 323.866L278.834 314.889L277.905 311.94L276.975 285.278L276.046 323.128L275.117 293.538L274.187 315.294L273.258 336.23L272.328 312.492L271.399 320.425L270.469 323.812L269.54 323.998L268.61 294.713L267.681 298.643L266.752 339.216L265.822 320.06L264.893 339.738L263.963 348.046L263.034 341.136L262.104 325.591L261.175 345.389L260.245 328.733L259.316 336.775L258.387 321.024L257.457 350.444L256.528 339.235L255.598 334.595L254.669 329.592L253.739 343.346L252.81 343.878L251.88 349.384L250.951 353.739L250.021 342.995L249.092 342.689L248.163 346.819L247.233 343.014L246.304 351.797L245.374 340.66L244.445 343.823L243.515 337.37L242.586 350.615L241.656 348.625L240.727 350.967L239.798 338.488L238.868 350.998L237.939 350.791L237.009 344.192L236.08 355.278L235.15 357.045L234.221 356.542L233.291 358.05L232.362 351.202L231.433 358.938L230.503 356.918L229.574 359.45L228.644 359.377L227.715 347.985L226.785 355.575L225.856 347.72L224.926 341.874L223.997 351.974L223.067 350.11L222.138 358.307L221.209 358.659L220.279 358.137L219.35 359.266L218.42 359.766L217.491 359.61L216.561 359.48L215.632 359.489L214.702 359.065L213.773 359.396L212.844 359.493L211.914 359.007L210.985 357.716L210.055 356.092L209.126 359.326L208.196 359.895L207.267 359.844L206.337 359.776L205.408 356.14L204.479 359.58L203.549 359.791L202.62 356.386L201.69 359.484L200.761 358.682L199.831 358.316L198.902 359.905L197.972 359.918L197.043 359.935L196.113 359.866L195.184 359.854L194.255 359.918L193.325 359.735L192.396 359.575L191.466 359.814L190.537 359.911L189.607 359.866L188.678 359.678L187.748 359.769L186.819 359.878L185.89 359.94L184.96 359.93L184.031 359.869L183.101 359.914L182.172 359.95L181.242 359.834L180.313 359.81L179.383 359.881L178.454 359.902L177.525 359.451L176.595 359.817L175.666 359.82L174.736 359.807L173.807 359.896L172.877 359.838L171.948 359.843L171.018 359.82L170.089 359.69L169.16 359.542L168.23 358.37L167.301 357.364L166.371 359.618L165.442 359.338L164.512 359.667L163.583 357.394L162.653 359.334L161.724 359.795L160.794 359.719L159.865 359.91L158.936 359.916L158.006 359.837L157.077 359.875L156.147 359.631L155.218 359.77L154.288 359.725L153.359 359.68L152.429 359.868L151.5 359.714L150.571 359.834L149.641 359.853L148.712 359.89L147.782 359.856L146.853 359.95L145.923 359.946L144.994 359.956L144.064 359.975L143.135 359.949L142.206 359.888L141.276 359.899L140.347 359.8L139.417 359.809L138.488 359.958L137.558 359.986L136.629 359.984L135.699 359.932L134.77 359.931L133.84 359.873L132.911 359.966L131.982 359.974L131.052 359.966L130.123 359.953L129.193 359.85L128.264 359.879L127.334 359.851L126.405 359.967L125.475 359.983L124.546 359.938L123.617 359.924L122.687 359.954L121.758 359.906L120.828 359.903L119.899 359.97L118.969 359.885L118.04 359.814L117.11 359.691L116.181 359.46L115.252 359.672L114.322 359.904L113.393 359.828L112.463 359.474L111.534 359.492L110.604 359.746L109.675 359.65L108.745 359.567L107.816 359.701L106.887 359.855L105.957 359.921L105.028 359.925L104.098 359.938L103.169 359.909L102.239 359.946L101.31 359.917L100.38 359.976L99.4509 359.954L98.5215 359.926L97.592 359.946L96.6626 359.963L95.7331 359.95L94.8037 359.93L93.8742 359.971L92.9448 359.869L92.0153 359.991L91.0859 359.999L90.1564 359.994L89.227 359.998L88.2975 359.996L85.5092 359.999L84.5798 359.998L83.6503 359.996L81.7914 359.998L80.862 359.999L78.0736 359.997L77.1442 359.998H76.2147H75.2853H74.3558L73.4264 359.993L72.4969 359.998L71.5675 359.998L70.638 359.994L69.7086 359.996L68.7791 359.981L67.8497 359.996L65.0613 359.998L64.1319 359.999H63.2025L62.273 359.991L61.3436 359.994L60.4141 359.998L59.4847 359.999L58.5552 359.997L57.6258 359.999H55.7669L53.908 359.998L52.9785 359.999L52.0491 359.998L51.1196 359.997L50.1902 359.999L48.3313 359.996L47.4018 359.994L46.4724 359.997L44.6135 359.994L43.684 359.996L42.7546 359.998L41.8252 359.997L40.8957 359.996L39.9663 359.998L38.1074 359.999L35.319 359.997L31.6012 359.998L30.6718 359.996L26.954 359.998L26.0245 359.994L25.0951 359.999L22.3067 359.997L21.3773 359.998L19.5184 359.998L18.589 359.998L16.7301 359.998L15.8006 359.999H14.8712H13.0123L10.2239 359.998L8.36503 359.997L7.43558 359.999L6.50613 359.995L5.57669 359.996L4.64724 359.998L2.78834 359.999H0.929448L0 359.998V360Z" fill="#15D6FF"/>
<path d="M0 360H0.929448H2.78834H4.64724H5.57669H6.50613H7.43558H8.36503H10.2239H13.0123H14.8712H15.8006H16.7301H18.589H19.5184H21.3773H22.3067H25.0951H26.0245H26.954H30.6718H31.6012H35.319H38.1074H39.9663H40.8957H41.8252H42.7546H43.684H44.6135H46.4724H47.4018H48.3313H50.1902H51.1196H52.0491H52.9785H53.908H55.7669H57.6258H58.5552H59.4847H60.4141H61.3436H62.273H63.2025H64.1319H65.0613H67.8497H68.7791H69.7086H70.638H71.5675H72.4969H73.4264H74.3558H75.2853H76.2147H77.1442H78.0736H80.862H81.7914H83.6503H84.5798H85.5092H88.2975H89.227H90.1564H91.0859H92.0153H92.9448H93.8742H94.8037H95.7331H96.6626H97.592H98.5215H99.4509H100.38H101.31H102.239H103.169H104.098H105.028H105.957H106.887H107.816H108.745H109.675H110.604H111.534H112.463H113.393H114.322H115.252H116.181H117.11H118.04H118.969H119.899H120.828H121.758H122.687H123.617H124.546H125.475H126.405H127.334H128.264H129.193H130.123H131.052H131.982H132.911H133.84H134.77H135.699H136.629H137.558H138.488H139.417H140.347H141.276H142.206H143.135H144.064H144.994H145.923H146.853H147.782H148.712H149.641H150.571H151.5H152.429H153.359H154.288H155.218H156.147H157.077H158.006H158.936H159.865H160.794H161.724H162.653H163.583H164.512H165.442H166.371H167.301H168.23H169.16H170.089H171.018H171.948H172.877H173.807H174.736H175.666H176.595H177.525H178.454H179.383H180.313H181.242H182.172H183.101H184.031H184.96H185.89H186.819H187.748H188.678H189.607H190.537H191.466H192.396H193.325H194.255H195.184H196.113H197.043H197.972H198.902H199.831H200.761H201.69H202.62H203.549H204.479H205.408H206.337H207.267H208.196H209.126H210.055H210.985H211.914H212.844H213.773H214.702H215.632H216.561H217.491H218.42H219.35H220.279H221.209H222.138H223.067H223.997H224.926H225.856H226.785H227.715H228.644H229.574H230.503H231.433H232.362H233.291H234.221H235.15H236.08H237.009H237.939H238.868H239.798H240.727H241.656H242.586H243.515H244.445H245.374H246.304H247.233H248.163H249.092H250.021H250.951H251.88H252.81H253.739H254.669H255.598H256.528H257.457H258.387H259.316H260.245H261.175H262.104H263.034H263.963H264.893H265.822H266.752H267.681H268.61H269.54H270.469H271.399H272.328H273.258H274.187H275.117H276.046H276.975H277.905H278.834H279.764H280.693H281.623H282.552H283.482H284.411H285.34H286.27H287.199H288.129H289.058H289.988H290.917H291.847H292.776H293.706H294.635H295.564H296.494H297.423H298.353H299.282H300.212H301.141H302.071H303H303.929H304.859H305.788H306.718H307.647H308.577H309.506H310.436H311.365H312.294H313.224H314.153H315.083H316.012H316.942H317.871H318.801H319.73H320.66H321.589H322.518H323.448H324.377H325.307H326.236H327.166H328.095H329.025H329.954H330.883H331.813H332.742H333.672H334.601H335.531H336.46H337.39H338.319H339.248H340.178H341.107H342.037H342.966H343.896H344.825H345.755H346.684H347.613H348.543H349.472H350.402H351.331H352.261H353.19H354.12H355.049H355.979H356.908H357.837H358.767H359.696H360.626H361.555H362.485H363.414H364.344H365.273H366.202H367.132H368.061H368.991H369.92H370.85H371.779H372.709H373.638H374.567H375.497H376.426H377.356H378.285H379.215H380.144H381.074H382.003H382.933H383.862H384.791H385.721H386.65H387.58H388.509H389.439H390.368H391.298H392.227H393.156H394.086H395.015H395.945H396.874H397.804H398.733H399.663H400.592H401.521H402.451H403.38H404.31H405.239H406.169H407.098H408.028H408.957H409.887H410.816H411.745H412.675H413.604H414.534H415.463H416.393H417.322H418.252H419.181H420.11H421.04H421.969H422.899H423.828H424.758H425.687H426.617H427.546H428.475H429.405H430.334H431.264H432.193H433.123H434.052H434.982H435.911H436.84H437.77H438.699H439.629H440.558H441.488H442.417H443.347H444.276H445.206H446.135H447.064H447.994H448.923H449.853H450.782H451.712H452.641H453.571H454.5H455.429H456.359H457.288H458.218H459.147H460.077H461.006H461.936H462.865H463.794H464.724H465.653H466.583H467.512H468.442H469.371H470.301H471.23H472.16H473.089H474.018H474.948H475.877H476.807H477.736H478.666H479.595H480.525H481.454H482.383H483.313H484.242H485.172H486.101H487.031H487.96H488.89H489.819H490.748H491.678H492.607H493.537H494.466H495.396H496.325H497.255H498.184H499.113H500.043H500.972H501.902H502.831H503.761H504.69H505.62H506.549H507.479H508.408H509.337H510.267H511.196H512.126H513.055H513.985H514.914H515.844H516.773H517.702H518.632H519.561H520.491H521.42H522.35H523.279H524.209H525.138H526.068H526.997H527.926H528.856H529.785H530.715H531.644H532.574H533.503H534.432H535.362H536.291H537.221H538.15H539.08H540.009H540.939H541.868H542.798H543.727H544.656H545.586H546.515H547.445H548.374H549.304H550.233H551.163H552.092H553.021H553.951H554.88H555.81H556.739H557.669H558.598H559.528H560.457H561.386H562.316H563.245H564.175H565.104H566.034H566.963H567.893H568.822H569.752H570.681H571.61H572.54H573.469H574.399H575.328H576.258H577.187H578.117H579.046H579.975H580.905H581.834H582.764H583.693H584.623H585.552H586.482H587.411H588.341H589.27H590.199H591.129H592.058H592.988H593.917H594.847H595.776H596.706H597.635H598.564H599.494H600.423H601.353H602.282H603.212H604.141H605.071H606V340.096L605.071 259.305L604.141 260.109L603.212 268.438L602.282 279.281L601.353 292.39L600.423 290.686L599.494 269.568L598.564 260.976L597.635 241.535L596.706 267.44L595.776 287.919L594.847 285.267L593.917 245.966L592.988 263.06L592.058 295.294L591.129 251.396L590.199 274.996L589.27 243.778L588.341 257.538L587.411 217.596L586.482 126.258L585.552 110.1L584.623 301.822L583.693 289.633L582.764 328.205L581.834 309.333L580.905 317.631L579.975 297.846L579.046 296.802L578.117 298.002L577.187 307.373L576.258 320.567L575.328 312.364L574.399 309.782L573.469 324.65L572.54 315.646L571.61 326.376L570.681 306.587L569.752 313.631L568.822 308.495L567.893 294.668L566.963 288.823L566.034 301.677L565.104 296.119L564.175 289.442L563.245 292.038L562.316 300.22L561.386 282.782L560.457 305.638L559.528 281.07L558.598 294.222L557.669 311.443L556.739 311.108L555.81 306.239L554.88 272.126L553.951 290.817L553.021 317.93L552.092 259.19L551.163 288.283L550.233 296.386L549.304 289.043L548.374 247.626L547.445 257.033L546.515 271.598L545.586 275.382L544.656 289.536L543.727 289.558L542.798 298.098L541.868 292.099L540.939 302.018L540.009 298.262L539.08 286.614L538.15 269.514L537.221 289.681L536.291 305.554L535.362 310.593L534.432 280.879L533.503 272.341L532.574 301.817L531.644 294.214L530.715 302.902L529.785 301.752L528.856 284.398L527.926 286.973L526.997 309.931L526.068 293.084L525.138 312.205L524.209 305.514L523.279 308.818L522.35 275.025L521.42 301.834L520.491 275.623L519.561 284.538L518.632 290.001L517.702 295.044L516.773 284.302L515.844 267.096L514.914 281.674L513.985 269.81L513.055 285.262L512.126 265.013L511.196 264.543L510.267 270.813L509.337 284.064L508.408 299.365L507.479 297.678L506.549 305.855L505.62 293.961L504.69 258.908L503.761 262.557L502.831 242.574L501.902 255.163L500.972 249.433L500.043 249.838L499.113 279.742L498.184 284.414L497.255 274.69L496.325 185.915L495.396 271.198L494.466 281.229L493.537 274.626L492.607 289.41L491.678 284.649L490.748 302.856L489.819 291.766L488.89 280.693L487.96 282.527L487.031 311.298L486.101 299.016L485.172 279.485L484.242 289.499L483.313 266.246L482.383 273.851L481.454 257.347L480.525 287.382L479.595 313.27L478.666 323.451L477.736 324.413L476.807 332.112L475.877 312.282L474.948 328.638L474.018 311.182L473.089 304.477L472.16 289.978L471.23 304.403L470.301 293.987L469.371 319.141L468.442 316.713L467.512 310.749L466.583 313.991L465.653 326.971L464.724 329.698L463.794 318.779L462.865 303.725L461.936 320.452L461.006 305.208L460.077 325.41L459.147 321.113L458.218 327.753L457.288 311.246L456.359 316.605L455.429 320.533L454.5 325.814L453.571 330.765L452.641 325.728L451.712 320.086L450.782 317.673L449.853 323.25L448.923 290.219L447.994 316.758L447.064 334.603L446.135 314.806L445.206 288.466L444.276 280.562L443.347 328.691L442.417 338.58L441.488 327.184L440.558 312.473L439.629 311.206L438.699 318.542L437.77 327.681L436.84 304.47L435.911 312.704L434.982 330.354L434.052 333.725L433.123 329.425L432.193 327.615L431.264 324.139L430.334 327.722L429.405 327.911L428.475 320.166L427.546 332.65L426.617 326.103L425.687 331.394L424.758 305.366L423.828 327.953L422.899 326.926L421.969 331.654L421.04 332.572L420.11 340.065L419.181 329.595L418.252 317.738L417.322 314.24L416.393 320.346L415.463 334.21L414.534 330.51L413.604 325.257L412.675 323.882L411.745 336.388L410.816 332.492L409.887 335.941L408.957 322.101L408.028 316.047L407.098 309.422L406.169 312.999L405.239 283.179L404.31 294.348L403.38 301.478L402.451 310.469L401.521 315.932L400.592 330.434L399.663 317.794L398.733 310.649L397.804 296.081L396.874 308.238L395.945 303.034L395.015 320.637L394.086 323.472L393.156 316.942L392.227 322.882L391.298 314.87L390.368 309.542L389.439 319.437L388.509 324.448L387.58 308.102L386.65 304.456L385.721 299.414L384.791 316.872L383.862 303.327L382.933 302.838L382.003 309.429L381.074 301.885L380.144 288.764L379.215 295.29L378.285 292.03L377.356 300.51L376.426 306.183L375.497 301.696L374.567 288.428L373.638 335.808L372.709 332.936L371.779 315.942L370.85 298.628L369.92 298.598L368.991 311.95L368.061 298.638L367.132 298.57L366.202 310.988L365.273 322.131L364.344 316.586L363.414 329.628L362.485 319.247L361.555 302.497L360.626 308.868L359.696 334.213L358.767 321.979L357.837 326.826L356.908 327.238L355.979 317.899L355.049 327.151L354.12 341.572L353.19 330.785L352.261 321.478L351.331 314.878L350.402 251.266L349.472 322.988L348.543 331.266L347.613 340.379L346.684 306.016L345.755 288.198L344.825 330.126L343.896 319.314L342.966 324.256L342.037 323.446L341.107 315.121L340.178 323.032L339.248 324.978L338.319 306.222L337.39 327.345L336.46 336.806L335.531 316.568L334.601 298.135L333.672 320.57L332.742 329.958L331.813 323.454L330.883 333.098L329.954 328.583L329.025 312.786L328.095 329.196L327.166 336.723L326.236 318.183L325.307 312.443L324.377 304.844L323.448 329.478L322.518 320.486L321.589 329.586L320.66 328.387L319.73 332.089L318.801 318.936L317.871 314.39L316.942 321.214L316.012 316.784L315.083 322.514L314.153 331.077L313.224 323.684L312.294 331.446L311.365 313.071L310.436 335.975L309.506 328.877L308.577 323.27L307.647 322.635L306.718 303.16L305.788 327.181L304.859 329.541L303.929 334.717L303 325.057L302.071 311.84L301.141 325.038L300.212 305.598L299.282 315.023L298.353 336.085L297.423 312.462L296.494 305.184L295.564 319.951L294.635 330.677L293.706 316.428L292.776 280.611L291.847 330.894L290.917 321.966L289.988 322.725L289.058 325.838L288.129 302.306L287.199 300.799L286.27 326.374L285.34 332.124L284.411 312.62L283.482 321.724L282.552 310.06L281.623 310.92L280.693 297.175L279.764 323.866L278.834 314.889L277.905 311.94L276.975 285.278L276.046 323.128L275.117 293.538L274.187 315.294L273.258 336.23L272.328 312.492L271.399 320.425L270.469 323.812L269.54 323.998L268.61 294.713L267.681 298.643L266.752 339.216L265.822 320.06L264.893 339.738L263.963 348.046L263.034 341.136L262.104 325.591L261.175 345.389L260.245 328.733L259.316 336.775L258.387 321.024L257.457 350.444L256.528 339.235L255.598 334.595L254.669 329.592L253.739 343.346L252.81 343.878L251.88 349.384L250.951 353.739L250.021 342.995L249.092 342.689L248.163 346.819L247.233 343.014L246.304 351.797L245.374 340.66L244.445 343.823L243.515 337.37L242.586 350.615L241.656 348.625L240.727 350.967L239.798 338.488L238.868 350.998L237.939 350.791L237.009 344.192L236.08 355.278L235.15 357.045L234.221 356.542L233.291 358.05L232.362 351.202L231.433 358.938L230.503 356.918L229.574 359.45L228.644 359.377L227.715 347.985L226.785 355.575L225.856 347.72L224.926 341.874L223.997 351.974L223.067 350.11L222.138 358.307L221.209 358.659L220.279 358.137L219.35 359.266L218.42 359.766L217.491 359.61L216.561 359.48L215.632 359.489L214.702 359.065L213.773 359.396L212.844 359.493L211.914 359.007L210.985 357.716L210.055 356.092L209.126 359.326L208.196 359.895L207.267 359.844L206.337 359.776L205.408 356.14L204.479 359.58L203.549 359.791L202.62 356.386L201.69 359.484L200.761 358.682L199.831 358.316L198.902 359.905L197.972 359.918L197.043 359.935L196.113 359.866L195.184 359.854L194.255 359.918L193.325 359.735L192.396 359.575L191.466 359.814L190.537 359.911L189.607 359.866L188.678 359.678L187.748 359.769L186.819 359.878L185.89 359.94L184.96 359.93L184.031 359.869L183.101 359.914L182.172 359.95L181.242 359.834L180.313 359.81L179.383 359.881L178.454 359.902L177.525 359.451L176.595 359.817L175.666 359.82L174.736 359.807L173.807 359.896L172.877 359.838L171.948 359.843L171.018 359.82L170.089 359.69L169.16 359.542L168.23 358.37L167.301 357.364L166.371 359.618L165.442 359.338L164.512 359.667L163.583 357.394L162.653 359.334L161.724 359.795L160.794 359.719L159.865 359.91L158.936 359.916L158.006 359.837L157.077 359.875L156.147 359.631L155.218 359.77L154.288 359.725L153.359 359.68L152.429 359.868L151.5 359.714L150.571 359.834L149.641 359.853L148.712 359.89L147.782 359.856L146.853 359.95L145.923 359.946L144.994 359.956L144.064 359.975L143.135 359.949L142.206 359.888L141.276 359.899L140.347 359.8L139.417 359.809L138.488 359.958L137.558 359.986L136.629 359.984L135.699 359.932L134.77 359.931L133.84 359.873L132.911 359.966L131.982 359.974L131.052 359.966L130.123 359.953L129.193 359.85L128.264 359.879L127.334 359.851L126.405 359.967L125.475 359.983L124.546 359.938L123.617 359.924L122.687 359.954L121.758 359.906L120.828 359.903L119.899 359.97L118.969 359.885L118.04 359.814L117.11 359.691L116.181 359.46L115.252 359.672L114.322 359.904L113.393 359.828L112.463 359.474L111.534 359.492L110.604 359.746L109.675 359.65L108.745 359.567L107.816 359.701L106.887 359.855L105.957 359.921L105.028 359.925L104.098 359.938L103.169 359.909L102.239 359.946L101.31 359.917L100.38 359.976L99.4509 359.954L98.5215 359.926L97.592 359.946L96.6626 359.963L95.7331 359.95L94.8037 359.93L93.8742 359.971L92.9448 359.869L92.0153 359.991L91.0859 359.999L90.1564 359.994L89.227 359.998L88.2975 359.996L85.5092 359.999L84.5798 359.998L83.6503 359.996L81.7914 359.998L80.862 359.999L78.0736 359.997L77.1442 359.998H76.2147H75.2853H74.3558L73.4264 359.993L72.4969 359.998L71.5675 359.998L70.638 359.994L69.7086 359.996L68.7791 359.981L67.8497 359.996L65.0613 359.998L64.1319 359.999H63.2025L62.273 359.991L61.3436 359.994L60.4141 359.998L59.4847 359.999L58.5552 359.997L57.6258 359.999H55.7669L53.908 359.998L52.9785 359.999L52.0491 359.998L51.1196 359.997L50.1902 359.999L48.3313 359.996L47.4018 359.994L46.4724 359.997L44.6135 359.994L43.684 359.996L42.7546 359.998L41.8252 359.997L40.8957 359.996L39.9663 359.998L38.1074 359.999L35.319 359.997L31.6012 359.998L30.6718 359.996L26.954 359.998L26.0245 359.994L25.0951 359.999L22.3067 359.997L21.3773 359.998L19.5184 359.998L18.589 359.998L16.7301 359.998L15.8006 359.999H14.8712H13.0123L10.2239 359.998L8.36503 359.997L7.43558 359.999L6.50613 359.995L5.57669 359.996L4.64724 359.998L2.78834 359.999H0.929448L0 359.998V360Z" fill="#15D6FF"/>
<path d="M0 360H606" stroke="#15D6FF" stroke-dasharray="4 4"/>
<path d="M0 320H606" stroke="#15D6FF" stroke-dasharray="4 4"/>
<path d="M0 280H606" stroke="#15D6FF" stroke-dasharray="4 4"/>
<path d="M0 240H606" stroke="#15D6FF" stroke-dasharray="4 4"/>
<path d="M0 200H606" stroke="#15D6FF" stroke-dasharray="4 4"/>
<path d="M0 160H606" stroke="#15D6FF" stroke-dasharray="4 4"/>
<path d="M0 120H606" stroke="#15D6FF" stroke-dasharray="4 4"/>
<path d="M0 80H606" stroke="#15D6FF" stroke-dasharray="4 4"/>
<path d="M0 40H606" stroke="#15D6FF" stroke-dasharray="4 4"/>
<path d="M0 0H606" stroke="#15D6FF" stroke-dasharray="4 4"/>
<path opacity="0.6" d="M0 360.5V360.882" stroke="#15D6FF" stroke-linecap="square"/>
<path opacity="0.6" d="M2.78833 360.5V360.882" stroke="#15D6FF" stroke-linecap="square"/>
<path opacity="0.6" d="M5.57666 360.5V360.882" stroke="#15D6FF" stroke-linecap="square"/>
<path opacity="0.6" d="M7.43555 360.5V360.882" stroke="#15D6FF" stroke-linecap="square"/>
<path opacity="0.6" d="M10.2239 360.5V360.882" stroke="#15D6FF" stroke-linecap="square"/>
<path opacity="0.6" d="M14.8712 360.5V360.882" stroke="#15D6FF" stroke-linecap="square"/>
<path opacity="0.6" d="M16.7301 360.5V360.882" stroke="#15D6FF" stroke-linecap="square"/>
<path opacity="0.6" d="M19.5184 360.5V360.882" stroke="#15D6FF" stroke-linecap="square"/>
<path opacity="0.6" d="M22.3068 360.5V360.882" stroke="#15D6FF" stroke-linecap="square"/>
<path opacity="0.6" d="M26.0245 360.5V360.882" stroke="#15D6FF" stroke-linecap="square"/>
<path opacity="0.6" d="M30.6718 360.5V360.882" stroke="#15D6FF" stroke-linecap="square"/>
<path opacity="0.6" d="M35.319 360.5V360.882" stroke="#15D6FF" stroke-linecap="square"/>
<path opacity="0.6" d="M39.9663 360.5V360.882" stroke="#15D6FF" stroke-linecap="square"/>
<path opacity="0.6" d="M41.8252 360.5V360.882" stroke="#15D6FF" stroke-linecap="square"/>
<path opacity="0.6" d="M43.6841 360.5V360.882" stroke="#15D6FF" stroke-linecap="square"/>
<path opacity="0.6" d="M46.4724 360.5V360.882" stroke="#15D6FF" stroke-linecap="square"/>
<path opacity="0.6" d="M48.3313 360.5V360.882" stroke="#15D6FF" stroke-linecap="square"/>
<path opacity="0.6" d="M51.1196 360.5V360.882" stroke="#15D6FF" stroke-linecap="square"/>
<path opacity="0.6" d="M52.9785 360.5V360.882" stroke="#15D6FF" stroke-linecap="square"/>
<path opacity="0.6" d="M55.7668 360.5V360.882" stroke="#15D6FF" stroke-linecap="square"/>
<path opacity="0.6" d="M58.5552 360.5V360.882" stroke="#15D6FF" stroke-linecap="square"/>
<path opacity="0.6" d="M60.4141 360.5V360.882" stroke="#15D6FF" stroke-linecap="square"/>
<path opacity="0.6" d="M62.2729 360.5V360.882" stroke="#15D6FF" stroke-linecap="square"/>
<path opacity="0.6" d="M64.132 360.5V360.882" stroke="#15D6FF" stroke-linecap="square"/>
<path opacity="0.6" d="M67.8497 360.5V360.882" stroke="#15D6FF" stroke-linecap="square"/>
<path opacity="0.6" d="M69.7086 360.5V360.882" stroke="#15D6FF" stroke-linecap="square"/>
<path opacity="0.6" d="M71.5675 360.5V360.882" stroke="#15D6FF" stroke-linecap="square"/>
<path opacity="0.6" d="M73.4264 360.5V360.882" stroke="#15D6FF" stroke-linecap="square"/>
<path opacity="0.6" d="M75.2853 360.5V360.882" stroke="#15D6FF" stroke-linecap="square"/>
<path opacity="0.6" d="M77.1442 360.5V360.882" stroke="#15D6FF" stroke-linecap="square"/>
<path opacity="0.6" d="M80.8619 360.5V360.882" stroke="#15D6FF" stroke-linecap="square"/>
<path opacity="0.6" d="M83.6503 360.5V360.882" stroke="#15D6FF" stroke-linecap="square"/>
<path opacity="0.6" d="M85.5092 360.5V360.882" stroke="#15D6FF" stroke-linecap="square"/>
<path opacity="0.6" d="M89.2271 360.5V360.882" stroke="#15D6FF" stroke-linecap="square"/>
<path opacity="0.6" d="M91.0859 360.5V360.882" stroke="#15D6FF" stroke-linecap="square"/>
<path opacity="0.6" d="M92.9448 360.5V360.882" stroke="#15D6FF" stroke-linecap="square"/>
<path opacity="0.6" d="M94.8037 360.5V360.882" stroke="#15D6FF" stroke-linecap="square"/>
<path opacity="0.6" d="M96.6626 360.5V360.882" stroke="#15D6FF" stroke-linecap="square"/>
<path opacity="0.6" d="M98.5215 360.5V360.882" stroke="#15D6FF" stroke-linecap="square"/>
<path opacity="0.6" d="M100.38 360.5V360.882" stroke="#15D6FF" stroke-linecap="square"/>
<path opacity="0.6" d="M102.239 360.5V360.882" stroke="#15D6FF" stroke-linecap="square"/>
<path opacity="0.6" d="M104.098 360.5V360.882" stroke="#15D6FF" stroke-linecap="square"/>
<path opacity="0.6" d="M105.957 360.5V360.882" stroke="#15D6FF" stroke-linecap="square"/>
<path opacity="0.6" d="M107.816 360.5V360.882" stroke="#15D6FF" stroke-linecap="square"/>
<path opacity="0.6" d="M109.675 360.5V360.882" stroke="#15D6FF" stroke-linecap="square"/>
<path opacity="0.6" d="M111.534 360.5V360.882" stroke="#15D6FF" stroke-linecap="square"/>
<path opacity="0.6" d="M113.393 360.5V360.882" stroke="#15D6FF" stroke-linecap="square"/>
<path opacity="0.6" d="M115.252 360.5V360.882" stroke="#15D6FF" stroke-linecap="square"/>
<path opacity="0.6" d="M117.11 360.5V360.882" stroke="#15D6FF" stroke-linecap="square"/>
<path opacity="0.6" d="M118.969 360.5V360.882" stroke="#15D6FF" stroke-linecap="square"/>
<path opacity="0.6" d="M120.828 360.5V360.882" stroke="#15D6FF" stroke-linecap="square"/>
<path opacity="0.6" d="M122.687 360.5V360.882" stroke="#15D6FF" stroke-linecap="square"/>
<path opacity="0.6" d="M124.546 360.5V360.882" stroke="#15D6FF" stroke-linecap="square"/>
<path opacity="0.6" d="M126.405 360.5V360.882" stroke="#15D6FF" stroke-linecap="square"/>
<path opacity="0.6" d="M128.264 360.5V360.882" stroke="#15D6FF" stroke-linecap="square"/>
<path opacity="0.6" d="M130.123 360.5V360.882" stroke="#15D6FF" stroke-linecap="square"/>
<path opacity="0.6" d="M131.982 360.5V360.882" stroke="#15D6FF" stroke-linecap="square"/>
<path opacity="0.6" d="M133.84 360.5V360.882" stroke="#15D6FF" stroke-linecap="square"/>
<path opacity="0.6" d="M135.699 360.5V360.882" stroke="#15D6FF" stroke-linecap="square"/>
<path opacity="0.6" d="M137.558 360.5V360.882" stroke="#15D6FF" stroke-linecap="square"/>
<path opacity="0.6" d="M139.417 360.5V360.882" stroke="#15D6FF" stroke-linecap="square"/>
<path opacity="0.6" d="M141.276 360.5V360.882" stroke="#15D6FF" stroke-linecap="square"/>
<path opacity="0.6" d="M143.135 360.5V360.882" stroke="#15D6FF" stroke-linecap="square"/>
<path opacity="0.6" d="M144.994 360.5V360.882" stroke="#15D6FF" stroke-linecap="square"/>
<path opacity="0.6" d="M146.853 360.5V360.882" stroke="#15D6FF" stroke-linecap="square"/>
<path opacity="0.6" d="M148.712 360.5V360.882" stroke="#15D6FF" stroke-linecap="square"/>
<path opacity="0.6" d="M150.571 360.5V360.882" stroke="#15D6FF" stroke-linecap="square"/>
<path opacity="0.6" d="M152.429 360.5V360.882" stroke="#15D6FF" stroke-linecap="square"/>
<path opacity="0.6" d="M154.288 360.5V360.882" stroke="#15D6FF" stroke-linecap="square"/>
<path opacity="0.6" d="M156.147 360.5V360.882" stroke="#15D6FF" stroke-linecap="square"/>
<path opacity="0.6" d="M158.006 360.5V360.882" stroke="#15D6FF" stroke-linecap="square"/>
<path opacity="0.6" d="M159.865 360.5V360.882" stroke="#15D6FF" stroke-linecap="square"/>
<path opacity="0.6" d="M161.724 360.5V360.882" stroke="#15D6FF" stroke-linecap="square"/>
<path opacity="0.6" d="M163.583 360.5V360.882" stroke="#15D6FF" stroke-linecap="square"/>
<path opacity="0.6" d="M165.442 360.5V360.882" stroke="#15D6FF" stroke-linecap="square"/>
<path opacity="0.6" d="M167.301 360.5V360.882" stroke="#15D6FF" stroke-linecap="square"/>
<path opacity="0.6" d="M169.16 360.5V360.882" stroke="#15D6FF" stroke-linecap="square"/>
<path opacity="0.6" d="M171.018 360.5V360.882" stroke="#15D6FF" stroke-linecap="square"/>
<path opacity="0.6" d="M172.877 360.5V360.882" stroke="#15D6FF" stroke-linecap="square"/>
<path opacity="0.6" d="M174.736 360.5V360.882" stroke="#15D6FF" stroke-linecap="square"/>
<path opacity="0.6" d="M176.595 360.5V360.882" stroke="#15D6FF" stroke-linecap="square"/>
<path opacity="0.6" d="M178.454 360.5V360.882" stroke="#15D6FF" stroke-linecap="square"/>
<path opacity="0.6" d="M180.313 360.5V360.882" stroke="#15D6FF" stroke-linecap="square"/>
<path opacity="0.6" d="M182.172 360.5V360.882" stroke="#15D6FF" stroke-linecap="square"/>
<path opacity="0.6" d="M184.031 360.5V360.882" stroke="#15D6FF" stroke-linecap="square"/>
<path opacity="0.6" d="M185.89 360.5V360.882" stroke="#15D6FF" stroke-linecap="square"/>
<path opacity="0.6" d="M187.748 360.5V360.882" stroke="#15D6FF" stroke-linecap="square"/>
<path opacity="0.6" d="M189.607 360.5V360.882" stroke="#15D6FF" stroke-linecap="square"/>
<path opacity="0.6" d="M191.466 360.5V360.882" stroke="#15D6FF" stroke-linecap="square"/>
<path opacity="0.6" d="M193.325 360.5V360.882" stroke="#15D6FF" stroke-linecap="square"/>
<path opacity="0.6" d="M195.184 360.5V360.882" stroke="#15D6FF" stroke-linecap="square"/>
<path opacity="0.6" d="M197.043 360.5V360.882" stroke="#15D6FF" stroke-linecap="square"/>
<path opacity="0.6" d="M198.902 360.5V360.882" stroke="#15D6FF" stroke-linecap="square"/>
<path opacity="0.6" d="M200.761 360.5V360.882" stroke="#15D6FF" stroke-linecap="square"/>
<path opacity="0.6" d="M202.62 360.5V360.882" stroke="#15D6FF" stroke-linecap="square"/>
<path opacity="0.6" d="M204.479 360.5V360.882" stroke="#15D6FF" stroke-linecap="square"/>
<path opacity="0.6" d="M206.337 360.5V360.882" stroke="#15D6FF" stroke-linecap="square"/>
<path opacity="0.6" d="M208.196 360.5V360.882" stroke="#15D6FF" stroke-linecap="square"/>
<path opacity="0.6" d="M210.055 360.5V360.882" stroke="#15D6FF" stroke-linecap="square"/>
<path opacity="0.6" d="M211.914 360.5V360.882" stroke="#15D6FF" stroke-linecap="square"/>
<path opacity="0.6" d="M213.773 360.5V360.882" stroke="#15D6FF" stroke-linecap="square"/>
<path opacity="0.6" d="M215.632 360.5V360.882" stroke="#15D6FF" stroke-linecap="square"/>
<path opacity="0.6" d="M217.491 360.5V360.882" stroke="#15D6FF" stroke-linecap="square"/>
<path opacity="0.6" d="M219.35 360.5V360.882" stroke="#15D6FF" stroke-linecap="square"/>
<path opacity="0.6" d="M221.209 360.5V360.882" stroke="#15D6FF" stroke-linecap="square"/>
<path opacity="0.6" d="M223.068 360.5V360.882" stroke="#15D6FF" stroke-linecap="square"/>
<path opacity="0.6" d="M224.926 360.5V360.882" stroke="#15D6FF" stroke-linecap="square"/>
<path opacity="0.6" d="M226.785 360.5V360.882" stroke="#15D6FF" stroke-linecap="square"/>
<path opacity="0.6" d="M228.644 360.5V360.882" stroke="#15D6FF" stroke-linecap="square"/>
<path opacity="0.6" d="M230.503 360.5V360.882" stroke="#15D6FF" stroke-linecap="square"/>
<path opacity="0.6" d="M232.362 360.5V360.882" stroke="#15D6FF" stroke-linecap="square"/>
<path opacity="0.6" d="M234.221 360.5V360.882" stroke="#15D6FF" stroke-linecap="square"/>
<path opacity="0.6" d="M236.08 360.5V360.882" stroke="#15D6FF" stroke-linecap="square"/>
<path opacity="0.6" d="M237.939 360.5V360.882" stroke="#15D6FF" stroke-linecap="square"/>
<path opacity="0.6" d="M239.798 360.5V360.882" stroke="#15D6FF" stroke-linecap="square"/>
<path opacity="0.6" d="M241.656 360.5V360.882" stroke="#15D6FF" stroke-linecap="square"/>
<path opacity="0.6" d="M243.515 360.5V360.882" stroke="#15D6FF" stroke-linecap="square"/>
<path opacity="0.6" d="M245.374 360.5V360.882" stroke="#15D6FF" stroke-linecap="square"/>
<path opacity="0.6" d="M247.233 360.5V360.882" stroke="#15D6FF" stroke-linecap="square"/>
<path opacity="0.6" d="M249.092 360.5V360.882" stroke="#15D6FF" stroke-linecap="square"/>
<path opacity="0.6" d="M250.951 360.5V360.882" stroke="#15D6FF" stroke-linecap="square"/>
<path opacity="0.6" d="M252.81 360.5V360.882" stroke="#15D6FF" stroke-linecap="square"/>
<path opacity="0.6" d="M254.669 360.5V360.882" stroke="#15D6FF" stroke-linecap="square"/>
<path opacity="0.6" d="M256.528 360.5V360.882" stroke="#15D6FF" stroke-linecap="square"/>
<path opacity="0.6" d="M258.386 360.5V360.882" stroke="#15D6FF" stroke-linecap="square"/>
<path opacity="0.6" d="M260.245 360.5V360.882" stroke="#15D6FF" stroke-linecap="square"/>
<path opacity="0.6" d="M262.104 360.5V360.882" stroke="#15D6FF" stroke-linecap="square"/>
<path opacity="0.6" d="M263.963 360.5V360.882" stroke="#15D6FF" stroke-linecap="square"/>
<path opacity="0.6" d="M265.822 360.5V360.882" stroke="#15D6FF" stroke-linecap="square"/>
<path opacity="0.6" d="M267.681 360.5V360.882" stroke="#15D6FF" stroke-linecap="square"/>
<path opacity="0.6" d="M269.54 360.5V360.882" stroke="#15D6FF" stroke-linecap="square"/>
<path opacity="0.6" d="M271.399 360.5V360.882" stroke="#15D6FF" stroke-linecap="square"/>
<path opacity="0.6" d="M273.258 360.5V360.882" stroke="#15D6FF" stroke-linecap="square"/>
<path opacity="0.6" d="M275.117 360.5V360.882" stroke="#15D6FF" stroke-linecap="square"/>
<path opacity="0.6" d="M276.975 360.5V360.882" stroke="#15D6FF" stroke-linecap="square"/>
<path opacity="0.6" d="M278.834 360.5V360.882" stroke="#15D6FF" stroke-linecap="square"/>
<path opacity="0.6" d="M280.693 360.5V360.882" stroke="#15D6FF" stroke-linecap="square"/>
<path opacity="0.6" d="M282.552 360.5V360.882" stroke="#15D6FF" stroke-linecap="square"/>
<path opacity="0.6" d="M284.411 360.5V360.882" stroke="#15D6FF" stroke-linecap="square"/>
<path opacity="0.6" d="M286.27 360.5V360.882" stroke="#15D6FF" stroke-linecap="square"/>
<path opacity="0.6" d="M288.129 360.5V360.882" stroke="#15D6FF" stroke-linecap="square"/>
<path opacity="0.6" d="M289.988 360.5V360.882" stroke="#15D6FF" stroke-linecap="square"/>
<path opacity="0.6" d="M291.847 360.5V360.882" stroke="#15D6FF" stroke-linecap="square"/>
<path opacity="0.6" d="M293.706 360.5V360.882" stroke="#15D6FF" stroke-linecap="square"/>
<path opacity="0.6" d="M295.564 360.5V360.882" stroke="#15D6FF" stroke-linecap="square"/>
<path opacity="0.6" d="M297.423 360.5V360.882" stroke="#15D6FF" stroke-linecap="square"/>
<path opacity="0.6" d="M299.282 360.5V360.882" stroke="#15D6FF" stroke-linecap="square"/>
<path opacity="0.6" d="M301.141 360.5V360.882" stroke="#15D6FF" stroke-linecap="square"/>
<path opacity="0.6" d="M303 360.5V360.882" stroke="#15D6FF" stroke-linecap="square"/>
<path opacity="0.6" d="M304.859 360.5V360.882" stroke="#15D6FF" stroke-linecap="square"/>
<path opacity="0.6" d="M306.718 360.5V360.882" stroke="#15D6FF" stroke-linecap="square"/>
<path opacity="0.6" d="M308.577 360.5V360.882" stroke="#15D6FF" stroke-linecap="square"/>
<path opacity="0.6" d="M310.436 360.5V360.882" stroke="#15D6FF" stroke-linecap="square"/>
<path opacity="0.6" d="M312.294 360.5V360.882" stroke="#15D6FF" stroke-linecap="square"/>
<path opacity="0.6" d="M314.153 360.5V360.882" stroke="#15D6FF" stroke-linecap="square"/>
<path opacity="0.6" d="M316.012 360.5V360.882" stroke="#15D6FF" stroke-linecap="square"/>
<path opacity="0.6" d="M317.871 360.5V360.882" stroke="#15D6FF" stroke-linecap="square"/>
<path opacity="0.6" d="M319.73 360.5V360.882" stroke="#15D6FF" stroke-linecap="square"/>
<path opacity="0.6" d="M321.589 360.5V360.882" stroke="#15D6FF" stroke-linecap="square"/>
<path opacity="0.6" d="M323.448 360.5V360.882" stroke="#15D6FF" stroke-linecap="square"/>
<path opacity="0.6" d="M325.307 360.5V360.882" stroke="#15D6FF" stroke-linecap="square"/>
<path opacity="0.6" d="M327.166 360.5V360.882" stroke="#15D6FF" stroke-linecap="square"/>
<path opacity="0.6" d="M329.025 360.5V360.882" stroke="#15D6FF" stroke-linecap="square"/>
<path opacity="0.6" d="M330.883 360.5V360.882" stroke="#15D6FF" stroke-linecap="square"/>
<path opacity="0.6" d="M332.742 360.5V360.882" stroke="#15D6FF" stroke-linecap="square"/>
<path opacity="0.6" d="M334.601 360.5V360.882" stroke="#15D6FF" stroke-linecap="square"/>
<path opacity="0.6" d="M336.46 360.5V360.882" stroke="#15D6FF" stroke-linecap="square"/>
<path opacity="0.6" d="M338.319 360.5V360.882" stroke="#15D6FF" stroke-linecap="square"/>
<path opacity="0.6" d="M340.178 360.5V360.882" stroke="#15D6FF" stroke-linecap="square"/>
<path opacity="0.6" d="M342.037 360.5V360.882" stroke="#15D6FF" stroke-linecap="square"/>
<path opacity="0.6" d="M343.896 360.5V360.882" stroke="#15D6FF" stroke-linecap="square"/>
<path opacity="0.6" d="M345.755 360.5V360.882" stroke="#15D6FF" stroke-linecap="square"/>
<path opacity="0.6" d="M347.614 360.5V360.882" stroke="#15D6FF" stroke-linecap="square"/>
<path opacity="0.6" d="M349.472 360.5V360.882" stroke="#15D6FF" stroke-linecap="square"/>
<path opacity="0.6" d="M351.331 360.5V360.882" stroke="#15D6FF" stroke-linecap="square"/>
<path opacity="0.6" d="M353.19 360.5V360.882" stroke="#15D6FF" stroke-linecap="square"/>
<path opacity="0.6" d="M355.049 360.5V360.882" stroke="#15D6FF" stroke-linecap="square"/>
<path opacity="0.6" d="M356.908 360.5V360.882" stroke="#15D6FF" stroke-linecap="square"/>
<path opacity="0.6" d="M358.767 360.5V360.882" stroke="#15D6FF" stroke-linecap="square"/>
<path opacity="0.6" d="M360.626 360.5V360.882" stroke="#15D6FF" stroke-linecap="square"/>
<path opacity="0.6" d="M362.485 360.5V360.882" stroke="#15D6FF" stroke-linecap="square"/>
<path opacity="0.6" d="M364.344 360.5V360.882" stroke="#15D6FF" stroke-linecap="square"/>
<path opacity="0.6" d="M366.202 360.5V360.882" stroke="#15D6FF" stroke-linecap="square"/>
<path opacity="0.6" d="M368.061 360.5V360.882" stroke="#15D6FF" stroke-linecap="square"/>
<path opacity="0.6" d="M369.92 360.5V360.882" stroke="#15D6FF" stroke-linecap="square"/>
<path opacity="0.6" d="M371.779 360.5V360.882" stroke="#15D6FF" stroke-linecap="square"/>
<path opacity="0.6" d="M373.638 360.5V360.882" stroke="#15D6FF" stroke-linecap="square"/>
<path opacity="0.6" d="M375.497 360.5V360.882" stroke="#15D6FF" stroke-linecap="square"/>
<path opacity="0.6" d="M377.356 360.5V360.882" stroke="#15D6FF" stroke-linecap="square"/>
<path opacity="0.6" d="M379.215 360.5V360.882" stroke="#15D6FF" stroke-linecap="square"/>
<path opacity="0.6" d="M381.074 360.5V360.882" stroke="#15D6FF" stroke-linecap="square"/>
<path opacity="0.6" d="M382.932 360.5V360.882" stroke="#15D6FF" stroke-linecap="square"/>
<path opacity="0.6" d="M384.791 360.5V360.882" stroke="#15D6FF" stroke-linecap="square"/>
<path opacity="0.6" d="M386.65 360.5V360.882" stroke="#15D6FF" stroke-linecap="square"/>
<path opacity="0.6" d="M388.509 360.5V360.882" stroke="#15D6FF" stroke-linecap="square"/>
<path opacity="0.6" d="M390.368 360.5V360.882" stroke="#15D6FF" stroke-linecap="square"/>
<path opacity="0.6" d="M392.227 360.5V360.882" stroke="#15D6FF" stroke-linecap="square"/>
<path opacity="0.6" d="M394.086 360.5V360.882" stroke="#15D6FF" stroke-linecap="square"/>
<path opacity="0.6" d="M395.945 360.5V360.882" stroke="#15D6FF" stroke-linecap="square"/>
<path opacity="0.6" d="M397.804 360.5V360.882" stroke="#15D6FF" stroke-linecap="square"/>
<path opacity="0.6" d="M399.663 360.5V360.882" stroke="#15D6FF" stroke-linecap="square"/>
<path opacity="0.6" d="M401.521 360.5V360.882" stroke="#15D6FF" stroke-linecap="square"/>
<path opacity="0.6" d="M403.38 360.5V360.882" stroke="#15D6FF" stroke-linecap="square"/>
<path opacity="0.6" d="M405.239 360.5V360.882" stroke="#15D6FF" stroke-linecap="square"/>
<path opacity="0.6" d="M407.098 360.5V360.882" stroke="#15D6FF" stroke-linecap="square"/>
<path opacity="0.6" d="M408.957 360.5V360.882" stroke="#15D6FF" stroke-linecap="square"/>
<path opacity="0.6" d="M410.816 360.5V360.882" stroke="#15D6FF" stroke-linecap="square"/>
<path opacity="0.6" d="M412.675 360.5V360.882" stroke="#15D6FF" stroke-linecap="square"/>
<path opacity="0.6" d="M414.534 360.5V360.882" stroke="#15D6FF" stroke-linecap="square"/>
<path opacity="0.6" d="M416.393 360.5V360.882" stroke="#15D6FF" stroke-linecap="square"/>
<path opacity="0.6" d="M418.251 360.5V360.882" stroke="#15D6FF" stroke-linecap="square"/>
<path opacity="0.6" d="M420.11 360.5V360.882" stroke="#15D6FF" stroke-linecap="square"/>
<path opacity="0.6" d="M421.969 360.5V360.882" stroke="#15D6FF" stroke-linecap="square"/>
<path opacity="0.6" d="M423.828 360.5V360.882" stroke="#15D6FF" stroke-linecap="square"/>
<path opacity="0.6" d="M425.687 360.5V360.882" stroke="#15D6FF" stroke-linecap="square"/>
<path opacity="0.6" d="M427.546 360.5V360.882" stroke="#15D6FF" stroke-linecap="square"/>
<path opacity="0.6" d="M429.405 360.5V360.882" stroke="#15D6FF" stroke-linecap="square"/>
<path opacity="0.6" d="M431.264 360.5V360.882" stroke="#15D6FF" stroke-linecap="square"/>
<path opacity="0.6" d="M433.123 360.5V360.882" stroke="#15D6FF" stroke-linecap="square"/>
<path opacity="0.6" d="M434.982 360.5V360.882" stroke="#15D6FF" stroke-linecap="square"/>
<path opacity="0.6" d="M436.84 360.5V360.882" stroke="#15D6FF" stroke-linecap="square"/>
<path opacity="0.6" d="M438.699 360.5V360.882" stroke="#15D6FF" stroke-linecap="square"/>
<path opacity="0.6" d="M440.558 360.5V360.882" stroke="#15D6FF" stroke-linecap="square"/>
<path opacity="0.6" d="M442.417 360.5V360.882" stroke="#15D6FF" stroke-linecap="square"/>
<path opacity="0.6" d="M444.276 360.5V360.882" stroke="#15D6FF" stroke-linecap="square"/>
<path opacity="0.6" d="M446.135 360.5V360.882" stroke="#15D6FF" stroke-linecap="square"/>
<path opacity="0.6" d="M447.994 360.5V360.882" stroke="#15D6FF" stroke-linecap="square"/>
<path opacity="0.6" d="M449.853 360.5V360.882" stroke="#15D6FF" stroke-linecap="square"/>
<path opacity="0.6" d="M451.712 360.5V360.882" stroke="#15D6FF" stroke-linecap="square"/>
<path opacity="0.6" d="M453.571 360.5V360.882" stroke="#15D6FF" stroke-linecap="square"/>
<path opacity="0.6" d="M455.429 360.5V360.882" stroke="#15D6FF" stroke-linecap="square"/>
<path opacity="0.6" d="M457.288 360.5V360.882" stroke="#15D6FF" stroke-linecap="square"/>
<path opacity="0.6" d="M459.147 360.5V360.882" stroke="#15D6FF" stroke-linecap="square"/>
<path opacity="0.6" d="M461.006 360.5V360.882" stroke="#15D6FF" stroke-linecap="square"/>
<path opacity="0.6" d="M462.865 360.5V360.882" stroke="#15D6FF" stroke-linecap="square"/>
<path opacity="0.6" d="M464.724 360.5V360.882" stroke="#15D6FF" stroke-linecap="square"/>
<path opacity="0.6" d="M466.583 360.5V360.882" stroke="#15D6FF" stroke-linecap="square"/>
<path opacity="0.6" d="M468.442 360.5V360.882" stroke="#15D6FF" stroke-linecap="square"/>
<path opacity="0.6" d="M470.301 360.5V360.882" stroke="#15D6FF" stroke-linecap="square"/>
<path opacity="0.6" d="M472.16 360.5V360.882" stroke="#15D6FF" stroke-linecap="square"/>
<path opacity="0.6" d="M474.018 360.5V360.882" stroke="#15D6FF" stroke-linecap="square"/>
<path opacity="0.6" d="M475.877 360.5V360.882" stroke="#15D6FF" stroke-linecap="square"/>
<path opacity="0.6" d="M477.736 360.5V360.882" stroke="#15D6FF" stroke-linecap="square"/>
<path opacity="0.6" d="M479.595 360.5V360.882" stroke="#15D6FF" stroke-linecap="square"/>
<path opacity="0.6" d="M481.454 360.5V360.882" stroke="#15D6FF" stroke-linecap="square"/>
<path opacity="0.6" d="M483.313 360.5V360.882" stroke="#15D6FF" stroke-linecap="square"/>
<path opacity="0.6" d="M485.172 360.5V360.882" stroke="#15D6FF" stroke-linecap="square"/>
<path opacity="0.6" d="M487.031 360.5V360.882" stroke="#15D6FF" stroke-linecap="square"/>
<path opacity="0.6" d="M488.89 360.5V360.882" stroke="#15D6FF" stroke-linecap="square"/>
<path opacity="0.6" d="M490.749 360.5V360.882" stroke="#15D6FF" stroke-linecap="square"/>
<path opacity="0.6" d="M492.607 360.5V360.882" stroke="#15D6FF" stroke-linecap="square"/>
<path opacity="0.6" d="M494.466 360.5V360.882" stroke="#15D6FF" stroke-linecap="square"/>
<path opacity="0.6" d="M496.325 360.5V360.882" stroke="#15D6FF" stroke-linecap="square"/>
<path opacity="0.6" d="M498.184 360.5V360.882" stroke="#15D6FF" stroke-linecap="square"/>
<path opacity="0.6" d="M500.043 360.5V360.882" stroke="#15D6FF" stroke-linecap="square"/>
<path opacity="0.6" d="M501.902 360.5V360.882" stroke="#15D6FF" stroke-linecap="square"/>
<path opacity="0.6" d="M503.761 360.5V360.882" stroke="#15D6FF" stroke-linecap="square"/>
<path opacity="0.6" d="M505.62 360.5V360.882" stroke="#15D6FF" stroke-linecap="square"/>
<path opacity="0.6" d="M507.479 360.5V360.882" stroke="#15D6FF" stroke-linecap="square"/>
<path opacity="0.6" d="M509.337 360.5V360.882" stroke="#15D6FF" stroke-linecap="square"/>
<path opacity="0.6" d="M511.196 360.5V360.882" stroke="#15D6FF" stroke-linecap="square"/>
<path opacity="0.6" d="M513.055 360.5V360.882" stroke="#15D6FF" stroke-linecap="square"/>
<path opacity="0.6" d="M514.914 360.5V360.882" stroke="#15D6FF" stroke-linecap="square"/>
<path opacity="0.6" d="M516.773 360.5V360.882" stroke="#15D6FF" stroke-linecap="square"/>
<path opacity="0.6" d="M518.632 360.5V360.882" stroke="#15D6FF" stroke-linecap="square"/>
<path opacity="0.6" d="M520.491 360.5V360.882" stroke="#15D6FF" stroke-linecap="square"/>
<path opacity="0.6" d="M522.35 360.5V360.882" stroke="#15D6FF" stroke-linecap="square"/>
<path opacity="0.6" d="M524.209 360.5V360.882" stroke="#15D6FF" stroke-linecap="square"/>
<path opacity="0.6" d="M526.068 360.5V360.882" stroke="#15D6FF" stroke-linecap="square"/>
<path opacity="0.6" d="M527.926 360.5V360.882" stroke="#15D6FF" stroke-linecap="square"/>
<path opacity="0.6" d="M529.785 360.5V360.882" stroke="#15D6FF" stroke-linecap="square"/>
<path opacity="0.6" d="M531.644 360.5V360.882" stroke="#15D6FF" stroke-linecap="square"/>
<path opacity="0.6" d="M533.503 360.5V360.882" stroke="#15D6FF" stroke-linecap="square"/>
<path opacity="0.6" d="M535.362 360.5V360.882" stroke="#15D6FF" stroke-linecap="square"/>
<path opacity="0.6" d="M537.221 360.5V360.882" stroke="#15D6FF" stroke-linecap="square"/>
<path opacity="0.6" d="M539.08 360.5V360.882" stroke="#15D6FF" stroke-linecap="square"/>
<path opacity="0.6" d="M540.939 360.5V360.882" stroke="#15D6FF" stroke-linecap="square"/>
<path opacity="0.6" d="M542.798 360.5V360.882" stroke="#15D6FF" stroke-linecap="square"/>
<path opacity="0.6" d="M544.656 360.5V360.882" stroke="#15D6FF" stroke-linecap="square"/>
<path opacity="0.6" d="M546.515 360.5V360.882" stroke="#15D6FF" stroke-linecap="square"/>
<path opacity="0.6" d="M548.374 360.5V360.882" stroke="#15D6FF" stroke-linecap="square"/>
<path opacity="0.6" d="M550.233 360.5V360.882" stroke="#15D6FF" stroke-linecap="square"/>
<path opacity="0.6" d="M552.092 360.5V360.882" stroke="#15D6FF" stroke-linecap="square"/>
<path opacity="0.6" d="M553.951 360.5V360.882" stroke="#15D6FF" stroke-linecap="square"/>
<path opacity="0.6" d="M555.81 360.5V360.882" stroke="#15D6FF" stroke-linecap="square"/>
<path opacity="0.6" d="M557.669 360.5V360.882" stroke="#15D6FF" stroke-linecap="square"/>
<path opacity="0.6" d="M559.528 360.5V360.882" stroke="#15D6FF" stroke-linecap="square"/>
<path opacity="0.6" d="M561.386 360.5V360.882" stroke="#15D6FF" stroke-linecap="square"/>
<path opacity="0.6" d="M563.245 360.5V360.882" stroke="#15D6FF" stroke-linecap="square"/>
<path opacity="0.6" d="M565.104 360.5V360.882" stroke="#15D6FF" stroke-linecap="square"/>
<path opacity="0.6" d="M566.963 360.5V360.882" stroke="#15D6FF" stroke-linecap="square"/>
<path opacity="0.6" d="M568.822 360.5V360.882" stroke="#15D6FF" stroke-linecap="square"/>
<path opacity="0.6" d="M570.681 360.5V360.882" stroke="#15D6FF" stroke-linecap="square"/>
<path opacity="0.6" d="M572.54 360.5V360.882" stroke="#15D6FF" stroke-linecap="square"/>
<path opacity="0.6" d="M574.399 360.5V360.882" stroke="#15D6FF" stroke-linecap="square"/>
<path opacity="0.6" d="M576.258 360.5V360.882" stroke="#15D6FF" stroke-linecap="square"/>
<path opacity="0.6" d="M578.117 360.5V360.882" stroke="#15D6FF" stroke-linecap="square"/>
<path opacity="0.6" d="M579.975 360.5V360.882" stroke="#15D6FF" stroke-linecap="square"/>
<path opacity="0.6" d="M581.834 360.5V360.882" stroke="#15D6FF" stroke-linecap="square"/>
<path opacity="0.6" d="M583.693 360.5V360.882" stroke="#15D6FF" stroke-linecap="square"/>
<path opacity="0.6" d="M585.552 360.5V360.882" stroke="#15D6FF" stroke-linecap="square"/>
<path opacity="0.6" d="M587.411 360.5V360.882" stroke="#15D6FF" stroke-linecap="square"/>
<path opacity="0.6" d="M589.27 360.5V360.882" stroke="#15D6FF" stroke-linecap="square"/>
<path opacity="0.6" d="M591.129 360.5V360.882" stroke="#15D6FF" stroke-linecap="square"/>
<path opacity="0.6" d="M592.988 360.5V360.882" stroke="#15D6FF" stroke-linecap="square"/>
<path opacity="0.6" d="M594.847 360.5V360.882" stroke="#15D6FF" stroke-linecap="square"/>
<path opacity="0.6" d="M596.706 360.5V360.882" stroke="#15D6FF" stroke-linecap="square"/>
<path opacity="0.6" d="M598.564 360.5V360.882" stroke="#15D6FF" stroke-linecap="square"/>
<path opacity="0.6" d="M600.423 360.5V360.882" stroke="#15D6FF" stroke-linecap="square"/>
<path opacity="0.6" d="M602.282 360.5V360.882" stroke="#15D6FF" stroke-linecap="square"/>
<path opacity="0.6" d="M604.141 360.5V360.882" stroke="#15D6FF" stroke-linecap="square"/>
<path opacity="0.6" d="M606 360.5V360.882" stroke="#15D6FF" stroke-linecap="square"/>
<path d="M0 360.5V365.5" stroke="#15D6FF" stroke-linecap="square"/>
<path d="M-12.5225 375.5H-14.7668V368.227H-12.423C-11.7175 368.227 -11.1138 368.373 -10.6119 368.664C-10.1101 368.953 -9.72535 369.368 -9.45783 369.911C-9.19031 370.45 -9.05655 371.097 -9.05655 371.849C-9.05655 372.607 -9.19149 373.259 -9.46138 373.806C-9.73127 374.351 -10.1243 374.77 -10.6404 375.063C-11.1565 375.354 -11.7838 375.5 -12.5225 375.5ZM-13.8861 374.719H-12.5793C-11.978 374.719 -11.4796 374.603 -11.0843 374.371C-10.6889 374.139 -10.3941 373.808 -10.2 373.38C-10.0059 372.951 -9.90882 372.441 -9.90882 371.849C-9.90882 371.262 -10.0047 370.757 -10.1965 370.333C-10.3882 369.907 -10.6747 369.58 -11.0558 369.353C-11.437 369.123 -11.9117 369.009 -12.4798 369.009H-13.8861V374.719ZM-5.40598 375.614C-5.93155 375.614 -6.38491 375.498 -6.76607 375.266C-7.14486 375.031 -7.43723 374.705 -7.6432 374.286C-7.8468 373.864 -7.9486 373.374 -7.9486 372.815C-7.9486 372.257 -7.8468 371.764 -7.6432 371.338C-7.43723 370.91 -7.15078 370.576 -6.78382 370.337C-6.41451 370.095 -5.98364 369.974 -5.49121 369.974C-5.20712 369.974 -4.92658 370.022 -4.64959 370.116C-4.3726 370.211 -4.12047 370.365 -3.8932 370.578C-3.66593 370.789 -3.48482 371.068 -3.34988 371.416C-3.21493 371.764 -3.14746 372.193 -3.14746 372.702V373.057H-7.35201V372.332H-3.99973C-3.99973 372.025 -4.06129 371.75 -4.18439 371.509C-4.30513 371.267 -4.47795 371.076 -4.70286 370.937C-4.9254 370.797 -5.18818 370.727 -5.49121 370.727C-5.82502 370.727 -6.11384 370.81 -6.35769 370.976C-6.59917 371.139 -6.78501 371.352 -6.91522 371.615C-7.04542 371.878 -7.11053 372.16 -7.11053 372.46V372.943C-7.11053 373.355 -7.03951 373.704 -6.89746 373.991C-6.75305 374.275 -6.553 374.491 -6.29732 374.641C-6.04164 374.787 -5.74453 374.861 -5.40598 374.861C-5.18581 374.861 -4.98695 374.83 -4.80939 374.768C-4.62947 374.705 -4.4744 374.61 -4.34419 374.484C-4.21399 374.357 -4.11337 374.198 -4.04235 374.009L-3.23269 374.236C-3.31792 374.51 -3.46114 374.752 -3.66238 374.96C-3.86361 375.166 -4.11219 375.327 -4.40811 375.443C-4.70404 375.557 -5.03667 375.614 -5.40598 375.614ZM0.343306 375.614C-0.168057 375.614 -0.608398 375.493 -0.977717 375.251C-1.34703 375.01 -1.63113 374.677 -1.82999 374.254C-2.02885 373.83 -2.12828 373.346 -2.12828 372.801C-2.12828 372.247 -2.02649 371.758 -1.82289 371.335C-1.61692 370.908 -1.33046 370.576 -0.963512 370.337C-0.594194 370.095 -0.163323 369.974 0.329102 369.974C0.712624 369.974 1.05827 370.045 1.36603 370.188C1.6738 370.33 1.92593 370.528 2.12243 370.784C2.31892 371.04 2.44084 371.338 2.48819 371.679H1.65012C1.5862 371.43 1.44416 371.21 1.22399 371.018C1.00618 370.824 0.712624 370.727 0.343306 370.727C0.0166017 370.727 -0.269857 370.812 -0.516069 370.983C-0.759914 371.151 -0.950491 371.389 -1.0878 371.697C-1.22275 372.002 -1.29022 372.361 -1.29022 372.773C-1.29022 373.194 -1.22393 373.561 -1.09135 373.874C-0.95641 374.186 -0.767016 374.429 -0.523171 374.602C-0.276959 374.774 0.0118668 374.861 0.343306 374.861C0.561109 374.861 0.758789 374.823 0.936346 374.747C1.1139 374.671 1.26423 374.562 1.38734 374.42C1.51045 374.278 1.59804 374.108 1.65012 373.909H2.48819C2.44084 374.231 2.32366 374.521 2.13663 374.779C1.95197 375.035 1.70694 375.238 1.40154 375.39C1.09851 375.539 0.745768 375.614 0.343306 375.614ZM9.06845 368.227V375.5H8.18777V369.151H8.14515L6.36958 370.33V369.435L8.18777 368.227H9.06845ZM13.5748 375.599C13.2765 375.595 12.9782 375.538 12.68 375.429C12.3817 375.32 12.1094 375.137 11.8632 374.879C11.617 374.618 11.4193 374.267 11.2702 373.824C11.121 373.379 11.0464 372.82 11.0464 372.148C11.0464 371.504 11.1068 370.933 11.2275 370.436C11.3483 369.937 11.5235 369.516 11.7531 369.175C11.9827 368.832 12.2597 368.572 12.5841 368.394C12.9108 368.217 13.2789 368.128 13.6885 368.128C14.0957 368.128 14.4579 368.21 14.7751 368.373C15.0947 368.534 15.3551 368.759 15.5564 369.048C15.7576 369.336 15.8878 369.669 15.947 370.045H15.0805C15 369.719 14.8438 369.448 14.6118 369.232C14.3798 369.017 14.072 368.909 13.6885 368.909C13.125 368.909 12.6811 369.154 12.3568 369.644C12.0348 370.134 11.8727 370.822 11.8703 371.707H11.9271C12.0597 371.506 12.2171 371.335 12.3994 371.192C12.5841 371.048 12.7877 370.937 13.0102 370.859C13.2327 370.781 13.4683 370.741 13.7169 370.741C14.1336 370.741 14.5147 370.846 14.8604 371.054C15.206 371.26 15.483 371.545 15.6913 371.91C15.8997 372.272 16.0038 372.688 16.0038 373.156C16.0038 373.606 15.9032 374.018 15.702 374.392C15.5007 374.764 15.2178 375.06 14.8532 375.28C14.491 375.498 14.0649 375.604 13.5748 375.599ZM13.5748 374.818C13.8731 374.818 14.1407 374.744 14.3774 374.594C14.6165 374.445 14.8047 374.245 14.942 373.994C15.0817 373.743 15.1515 373.464 15.1515 373.156C15.1515 372.856 15.0841 372.582 14.9491 372.336C14.8166 372.087 14.6331 371.89 14.3987 371.743C14.1667 371.596 13.9015 371.523 13.6032 371.523C13.3783 371.523 13.1688 371.568 12.9747 371.658C12.7806 371.745 12.6101 371.866 12.4633 372.02C12.3189 372.174 12.2053 372.35 12.1224 372.549C12.0396 372.746 11.9981 372.953 11.9981 373.17C11.9981 373.459 12.0656 373.729 12.2006 373.98C12.3379 374.231 12.5249 374.433 12.7616 374.587C13.0007 374.741 13.2718 374.818 13.5748 374.818Z" fill="#15D6FF"/>
<path d="M143.135 360.5V365.5" stroke="#15D6FF" stroke-linecap="square"/>
<path d="M127.214 368.227H128.265L130.736 374.264H130.822L133.293 368.227H134.344V375.5H133.521V369.974H133.449L131.177 375.5H130.381L128.109 369.974H128.038V375.5H127.214V368.227ZM137.602 375.628C137.256 375.628 136.942 375.563 136.661 375.433C136.379 375.3 136.155 375.109 135.989 374.861C135.824 374.61 135.741 374.307 135.741 373.952C135.741 373.639 135.802 373.386 135.926 373.192C136.049 372.995 136.213 372.841 136.419 372.73C136.625 372.619 136.852 372.536 137.101 372.482C137.352 372.425 137.604 372.38 137.857 372.347C138.189 372.304 138.457 372.272 138.663 372.251C138.872 372.227 139.023 372.188 139.118 372.134C139.215 372.079 139.264 371.984 139.264 371.849V371.821C139.264 371.471 139.168 371.198 138.976 371.004C138.787 370.81 138.499 370.713 138.113 370.713C137.713 370.713 137.399 370.801 137.172 370.976C136.945 371.151 136.785 371.338 136.693 371.537L135.897 371.253C136.039 370.921 136.229 370.663 136.465 370.479C136.704 370.292 136.965 370.161 137.247 370.088C137.531 370.012 137.81 369.974 138.085 369.974C138.26 369.974 138.461 369.996 138.688 370.038C138.918 370.079 139.139 370.163 139.352 370.29C139.568 370.418 139.747 370.611 139.889 370.869C140.031 371.127 140.102 371.473 140.102 371.906V375.5H139.264V374.761H139.221C139.164 374.88 139.069 375.006 138.937 375.141C138.804 375.276 138.628 375.391 138.408 375.486C138.188 375.58 137.919 375.628 137.602 375.628ZM137.729 374.875C138.061 374.875 138.34 374.81 138.568 374.68C138.797 374.549 138.97 374.381 139.086 374.175C139.204 373.969 139.264 373.753 139.264 373.526V372.759C139.228 372.801 139.15 372.84 139.029 372.876C138.911 372.909 138.774 372.938 138.617 372.964C138.463 372.988 138.313 373.009 138.166 373.028C138.022 373.045 137.905 373.059 137.815 373.071C137.597 373.099 137.393 373.146 137.204 373.21C137.017 373.271 136.865 373.365 136.749 373.49C136.636 373.613 136.579 373.781 136.579 373.994C136.579 374.286 136.687 374.506 136.902 374.655C137.12 374.802 137.396 374.875 137.729 374.875ZM141.976 377.545C141.834 377.545 141.707 377.534 141.596 377.51C141.485 377.489 141.408 377.467 141.365 377.446L141.578 376.707C141.782 376.759 141.962 376.778 142.118 376.764C142.274 376.75 142.413 376.68 142.533 376.555C142.656 376.432 142.769 376.232 142.871 375.955L143.027 375.528L141.01 370.045H141.919L143.425 374.392H143.481L144.987 370.045H145.896L143.581 376.295C143.477 376.577 143.348 376.81 143.194 376.995C143.04 377.182 142.861 377.321 142.658 377.411C142.456 377.5 142.229 377.545 141.976 377.545ZM152.358 368.227V375.5H151.477V369.151H151.434L149.659 370.33V369.435L151.477 368.227H152.358ZM156.764 368.128C157.063 368.13 157.361 368.187 157.659 368.298C157.958 368.41 158.23 368.594 158.476 368.852C158.722 369.108 158.92 369.457 159.069 369.9C159.218 370.343 159.293 370.898 159.293 371.565C159.293 372.212 159.231 372.786 159.108 373.288C158.987 373.787 158.812 374.209 158.583 374.552C158.355 374.895 158.078 375.156 157.752 375.333C157.427 375.511 157.06 375.599 156.651 375.599C156.244 375.599 155.88 375.519 155.561 375.358C155.243 375.195 154.983 374.969 154.779 374.68C154.578 374.388 154.449 374.051 154.392 373.668H155.259C155.337 374.001 155.492 374.277 155.724 374.495C155.958 374.71 156.267 374.818 156.651 374.818C157.212 374.818 157.655 374.573 157.979 374.083C158.306 373.593 158.469 372.901 158.469 372.006H158.412C158.28 372.205 158.122 372.376 157.94 372.521C157.758 372.665 157.555 372.776 157.333 372.854C157.11 372.933 156.873 372.972 156.622 372.972C156.206 372.972 155.823 372.869 155.475 372.663C155.13 372.454 154.853 372.169 154.644 371.807C154.438 371.442 154.335 371.026 154.335 370.557C154.335 370.112 154.435 369.705 154.634 369.335C154.835 368.964 155.117 368.668 155.479 368.447C155.844 368.227 156.272 368.121 156.764 368.128ZM156.764 368.909C156.466 368.909 156.197 368.984 155.958 369.133C155.722 369.28 155.533 369.478 155.394 369.729C155.256 369.978 155.188 370.254 155.188 370.557C155.188 370.86 155.254 371.136 155.387 371.384C155.522 371.63 155.705 371.827 155.937 371.974C156.171 372.118 156.438 372.19 156.736 372.19C156.961 372.19 157.17 372.147 157.365 372.059C157.559 371.969 157.728 371.847 157.872 371.693C158.019 371.537 158.134 371.361 158.217 371.164C158.3 370.965 158.341 370.758 158.341 370.543C158.341 370.259 158.273 369.992 158.135 369.744C158 369.495 157.813 369.294 157.574 369.14C157.337 368.986 157.068 368.909 156.764 368.909Z" fill="#15D6FF"/>
<path d="M258.387 360.5V365.5" stroke="#15D6FF" stroke-linecap="square"/>
<path d="M246.541 370.045C246.498 369.686 246.325 369.406 246.022 369.207C245.719 369.009 245.347 368.909 244.907 368.909C244.585 368.909 244.303 368.961 244.062 369.065C243.823 369.17 243.636 369.313 243.501 369.495C243.368 369.677 243.302 369.884 243.302 370.116C243.302 370.311 243.348 370.478 243.44 370.617C243.535 370.754 243.656 370.869 243.803 370.962C243.949 371.052 244.103 371.126 244.264 371.185C244.425 371.242 244.573 371.288 244.708 371.324L245.447 371.523C245.636 371.572 245.847 371.641 246.079 371.729C246.313 371.816 246.537 371.936 246.75 372.087C246.966 372.237 247.143 372.428 247.283 372.663C247.422 372.897 247.492 373.185 247.492 373.526C247.492 373.919 247.389 374.274 247.183 374.591C246.98 374.908 246.681 375.16 246.288 375.347C245.898 375.534 245.423 375.628 244.864 375.628C244.344 375.628 243.893 375.544 243.511 375.376C243.133 375.208 242.834 374.973 242.617 374.673C242.401 374.372 242.279 374.023 242.251 373.625H243.16C243.184 373.9 243.276 374.127 243.437 374.307C243.6 374.484 243.806 374.617 244.055 374.705C244.306 374.79 244.576 374.832 244.864 374.832C245.201 374.832 245.502 374.778 245.77 374.669C246.037 374.558 246.249 374.404 246.406 374.207C246.562 374.009 246.64 373.777 246.64 373.511C246.64 373.27 246.573 373.073 246.438 372.922C246.303 372.77 246.125 372.647 245.905 372.553C245.685 372.458 245.447 372.375 245.191 372.304L244.296 372.048C243.728 371.885 243.278 371.652 242.947 371.349C242.615 371.046 242.45 370.649 242.45 370.159C242.45 369.752 242.56 369.397 242.78 369.094C243.002 368.788 243.301 368.552 243.675 368.384C244.051 368.213 244.471 368.128 244.935 368.128C245.404 368.128 245.821 368.212 246.185 368.38C246.55 368.546 246.839 368.773 247.052 369.062C247.267 369.351 247.381 369.679 247.393 370.045H246.541ZM251.114 375.614C250.588 375.614 250.135 375.498 249.753 375.266C249.375 375.031 249.082 374.705 248.876 374.286C248.673 373.864 248.571 373.374 248.571 372.815C248.571 372.257 248.673 371.764 248.876 371.338C249.082 370.91 249.369 370.576 249.736 370.337C250.105 370.095 250.536 369.974 251.028 369.974C251.312 369.974 251.593 370.022 251.87 370.116C252.147 370.211 252.399 370.365 252.626 370.578C252.854 370.789 253.035 371.068 253.17 371.416C253.305 371.764 253.372 372.193 253.372 372.702V373.057H249.168V372.332H252.52C252.52 372.025 252.458 371.75 252.335 371.509C252.214 371.267 252.042 371.076 251.817 370.937C251.594 370.797 251.331 370.727 251.028 370.727C250.695 370.727 250.406 370.81 250.162 370.976C249.92 371.139 249.735 371.352 249.604 371.615C249.474 371.878 249.409 372.16 249.409 372.46V372.943C249.409 373.355 249.48 373.704 249.622 373.991C249.766 374.275 249.967 374.491 250.222 374.641C250.478 374.787 250.775 374.861 251.114 374.861C251.334 374.861 251.533 374.83 251.71 374.768C251.89 374.705 252.045 374.61 252.175 374.484C252.306 374.357 252.406 374.198 252.477 374.009L253.287 374.236C253.202 374.51 253.058 374.752 252.857 374.96C252.656 375.166 252.407 375.327 252.111 375.443C251.815 375.557 251.483 375.614 251.114 375.614ZM254.647 377.545V370.045H255.457V370.912H255.556C255.618 370.817 255.703 370.696 255.812 370.55C255.923 370.401 256.082 370.268 256.288 370.152C256.496 370.034 256.778 369.974 257.133 369.974C257.592 369.974 257.997 370.089 258.347 370.319C258.698 370.549 258.971 370.874 259.168 371.295C259.364 371.717 259.462 372.214 259.462 372.787C259.462 373.365 259.364 373.865 259.168 374.289C258.971 374.71 258.699 375.037 258.351 375.269C258.003 375.499 257.601 375.614 257.147 375.614C256.797 375.614 256.516 375.556 256.305 375.44C256.095 375.321 255.932 375.187 255.819 375.038C255.705 374.887 255.618 374.761 255.556 374.662H255.485V377.545H254.647ZM255.471 372.773C255.471 373.185 255.531 373.548 255.652 373.863C255.773 374.175 255.949 374.42 256.181 374.598C256.413 374.773 256.697 374.861 257.033 374.861C257.384 374.861 257.676 374.768 257.91 374.584C258.147 374.397 258.325 374.146 258.443 373.831C258.564 373.514 258.624 373.161 258.624 372.773C258.624 372.389 258.565 372.044 258.447 371.736C258.331 371.426 258.154 371.181 257.918 371.001C257.683 370.818 257.388 370.727 257.033 370.727C256.692 370.727 256.406 370.814 256.174 370.987C255.942 371.157 255.767 371.396 255.648 371.704C255.53 372.009 255.471 372.366 255.471 372.773ZM263.539 375.5V374.861L265.94 372.233C266.221 371.925 266.453 371.658 266.636 371.43C266.818 371.201 266.953 370.985 267.04 370.784C267.13 370.58 267.175 370.367 267.175 370.145C267.175 369.889 267.114 369.668 266.991 369.481C266.87 369.294 266.704 369.149 266.494 369.048C266.283 368.946 266.046 368.895 265.783 368.895C265.504 368.895 265.26 368.953 265.052 369.069C264.846 369.183 264.686 369.342 264.572 369.548C264.461 369.754 264.405 369.996 264.405 370.273H263.567C263.567 369.847 263.666 369.473 263.862 369.151C264.059 368.829 264.326 368.578 264.665 368.398C265.006 368.218 265.388 368.128 265.812 368.128C266.238 368.128 266.615 368.218 266.945 368.398C267.274 368.578 267.532 368.82 267.719 369.126C267.906 369.431 267.999 369.771 267.999 370.145C267.999 370.412 267.951 370.674 267.854 370.93C267.759 371.183 267.593 371.466 267.356 371.778C267.122 372.089 266.797 372.467 266.38 372.915L264.746 374.662V374.719H268.127V375.5H263.539ZM271.966 375.599C271.431 375.599 270.975 375.454 270.599 375.163C270.222 374.869 269.935 374.444 269.736 373.888C269.537 373.329 269.437 372.654 269.437 371.864C269.437 371.078 269.537 370.406 269.736 369.85C269.937 369.291 270.226 368.865 270.602 368.572C270.981 368.276 271.436 368.128 271.966 368.128C272.496 368.128 272.949 368.276 273.326 368.572C273.705 368.865 273.994 369.291 274.192 369.85C274.394 370.406 274.494 371.078 274.494 371.864C274.494 372.654 274.395 373.329 274.196 373.888C273.997 374.444 273.709 374.869 273.333 375.163C272.957 375.454 272.501 375.599 271.966 375.599ZM271.966 374.818C272.496 374.818 272.908 374.562 273.202 374.051C273.495 373.54 273.642 372.811 273.642 371.864C273.642 371.234 273.574 370.698 273.44 370.255C273.307 369.812 273.115 369.475 272.864 369.243C272.616 369.011 272.316 368.895 271.966 368.895C271.44 368.895 271.03 369.154 270.734 369.673C270.438 370.189 270.29 370.919 270.29 371.864C270.29 372.493 270.356 373.028 270.489 373.469C270.621 373.909 270.812 374.244 271.06 374.474C271.311 374.703 271.613 374.818 271.966 374.818Z" fill="#15D6FF"/>
<path d="M373.639 360.5V365.5" stroke="#15D6FF" stroke-linecap="square"/>
<path d="M361.385 368.227H362.266V373.426C362.266 373.89 362.181 374.284 362.01 374.609C361.84 374.933 361.6 375.179 361.29 375.347C360.979 375.515 360.614 375.599 360.192 375.599C359.795 375.599 359.441 375.527 359.131 375.383C358.82 375.236 358.577 375.028 358.399 374.758C358.221 374.488 358.133 374.167 358.133 373.795H358.999C358.999 374.001 359.05 374.181 359.152 374.335C359.256 374.487 359.398 374.605 359.578 374.69C359.758 374.776 359.963 374.818 360.192 374.818C360.446 374.818 360.661 374.765 360.839 374.658C361.016 374.552 361.151 374.396 361.243 374.19C361.338 373.981 361.385 373.727 361.385 373.426V368.227ZM365.523 375.628C365.177 375.628 364.863 375.563 364.581 375.433C364.3 375.3 364.076 375.109 363.91 374.861C363.745 374.61 363.662 374.307 363.662 373.952C363.662 373.639 363.723 373.386 363.846 373.192C363.97 372.995 364.134 372.841 364.34 372.73C364.546 372.619 364.773 372.536 365.022 372.482C365.273 372.425 365.525 372.38 365.778 372.347C366.11 372.304 366.378 372.272 366.584 372.251C366.793 372.227 366.944 372.188 367.039 372.134C367.136 372.079 367.184 371.984 367.184 371.849V371.821C367.184 371.471 367.089 371.198 366.897 371.004C366.707 370.81 366.42 370.713 366.034 370.713C365.634 370.713 365.32 370.801 365.093 370.976C364.866 371.151 364.706 371.338 364.613 371.537L363.818 371.253C363.96 370.921 364.149 370.663 364.386 370.479C364.625 370.292 364.886 370.161 365.167 370.088C365.452 370.012 365.731 369.974 366.006 369.974C366.181 369.974 366.382 369.996 366.609 370.038C366.839 370.079 367.06 370.163 367.273 370.29C367.489 370.418 367.667 370.611 367.809 370.869C367.952 371.127 368.023 371.473 368.023 371.906V375.5H367.184V374.761H367.142C367.085 374.88 366.99 375.006 366.858 375.141C366.725 375.276 366.549 375.391 366.329 375.486C366.108 375.58 365.84 375.628 365.523 375.628ZM365.65 374.875C365.982 374.875 366.261 374.81 366.488 374.68C366.718 374.549 366.891 374.381 367.007 374.175C367.125 373.969 367.184 373.753 367.184 373.526V372.759C367.149 372.801 367.071 372.84 366.95 372.876C366.832 372.909 366.694 372.938 366.538 372.964C366.384 372.988 366.234 373.009 366.087 373.028C365.943 373.045 365.826 373.059 365.736 373.071C365.518 373.099 365.314 373.146 365.125 373.21C364.938 373.271 364.786 373.365 364.67 373.49C364.557 373.613 364.5 373.781 364.5 373.994C364.5 374.286 364.608 374.506 364.823 374.655C365.041 374.802 365.317 374.875 365.65 374.875ZM370.39 372.219V375.5H369.552V370.045H370.362V370.898H370.433C370.561 370.621 370.755 370.398 371.015 370.23C371.276 370.06 371.612 369.974 372.024 369.974C372.393 369.974 372.716 370.05 372.993 370.202C373.27 370.351 373.486 370.578 373.64 370.884C373.793 371.187 373.87 371.57 373.87 372.034V375.5H373.032V372.091C373.032 371.662 372.921 371.329 372.699 371.089C372.476 370.848 372.171 370.727 371.782 370.727C371.515 370.727 371.276 370.785 371.065 370.901C370.857 371.017 370.692 371.187 370.571 371.409C370.451 371.632 370.39 371.902 370.39 372.219ZM378.2 375.5V374.861L380.601 372.233C380.882 371.925 381.114 371.658 381.297 371.43C381.479 371.201 381.614 370.985 381.702 370.784C381.791 370.58 381.836 370.367 381.836 370.145C381.836 369.889 381.775 369.668 381.652 369.481C381.531 369.294 381.365 369.149 381.155 369.048C380.944 368.946 380.707 368.895 380.444 368.895C380.165 368.895 379.921 368.953 379.713 369.069C379.507 369.183 379.347 369.342 379.233 369.548C379.122 369.754 379.067 369.996 379.067 370.273H378.229C378.229 369.847 378.327 369.473 378.523 369.151C378.72 368.829 378.987 368.578 379.326 368.398C379.667 368.218 380.049 368.128 380.473 368.128C380.899 368.128 381.277 368.218 381.606 368.398C381.935 368.578 382.193 368.82 382.38 369.126C382.567 369.431 382.66 369.771 382.66 370.145C382.66 370.412 382.612 370.674 382.515 370.93C382.42 371.183 382.254 371.466 382.018 371.778C381.783 372.089 381.458 372.467 381.041 372.915L379.407 374.662V374.719H382.788V375.5H378.2ZM384.255 375.5V374.861L386.655 372.233C386.937 371.925 387.169 371.658 387.351 371.43C387.534 371.201 387.669 370.985 387.756 370.784C387.846 370.58 387.891 370.367 387.891 370.145C387.891 369.889 387.83 369.668 387.706 369.481C387.586 369.294 387.42 369.149 387.209 369.048C386.999 368.946 386.762 368.895 386.499 368.895C386.22 368.895 385.976 368.953 385.768 369.069C385.562 369.183 385.402 369.342 385.288 369.548C385.177 369.754 385.121 369.996 385.121 370.273H384.283C384.283 369.847 384.381 369.473 384.578 369.151C384.774 368.829 385.042 368.578 385.381 368.398C385.721 368.218 386.104 368.128 386.528 368.128C386.954 368.128 387.331 368.218 387.66 368.398C387.989 368.578 388.247 368.82 388.434 369.126C388.622 369.431 388.715 369.771 388.715 370.145C388.715 370.412 388.666 370.674 388.569 370.93C388.475 371.183 388.309 371.466 388.072 371.778C387.838 372.089 387.512 372.467 387.096 372.915L385.462 374.662V374.719H388.843V375.5H384.255Z" fill="#15D6FF"/>
<path d="M488.889 360.5V365.5" stroke="#15D6FF" stroke-linecap="square"/>
<path d="M472.264 368.227H473.316L475.787 374.264H475.872L478.344 368.227H479.395V375.5H478.571V369.974H478.5L476.228 375.5H475.432L473.159 369.974H473.088V375.5H472.264V368.227ZM482.652 375.628C482.307 375.628 481.993 375.563 481.711 375.433C481.43 375.3 481.206 375.109 481.04 374.861C480.874 374.61 480.792 374.307 480.792 373.952C480.792 373.639 480.853 373.386 480.976 373.192C481.099 372.995 481.264 372.841 481.47 372.73C481.676 372.619 481.903 372.536 482.152 372.482C482.403 372.425 482.655 372.38 482.908 372.347C483.24 372.304 483.508 372.272 483.714 372.251C483.923 372.227 484.074 372.188 484.169 372.134C484.266 372.079 484.314 371.984 484.314 371.849V371.821C484.314 371.471 484.218 371.198 484.027 371.004C483.837 370.81 483.55 370.713 483.164 370.713C482.764 370.713 482.45 370.801 482.223 370.976C481.995 371.151 481.836 371.338 481.743 371.537L480.948 371.253C481.09 370.921 481.279 370.663 481.516 370.479C481.755 370.292 482.016 370.161 482.297 370.088C482.581 370.012 482.861 369.974 483.135 369.974C483.311 369.974 483.512 369.996 483.739 370.038C483.969 370.079 484.19 370.163 484.403 370.29C484.619 370.418 484.797 370.611 484.939 370.869C485.081 371.127 485.152 371.473 485.152 371.906V375.5H484.314V374.761H484.272C484.215 374.88 484.12 375.006 483.988 375.141C483.855 375.276 483.679 375.391 483.459 375.486C483.238 375.58 482.97 375.628 482.652 375.628ZM482.78 374.875C483.112 374.875 483.391 374.81 483.618 374.68C483.848 374.549 484.021 374.381 484.137 374.175C484.255 373.969 484.314 373.753 484.314 373.526V372.759C484.279 372.801 484.201 372.84 484.08 372.876C483.962 372.909 483.824 372.938 483.668 372.964C483.514 372.988 483.364 373.009 483.217 373.028C483.073 373.045 482.955 373.059 482.866 373.071C482.648 373.099 482.444 373.146 482.255 373.21C482.068 373.271 481.916 373.365 481.8 373.49C481.687 373.613 481.63 373.781 481.63 373.994C481.63 374.286 481.737 374.506 481.953 374.655C482.171 374.802 482.446 374.875 482.78 374.875ZM487.027 377.545C486.884 377.545 486.758 377.534 486.647 377.51C486.535 377.489 486.458 377.467 486.416 377.446L486.629 376.707C486.832 376.759 487.012 376.778 487.169 376.764C487.325 376.75 487.463 376.68 487.584 376.555C487.707 376.432 487.82 376.232 487.921 375.955L488.078 375.528L486.061 370.045H486.97L488.475 374.392H488.532L490.038 370.045H490.947L488.632 376.295C488.527 376.577 488.398 376.81 488.245 376.995C488.091 377.182 487.912 377.321 487.708 377.411C487.507 377.5 487.28 377.545 487.027 377.545ZM494.851 375.5V374.861L497.252 372.233C497.534 371.925 497.766 371.658 497.948 371.43C498.13 371.201 498.265 370.985 498.353 370.784C498.443 370.58 498.488 370.367 498.488 370.145C498.488 369.889 498.426 369.668 498.303 369.481C498.182 369.294 498.017 369.149 497.806 369.048C497.595 368.946 497.359 368.895 497.096 368.895C496.816 368.895 496.573 368.953 496.364 369.069C496.158 369.183 495.998 369.342 495.885 369.548C495.774 369.754 495.718 369.996 495.718 370.273H494.88C494.88 369.847 494.978 369.473 495.175 369.151C495.371 368.829 495.639 368.578 495.977 368.398C496.318 368.218 496.7 368.128 497.124 368.128C497.55 368.128 497.928 368.218 498.257 368.398C498.586 368.578 498.844 368.82 499.031 369.126C499.218 369.431 499.312 369.771 499.312 370.145C499.312 370.412 499.263 370.674 499.166 370.93C499.071 371.183 498.906 371.466 498.669 371.778C498.435 372.089 498.109 372.467 497.692 372.915L496.059 374.662V374.719H499.44V375.5H494.851ZM503.321 375.599C503.023 375.595 502.724 375.538 502.426 375.429C502.128 375.32 501.855 375.137 501.609 374.879C501.363 374.618 501.165 374.267 501.016 373.824C500.867 373.379 500.793 372.82 500.793 372.148C500.793 371.504 500.853 370.933 500.974 370.436C501.094 369.937 501.27 369.516 501.499 369.175C501.729 368.832 502.006 368.572 502.33 368.394C502.657 368.217 503.025 368.128 503.435 368.128C503.842 368.128 504.204 368.21 504.521 368.373C504.841 368.534 505.101 368.759 505.302 369.048C505.504 369.336 505.634 369.669 505.693 370.045H504.827C504.746 369.719 504.59 369.448 504.358 369.232C504.126 369.017 503.818 368.909 503.435 368.909C502.871 368.909 502.427 369.154 502.103 369.644C501.781 370.134 501.619 370.822 501.616 371.707H501.673C501.806 371.506 501.963 371.335 502.146 371.192C502.33 371.048 502.534 370.937 502.756 370.859C502.979 370.781 503.214 370.741 503.463 370.741C503.88 370.741 504.261 370.846 504.606 371.054C504.952 371.26 505.229 371.545 505.437 371.91C505.646 372.272 505.75 372.688 505.75 373.156C505.75 373.606 505.649 374.018 505.448 374.392C505.247 374.764 504.964 375.06 504.599 375.28C504.237 375.498 503.811 375.604 503.321 375.599ZM503.321 374.818C503.619 374.818 503.887 374.744 504.123 374.594C504.363 374.445 504.551 374.245 504.688 373.994C504.828 373.743 504.898 373.464 504.898 373.156C504.898 372.856 504.83 372.582 504.695 372.336C504.563 372.087 504.379 371.89 504.145 371.743C503.913 371.596 503.648 371.523 503.349 371.523C503.124 371.523 502.915 371.568 502.721 371.658C502.527 371.745 502.356 371.866 502.209 372.02C502.065 372.174 501.951 372.35 501.869 372.549C501.786 372.746 501.744 372.953 501.744 373.17C501.744 373.459 501.812 373.729 501.947 373.98C502.084 374.231 502.271 374.433 502.508 374.587C502.747 374.741 503.018 374.818 503.321 374.818Z" fill="#15D6FF"/>
<path d="M604.141 360.5V365.5" stroke="#15D6FF" stroke-linecap="square"/>
<path d="M593.063 370.045C593.02 369.686 592.848 369.406 592.545 369.207C592.242 369.009 591.87 368.909 591.43 368.909C591.108 368.909 590.826 368.961 590.584 369.065C590.345 369.17 590.158 369.313 590.023 369.495C589.891 369.677 589.824 369.884 589.824 370.116C589.824 370.311 589.871 370.478 589.963 370.617C590.058 370.754 590.178 370.869 590.325 370.962C590.472 371.052 590.626 371.126 590.787 371.185C590.948 371.242 591.096 371.288 591.231 371.324L591.969 371.523C592.159 371.572 592.369 371.641 592.601 371.729C592.836 371.816 593.059 371.936 593.273 372.087C593.488 372.237 593.666 372.428 593.805 372.663C593.945 372.897 594.015 373.185 594.015 373.526C594.015 373.919 593.912 374.274 593.706 374.591C593.502 374.908 593.204 375.16 592.811 375.347C592.42 375.534 591.946 375.628 591.387 375.628C590.866 375.628 590.415 375.544 590.034 375.376C589.655 375.208 589.357 374.973 589.139 374.673C588.924 374.372 588.802 374.023 588.773 373.625H589.682C589.706 373.9 589.798 374.127 589.959 374.307C590.123 374.484 590.329 374.617 590.577 374.705C590.828 374.79 591.098 374.832 591.387 374.832C591.723 374.832 592.025 374.778 592.292 374.669C592.56 374.558 592.772 374.404 592.928 374.207C593.084 374.009 593.162 373.777 593.162 373.511C593.162 373.27 593.095 373.073 592.96 372.922C592.825 372.77 592.648 372.647 592.427 372.553C592.207 372.458 591.969 372.375 591.714 372.304L590.819 372.048C590.251 371.885 589.801 371.652 589.469 371.349C589.138 371.046 588.972 370.649 588.972 370.159C588.972 369.752 589.082 369.397 589.302 369.094C589.525 368.788 589.823 368.552 590.197 368.384C590.574 368.213 590.994 368.128 591.458 368.128C591.927 368.128 592.343 368.212 592.708 368.38C593.073 368.546 593.361 368.773 593.574 369.062C593.79 369.351 593.903 369.679 593.915 370.045H593.063ZM597.636 375.614C597.11 375.614 596.657 375.498 596.276 375.266C595.897 375.031 595.605 374.705 595.399 374.286C595.195 373.864 595.093 373.374 595.093 372.815C595.093 372.257 595.195 371.764 595.399 371.338C595.605 370.91 595.891 370.576 596.258 370.337C596.627 370.095 597.058 369.974 597.551 369.974C597.835 369.974 598.115 370.022 598.392 370.116C598.669 370.211 598.922 370.365 599.149 370.578C599.376 370.789 599.557 371.068 599.692 371.416C599.827 371.764 599.895 372.193 599.895 372.702V373.057H595.69V372.332H599.042C599.042 372.025 598.981 371.75 598.858 371.509C598.737 371.267 598.564 371.076 598.339 370.937C598.117 370.797 597.854 370.727 597.551 370.727C597.217 370.727 596.928 370.81 596.684 370.976C596.443 371.139 596.257 371.352 596.127 371.615C595.997 371.878 595.931 372.16 595.931 372.46V372.943C595.931 373.355 596.002 373.704 596.145 373.991C596.289 374.275 596.489 374.491 596.745 374.641C597 374.787 597.297 374.861 597.636 374.861C597.856 374.861 598.055 374.83 598.233 374.768C598.413 374.705 598.568 374.61 598.698 374.484C598.828 374.357 598.929 374.198 599 374.009L599.809 374.236C599.724 374.51 599.581 374.752 599.38 374.96C599.178 375.166 598.93 375.327 598.634 375.443C598.338 375.557 598.005 375.614 597.636 375.614ZM601.169 377.545V370.045H601.979V370.912H602.078C602.14 370.817 602.225 370.696 602.334 370.55C602.445 370.401 602.604 370.268 602.81 370.152C603.018 370.034 603.3 369.974 603.655 369.974C604.114 369.974 604.519 370.089 604.87 370.319C605.22 370.549 605.493 370.874 605.69 371.295C605.886 371.717 605.985 372.214 605.985 372.787C605.985 373.365 605.886 373.865 605.69 374.289C605.493 374.71 605.221 375.037 604.873 375.269C604.525 375.499 604.124 375.614 603.669 375.614C603.319 375.614 603.038 375.556 602.828 375.44C602.617 375.321 602.455 375.187 602.341 375.038C602.228 374.887 602.14 374.761 602.078 374.662H602.007V377.545H601.169ZM601.993 372.773C601.993 373.185 602.054 373.548 602.174 373.863C602.295 374.175 602.471 374.42 602.703 374.598C602.935 374.773 603.22 374.861 603.556 374.861C603.906 374.861 604.199 374.768 604.433 374.584C604.67 374.397 604.847 374.146 604.966 373.831C605.086 373.514 605.147 373.161 605.147 372.773C605.147 372.389 605.087 372.044 604.969 371.736C604.853 371.426 604.677 371.181 604.44 371.001C604.206 370.818 603.911 370.727 603.556 370.727C603.215 370.727 602.928 370.814 602.696 370.987C602.464 371.157 602.289 371.396 602.171 371.704C602.052 372.009 601.993 372.366 601.993 372.773ZM610.061 375.5V374.861L612.462 372.233C612.744 371.925 612.976 371.658 613.158 371.43C613.34 371.201 613.475 370.985 613.563 370.784C613.653 370.58 613.698 370.367 613.698 370.145C613.698 369.889 613.636 369.668 613.513 369.481C613.392 369.294 613.227 369.149 613.016 369.048C612.805 368.946 612.569 368.895 612.306 368.895C612.026 368.895 611.783 368.953 611.574 369.069C611.368 369.183 611.208 369.342 611.095 369.548C610.984 369.754 610.928 369.996 610.928 370.273H610.09C610.09 369.847 610.188 369.473 610.385 369.151C610.581 368.829 610.849 368.578 611.187 368.398C611.528 368.218 611.91 368.128 612.334 368.128C612.76 368.128 613.138 368.218 613.467 368.398C613.796 368.578 614.054 368.82 614.241 369.126C614.428 369.431 614.522 369.771 614.522 370.145C614.522 370.412 614.473 370.674 614.376 370.93C614.281 371.183 614.116 371.466 613.879 371.778C613.645 372.089 613.319 372.467 612.902 372.915L611.269 374.662V374.719H614.65V375.5H610.061ZM616.343 375.5L619.596 369.065V369.009H615.846V368.227H620.505V369.051L617.267 375.5H616.343Z" fill="#15D6FF"/>
</g>
<defs>
<clipPath id="clip0_1174_18249">
<rect width="606" height="380" fill="white"/>
</clipPath>
</defs>
</svg>
