<svg class="recharts-surface" width="527" height="250" viewBox="0 0 527 250" version="1.1">
 <defs>
  <clipPath id="recharts1-clip">
   <rect x="90" y="20" height="195" width="407"></rect>
  </clipPath>
 </defs>
 <g class="recharts-cartesian-grid">
  <g class="recharts-cartesian-grid-horizontal">
   <line stroke="#40324E" fill="none" x="90" y="20" width="407" height="195" offset="[object Object]" x1="90" y1="215"
    x2="497" y2="215"></line>
   <line stroke="#40324E" fill="none" x="90" y="20" width="407" height="195" offset="[object Object]" x1="90"
    y1="166.25" x2="497" y2="166.25"></line>
   <line stroke="#40324E" fill="none" x="90" y="20" width="407" height="195" offset="[object Object]" x1="90" y1="117.5"
    x2="497" y2="117.5"></line>
   <line stroke="#40324E" fill="none" x="90" y="20" width="407" height="195" offset="[object Object]" x1="90" y1="68.75"
    x2="497" y2="68.75"></line>
   <line stroke="#40324E" fill="none" x="90" y="20" width="407" height="195" offset="[object Object]" x1="90" y1="20"
    x2="497" y2="20"></line>
  </g>
 </g>
 <g class="recharts-layer recharts-cartesian-axis recharts-xAxis xAxis">
  <line type="number" orientation="bottom" width="407" height="30" x="90" y="215" class="recharts-cartesian-axis-line"
   stroke="#666" fill="none" x1="90" y1="215" x2="497" y2="215"></line>
  <g class="recharts-cartesian-axis-ticks">
   <g class="recharts-layer recharts-cartesian-axis-tick">
    <line type="number" orientation="bottom" width="407" height="30" x="90" y="215"
     class="recharts-cartesian-axis-tick-line" stroke="#666" fill="none" x1="90" y1="221" x2="90" y2="215"></line><text
     type="number" orientation="bottom" width="407" height="30" x="90" y="223" stroke="none" fill="#666"
     class="recharts-text recharts-cartesian-axis-tick-value" text-anchor="middle">
     <tspan x="90" dy="0.71em">Thu 15</tspan>
    </text>
   </g>
   <g class="recharts-layer recharts-cartesian-axis-tick">
    <line type="number" orientation="bottom" width="407" height="30" x="90" y="215"
     class="recharts-cartesian-axis-tick-line" stroke="#666" fill="none" x1="376.2860352842523" y1="221"
     x2="376.2860352842523" y2="215"></line><text type="number" orientation="bottom" width="407" height="30"
     x="376.2860352842523" y="223" stroke="none" fill="#666" class="recharts-text recharts-cartesian-axis-tick-value"
     text-anchor="middle">
     <tspan x="376.2860352842523" dy="0.71em">Fri 16</tspan>
    </text>
   </g>
  </g>
 </g>
 <g class="recharts-layer recharts-cartesian-axis recharts-yAxis yAxis">
  <line name="Price" orientation="left" width="60" height="195" type="number" x="30" y="20"
   class="recharts-cartesian-axis-line" stroke="#666" fill="none" x1="90" y1="20" x2="90" y2="215"></line>
  <g class="recharts-cartesian-axis-ticks">
   <g class="recharts-layer recharts-cartesian-axis-tick">
    <line name="Price" orientation="left" width="60" height="195" type="number" x="30" y="20"
     class="recharts-cartesian-axis-tick-line" stroke="#666" fill="none" x1="84" y1="215" x2="90" y2="215"></line><text
     name="Price" orientation="left" width="60" height="195" type="number" x="82" y="215" stroke="none" fill="#666"
     class="recharts-text recharts-cartesian-axis-tick-value" text-anchor="end">
     <tspan x="82" dy="0.355em">0</tspan>
    </text>
   </g>
   <g class="recharts-layer recharts-cartesian-axis-tick">
    <line name="Price" orientation="left" width="60" height="195" type="number" x="30" y="20"
     class="recharts-cartesian-axis-tick-line" stroke="#666" fill="none" x1="84" y1="166.25" x2="90" y2="166.25"></line>
    <text name="Price" orientation="left" width="60" height="195" type="number" x="82" y="166.25" stroke="none"
     fill="#666" class="recharts-text recharts-cartesian-axis-tick-value" text-anchor="end">
     <tspan x="82" dy="0.355em">2</tspan>
    </text>
   </g>
   <g class="recharts-layer recharts-cartesian-axis-tick">
    <line name="Price" orientation="left" width="60" height="195" type="number" x="30" y="20"
     class="recharts-cartesian-axis-tick-line" stroke="#666" fill="none" x1="84" y1="117.5" x2="90" y2="117.5"></line>
    <text name="Price" orientation="left" width="60" height="195" type="number" x="82" y="117.5" stroke="none"
     fill="#666" class="recharts-text recharts-cartesian-axis-tick-value" text-anchor="end">
     <tspan x="82" dy="0.355em">4</tspan>
    </text>
   </g>
   <g class="recharts-layer recharts-cartesian-axis-tick">
    <line name="Price" orientation="left" width="60" height="195" type="number" x="30" y="20"
     class="recharts-cartesian-axis-tick-line" stroke="#666" fill="none" x1="84" y1="68.75" x2="90" y2="68.75"></line>
    <text name="Price" orientation="left" width="60" height="195" type="number" x="82" y="68.75" stroke="none"
     fill="#666" class="recharts-text recharts-cartesian-axis-tick-value" text-anchor="end">
     <tspan x="82" dy="0.355em">6</tspan>
    </text>
   </g>
   <g class="recharts-layer recharts-cartesian-axis-tick">
    <line name="Price" orientation="left" width="60" height="195" type="number" x="30" y="20"
     class="recharts-cartesian-axis-tick-line" stroke="#666" fill="none" x1="84" y1="20" x2="90" y2="20"></line><text
     name="Price" orientation="left" width="60" height="195" type="number" x="82" y="20" stroke="none" fill="#666"
     class="recharts-text recharts-cartesian-axis-tick-value" text-anchor="end">
     <tspan x="82" dy="0.355em">8</tspan>
    </text>
   </g>
  </g><text offset="5" x="25" y="117.5" transform="rotate(-90, 25, 117.5)" class="recharts-text recharts-label"
   text-anchor="end" style="text-anchor: middle; fill: rgb(102, 102, 102);">
   <tspan x="25" dy="0.355em">Price (SOL)</tspan>
  </text>
 </g>
 <g class="recharts-layer recharts-line">
  <path stroke="#8884d8" stroke-width="1" fill="none" points="[object Object],[object Object]" width="407" height="195"
   class="recharts-curve recharts-line-curve" stroke-dasharray="395.1645812988281px 0px" type="monotone"
   d="M102.29306933917333,88.25L497,69.23749999999998"></path>
  <g class="recharts-layer recharts-line-dots">
   <circle r="3" type="monotone" stroke="#8884d8" stroke-width="1" fill="#fff" points="[object Object],[object Object]"
    width="407" height="195" cx="102.29306933917333" cy="88.25" class="recharts-dot recharts-line-dot"></circle>
   <circle r="3" type="monotone" stroke="#8884d8" stroke-width="1" fill="#fff" points="[object Object],[object Object]"
    width="407" height="195" cx="497" cy="69.23749999999998" class="recharts-dot recharts-line-dot"></circle>
  </g>
 </g>
</svg>
