<svg width="606" height="380" viewBox="0 0 606 380" fill="none" xmlns="http://www.w3.org/2000/svg">
<g clip-path="url(#clip0_1174_22020)">
<path d="M0 360H0.961905H2.88571H3.84762H4.80952H5.77143H6.73333H7.69524L11.5429 360H12.5048H14.4286L16.3524 359.999L19.2381 359.999H21.1619H22.1238H23.0857L24.0476 359.999H25.0095H25.9714H26.9333L27.8952 359.999H28.8571L29.819 359.998H31.7429L32.7048 359.998H33.6667H34.6286H36.5524H37.5143H39.4381L40.4 359.998H41.3619H42.3238H43.2857L44.2476 359.998H46.1714H49.0571H50.019L50.981 359.997H51.9429H52.9048H53.8667H54.8286H55.7905H56.7524H57.7143H58.6762H59.6381H60.6H61.5619H62.5238H63.4857H64.4476H65.4095L66.3714 359.997L67.3333 359.997H68.2952H69.2571L70.219 359.997H71.181H72.1429H73.1048H74.0667L75.0286 359.997H75.9905H76.9524H77.9143H78.8762H79.8381H80.8H81.7619H82.7238H83.6857H84.6476H85.6095H86.5714L87.5333 359.997L88.4952 359.996L89.4571 359.996L90.419 359.991L91.381 359.975L92.3429 359.953L93.3048 359.934L94.2667 359.921L95.2286 359.896L96.1905 359.865L97.1524 359.859L98.1143 359.856L99.0762 359.841L100.038 359.822L101 359.815L101.962 359.812L102.924 359.808L103.886 359.807L104.848 359.805L105.81 359.802L106.771 359.801L107.733 359.799L108.695 359.798L109.657 359.797L110.619 359.796L111.581 359.793L112.543 359.791L113.505 359.79L114.467 359.788L115.429 359.787L116.39 359.786L117.352 359.784L118.314 359.781L119.276 359.778L120.238 359.775L121.2 359.775L122.162 359.774L123.124 359.772L124.086 359.765L125.048 359.755L126.01 359.754L126.971 359.75L127.933 359.749L128.895 359.748L129.857 359.746L130.819 359.745L131.781 359.743L132.743 359.739L133.705 359.735L134.667 359.729L135.629 359.721L136.59 359.712L137.552 359.707L138.514 359.701L139.476 359.696L140.438 359.694L141.4 359.69L142.362 359.686L143.324 359.681L144.286 359.679L145.248 359.675L146.21 359.663L147.171 359.657L148.133 359.628L149.095 359.551L150.057 359.541L151.019 359.526L151.981 359.517L152.943 359.486L153.905 359.467L154.867 359.451L155.829 359.438L156.79 359.429L157.752 359.419L158.714 359.41L159.676 359.404L160.638 359.398L161.6 359.389L162.562 359.382L163.524 359.373L164.486 359.369L165.448 359.368L166.41 359.366L167.371 359.362L168.333 359.362L169.295 359.361L170.257 359.356L171.219 359.354L172.181 359.356L173.143 359.366L174.105 359.366L175.067 359.361L176.029 359.356L176.99 359.353L177.952 359.343L178.914 359.337L179.876 359.333L180.838 359.329L181.8 359.326L182.762 359.318L183.724 359.317L184.686 359.316L185.648 359.312L186.61 359.281L187.571 359.274L188.533 359.268L189.495 359.26L190.457 359.248L191.419 359.234L192.381 359.176L193.343 359.163L194.305 359.153L195.267 359.146L196.229 359.136L197.19 359.098L198.152 359.051L199.114 359.014L200.076 358.993L201.038 358.923L202 358.851L202.962 358.833L203.924 358.811L204.886 358.806L205.848 358.81L206.81 358.793L207.771 358.791L208.733 358.783L209.695 358.76L210.657 358.613L211.619 358.479L212.581 358.128L213.543 358.128L214.505 357.874L215.467 357.691L216.429 357.662L217.39 357.784L218.352 357.775L219.314 357.753L220.276 357.701L221.238 357.584L222.2 357.441L223.162 357.358L224.124 357.044L225.086 356.983L226.048 356.825L227.01 356.569L227.971 355.775L228.933 355.752L229.895 355.616L230.857 355.48L231.819 354.531L232.781 354.515L233.743 353.723L234.705 353.502L235.667 352.973L236.629 352.776L237.59 352.391L238.552 351.891L239.514 351.763L240.476 351.54L241.438 351.174L242.4 350.794L243.362 350.048L244.324 349.671L245.286 349.273L246.248 349.122L247.21 348.602L248.171 348.023L249.133 347.306L250.095 347.224L251.057 346.574L252.019 346.268L252.981 346.087L253.943 345.755L254.905 344.815L255.867 344.406L256.829 343.451L257.79 342.078L258.752 341.427L259.714 340.624L260.676 339.818L261.638 339.181L262.6 338.812L263.562 338.157L264.524 336.849L265.486 336.169L266.448 334.453L267.41 333.906L268.371 333.163L269.333 332.747L270.295 331.614L271.257 330.861L272.219 329.87L273.181 329.207L274.143 328.4L275.105 328.204L276.067 327.675L277.029 326.631L277.99 325.776L278.952 325.369L279.914 325L280.876 324.428L281.838 323.911L282.8 321.806L283.762 321.17L284.724 320.748L285.686 320.262L286.648 319.835L287.61 319.118L288.571 318.573L289.533 317.872L290.495 317.362L291.457 316.521L292.419 315.695L293.381 315.164L294.343 314.738L295.305 314.235L296.267 313.669L297.229 312.665L298.19 312.129L299.152 311.622L300.114 311.211L301.076 310.862L302.038 310.294L303 309.888L303.962 309.026L304.924 308.577L305.886 308.073L306.848 307.206L307.81 306.692L308.771 306.026L309.733 305.703L310.695 305.013L311.657 304.52L312.619 304.113L313.581 303.411L314.543 302.975L315.505 301.964L316.467 301.193L317.429 300.481L318.39 300.155L319.352 299.553L320.314 298.642L321.276 298.085L322.238 297.36L323.2 296.917L324.162 296.493L325.124 295.984L326.086 294.828L327.048 294.233L328.01 293.882L328.971 293.455L329.933 292.48L330.895 292.025L331.857 291.351L332.819 290.628L333.781 289.982L334.743 289.424L335.705 288.764L336.667 288.21L337.629 286.973L338.59 286.464L339.552 285.867L340.514 285.48L341.476 284.41L342.438 284.029L343.4 283.161L344.362 281.885L345.324 281.246L346.286 280.931L347.248 280.362L348.21 279.873L349.171 279.385L350.133 278.829L351.095 278.16L352.057 277.598L353.019 276.714L353.981 275.737L354.943 275.161L355.905 274.624L356.867 273.822L357.829 273.277L358.79 272.375L359.752 271.041L360.714 269.86L361.676 269.21L362.638 268.498L363.6 267.751L364.562 266.873L365.524 266.387L366.486 265.909L367.448 265.217L368.41 263.966L369.371 263.138L370.333 262.015L371.295 260.574L372.257 259.501L373.219 258.295L374.181 257.404L375.143 256.595L376.105 255.289L377.067 254.147L378.029 253.215L378.99 252.453L379.952 251.375L380.914 250.602L381.876 249.984L382.838 249.267L383.8 248.519L384.762 248.095L385.724 247.349L386.686 246.724L387.648 246.051L388.61 245.582L389.571 245.076L390.533 244.074L391.495 242.771L392.457 241.765L393.419 240.991L394.381 240.139L395.343 239.338L396.305 238.378L397.267 237.631L398.229 236.952L399.19 236.179L400.152 235.439L401.114 234.461L402.076 233.818L403.038 233.202L404 232.758L404.962 231.897L405.924 231.449L406.886 230.929L407.848 230.417L408.81 230.005L409.771 229.463L410.733 228.799L411.695 228.143L412.657 227.527L413.619 227.14L414.581 226.866L415.543 226.521L416.505 225.963L417.467 225.573L418.429 225.08L419.39 224.586L420.352 224.214L421.314 223.763L422.276 223.406L423.238 222.646L424.2 222.044L425.162 221.412L426.124 220.755L427.086 220.152L428.048 219.594L429.01 219.198L429.971 218.828L430.933 217.743L431.895 216.933L432.857 216.376L433.819 215.696L434.781 215.027L435.743 214.33L436.705 213.836L437.667 213.427L438.629 213.01L439.59 212.177L440.552 211.581L441.514 211.028L442.476 210.667L443.438 209.999L444.4 209.629L445.362 209.202L446.324 208.703L447.286 208.264L448.248 207.872L449.21 207.232L450.171 206.454L451.133 205.707L452.095 204.897L453.057 204.159L454.019 203.639L454.981 203.125L455.943 202.511L456.905 201.678L457.867 201.07L458.829 199.93L459.79 199.269L460.752 198.885L461.714 198.582L462.676 198.09L463.638 197.422L464.6 196.806L465.562 196.208L466.524 195.345L467.486 194.57L468.448 193.631L469.41 192.852L470.371 192.386L471.333 191.992L472.295 191.492L473.257 191.078L474.219 190.561L475.181 189.95L476.143 189.393L477.105 188.618L478.067 187.397L479.029 186.521L479.99 185.324L480.952 184.499L481.914 183.229L482.876 182.561L483.838 181.949L484.8 181.165L485.762 180.362L486.724 179.784L487.686 179.203L488.648 178.339L489.61 177.855L490.571 177.238L491.533 176.797L492.495 175.967L493.457 175.361L494.419 174.656L495.381 173.831L496.343 172.91L497.305 172.06L498.267 171.001L499.229 170.067L500.19 169.182L501.152 168.474L502.114 167.728L503.076 167.235L504.038 166.744L505 166.251L505.962 165.956L506.924 165.349L507.886 164.79L508.848 164.064L509.81 163.481L510.771 162.971L511.733 162.347L512.695 161.734L513.657 161.29L514.619 160.854L515.581 160.357L516.543 159.966L517.505 159.292L518.467 158.699L519.429 157.879L520.391 155.969L521.352 155.454L522.314 154.992L523.276 154.247L524.238 153.448L525.2 152.79L526.162 152.156L527.124 151.431L528.086 150.872L529.048 150.472L530.01 150.048L530.971 149.564L531.933 148.623L532.895 147.957L533.857 147.464L534.819 146.965L535.781 146.636L536.743 146.128L537.705 145.747L538.667 145.143L539.629 144.66L540.59 144.267L541.552 143.929L542.514 143.412L543.476 142.921L544.438 142.328L545.4 141.756L546.362 141.122L547.324 138.992L548.286 138.595L549.248 138.049L550.21 137.614L551.171 136.876L552.133 136.18L553.095 135.924L554.057 135.547L555.019 135.135L555.981 134.766L556.943 134.469L557.905 134.045L558.867 133.713L559.829 133.384L560.79 132.976L561.752 132.783L562.714 132.559L563.676 132.189L564.638 131.86L565.6 131.534L566.562 131.296L567.524 130.975L568.486 130.748L569.448 130.579L570.41 130.29L571.371 130.085L572.333 129.891L573.295 129.659L574.257 129.501L575.219 129.278L576.181 129.117L577.143 128.608L578.105 128.383L579.067 128.212L580.029 128.048L580.99 127.807L581.952 127.619L582.914 127.457L583.876 127.207L584.838 126.771L585.8 126.078L586.762 125.52L587.724 124.948L588.686 124.635L589.648 124.196L590.609 123.858L591.571 123.237L592.533 122.983L593.495 122.445L594.457 122.014L595.419 121.754L596.381 121.528L597.343 121.005L598.305 120.531L599.267 120L600.229 119.514L601.19 119.177L602.152 118.883L603.114 118.516L604.076 118.066L605.038 117.769L606 117.531" stroke="#15D6FF" stroke-width="2" stroke-linecap="round"/>
<path d="M0 360H0.961905H2.88571H3.84762H4.80952H5.77143H6.73333H7.69524H11.5429H12.5048H14.4286H16.3524H19.2381H21.1619H22.1238H23.0857H24.0476H25.0095H25.9714H26.9333H27.8952H28.8571H29.819H31.7429H32.7048H33.6667H34.6286H36.5524H37.5143H39.4381H40.4H41.3619H42.3238H43.2857H44.2476H46.1714H49.0571H50.019H50.981H51.9429H52.9048H53.8667H54.8286H55.7905H56.7524H57.7143H58.6762H59.6381H60.6H61.5619H62.5238H63.4857H64.4476H65.4095H66.3714H67.3333H68.2952H69.2571H70.219H71.181H72.1429H73.1048H74.0667H75.0286H75.9905H76.9524H77.9143H78.8762H79.8381H80.8H81.7619H82.7238H83.6857H84.6476H85.6095H86.5714H87.5333H88.4952H89.4571H90.419H91.381H92.3429H93.3048H94.2667H95.2286H96.1905H97.1524H98.1143H99.0762H100.038H101H101.962H102.924H103.886H104.848H105.81H106.771H107.733H108.695H109.657H110.619H111.581H112.543H113.505H114.467H115.429H116.39H117.352H118.314H119.276H120.238H121.2H122.162H123.124H124.086H125.048H126.01H126.971H127.933H128.895H129.857H130.819H131.781H132.743H133.705H134.667H135.629H136.59H137.552H138.514H139.476H140.438H141.4H142.362H143.324H144.286H145.248H146.21H147.171H148.133H149.095H150.057H151.019H151.981H152.943H153.905H154.867H155.829H156.79H157.752H158.714H159.676H160.638H161.6H162.562H163.524H164.486H165.448H166.41H167.371H168.333H169.295H170.257H171.219H172.181H173.143H174.105H175.067H176.029H176.99H177.952H178.914H179.876H180.838H181.8H182.762H183.724H184.686H185.648H186.61H187.571H188.533H189.495H190.457H191.419H192.381H193.343H194.305H195.267H196.229H197.19H198.152H199.114H200.076H201.038H202H202.962H203.924H204.886H205.848H206.81H207.771H208.733H209.695H210.657H211.619H212.581H213.543H214.505H215.467H216.429H217.39H218.352H219.314H220.276H221.238H222.2H223.162H224.124H225.086H226.048H227.01H227.971H228.933H229.895H230.857H231.819H232.781H233.743H234.705H235.667H236.629H237.59H238.552H239.514H240.476H241.438H242.4H243.362H244.324H245.286H246.248H247.21H248.171H249.133H250.095H251.057H252.019H252.981H253.943H254.905H255.867H256.829H257.79H258.752H259.714H260.676H261.638H262.6H263.562H264.524H265.486H266.448H267.41H268.371H269.333H270.295H271.257H272.219H273.181H274.143H275.105H276.067H277.029H277.99H278.952H279.914H280.876H281.838H282.8H283.762H284.724H285.686H286.648H287.61H288.571H289.533H290.495H291.457H292.419H293.381H294.343H295.305H296.267H297.229H298.19H299.152H300.114H301.076H302.038H303H303.962H304.924H305.886H306.848H307.81H308.771H309.733H310.695H311.657H312.619H313.581H314.543H315.505H316.467H317.429H318.39H319.352H320.314H321.276H322.238H323.2H324.162H325.124H326.086H327.048H328.01H328.971H329.933H330.895H331.857H332.819H333.781H334.743H335.705H336.667H337.629H338.59H339.552H340.514H341.476H342.438H343.4H344.362H345.324H346.286H347.248H348.21H349.171H350.133H351.095H352.057H353.019H353.981H354.943H355.905H356.867H357.829H358.79H359.752H360.714H361.676H362.638H363.6H364.562H365.524H366.486H367.448H368.41H369.371H370.333H371.295H372.257H373.219H374.181H375.143H376.105H377.067H378.029H378.99H379.952H380.914H381.876H382.838H383.8H384.762H385.724H386.686H387.648H388.61H389.571H390.533H391.495H392.457H393.419H394.381H395.343H396.305H397.267H398.229H399.19H400.152H401.114H402.076H403.038H404H404.962H405.924H406.886H407.848H408.81H409.771H410.733H411.695H412.657H413.619H414.581H415.543H416.505H417.467H418.429H419.39H420.352H421.314H422.276H423.238H424.2H425.162H426.124H427.086H428.048H429.01H429.971H430.933H431.895H432.857H433.819H434.781H435.743H436.705H437.667H438.629H439.59H440.552H441.514H442.476H443.438H444.4H445.362H446.324H447.286H448.248H449.21H450.171H451.133H452.095H453.057H454.019H454.981H455.943H456.905H457.867H458.829H459.79H460.752H461.714H462.676H463.638H464.6H465.562H466.524H467.486H468.448H469.41H470.371H471.333H472.295H473.257H474.219H475.181H476.143H477.105H478.067H479.029H479.99H480.952H481.914H482.876H483.838H484.8H485.762H486.724H487.686H488.648H489.61H490.571H491.533H492.495H493.457H494.419H495.381H496.343H497.305H498.267H499.229H500.19H501.152H502.114H503.076H504.038H505H505.962H506.924H507.886H508.848H509.81H510.771H511.733H512.695H513.657H514.619H515.581H516.543H517.505H518.467H519.429H520.391H521.352H522.314H523.276H524.238H525.2H526.162H527.124H528.086H529.048H530.01H530.971H531.933H532.895H533.857H534.819H535.781H536.743H537.705H538.667H539.629H540.59H541.552H542.514H543.476H544.438H545.4H546.362H547.324H548.286H549.248H550.21H551.171H552.133H553.095H554.057H555.019H555.981H556.943H557.905H558.867H559.829H560.79H561.752H562.714H563.676H564.638H565.6H566.562H567.524H568.486H569.448H570.41H571.371H572.333H573.295H574.257H575.219H576.181H577.143H578.105H579.067H580.029H580.99H581.952H582.914H583.876H584.838H585.8H586.762H587.724H588.686H589.648H590.609H591.571H592.533H593.495H594.457H595.419H596.381H597.343H598.305H599.267H600.229H601.19H602.152H603.114H604.076H605.038H606V117.531L605.038 117.769L604.076 118.066L603.114 118.516L602.152 118.883L601.19 119.177L600.229 119.514L599.267 120L598.305 120.531L597.343 121.005L596.381 121.528L595.419 121.754L594.457 122.014L593.495 122.445L592.533 122.983L591.571 123.237L590.609 123.858L589.648 124.196L588.686 124.635L587.724 124.948L586.762 125.52L585.8 126.078L584.838 126.771L583.876 127.207L582.914 127.457L581.952 127.619L580.99 127.807L580.029 128.048L579.067 128.212L578.105 128.383L577.143 128.608L576.181 129.117L575.219 129.278L574.257 129.501L573.295 129.659L572.333 129.891L571.371 130.085L570.41 130.29L569.448 130.579L568.486 130.748L567.524 130.975L566.562 131.296L565.6 131.534L564.638 131.86L563.676 132.189L562.714 132.559L561.752 132.783L560.79 132.976L559.829 133.384L558.867 133.713L557.905 134.045L556.943 134.469L555.981 134.766L555.019 135.135L554.057 135.547L553.095 135.924L552.133 136.18L551.171 136.876L550.21 137.614L549.248 138.049L548.286 138.595L547.324 138.992L546.362 141.122L545.4 141.756L544.438 142.328L543.476 142.921L542.514 143.412L541.552 143.929L540.59 144.267L539.629 144.66L538.667 145.143L537.705 145.747L536.743 146.128L535.781 146.636L534.819 146.965L533.857 147.464L532.895 147.957L531.933 148.623L530.971 149.564L530.01 150.048L529.048 150.472L528.086 150.872L527.124 151.431L526.162 152.156L525.2 152.79L524.238 153.448L523.276 154.247L522.314 154.992L521.352 155.454L520.391 155.969L519.429 157.879L518.467 158.699L517.505 159.292L516.543 159.966L515.581 160.357L514.619 160.854L513.657 161.29L512.695 161.734L511.733 162.347L510.771 162.971L509.81 163.481L508.848 164.064L507.886 164.79L506.924 165.349L505.962 165.956L505 166.251L504.038 166.744L503.076 167.235L502.114 167.728L501.152 168.474L500.19 169.182L499.229 170.067L498.267 171.001L497.305 172.06L496.343 172.91L495.381 173.831L494.419 174.656L493.457 175.361L492.495 175.967L491.533 176.797L490.571 177.238L489.61 177.855L488.648 178.339L487.686 179.203L486.724 179.784L485.762 180.362L484.8 181.165L483.838 181.949L482.876 182.561L481.914 183.229L480.952 184.499L479.99 185.324L479.029 186.521L478.067 187.397L477.105 188.618L476.143 189.393L475.181 189.95L474.219 190.561L473.257 191.078L472.295 191.492L471.333 191.992L470.371 192.386L469.41 192.852L468.448 193.631L467.486 194.57L466.524 195.345L465.562 196.208L464.6 196.806L463.638 197.422L462.676 198.09L461.714 198.582L460.752 198.885L459.79 199.269L458.829 199.93L457.867 201.07L456.905 201.678L455.943 202.511L454.981 203.125L454.019 203.639L453.057 204.159L452.095 204.897L451.133 205.707L450.171 206.454L449.21 207.232L448.248 207.872L447.286 208.264L446.324 208.703L445.362 209.202L444.4 209.629L443.438 209.999L442.476 210.667L441.514 211.028L440.552 211.581L439.59 212.177L438.629 213.01L437.667 213.427L436.705 213.836L435.743 214.33L434.781 215.027L433.819 215.696L432.857 216.376L431.895 216.933L430.933 217.743L429.971 218.828L429.01 219.198L428.048 219.594L427.086 220.152L426.124 220.755L425.162 221.412L424.2 222.044L423.238 222.646L422.276 223.406L421.314 223.763L420.352 224.214L419.39 224.586L418.429 225.08L417.467 225.573L416.505 225.963L415.543 226.521L414.581 226.866L413.619 227.14L412.657 227.527L411.695 228.143L410.733 228.799L409.771 229.463L408.81 230.005L407.848 230.417L406.886 230.929L405.924 231.449L404.962 231.897L404 232.758L403.038 233.202L402.076 233.818L401.114 234.461L400.152 235.439L399.19 236.179L398.229 236.952L397.267 237.631L396.305 238.378L395.343 239.338L394.381 240.139L393.419 240.991L392.457 241.765L391.495 242.771L390.533 244.074L389.571 245.076L388.61 245.582L387.648 246.051L386.686 246.724L385.724 247.349L384.762 248.095L383.8 248.519L382.838 249.267L381.876 249.984L380.914 250.602L379.952 251.375L378.99 252.453L378.029 253.215L377.067 254.147L376.105 255.289L375.143 256.595L374.181 257.404L373.219 258.295L372.257 259.501L371.295 260.574L370.333 262.015L369.371 263.138L368.41 263.966L367.448 265.217L366.486 265.909L365.524 266.387L364.562 266.873L363.6 267.751L362.638 268.498L361.676 269.21L360.714 269.86L359.752 271.041L358.79 272.375L357.829 273.277L356.867 273.822L355.905 274.624L354.943 275.161L353.981 275.737L353.019 276.714L352.057 277.598L351.095 278.16L350.133 278.829L349.171 279.385L348.21 279.873L347.248 280.362L346.286 280.931L345.324 281.246L344.362 281.885L343.4 283.161L342.438 284.029L341.476 284.41L340.514 285.48L339.552 285.867L338.59 286.464L337.629 286.973L336.667 288.21L335.705 288.764L334.743 289.424L333.781 289.982L332.819 290.628L331.857 291.351L330.895 292.025L329.933 292.48L328.971 293.455L328.01 293.882L327.048 294.233L326.086 294.828L325.124 295.984L324.162 296.493L323.2 296.917L322.238 297.36L321.276 298.085L320.314 298.642L319.352 299.553L318.39 300.155L317.429 300.481L316.467 301.193L315.505 301.964L314.543 302.975L313.581 303.411L312.619 304.113L311.657 304.52L310.695 305.013L309.733 305.703L308.771 306.026L307.81 306.692L306.848 307.206L305.886 308.073L304.924 308.577L303.962 309.026L303 309.888L302.038 310.294L301.076 310.862L300.114 311.211L299.152 311.622L298.19 312.129L297.229 312.665L296.267 313.669L295.305 314.235L294.343 314.738L293.381 315.164L292.419 315.695L291.457 316.521L290.495 317.362L289.533 317.872L288.571 318.573L287.61 319.118L286.648 319.835L285.686 320.262L284.724 320.748L283.762 321.17L282.8 321.806L281.838 323.911L280.876 324.428L279.914 325L278.952 325.369L277.99 325.776L277.029 326.631L276.067 327.675L275.105 328.204L274.143 328.4L273.181 329.207L272.219 329.87L271.257 330.861L270.295 331.614L269.333 332.747L268.371 333.163L267.41 333.906L266.448 334.453L265.486 336.169L264.524 336.849L263.562 338.157L262.6 338.812L261.638 339.181L260.676 339.818L259.714 340.624L258.752 341.427L257.79 342.078L256.829 343.451L255.867 344.406L254.905 344.815L253.943 345.755L252.981 346.087L252.019 346.268L251.057 346.574L250.095 347.224L249.133 347.306L248.171 348.023L247.21 348.602L246.248 349.122L245.286 349.273L244.324 349.671L243.362 350.048L242.4 350.794L241.438 351.174L240.476 351.54L239.514 351.763L238.552 351.891L237.59 352.391L236.629 352.776L235.667 352.973L234.705 353.502L233.743 353.723L232.781 354.515L231.819 354.531L230.857 355.48L229.895 355.616L228.933 355.752L227.971 355.775L227.01 356.569L226.048 356.825L225.086 356.983L224.124 357.044L223.162 357.358L222.2 357.441L221.238 357.584L220.276 357.701L219.314 357.753L218.352 357.775L217.39 357.784L216.429 357.662L215.467 357.691L214.505 357.874L213.543 358.128L212.581 358.128L211.619 358.479L210.657 358.613L209.695 358.76L208.733 358.783L207.771 358.791L206.81 358.793L205.848 358.81L204.886 358.806L203.924 358.811L202.962 358.833L202 358.851L201.038 358.923L200.076 358.993L199.114 359.014L198.152 359.051L197.19 359.098L196.229 359.136L195.267 359.146L194.305 359.153L193.343 359.163L192.381 359.176L191.419 359.234L190.457 359.248L189.495 359.26L188.533 359.268L187.571 359.274L186.61 359.281L185.648 359.312L184.686 359.316L183.724 359.317L182.762 359.318L181.8 359.326L180.838 359.329L179.876 359.333L178.914 359.337L177.952 359.343L176.99 359.353L176.029 359.356L175.067 359.361L174.105 359.366L173.143 359.366L172.181 359.356L171.219 359.354L170.257 359.356L169.295 359.361L168.333 359.362L167.371 359.362L166.41 359.366L165.448 359.368L164.486 359.369L163.524 359.373L162.562 359.382L161.6 359.389L160.638 359.398L159.676 359.404L158.714 359.41L157.752 359.419L156.79 359.429L155.829 359.438L154.867 359.451L153.905 359.467L152.943 359.486L151.981 359.517L151.019 359.526L150.057 359.541L149.095 359.551L148.133 359.628L147.171 359.657L146.21 359.663L145.248 359.675L144.286 359.679L143.324 359.681L142.362 359.686L141.4 359.69L140.438 359.694L139.476 359.696L138.514 359.701L137.552 359.707L136.59 359.712L135.629 359.721L134.667 359.729L133.705 359.735L132.743 359.739L131.781 359.743L130.819 359.745L129.857 359.746L128.895 359.748L127.933 359.749L126.971 359.75L126.01 359.754L125.048 359.755L124.086 359.765L123.124 359.772L122.162 359.774L121.2 359.775L120.238 359.775L119.276 359.778L118.314 359.781L117.352 359.784L116.39 359.786L115.429 359.787L114.467 359.788L113.505 359.79L112.543 359.791L111.581 359.793L110.619 359.796L109.657 359.797L108.695 359.798L107.733 359.799L106.771 359.801L105.81 359.802L104.848 359.805L103.886 359.807L102.924 359.808L101.962 359.812L101 359.815L100.038 359.822L99.0762 359.841L98.1143 359.856L97.1524 359.859L96.1905 359.865L95.2286 359.896L94.2667 359.921L93.3048 359.934L92.3429 359.953L91.381 359.975L90.419 359.991L89.4571 359.996L88.4952 359.996L87.5333 359.997L86.5714 359.997H85.6095H84.6476H83.6857H82.7238H81.7619H80.8H79.8381H78.8762H77.9143H76.9524H75.9905H75.0286L74.0667 359.997H73.1048H72.1429H71.181H70.219L69.2571 359.997H68.2952H67.3333L66.3714 359.997L65.4095 359.997H64.4476H63.4857H62.5238H61.5619H60.6H59.6381H58.6762H57.7143H56.7524H55.7905H54.8286H53.8667H52.9048H51.9429H50.981L50.019 359.998H49.0571H46.1714H44.2476L43.2857 359.998H42.3238H41.3619H40.4L39.4381 359.998H37.5143H36.5524H34.6286H33.6667H32.7048L31.7429 359.998H29.819L28.8571 359.999H27.8952L26.9333 359.999H25.9714H25.0095H24.0476L23.0857 359.999H22.1238H21.1619H19.2381L16.3524 359.999L14.4286 360H12.5048H11.5429L7.69524 360H6.73333H5.77143H4.80952H3.84762H2.88571H0.961905H0V360Z" fill="#15D6FF"/>
<path d="M0 360H0.961905H2.88571H3.84762H4.80952H5.77143H6.73333H7.69524H11.5429H12.5048H14.4286H16.3524H19.2381H21.1619H22.1238H23.0857H24.0476H25.0095H25.9714H26.9333H27.8952H28.8571H29.819H31.7429H32.7048H33.6667H34.6286H36.5524H37.5143H39.4381H40.4H41.3619H42.3238H43.2857H44.2476H46.1714H49.0571H50.019H50.981H51.9429H52.9048H53.8667H54.8286H55.7905H56.7524H57.7143H58.6762H59.6381H60.6H61.5619H62.5238H63.4857H64.4476H65.4095H66.3714H67.3333H68.2952H69.2571H70.219H71.181H72.1429H73.1048H74.0667H75.0286H75.9905H76.9524H77.9143H78.8762H79.8381H80.8H81.7619H82.7238H83.6857H84.6476H85.6095H86.5714H87.5333H88.4952H89.4571H90.419H91.381H92.3429H93.3048H94.2667H95.2286H96.1905H97.1524H98.1143H99.0762H100.038H101H101.962H102.924H103.886H104.848H105.81H106.771H107.733H108.695H109.657H110.619H111.581H112.543H113.505H114.467H115.429H116.39H117.352H118.314H119.276H120.238H121.2H122.162H123.124H124.086H125.048H126.01H126.971H127.933H128.895H129.857H130.819H131.781H132.743H133.705H134.667H135.629H136.59H137.552H138.514H139.476H140.438H141.4H142.362H143.324H144.286H145.248H146.21H147.171H148.133H149.095H150.057H151.019H151.981H152.943H153.905H154.867H155.829H156.79H157.752H158.714H159.676H160.638H161.6H162.562H163.524H164.486H165.448H166.41H167.371H168.333H169.295H170.257H171.219H172.181H173.143H174.105H175.067H176.029H176.99H177.952H178.914H179.876H180.838H181.8H182.762H183.724H184.686H185.648H186.61H187.571H188.533H189.495H190.457H191.419H192.381H193.343H194.305H195.267H196.229H197.19H198.152H199.114H200.076H201.038H202H202.962H203.924H204.886H205.848H206.81H207.771H208.733H209.695H210.657H211.619H212.581H213.543H214.505H215.467H216.429H217.39H218.352H219.314H220.276H221.238H222.2H223.162H224.124H225.086H226.048H227.01H227.971H228.933H229.895H230.857H231.819H232.781H233.743H234.705H235.667H236.629H237.59H238.552H239.514H240.476H241.438H242.4H243.362H244.324H245.286H246.248H247.21H248.171H249.133H250.095H251.057H252.019H252.981H253.943H254.905H255.867H256.829H257.79H258.752H259.714H260.676H261.638H262.6H263.562H264.524H265.486H266.448H267.41H268.371H269.333H270.295H271.257H272.219H273.181H274.143H275.105H276.067H277.029H277.99H278.952H279.914H280.876H281.838H282.8H283.762H284.724H285.686H286.648H287.61H288.571H289.533H290.495H291.457H292.419H293.381H294.343H295.305H296.267H297.229H298.19H299.152H300.114H301.076H302.038H303H303.962H304.924H305.886H306.848H307.81H308.771H309.733H310.695H311.657H312.619H313.581H314.543H315.505H316.467H317.429H318.39H319.352H320.314H321.276H322.238H323.2H324.162H325.124H326.086H327.048H328.01H328.971H329.933H330.895H331.857H332.819H333.781H334.743H335.705H336.667H337.629H338.59H339.552H340.514H341.476H342.438H343.4H344.362H345.324H346.286H347.248H348.21H349.171H350.133H351.095H352.057H353.019H353.981H354.943H355.905H356.867H357.829H358.79H359.752H360.714H361.676H362.638H363.6H364.562H365.524H366.486H367.448H368.41H369.371H370.333H371.295H372.257H373.219H374.181H375.143H376.105H377.067H378.029H378.99H379.952H380.914H381.876H382.838H383.8H384.762H385.724H386.686H387.648H388.61H389.571H390.533H391.495H392.457H393.419H394.381H395.343H396.305H397.267H398.229H399.19H400.152H401.114H402.076H403.038H404H404.962H405.924H406.886H407.848H408.81H409.771H410.733H411.695H412.657H413.619H414.581H415.543H416.505H417.467H418.429H419.39H420.352H421.314H422.276H423.238H424.2H425.162H426.124H427.086H428.048H429.01H429.971H430.933H431.895H432.857H433.819H434.781H435.743H436.705H437.667H438.629H439.59H440.552H441.514H442.476H443.438H444.4H445.362H446.324H447.286H448.248H449.21H450.171H451.133H452.095H453.057H454.019H454.981H455.943H456.905H457.867H458.829H459.79H460.752H461.714H462.676H463.638H464.6H465.562H466.524H467.486H468.448H469.41H470.371H471.333H472.295H473.257H474.219H475.181H476.143H477.105H478.067H479.029H479.99H480.952H481.914H482.876H483.838H484.8H485.762H486.724H487.686H488.648H489.61H490.571H491.533H492.495H493.457H494.419H495.381H496.343H497.305H498.267H499.229H500.19H501.152H502.114H503.076H504.038H505H505.962H506.924H507.886H508.848H509.81H510.771H511.733H512.695H513.657H514.619H515.581H516.543H517.505H518.467H519.429H520.391H521.352H522.314H523.276H524.238H525.2H526.162H527.124H528.086H529.048H530.01H530.971H531.933H532.895H533.857H534.819H535.781H536.743H537.705H538.667H539.629H540.59H541.552H542.514H543.476H544.438H545.4H546.362H547.324H548.286H549.248H550.21H551.171H552.133H553.095H554.057H555.019H555.981H556.943H557.905H558.867H559.829H560.79H561.752H562.714H563.676H564.638H565.6H566.562H567.524H568.486H569.448H570.41H571.371H572.333H573.295H574.257H575.219H576.181H577.143H578.105H579.067H580.029H580.99H581.952H582.914H583.876H584.838H585.8H586.762H587.724H588.686H589.648H590.609H591.571H592.533H593.495H594.457H595.419H596.381H597.343H598.305H599.267H600.229H601.19H602.152H603.114H604.076H605.038H606V117.531L605.038 117.769L604.076 118.066L603.114 118.516L602.152 118.883L601.19 119.177L600.229 119.514L599.267 120L598.305 120.531L597.343 121.005L596.381 121.528L595.419 121.754L594.457 122.014L593.495 122.445L592.533 122.983L591.571 123.237L590.609 123.858L589.648 124.196L588.686 124.635L587.724 124.948L586.762 125.52L585.8 126.078L584.838 126.771L583.876 127.207L582.914 127.457L581.952 127.619L580.99 127.807L580.029 128.048L579.067 128.212L578.105 128.383L577.143 128.608L576.181 129.117L575.219 129.278L574.257 129.501L573.295 129.659L572.333 129.891L571.371 130.085L570.41 130.29L569.448 130.579L568.486 130.748L567.524 130.975L566.562 131.296L565.6 131.534L564.638 131.86L563.676 132.189L562.714 132.559L561.752 132.783L560.79 132.976L559.829 133.384L558.867 133.713L557.905 134.045L556.943 134.469L555.981 134.766L555.019 135.135L554.057 135.547L553.095 135.924L552.133 136.18L551.171 136.876L550.21 137.614L549.248 138.049L548.286 138.595L547.324 138.992L546.362 141.122L545.4 141.756L544.438 142.328L543.476 142.921L542.514 143.412L541.552 143.929L540.59 144.267L539.629 144.66L538.667 145.143L537.705 145.747L536.743 146.128L535.781 146.636L534.819 146.965L533.857 147.464L532.895 147.957L531.933 148.623L530.971 149.564L530.01 150.048L529.048 150.472L528.086 150.872L527.124 151.431L526.162 152.156L525.2 152.79L524.238 153.448L523.276 154.247L522.314 154.992L521.352 155.454L520.391 155.969L519.429 157.879L518.467 158.699L517.505 159.292L516.543 159.966L515.581 160.357L514.619 160.854L513.657 161.29L512.695 161.734L511.733 162.347L510.771 162.971L509.81 163.481L508.848 164.064L507.886 164.79L506.924 165.349L505.962 165.956L505 166.251L504.038 166.744L503.076 167.235L502.114 167.728L501.152 168.474L500.19 169.182L499.229 170.067L498.267 171.001L497.305 172.06L496.343 172.91L495.381 173.831L494.419 174.656L493.457 175.361L492.495 175.967L491.533 176.797L490.571 177.238L489.61 177.855L488.648 178.339L487.686 179.203L486.724 179.784L485.762 180.362L484.8 181.165L483.838 181.949L482.876 182.561L481.914 183.229L480.952 184.499L479.99 185.324L479.029 186.521L478.067 187.397L477.105 188.618L476.143 189.393L475.181 189.95L474.219 190.561L473.257 191.078L472.295 191.492L471.333 191.992L470.371 192.386L469.41 192.852L468.448 193.631L467.486 194.57L466.524 195.345L465.562 196.208L464.6 196.806L463.638 197.422L462.676 198.09L461.714 198.582L460.752 198.885L459.79 199.269L458.829 199.93L457.867 201.07L456.905 201.678L455.943 202.511L454.981 203.125L454.019 203.639L453.057 204.159L452.095 204.897L451.133 205.707L450.171 206.454L449.21 207.232L448.248 207.872L447.286 208.264L446.324 208.703L445.362 209.202L444.4 209.629L443.438 209.999L442.476 210.667L441.514 211.028L440.552 211.581L439.59 212.177L438.629 213.01L437.667 213.427L436.705 213.836L435.743 214.33L434.781 215.027L433.819 215.696L432.857 216.376L431.895 216.933L430.933 217.743L429.971 218.828L429.01 219.198L428.048 219.594L427.086 220.152L426.124 220.755L425.162 221.412L424.2 222.044L423.238 222.646L422.276 223.406L421.314 223.763L420.352 224.214L419.39 224.586L418.429 225.08L417.467 225.573L416.505 225.963L415.543 226.521L414.581 226.866L413.619 227.14L412.657 227.527L411.695 228.143L410.733 228.799L409.771 229.463L408.81 230.005L407.848 230.417L406.886 230.929L405.924 231.449L404.962 231.897L404 232.758L403.038 233.202L402.076 233.818L401.114 234.461L400.152 235.439L399.19 236.179L398.229 236.952L397.267 237.631L396.305 238.378L395.343 239.338L394.381 240.139L393.419 240.991L392.457 241.765L391.495 242.771L390.533 244.074L389.571 245.076L388.61 245.582L387.648 246.051L386.686 246.724L385.724 247.349L384.762 248.095L383.8 248.519L382.838 249.267L381.876 249.984L380.914 250.602L379.952 251.375L378.99 252.453L378.029 253.215L377.067 254.147L376.105 255.289L375.143 256.595L374.181 257.404L373.219 258.295L372.257 259.501L371.295 260.574L370.333 262.015L369.371 263.138L368.41 263.966L367.448 265.217L366.486 265.909L365.524 266.387L364.562 266.873L363.6 267.751L362.638 268.498L361.676 269.21L360.714 269.86L359.752 271.041L358.79 272.375L357.829 273.277L356.867 273.822L355.905 274.624L354.943 275.161L353.981 275.737L353.019 276.714L352.057 277.598L351.095 278.16L350.133 278.829L349.171 279.385L348.21 279.873L347.248 280.362L346.286 280.931L345.324 281.246L344.362 281.885L343.4 283.161L342.438 284.029L341.476 284.41L340.514 285.48L339.552 285.867L338.59 286.464L337.629 286.973L336.667 288.21L335.705 288.764L334.743 289.424L333.781 289.982L332.819 290.628L331.857 291.351L330.895 292.025L329.933 292.48L328.971 293.455L328.01 293.882L327.048 294.233L326.086 294.828L325.124 295.984L324.162 296.493L323.2 296.917L322.238 297.36L321.276 298.085L320.314 298.642L319.352 299.553L318.39 300.155L317.429 300.481L316.467 301.193L315.505 301.964L314.543 302.975L313.581 303.411L312.619 304.113L311.657 304.52L310.695 305.013L309.733 305.703L308.771 306.026L307.81 306.692L306.848 307.206L305.886 308.073L304.924 308.577L303.962 309.026L303 309.888L302.038 310.294L301.076 310.862L300.114 311.211L299.152 311.622L298.19 312.129L297.229 312.665L296.267 313.669L295.305 314.235L294.343 314.738L293.381 315.164L292.419 315.695L291.457 316.521L290.495 317.362L289.533 317.872L288.571 318.573L287.61 319.118L286.648 319.835L285.686 320.262L284.724 320.748L283.762 321.17L282.8 321.806L281.838 323.911L280.876 324.428L279.914 325L278.952 325.369L277.99 325.776L277.029 326.631L276.067 327.675L275.105 328.204L274.143 328.4L273.181 329.207L272.219 329.87L271.257 330.861L270.295 331.614L269.333 332.747L268.371 333.163L267.41 333.906L266.448 334.453L265.486 336.169L264.524 336.849L263.562 338.157L262.6 338.812L261.638 339.181L260.676 339.818L259.714 340.624L258.752 341.427L257.79 342.078L256.829 343.451L255.867 344.406L254.905 344.815L253.943 345.755L252.981 346.087L252.019 346.268L251.057 346.574L250.095 347.224L249.133 347.306L248.171 348.023L247.21 348.602L246.248 349.122L245.286 349.273L244.324 349.671L243.362 350.048L242.4 350.794L241.438 351.174L240.476 351.54L239.514 351.763L238.552 351.891L237.59 352.391L236.629 352.776L235.667 352.973L234.705 353.502L233.743 353.723L232.781 354.515L231.819 354.531L230.857 355.48L229.895 355.616L228.933 355.752L227.971 355.775L227.01 356.569L226.048 356.825L225.086 356.983L224.124 357.044L223.162 357.358L222.2 357.441L221.238 357.584L220.276 357.701L219.314 357.753L218.352 357.775L217.39 357.784L216.429 357.662L215.467 357.691L214.505 357.874L213.543 358.128L212.581 358.128L211.619 358.479L210.657 358.613L209.695 358.76L208.733 358.783L207.771 358.791L206.81 358.793L205.848 358.81L204.886 358.806L203.924 358.811L202.962 358.833L202 358.851L201.038 358.923L200.076 358.993L199.114 359.014L198.152 359.051L197.19 359.098L196.229 359.136L195.267 359.146L194.305 359.153L193.343 359.163L192.381 359.176L191.419 359.234L190.457 359.248L189.495 359.26L188.533 359.268L187.571 359.274L186.61 359.281L185.648 359.312L184.686 359.316L183.724 359.317L182.762 359.318L181.8 359.326L180.838 359.329L179.876 359.333L178.914 359.337L177.952 359.343L176.99 359.353L176.029 359.356L175.067 359.361L174.105 359.366L173.143 359.366L172.181 359.356L171.219 359.354L170.257 359.356L169.295 359.361L168.333 359.362L167.371 359.362L166.41 359.366L165.448 359.368L164.486 359.369L163.524 359.373L162.562 359.382L161.6 359.389L160.638 359.398L159.676 359.404L158.714 359.41L157.752 359.419L156.79 359.429L155.829 359.438L154.867 359.451L153.905 359.467L152.943 359.486L151.981 359.517L151.019 359.526L150.057 359.541L149.095 359.551L148.133 359.628L147.171 359.657L146.21 359.663L145.248 359.675L144.286 359.679L143.324 359.681L142.362 359.686L141.4 359.69L140.438 359.694L139.476 359.696L138.514 359.701L137.552 359.707L136.59 359.712L135.629 359.721L134.667 359.729L133.705 359.735L132.743 359.739L131.781 359.743L130.819 359.745L129.857 359.746L128.895 359.748L127.933 359.749L126.971 359.75L126.01 359.754L125.048 359.755L124.086 359.765L123.124 359.772L122.162 359.774L121.2 359.775L120.238 359.775L119.276 359.778L118.314 359.781L117.352 359.784L116.39 359.786L115.429 359.787L114.467 359.788L113.505 359.79L112.543 359.791L111.581 359.793L110.619 359.796L109.657 359.797L108.695 359.798L107.733 359.799L106.771 359.801L105.81 359.802L104.848 359.805L103.886 359.807L102.924 359.808L101.962 359.812L101 359.815L100.038 359.822L99.0762 359.841L98.1143 359.856L97.1524 359.859L96.1905 359.865L95.2286 359.896L94.2667 359.921L93.3048 359.934L92.3429 359.953L91.381 359.975L90.419 359.991L89.4571 359.996L88.4952 359.996L87.5333 359.997L86.5714 359.997H85.6095H84.6476H83.6857H82.7238H81.7619H80.8H79.8381H78.8762H77.9143H76.9524H75.9905H75.0286L74.0667 359.997H73.1048H72.1429H71.181H70.219L69.2571 359.997H68.2952H67.3333L66.3714 359.997L65.4095 359.997H64.4476H63.4857H62.5238H61.5619H60.6H59.6381H58.6762H57.7143H56.7524H55.7905H54.8286H53.8667H52.9048H51.9429H50.981L50.019 359.998H49.0571H46.1714H44.2476L43.2857 359.998H42.3238H41.3619H40.4L39.4381 359.998H37.5143H36.5524H34.6286H33.6667H32.7048L31.7429 359.998H29.819L28.8571 359.999H27.8952L26.9333 359.999H25.9714H25.0095H24.0476L23.0857 359.999H22.1238H21.1619H19.2381L16.3524 359.999L14.4286 360H12.5048H11.5429L7.69524 360H6.73333H5.77143H4.80952H3.84762H2.88571H0.961905H0V360Z" fill="#15D6FF"/>
<path d="M0 360H606" stroke="#15D6FF" stroke-dasharray="4 4"/>
<path d="M0 315H606" stroke="#15D6FF" stroke-dasharray="4 4"/>
<path d="M0 270H606" stroke="#15D6FF" stroke-dasharray="4 4"/>
<path d="M0 225H606" stroke="#15D6FF" stroke-dasharray="4 4"/>
<path d="M0 180H606" stroke="#15D6FF" stroke-dasharray="4 4"/>
<path d="M0 135H606" stroke="#15D6FF" stroke-dasharray="4 4"/>
<path d="M0 90H606" stroke="#15D6FF" stroke-dasharray="4 4"/>
<path d="M0 45H606" stroke="#15D6FF" stroke-dasharray="4 4"/>
<path d="M0 0H606" stroke="#15D6FF" stroke-dasharray="4 4"/>
<path opacity="0.6" d="M0 360.5V362.5" stroke="#15D6FF" stroke-linecap="square"/>
<path opacity="0.6" d="M2.88574 360.5V362.5" stroke="#15D6FF" stroke-linecap="square"/>
<path opacity="0.6" d="M4.80957 360.5V362.5" stroke="#15D6FF" stroke-linecap="square"/>
<path opacity="0.6" d="M6.7334 360.5V362.5" stroke="#15D6FF" stroke-linecap="square"/>
<path opacity="0.6" d="M11.543 360.5V362.5" stroke="#15D6FF" stroke-linecap="square"/>
<path opacity="0.6" d="M14.4287 360.5V362.5" stroke="#15D6FF" stroke-linecap="square"/>
<path opacity="0.6" d="M19.238 360.5V362.5" stroke="#15D6FF" stroke-linecap="square"/>
<path opacity="0.6" d="M22.1238 360.5V362.5" stroke="#15D6FF" stroke-linecap="square"/>
<path opacity="0.6" d="M24.0476 360.5V362.5" stroke="#15D6FF" stroke-linecap="square"/>
<path opacity="0.6" d="M25.9714 360.5V362.5" stroke="#15D6FF" stroke-linecap="square"/>
<path opacity="0.6" d="M27.8953 360.5V362.5" stroke="#15D6FF" stroke-linecap="square"/>
<path opacity="0.6" d="M29.8191 360.5V362.5" stroke="#15D6FF" stroke-linecap="square"/>
<path opacity="0.6" d="M32.7046 360.5V362.5" stroke="#15D6FF" stroke-linecap="square"/>
<path opacity="0.6" d="M34.6284 360.5V362.5" stroke="#15D6FF" stroke-linecap="square"/>
<path opacity="0.6" d="M37.5142 360.5V362.5" stroke="#15D6FF" stroke-linecap="square"/>
<path opacity="0.6" d="M40.3999 360.5V362.5" stroke="#15D6FF" stroke-linecap="square"/>
<path opacity="0.6" d="M42.3237 360.5V362.5" stroke="#15D6FF" stroke-linecap="square"/>
<path opacity="0.6" d="M44.2476 360.5V362.5" stroke="#15D6FF" stroke-linecap="square"/>
<path opacity="0.6" d="M49.0571 360.5V362.5" stroke="#15D6FF" stroke-linecap="square"/>
<path opacity="0.6" d="M50.981 360.5V362.5" stroke="#15D6FF" stroke-linecap="square"/>
<path opacity="0.6" d="M52.9048 360.5V362.5" stroke="#15D6FF" stroke-linecap="square"/>
<path opacity="0.6" d="M54.8286 360.5V362.5" stroke="#15D6FF" stroke-linecap="square"/>
<path opacity="0.6" d="M56.7524 360.5V362.5" stroke="#15D6FF" stroke-linecap="square"/>
<path opacity="0.6" d="M58.6763 360.5V362.5" stroke="#15D6FF" stroke-linecap="square"/>
<path opacity="0.6" d="M60.6001 360.5V362.5" stroke="#15D6FF" stroke-linecap="square"/>
<path opacity="0.6" d="M62.5239 360.5V362.5" stroke="#15D6FF" stroke-linecap="square"/>
<path opacity="0.6" d="M64.4475 360.5V362.5" stroke="#15D6FF" stroke-linecap="square"/>
<path opacity="0.6" d="M66.3713 360.5V362.5" stroke="#15D6FF" stroke-linecap="square"/>
<path opacity="0.6" d="M68.2952 360.5V362.5" stroke="#15D6FF" stroke-linecap="square"/>
<path opacity="0.6" d="M70.219 360.5V362.5" stroke="#15D6FF" stroke-linecap="square"/>
<path opacity="0.6" d="M72.1428 360.5V362.5" stroke="#15D6FF" stroke-linecap="square"/>
<path opacity="0.6" d="M74.0667 360.5V362.5" stroke="#15D6FF" stroke-linecap="square"/>
<path opacity="0.6" d="M75.9905 360.5V362.5" stroke="#15D6FF" stroke-linecap="square"/>
<path opacity="0.6" d="M77.9143 360.5V362.5" stroke="#15D6FF" stroke-linecap="square"/>
<path opacity="0.6" d="M79.8381 360.5V362.5" stroke="#15D6FF" stroke-linecap="square"/>
<path opacity="0.6" d="M81.762 360.5V362.5" stroke="#15D6FF" stroke-linecap="square"/>
<path opacity="0.6" d="M83.6858 360.5V362.5" stroke="#15D6FF" stroke-linecap="square"/>
<path opacity="0.6" d="M85.6096 360.5V362.5" stroke="#15D6FF" stroke-linecap="square"/>
<path opacity="0.6" d="M87.5334 360.5V362.5" stroke="#15D6FF" stroke-linecap="square"/>
<path opacity="0.6" d="M89.457 360.5V362.5" stroke="#15D6FF" stroke-linecap="square"/>
<path opacity="0.6" d="M91.3809 360.5V362.5" stroke="#15D6FF" stroke-linecap="square"/>
<path opacity="0.6" d="M93.3047 360.5V362.5" stroke="#15D6FF" stroke-linecap="square"/>
<path opacity="0.6" d="M95.2285 360.5V362.5" stroke="#15D6FF" stroke-linecap="square"/>
<path opacity="0.6" d="M97.1523 360.5V362.5" stroke="#15D6FF" stroke-linecap="square"/>
<path opacity="0.6" d="M99.0762 360.5V362.5" stroke="#15D6FF" stroke-linecap="square"/>
<path opacity="0.6" d="M101 360.5V362.5" stroke="#15D6FF" stroke-linecap="square"/>
<path opacity="0.6" d="M102.924 360.5V362.5" stroke="#15D6FF" stroke-linecap="square"/>
<path opacity="0.6" d="M104.848 360.5V362.5" stroke="#15D6FF" stroke-linecap="square"/>
<path opacity="0.6" d="M106.771 360.5V362.5" stroke="#15D6FF" stroke-linecap="square"/>
<path opacity="0.6" d="M108.695 360.5V362.5" stroke="#15D6FF" stroke-linecap="square"/>
<path opacity="0.6" d="M110.619 360.5V362.5" stroke="#15D6FF" stroke-linecap="square"/>
<path opacity="0.6" d="M112.543 360.5V362.5" stroke="#15D6FF" stroke-linecap="square"/>
<path opacity="0.6" d="M114.467 360.5V362.5" stroke="#15D6FF" stroke-linecap="square"/>
<path opacity="0.6" d="M116.39 360.5V362.5" stroke="#15D6FF" stroke-linecap="square"/>
<path opacity="0.6" d="M118.314 360.5V362.5" stroke="#15D6FF" stroke-linecap="square"/>
<path opacity="0.6" d="M120.238 360.5V362.5" stroke="#15D6FF" stroke-linecap="square"/>
<path opacity="0.6" d="M122.162 360.5V362.5" stroke="#15D6FF" stroke-linecap="square"/>
<path opacity="0.6" d="M124.086 360.5V362.5" stroke="#15D6FF" stroke-linecap="square"/>
<path opacity="0.6" d="M126.01 360.5V362.5" stroke="#15D6FF" stroke-linecap="square"/>
<path opacity="0.6" d="M127.933 360.5V362.5" stroke="#15D6FF" stroke-linecap="square"/>
<path opacity="0.6" d="M129.857 360.5V362.5" stroke="#15D6FF" stroke-linecap="square"/>
<path opacity="0.6" d="M131.781 360.5V362.5" stroke="#15D6FF" stroke-linecap="square"/>
<path opacity="0.6" d="M133.705 360.5V362.5" stroke="#15D6FF" stroke-linecap="square"/>
<path opacity="0.6" d="M135.629 360.5V362.5" stroke="#15D6FF" stroke-linecap="square"/>
<path opacity="0.6" d="M137.552 360.5V362.5" stroke="#15D6FF" stroke-linecap="square"/>
<path opacity="0.6" d="M139.476 360.5V362.5" stroke="#15D6FF" stroke-linecap="square"/>
<path opacity="0.6" d="M141.4 360.5V362.5" stroke="#15D6FF" stroke-linecap="square"/>
<path opacity="0.6" d="M143.324 360.5V362.5" stroke="#15D6FF" stroke-linecap="square"/>
<path opacity="0.6" d="M145.248 360.5V362.5" stroke="#15D6FF" stroke-linecap="square"/>
<path opacity="0.6" d="M147.171 360.5V362.5" stroke="#15D6FF" stroke-linecap="square"/>
<path opacity="0.6" d="M149.095 360.5V362.5" stroke="#15D6FF" stroke-linecap="square"/>
<path opacity="0.6" d="M151.019 360.5V362.5" stroke="#15D6FF" stroke-linecap="square"/>
<path opacity="0.6" d="M152.943 360.5V362.5" stroke="#15D6FF" stroke-linecap="square"/>
<path opacity="0.6" d="M154.867 360.5V362.5" stroke="#15D6FF" stroke-linecap="square"/>
<path opacity="0.6" d="M156.791 360.5V362.5" stroke="#15D6FF" stroke-linecap="square"/>
<path opacity="0.6" d="M158.714 360.5V362.5" stroke="#15D6FF" stroke-linecap="square"/>
<path opacity="0.6" d="M160.638 360.5V362.5" stroke="#15D6FF" stroke-linecap="square"/>
<path opacity="0.6" d="M162.562 360.5V362.5" stroke="#15D6FF" stroke-linecap="square"/>
<path opacity="0.6" d="M164.486 360.5V362.5" stroke="#15D6FF" stroke-linecap="square"/>
<path opacity="0.6" d="M166.409 360.5V362.5" stroke="#15D6FF" stroke-linecap="square"/>
<path opacity="0.6" d="M168.333 360.5V362.5" stroke="#15D6FF" stroke-linecap="square"/>
<path opacity="0.6" d="M170.257 360.5V362.5" stroke="#15D6FF" stroke-linecap="square"/>
<path opacity="0.6" d="M172.181 360.5V362.5" stroke="#15D6FF" stroke-linecap="square"/>
<path opacity="0.6" d="M174.105 360.5V362.5" stroke="#15D6FF" stroke-linecap="square"/>
<path opacity="0.6" d="M176.029 360.5V362.5" stroke="#15D6FF" stroke-linecap="square"/>
<path opacity="0.6" d="M177.952 360.5V362.5" stroke="#15D6FF" stroke-linecap="square"/>
<path opacity="0.6" d="M179.876 360.5V362.5" stroke="#15D6FF" stroke-linecap="square"/>
<path opacity="0.6" d="M181.8 360.5V362.5" stroke="#15D6FF" stroke-linecap="square"/>
<path opacity="0.6" d="M183.724 360.5V362.5" stroke="#15D6FF" stroke-linecap="square"/>
<path opacity="0.6" d="M185.648 360.5V362.5" stroke="#15D6FF" stroke-linecap="square"/>
<path opacity="0.6" d="M187.572 360.5V362.5" stroke="#15D6FF" stroke-linecap="square"/>
<path opacity="0.6" d="M189.495 360.5V362.5" stroke="#15D6FF" stroke-linecap="square"/>
<path opacity="0.6" d="M191.419 360.5V362.5" stroke="#15D6FF" stroke-linecap="square"/>
<path opacity="0.6" d="M193.343 360.5V362.5" stroke="#15D6FF" stroke-linecap="square"/>
<path opacity="0.6" d="M195.267 360.5V362.5" stroke="#15D6FF" stroke-linecap="square"/>
<path opacity="0.6" d="M197.19 360.5V362.5" stroke="#15D6FF" stroke-linecap="square"/>
<path opacity="0.6" d="M199.114 360.5V362.5" stroke="#15D6FF" stroke-linecap="square"/>
<path opacity="0.6" d="M201.038 360.5V362.5" stroke="#15D6FF" stroke-linecap="square"/>
<path opacity="0.6" d="M202.962 360.5V362.5" stroke="#15D6FF" stroke-linecap="square"/>
<path opacity="0.6" d="M204.886 360.5V362.5" stroke="#15D6FF" stroke-linecap="square"/>
<path opacity="0.6" d="M206.81 360.5V362.5" stroke="#15D6FF" stroke-linecap="square"/>
<path opacity="0.6" d="M208.733 360.5V362.5" stroke="#15D6FF" stroke-linecap="square"/>
<path opacity="0.6" d="M210.657 360.5V362.5" stroke="#15D6FF" stroke-linecap="square"/>
<path opacity="0.6" d="M212.581 360.5V362.5" stroke="#15D6FF" stroke-linecap="square"/>
<path opacity="0.6" d="M214.505 360.5V362.5" stroke="#15D6FF" stroke-linecap="square"/>
<path opacity="0.6" d="M216.428 360.5V362.5" stroke="#15D6FF" stroke-linecap="square"/>
<path opacity="0.6" d="M218.352 360.5V362.5" stroke="#15D6FF" stroke-linecap="square"/>
<path opacity="0.6" d="M220.276 360.5V362.5" stroke="#15D6FF" stroke-linecap="square"/>
<path opacity="0.6" d="M222.2 360.5V362.5" stroke="#15D6FF" stroke-linecap="square"/>
<path opacity="0.6" d="M224.124 360.5V362.5" stroke="#15D6FF" stroke-linecap="square"/>
<path opacity="0.6" d="M226.048 360.5V362.5" stroke="#15D6FF" stroke-linecap="square"/>
<path opacity="0.6" d="M227.971 360.5V362.5" stroke="#15D6FF" stroke-linecap="square"/>
<path opacity="0.6" d="M229.895 360.5V362.5" stroke="#15D6FF" stroke-linecap="square"/>
<path opacity="0.6" d="M231.819 360.5V362.5" stroke="#15D6FF" stroke-linecap="square"/>
<path opacity="0.6" d="M233.743 360.5V362.5" stroke="#15D6FF" stroke-linecap="square"/>
<path opacity="0.6" d="M235.667 360.5V362.5" stroke="#15D6FF" stroke-linecap="square"/>
<path opacity="0.6" d="M237.591 360.5V362.5" stroke="#15D6FF" stroke-linecap="square"/>
<path opacity="0.6" d="M239.514 360.5V362.5" stroke="#15D6FF" stroke-linecap="square"/>
<path opacity="0.6" d="M241.438 360.5V362.5" stroke="#15D6FF" stroke-linecap="square"/>
<path opacity="0.6" d="M243.362 360.5V362.5" stroke="#15D6FF" stroke-linecap="square"/>
<path opacity="0.6" d="M245.286 360.5V362.5" stroke="#15D6FF" stroke-linecap="square"/>
<path opacity="0.6" d="M247.209 360.5V362.5" stroke="#15D6FF" stroke-linecap="square"/>
<path opacity="0.6" d="M249.133 360.5V362.5" stroke="#15D6FF" stroke-linecap="square"/>
<path opacity="0.6" d="M251.057 360.5V362.5" stroke="#15D6FF" stroke-linecap="square"/>
<path opacity="0.6" d="M252.981 360.5V362.5" stroke="#15D6FF" stroke-linecap="square"/>
<path opacity="0.6" d="M254.905 360.5V362.5" stroke="#15D6FF" stroke-linecap="square"/>
<path opacity="0.6" d="M256.829 360.5V362.5" stroke="#15D6FF" stroke-linecap="square"/>
<path opacity="0.6" d="M258.752 360.5V362.5" stroke="#15D6FF" stroke-linecap="square"/>
<path opacity="0.6" d="M260.676 360.5V362.5" stroke="#15D6FF" stroke-linecap="square"/>
<path opacity="0.6" d="M262.6 360.5V362.5" stroke="#15D6FF" stroke-linecap="square"/>
<path opacity="0.6" d="M264.524 360.5V362.5" stroke="#15D6FF" stroke-linecap="square"/>
<path opacity="0.6" d="M266.448 360.5V362.5" stroke="#15D6FF" stroke-linecap="square"/>
<path opacity="0.6" d="M268.371 360.5V362.5" stroke="#15D6FF" stroke-linecap="square"/>
<path opacity="0.6" d="M270.295 360.5V362.5" stroke="#15D6FF" stroke-linecap="square"/>
<path opacity="0.6" d="M272.219 360.5V362.5" stroke="#15D6FF" stroke-linecap="square"/>
<path opacity="0.6" d="M274.143 360.5V362.5" stroke="#15D6FF" stroke-linecap="square"/>
<path opacity="0.6" d="M276.067 360.5V362.5" stroke="#15D6FF" stroke-linecap="square"/>
<path opacity="0.6" d="M277.99 360.5V362.5" stroke="#15D6FF" stroke-linecap="square"/>
<path opacity="0.6" d="M279.914 360.5V362.5" stroke="#15D6FF" stroke-linecap="square"/>
<path opacity="0.6" d="M281.838 360.5V362.5" stroke="#15D6FF" stroke-linecap="square"/>
<path opacity="0.6" d="M283.762 360.5V362.5" stroke="#15D6FF" stroke-linecap="square"/>
<path opacity="0.6" d="M285.686 360.5V362.5" stroke="#15D6FF" stroke-linecap="square"/>
<path opacity="0.6" d="M287.61 360.5V362.5" stroke="#15D6FF" stroke-linecap="square"/>
<path opacity="0.6" d="M289.533 360.5V362.5" stroke="#15D6FF" stroke-linecap="square"/>
<path opacity="0.6" d="M291.457 360.5V362.5" stroke="#15D6FF" stroke-linecap="square"/>
<path opacity="0.6" d="M293.381 360.5V362.5" stroke="#15D6FF" stroke-linecap="square"/>
<path opacity="0.6" d="M295.305 360.5V362.5" stroke="#15D6FF" stroke-linecap="square"/>
<path opacity="0.6" d="M297.229 360.5V362.5" stroke="#15D6FF" stroke-linecap="square"/>
<path opacity="0.6" d="M299.152 360.5V362.5" stroke="#15D6FF" stroke-linecap="square"/>
<path opacity="0.6" d="M301.076 360.5V362.5" stroke="#15D6FF" stroke-linecap="square"/>
<path opacity="0.6" d="M303 360.5V362.5" stroke="#15D6FF" stroke-linecap="square"/>
<path opacity="0.6" d="M304.924 360.5V362.5" stroke="#15D6FF" stroke-linecap="square"/>
<path opacity="0.6" d="M306.848 360.5V362.5" stroke="#15D6FF" stroke-linecap="square"/>
<path opacity="0.6" d="M308.771 360.5V362.5" stroke="#15D6FF" stroke-linecap="square"/>
<path opacity="0.6" d="M310.695 360.5V362.5" stroke="#15D6FF" stroke-linecap="square"/>
<path opacity="0.6" d="M312.619 360.5V362.5" stroke="#15D6FF" stroke-linecap="square"/>
<path opacity="0.6" d="M314.543 360.5V362.5" stroke="#15D6FF" stroke-linecap="square"/>
<path opacity="0.6" d="M316.467 360.5V362.5" stroke="#15D6FF" stroke-linecap="square"/>
<path opacity="0.6" d="M318.39 360.5V362.5" stroke="#15D6FF" stroke-linecap="square"/>
<path opacity="0.6" d="M320.314 360.5V362.5" stroke="#15D6FF" stroke-linecap="square"/>
<path opacity="0.6" d="M322.238 360.5V362.5" stroke="#15D6FF" stroke-linecap="square"/>
<path opacity="0.6" d="M324.162 360.5V362.5" stroke="#15D6FF" stroke-linecap="square"/>
<path opacity="0.6" d="M326.086 360.5V362.5" stroke="#15D6FF" stroke-linecap="square"/>
<path opacity="0.6" d="M328.01 360.5V362.5" stroke="#15D6FF" stroke-linecap="square"/>
<path opacity="0.6" d="M329.933 360.5V362.5" stroke="#15D6FF" stroke-linecap="square"/>
<path opacity="0.6" d="M331.857 360.5V362.5" stroke="#15D6FF" stroke-linecap="square"/>
<path opacity="0.6" d="M333.781 360.5V362.5" stroke="#15D6FF" stroke-linecap="square"/>
<path opacity="0.6" d="M335.705 360.5V362.5" stroke="#15D6FF" stroke-linecap="square"/>
<path opacity="0.6" d="M337.629 360.5V362.5" stroke="#15D6FF" stroke-linecap="square"/>
<path opacity="0.6" d="M339.552 360.5V362.5" stroke="#15D6FF" stroke-linecap="square"/>
<path opacity="0.6" d="M341.476 360.5V362.5" stroke="#15D6FF" stroke-linecap="square"/>
<path opacity="0.6" d="M343.4 360.5V362.5" stroke="#15D6FF" stroke-linecap="square"/>
<path opacity="0.6" d="M345.324 360.5V362.5" stroke="#15D6FF" stroke-linecap="square"/>
<path opacity="0.6" d="M347.248 360.5V362.5" stroke="#15D6FF" stroke-linecap="square"/>
<path opacity="0.6" d="M349.171 360.5V362.5" stroke="#15D6FF" stroke-linecap="square"/>
<path opacity="0.6" d="M351.095 360.5V362.5" stroke="#15D6FF" stroke-linecap="square"/>
<path opacity="0.6" d="M353.019 360.5V362.5" stroke="#15D6FF" stroke-linecap="square"/>
<path opacity="0.6" d="M354.943 360.5V362.5" stroke="#15D6FF" stroke-linecap="square"/>
<path opacity="0.6" d="M356.867 360.5V362.5" stroke="#15D6FF" stroke-linecap="square"/>
<path opacity="0.6" d="M358.791 360.5V362.5" stroke="#15D6FF" stroke-linecap="square"/>
<path opacity="0.6" d="M360.714 360.5V362.5" stroke="#15D6FF" stroke-linecap="square"/>
<path opacity="0.6" d="M362.638 360.5V362.5" stroke="#15D6FF" stroke-linecap="square"/>
<path opacity="0.6" d="M364.562 360.5V362.5" stroke="#15D6FF" stroke-linecap="square"/>
<path opacity="0.6" d="M366.486 360.5V362.5" stroke="#15D6FF" stroke-linecap="square"/>
<path opacity="0.6" d="M368.409 360.5V362.5" stroke="#15D6FF" stroke-linecap="square"/>
<path opacity="0.6" d="M370.333 360.5V362.5" stroke="#15D6FF" stroke-linecap="square"/>
<path opacity="0.6" d="M372.257 360.5V362.5" stroke="#15D6FF" stroke-linecap="square"/>
<path opacity="0.6" d="M374.181 360.5V362.5" stroke="#15D6FF" stroke-linecap="square"/>
<path opacity="0.6" d="M376.105 360.5V362.5" stroke="#15D6FF" stroke-linecap="square"/>
<path opacity="0.6" d="M378.029 360.5V362.5" stroke="#15D6FF" stroke-linecap="square"/>
<path opacity="0.6" d="M379.952 360.5V362.5" stroke="#15D6FF" stroke-linecap="square"/>
<path opacity="0.6" d="M381.876 360.5V362.5" stroke="#15D6FF" stroke-linecap="square"/>
<path opacity="0.6" d="M383.8 360.5V362.5" stroke="#15D6FF" stroke-linecap="square"/>
<path opacity="0.6" d="M385.724 360.5V362.5" stroke="#15D6FF" stroke-linecap="square"/>
<path opacity="0.6" d="M387.648 360.5V362.5" stroke="#15D6FF" stroke-linecap="square"/>
<path opacity="0.6" d="M389.572 360.5V362.5" stroke="#15D6FF" stroke-linecap="square"/>
<path opacity="0.6" d="M391.495 360.5V362.5" stroke="#15D6FF" stroke-linecap="square"/>
<path opacity="0.6" d="M393.419 360.5V362.5" stroke="#15D6FF" stroke-linecap="square"/>
<path opacity="0.6" d="M395.343 360.5V362.5" stroke="#15D6FF" stroke-linecap="square"/>
<path opacity="0.6" d="M397.267 360.5V362.5" stroke="#15D6FF" stroke-linecap="square"/>
<path opacity="0.6" d="M399.19 360.5V362.5" stroke="#15D6FF" stroke-linecap="square"/>
<path opacity="0.6" d="M401.114 360.5V362.5" stroke="#15D6FF" stroke-linecap="square"/>
<path opacity="0.6" d="M403.038 360.5V362.5" stroke="#15D6FF" stroke-linecap="square"/>
<path opacity="0.6" d="M404.962 360.5V362.5" stroke="#15D6FF" stroke-linecap="square"/>
<path opacity="0.6" d="M406.886 360.5V362.5" stroke="#15D6FF" stroke-linecap="square"/>
<path opacity="0.6" d="M408.81 360.5V362.5" stroke="#15D6FF" stroke-linecap="square"/>
<path opacity="0.6" d="M410.733 360.5V362.5" stroke="#15D6FF" stroke-linecap="square"/>
<path opacity="0.6" d="M412.657 360.5V362.5" stroke="#15D6FF" stroke-linecap="square"/>
<path opacity="0.6" d="M414.581 360.5V362.5" stroke="#15D6FF" stroke-linecap="square"/>
<path opacity="0.6" d="M416.505 360.5V362.5" stroke="#15D6FF" stroke-linecap="square"/>
<path opacity="0.6" d="M418.428 360.5V362.5" stroke="#15D6FF" stroke-linecap="square"/>
<path opacity="0.6" d="M420.352 360.5V362.5" stroke="#15D6FF" stroke-linecap="square"/>
<path opacity="0.6" d="M422.276 360.5V362.5" stroke="#15D6FF" stroke-linecap="square"/>
<path opacity="0.6" d="M424.2 360.5V362.5" stroke="#15D6FF" stroke-linecap="square"/>
<path opacity="0.6" d="M426.124 360.5V362.5" stroke="#15D6FF" stroke-linecap="square"/>
<path opacity="0.6" d="M428.048 360.5V362.5" stroke="#15D6FF" stroke-linecap="square"/>
<path opacity="0.6" d="M429.971 360.5V362.5" stroke="#15D6FF" stroke-linecap="square"/>
<path opacity="0.6" d="M431.895 360.5V362.5" stroke="#15D6FF" stroke-linecap="square"/>
<path opacity="0.6" d="M433.819 360.5V362.5" stroke="#15D6FF" stroke-linecap="square"/>
<path opacity="0.6" d="M435.743 360.5V362.5" stroke="#15D6FF" stroke-linecap="square"/>
<path opacity="0.6" d="M437.667 360.5V362.5" stroke="#15D6FF" stroke-linecap="square"/>
<path opacity="0.6" d="M439.591 360.5V362.5" stroke="#15D6FF" stroke-linecap="square"/>
<path opacity="0.6" d="M441.514 360.5V362.5" stroke="#15D6FF" stroke-linecap="square"/>
<path opacity="0.6" d="M443.438 360.5V362.5" stroke="#15D6FF" stroke-linecap="square"/>
<path opacity="0.6" d="M445.362 360.5V362.5" stroke="#15D6FF" stroke-linecap="square"/>
<path opacity="0.6" d="M447.286 360.5V362.5" stroke="#15D6FF" stroke-linecap="square"/>
<path opacity="0.6" d="M449.209 360.5V362.5" stroke="#15D6FF" stroke-linecap="square"/>
<path opacity="0.6" d="M451.133 360.5V362.5" stroke="#15D6FF" stroke-linecap="square"/>
<path opacity="0.6" d="M453.057 360.5V362.5" stroke="#15D6FF" stroke-linecap="square"/>
<path opacity="0.6" d="M454.981 360.5V362.5" stroke="#15D6FF" stroke-linecap="square"/>
<path opacity="0.6" d="M456.905 360.5V362.5" stroke="#15D6FF" stroke-linecap="square"/>
<path opacity="0.6" d="M458.829 360.5V362.5" stroke="#15D6FF" stroke-linecap="square"/>
<path opacity="0.6" d="M460.752 360.5V362.5" stroke="#15D6FF" stroke-linecap="square"/>
<path opacity="0.6" d="M462.676 360.5V362.5" stroke="#15D6FF" stroke-linecap="square"/>
<path opacity="0.6" d="M464.6 360.5V362.5" stroke="#15D6FF" stroke-linecap="square"/>
<path opacity="0.6" d="M466.524 360.5V362.5" stroke="#15D6FF" stroke-linecap="square"/>
<path opacity="0.6" d="M468.448 360.5V362.5" stroke="#15D6FF" stroke-linecap="square"/>
<path opacity="0.6" d="M470.371 360.5V362.5" stroke="#15D6FF" stroke-linecap="square"/>
<path opacity="0.6" d="M472.295 360.5V362.5" stroke="#15D6FF" stroke-linecap="square"/>
<path opacity="0.6" d="M474.219 360.5V362.5" stroke="#15D6FF" stroke-linecap="square"/>
<path opacity="0.6" d="M476.143 360.5V362.5" stroke="#15D6FF" stroke-linecap="square"/>
<path opacity="0.6" d="M478.067 360.5V362.5" stroke="#15D6FF" stroke-linecap="square"/>
<path opacity="0.6" d="M479.99 360.5V362.5" stroke="#15D6FF" stroke-linecap="square"/>
<path opacity="0.6" d="M481.914 360.5V362.5" stroke="#15D6FF" stroke-linecap="square"/>
<path opacity="0.6" d="M483.838 360.5V362.5" stroke="#15D6FF" stroke-linecap="square"/>
<path opacity="0.6" d="M485.762 360.5V362.5" stroke="#15D6FF" stroke-linecap="square"/>
<path opacity="0.6" d="M487.686 360.5V362.5" stroke="#15D6FF" stroke-linecap="square"/>
<path opacity="0.6" d="M489.61 360.5V362.5" stroke="#15D6FF" stroke-linecap="square"/>
<path opacity="0.6" d="M491.533 360.5V362.5" stroke="#15D6FF" stroke-linecap="square"/>
<path opacity="0.6" d="M493.457 360.5V362.5" stroke="#15D6FF" stroke-linecap="square"/>
<path opacity="0.6" d="M495.381 360.5V362.5" stroke="#15D6FF" stroke-linecap="square"/>
<path opacity="0.6" d="M497.305 360.5V362.5" stroke="#15D6FF" stroke-linecap="square"/>
<path opacity="0.6" d="M499.229 360.5V362.5" stroke="#15D6FF" stroke-linecap="square"/>
<path opacity="0.6" d="M501.152 360.5V362.5" stroke="#15D6FF" stroke-linecap="square"/>
<path opacity="0.6" d="M503.076 360.5V362.5" stroke="#15D6FF" stroke-linecap="square"/>
<path opacity="0.6" d="M505 360.5V362.5" stroke="#15D6FF" stroke-linecap="square"/>
<path opacity="0.6" d="M506.924 360.5V362.5" stroke="#15D6FF" stroke-linecap="square"/>
<path opacity="0.6" d="M508.848 360.5V362.5" stroke="#15D6FF" stroke-linecap="square"/>
<path opacity="0.6" d="M510.771 360.5V362.5" stroke="#15D6FF" stroke-linecap="square"/>
<path opacity="0.6" d="M512.695 360.5V362.5" stroke="#15D6FF" stroke-linecap="square"/>
<path opacity="0.6" d="M514.619 360.5V362.5" stroke="#15D6FF" stroke-linecap="square"/>
<path opacity="0.6" d="M516.543 360.5V362.5" stroke="#15D6FF" stroke-linecap="square"/>
<path opacity="0.6" d="M518.467 360.5V362.5" stroke="#15D6FF" stroke-linecap="square"/>
<path opacity="0.6" d="M520.391 360.5V362.5" stroke="#15D6FF" stroke-linecap="square"/>
<path opacity="0.6" d="M522.314 360.5V362.5" stroke="#15D6FF" stroke-linecap="square"/>
<path opacity="0.6" d="M524.238 360.5V362.5" stroke="#15D6FF" stroke-linecap="square"/>
<path opacity="0.6" d="M526.162 360.5V362.5" stroke="#15D6FF" stroke-linecap="square"/>
<path opacity="0.6" d="M528.086 360.5V362.5" stroke="#15D6FF" stroke-linecap="square"/>
<path opacity="0.6" d="M530.01 360.5V362.5" stroke="#15D6FF" stroke-linecap="square"/>
<path opacity="0.6" d="M531.933 360.5V362.5" stroke="#15D6FF" stroke-linecap="square"/>
<path opacity="0.6" d="M533.857 360.5V362.5" stroke="#15D6FF" stroke-linecap="square"/>
<path opacity="0.6" d="M535.781 360.5V362.5" stroke="#15D6FF" stroke-linecap="square"/>
<path opacity="0.6" d="M537.705 360.5V362.5" stroke="#15D6FF" stroke-linecap="square"/>
<path opacity="0.6" d="M539.628 360.5V362.5" stroke="#15D6FF" stroke-linecap="square"/>
<path opacity="0.6" d="M541.552 360.5V362.5" stroke="#15D6FF" stroke-linecap="square"/>
<path opacity="0.6" d="M543.476 360.5V362.5" stroke="#15D6FF" stroke-linecap="square"/>
<path opacity="0.6" d="M545.4 360.5V362.5" stroke="#15D6FF" stroke-linecap="square"/>
<path opacity="0.6" d="M547.324 360.5V362.5" stroke="#15D6FF" stroke-linecap="square"/>
<path opacity="0.6" d="M549.248 360.5V362.5" stroke="#15D6FF" stroke-linecap="square"/>
<path opacity="0.6" d="M551.171 360.5V362.5" stroke="#15D6FF" stroke-linecap="square"/>
<path opacity="0.6" d="M553.095 360.5V362.5" stroke="#15D6FF" stroke-linecap="square"/>
<path opacity="0.6" d="M555.019 360.5V362.5" stroke="#15D6FF" stroke-linecap="square"/>
<path opacity="0.6" d="M556.943 360.5V362.5" stroke="#15D6FF" stroke-linecap="square"/>
<path opacity="0.6" d="M558.867 360.5V362.5" stroke="#15D6FF" stroke-linecap="square"/>
<path opacity="0.6" d="M560.791 360.5V362.5" stroke="#15D6FF" stroke-linecap="square"/>
<path opacity="0.6" d="M562.714 360.5V362.5" stroke="#15D6FF" stroke-linecap="square"/>
<path opacity="0.6" d="M564.638 360.5V362.5" stroke="#15D6FF" stroke-linecap="square"/>
<path opacity="0.6" d="M566.562 360.5V362.5" stroke="#15D6FF" stroke-linecap="square"/>
<path opacity="0.6" d="M568.486 360.5V362.5" stroke="#15D6FF" stroke-linecap="square"/>
<path opacity="0.6" d="M570.41 360.5V362.5" stroke="#15D6FF" stroke-linecap="square"/>
<path opacity="0.6" d="M572.333 360.5V362.5" stroke="#15D6FF" stroke-linecap="square"/>
<path opacity="0.6" d="M574.257 360.5V362.5" stroke="#15D6FF" stroke-linecap="square"/>
<path opacity="0.6" d="M576.181 360.5V362.5" stroke="#15D6FF" stroke-linecap="square"/>
<path opacity="0.6" d="M578.105 360.5V362.5" stroke="#15D6FF" stroke-linecap="square"/>
<path opacity="0.6" d="M580.029 360.5V362.5" stroke="#15D6FF" stroke-linecap="square"/>
<path opacity="0.6" d="M581.952 360.5V362.5" stroke="#15D6FF" stroke-linecap="square"/>
<path opacity="0.6" d="M583.876 360.5V362.5" stroke="#15D6FF" stroke-linecap="square"/>
<path opacity="0.6" d="M585.8 360.5V362.5" stroke="#15D6FF" stroke-linecap="square"/>
<path opacity="0.6" d="M587.724 360.5V362.5" stroke="#15D6FF" stroke-linecap="square"/>
<path opacity="0.6" d="M589.648 360.5V362.5" stroke="#15D6FF" stroke-linecap="square"/>
<path opacity="0.6" d="M591.571 360.5V362.5" stroke="#15D6FF" stroke-linecap="square"/>
<path opacity="0.6" d="M593.495 360.5V362.5" stroke="#15D6FF" stroke-linecap="square"/>
<path opacity="0.6" d="M595.419 360.5V362.5" stroke="#15D6FF" stroke-linecap="square"/>
<path opacity="0.6" d="M597.343 360.5V362.5" stroke="#15D6FF" stroke-linecap="square"/>
<path opacity="0.6" d="M599.267 360.5V362.5" stroke="#15D6FF" stroke-linecap="square"/>
<path opacity="0.6" d="M601.19 360.5V362.5" stroke="#15D6FF" stroke-linecap="square"/>
<path opacity="0.6" d="M603.114 360.5V362.5" stroke="#15D6FF" stroke-linecap="square"/>
<path opacity="0.6" d="M605.038 360.5V362.5" stroke="#15D6FF" stroke-linecap="square"/>
<path d="M0 360.5V365.5" stroke="#15D6FF" stroke-linecap="square"/>
<path d="M-9.31863 368.227H-8.43794V373.426C-8.43794 373.89 -8.52317 374.284 -8.69363 374.609C-8.86408 374.933 -9.10437 375.179 -9.41451 375.347C-9.72464 375.515 -10.0904 375.599 -10.5118 375.599C-10.9095 375.599 -11.2635 375.527 -11.5736 375.383C-11.8837 375.236 -12.1276 375.028 -12.3051 374.758C-12.4827 374.488 -12.5715 374.167 -12.5715 373.795H-11.705C-11.705 374.001 -11.6541 374.181 -11.5523 374.335C-11.4481 374.487 -11.3061 374.605 -11.1262 374.69C-10.9462 374.776 -10.7414 374.818 -10.5118 374.818C-10.2585 374.818 -10.0431 374.765 -9.8655 374.658C-9.68794 374.552 -9.553 374.396 -9.46067 374.19C-9.36597 373.981 -9.31863 373.727 -9.31863 373.426V368.227ZM-5.18155 375.628C-5.5272 375.628 -5.84088 375.563 -6.1226 375.433C-6.40433 375.3 -6.62805 375.109 -6.79377 374.861C-6.95949 374.61 -7.04235 374.307 -7.04235 373.952C-7.04235 373.639 -6.98079 373.386 -6.85769 373.192C-6.73458 372.995 -6.57005 372.841 -6.36408 372.73C-6.15811 372.619 -5.93084 372.536 -5.68226 372.482C-5.43132 372.425 -5.17918 372.38 -4.92587 372.347C-4.59443 372.304 -4.32573 372.272 -4.11976 372.251C-3.91143 372.227 -3.75991 372.188 -3.66522 372.134C-3.56815 372.079 -3.51962 371.984 -3.51962 371.849V371.821C-3.51962 371.471 -3.6155 371.198 -3.80726 371.004C-3.99666 370.81 -4.2843 370.713 -4.67019 370.713C-5.07028 370.713 -5.38397 370.801 -5.61124 370.976C-5.83851 371.151 -5.99831 371.338 -6.09064 371.537L-6.8861 371.253C-6.74405 370.921 -6.55466 370.663 -6.31792 370.479C-6.07881 370.292 -5.81839 370.161 -5.53667 370.088C-5.25257 370.012 -4.97322 369.974 -4.6986 369.974C-4.52341 369.974 -4.32218 369.996 -4.0949 370.038C-3.86526 370.079 -3.64391 370.163 -3.43084 370.29C-3.21541 370.418 -3.03667 370.611 -2.89462 370.869C-2.75257 371.127 -2.68155 371.473 -2.68155 371.906V375.5H-3.51962V374.761H-3.56223C-3.61905 374.88 -3.71375 375.006 -3.84632 375.141C-3.9789 375.276 -4.15527 375.391 -4.37544 375.486C-4.59561 375.58 -4.86432 375.628 -5.18155 375.628ZM-5.05371 374.875C-4.72227 374.875 -4.44292 374.81 -4.21564 374.68C-3.986 374.549 -3.81318 374.381 -3.69718 374.175C-3.57881 373.969 -3.51962 373.753 -3.51962 373.526V372.759C-3.55513 372.801 -3.63326 372.84 -3.754 372.876C-3.87237 372.909 -4.00968 372.938 -4.16593 372.964C-4.31981 372.988 -4.47014 373.009 -4.61692 373.028C-4.76133 373.045 -4.87852 373.059 -4.96848 373.071C-5.18629 373.099 -5.38989 373.146 -5.57928 373.21C-5.76631 373.271 -5.91782 373.365 -6.03382 373.49C-6.14746 373.613 -6.20428 373.781 -6.20428 373.994C-6.20428 374.286 -6.09656 374.506 -5.88113 374.655C-5.66332 374.802 -5.38752 374.875 -5.05371 374.875ZM-0.313832 372.219V375.5H-1.1519V370.045H-0.342241V370.898H-0.271218C-0.143377 370.621 0.0507518 370.398 0.311168 370.23C0.571585 370.06 0.907759 369.974 1.31969 369.974C1.68901 369.974 2.01216 370.05 2.28915 370.202C2.56614 370.351 2.78158 370.578 2.93546 370.884C3.08934 371.187 3.16628 371.57 3.16628 372.034V375.5H2.32821V372.091C2.32821 371.662 2.21695 371.329 1.99441 371.089C1.77187 370.848 1.46647 370.727 1.07821 370.727C0.810695 370.727 0.571585 370.785 0.360884 370.901C0.152551 371.017 -0.0119851 371.187 -0.132724 371.409C-0.253462 371.632 -0.313832 371.902 -0.313832 372.219ZM9.91078 375.599C9.61248 375.595 9.31419 375.538 9.01589 375.429C8.7176 375.32 8.44534 375.137 8.19913 374.879C7.95292 374.618 7.75524 374.267 7.60609 373.824C7.45694 373.379 7.38237 372.82 7.38237 372.148C7.38237 371.504 7.44274 370.933 7.56348 370.436C7.68422 369.937 7.8594 369.516 8.08904 369.175C8.31868 368.832 8.59567 368.572 8.92001 368.394C9.24672 368.217 9.61485 368.128 10.0244 368.128C10.4316 368.128 10.7938 368.21 11.1111 368.373C11.4307 368.534 11.6911 368.759 11.8923 369.048C12.0935 369.336 12.2238 369.669 12.2829 370.045H11.4165C11.336 369.719 11.1797 369.448 10.9477 369.232C10.7157 369.017 10.4079 368.909 10.0244 368.909C9.46097 368.909 9.01708 369.154 8.69274 369.644C8.37077 370.134 8.2086 370.822 8.20623 371.707H8.26305C8.39563 371.506 8.55306 371.335 8.73535 371.192C8.92001 371.048 9.12361 370.937 9.34615 370.859C9.56869 370.781 9.80424 370.741 10.0528 370.741C10.4695 370.741 10.8506 370.846 11.1963 371.054C11.5419 371.26 11.8189 371.545 12.0273 371.91C12.2356 372.272 12.3398 372.688 12.3398 373.156C12.3398 373.606 12.2391 374.018 12.0379 374.392C11.8367 374.764 11.5538 375.06 11.1892 375.28C10.827 375.498 10.4008 375.604 9.91078 375.599ZM9.91078 374.818C10.2091 374.818 10.4766 374.744 10.7133 374.594C10.9524 374.445 11.1407 374.245 11.278 373.994C11.4176 373.743 11.4875 373.464 11.4875 373.156C11.4875 372.856 11.42 372.582 11.2851 372.336C11.1525 372.087 10.969 371.89 10.7346 371.743C10.5026 371.596 10.2375 371.523 9.93919 371.523C9.71428 371.523 9.50476 371.568 9.31064 371.658C9.11651 371.745 8.94605 371.866 8.79927 372.02C8.65486 372.174 8.54122 372.35 8.45836 372.549C8.3755 372.746 8.33407 372.953 8.33407 373.17C8.33407 373.459 8.40154 373.729 8.53649 373.98C8.6738 374.231 8.86083 374.433 9.09757 374.587C9.33668 374.741 9.60775 374.818 9.91078 374.818Z" fill="#15D6FF"/>
<path d="M133.705 360.5V365.5" stroke="#15D6FF" stroke-linecap="square"/>
<path d="M117.659 368.227H118.71L121.182 374.264H121.267L123.739 368.227H124.79V375.5H123.966V369.974H123.895L121.622 375.5H120.827L118.554 369.974H118.483V375.5H117.659V368.227ZM128.047 375.628C127.701 375.628 127.388 375.563 127.106 375.433C126.824 375.3 126.6 375.109 126.435 374.861C126.269 374.61 126.186 374.307 126.186 373.952C126.186 373.639 126.248 373.386 126.371 373.192C126.494 372.995 126.658 372.841 126.864 372.73C127.07 372.619 127.298 372.536 127.546 372.482C127.797 372.425 128.049 372.38 128.303 372.347C128.634 372.304 128.903 372.272 129.109 372.251C129.317 372.227 129.469 372.188 129.563 372.134C129.66 372.079 129.709 371.984 129.709 371.849V371.821C129.709 371.471 129.613 371.198 129.421 371.004C129.232 370.81 128.944 370.713 128.558 370.713C128.158 370.713 127.845 370.801 127.617 370.976C127.39 371.151 127.23 371.338 127.138 371.537L126.342 371.253C126.484 370.921 126.674 370.663 126.911 370.479C127.15 370.292 127.41 370.161 127.692 370.088C127.976 370.012 128.255 369.974 128.53 369.974C128.705 369.974 128.906 369.996 129.134 370.038C129.363 370.079 129.585 370.163 129.798 370.29C130.013 370.418 130.192 370.611 130.334 370.869C130.476 371.127 130.547 371.473 130.547 371.906V375.5H129.709V374.761H129.666C129.609 374.88 129.515 375.006 129.382 375.141C129.25 375.276 129.073 375.391 128.853 375.486C128.633 375.58 128.364 375.628 128.047 375.628ZM128.175 374.875C128.506 374.875 128.786 374.81 129.013 374.68C129.243 374.549 129.415 374.381 129.531 374.175C129.65 373.969 129.709 373.753 129.709 373.526V372.759C129.673 372.801 129.595 372.84 129.475 372.876C129.356 372.909 129.219 372.938 129.063 372.964C128.909 372.988 128.758 373.009 128.612 373.028C128.467 373.045 128.35 373.059 128.26 373.071C128.042 373.099 127.839 373.146 127.649 373.21C127.462 373.271 127.311 373.365 127.195 373.49C127.081 373.613 127.024 373.781 127.024 373.994C127.024 374.286 127.132 374.506 127.347 374.655C127.565 374.802 127.841 374.875 128.175 374.875ZM132.421 377.545C132.279 377.545 132.152 377.534 132.041 377.51C131.93 377.489 131.853 377.467 131.81 377.446L132.023 376.707C132.227 376.759 132.407 376.778 132.563 376.764C132.719 376.75 132.858 376.68 132.979 376.555C133.102 376.432 133.214 376.232 133.316 375.955L133.472 375.528L131.455 370.045H132.364L133.87 374.392H133.927L135.432 370.045H136.342L134.026 376.295C133.922 376.577 133.793 376.81 133.639 376.995C133.485 377.182 133.306 377.321 133.103 377.411C132.902 377.5 132.674 377.545 132.421 377.545ZM140.246 375.5V374.861L142.647 372.233C142.928 371.925 143.16 371.658 143.343 371.43C143.525 371.201 143.66 370.985 143.747 370.784C143.837 370.58 143.882 370.367 143.882 370.145C143.882 369.889 143.821 369.668 143.698 369.481C143.577 369.294 143.411 369.149 143.201 369.048C142.99 368.946 142.753 368.895 142.49 368.895C142.211 368.895 141.967 368.953 141.759 369.069C141.553 369.183 141.393 369.342 141.279 369.548C141.168 369.754 141.112 369.996 141.112 370.273H140.274C140.274 369.847 140.373 369.473 140.569 369.151C140.766 368.829 141.033 368.578 141.372 368.398C141.713 368.218 142.095 368.128 142.519 368.128C142.945 368.128 143.322 368.218 143.652 368.398C143.981 368.578 144.239 368.82 144.426 369.126C144.613 369.431 144.706 369.771 144.706 370.145C144.706 370.412 144.658 370.674 144.561 370.93C144.466 371.183 144.3 371.466 144.063 371.778C143.829 372.089 143.504 372.467 143.087 372.915L141.453 374.662V374.719H144.834V375.5H140.246ZM148.573 375.599C148.157 375.599 147.782 375.517 147.448 375.351C147.114 375.185 146.846 374.958 146.645 374.669C146.444 374.38 146.334 374.051 146.315 373.682H147.167C147.2 374.011 147.349 374.283 147.615 374.499C147.882 374.712 148.202 374.818 148.573 374.818C148.872 374.818 149.137 374.748 149.369 374.609C149.603 374.469 149.787 374.277 149.919 374.033C150.054 373.787 150.122 373.509 150.122 373.199C150.122 372.882 150.052 372.599 149.912 372.35C149.775 372.099 149.585 371.902 149.344 371.757C149.103 371.613 148.827 371.539 148.517 371.537C148.294 371.535 148.066 371.569 147.831 371.64C147.597 371.709 147.404 371.797 147.252 371.906L146.429 371.807L146.869 368.227H150.647V369.009H147.608L147.352 371.153H147.394C147.544 371.035 147.731 370.937 147.956 370.859C148.18 370.781 148.415 370.741 148.659 370.741C149.104 370.741 149.5 370.848 149.848 371.061C150.199 371.272 150.473 371.561 150.672 371.928C150.873 372.295 150.974 372.714 150.974 373.185C150.974 373.649 150.87 374.063 150.661 374.428C150.456 374.79 150.171 375.076 149.809 375.287C149.447 375.495 149.035 375.599 148.573 375.599Z" fill="#15D6FF"/>
<path d="M252.98 360.5V365.5" stroke="#15D6FF" stroke-linecap="square"/>
<path d="M241.139 370.045C241.097 369.686 240.924 369.406 240.621 369.207C240.318 369.009 239.946 368.909 239.506 368.909C239.184 368.909 238.902 368.961 238.661 369.065C238.421 369.17 238.234 369.313 238.099 369.495C237.967 369.677 237.901 369.884 237.901 370.116C237.901 370.311 237.947 370.478 238.039 370.617C238.134 370.754 238.254 370.869 238.401 370.962C238.548 371.052 238.702 371.126 238.863 371.185C239.024 371.242 239.172 371.288 239.307 371.324L240.045 371.523C240.235 371.572 240.446 371.641 240.678 371.729C240.912 371.816 241.136 371.936 241.349 372.087C241.564 372.237 241.742 372.428 241.881 372.663C242.021 372.897 242.091 373.185 242.091 373.526C242.091 373.919 241.988 374.274 241.782 374.591C241.578 374.908 241.28 375.16 240.887 375.347C240.496 375.534 240.022 375.628 239.463 375.628C238.942 375.628 238.491 375.544 238.11 375.376C237.731 375.208 237.433 374.973 237.215 374.673C237 374.372 236.878 374.023 236.849 373.625H237.759C237.782 373.9 237.875 374.127 238.036 374.307C238.199 374.484 238.405 374.617 238.653 374.705C238.904 374.79 239.174 374.832 239.463 374.832C239.799 374.832 240.101 374.778 240.369 374.669C240.636 374.558 240.848 374.404 241.004 374.207C241.161 374.009 241.239 373.777 241.239 373.511C241.239 373.27 241.171 373.073 241.036 372.922C240.901 372.77 240.724 372.647 240.504 372.553C240.283 372.458 240.045 372.375 239.79 372.304L238.895 372.048C238.327 371.885 237.877 371.652 237.545 371.349C237.214 371.046 237.048 370.649 237.048 370.159C237.048 369.752 237.158 369.397 237.379 369.094C237.601 368.788 237.899 368.552 238.273 368.384C238.65 368.213 239.07 368.128 239.534 368.128C240.003 368.128 240.42 368.212 240.784 368.38C241.149 368.546 241.438 368.773 241.651 369.062C241.866 369.351 241.98 369.679 241.991 370.045H241.139ZM245.712 375.614C245.187 375.614 244.733 375.498 244.352 375.266C243.973 375.031 243.681 374.705 243.475 374.286C243.271 373.864 243.17 373.374 243.17 372.815C243.17 372.257 243.271 371.764 243.475 371.338C243.681 370.91 243.967 370.576 244.334 370.337C244.704 370.095 245.135 369.974 245.627 369.974C245.911 369.974 246.192 370.022 246.469 370.116C246.746 370.211 246.998 370.365 247.225 370.578C247.452 370.789 247.633 371.068 247.768 371.416C247.903 371.764 247.971 372.193 247.971 372.702V373.057H243.766V372.332H247.118C247.118 372.025 247.057 371.75 246.934 371.509C246.813 371.267 246.64 371.076 246.415 370.937C246.193 370.797 245.93 370.727 245.627 370.727C245.293 370.727 245.004 370.81 244.76 370.976C244.519 371.139 244.333 371.352 244.203 371.615C244.073 371.878 244.008 372.16 244.008 372.46V372.943C244.008 373.355 244.079 373.704 244.221 373.991C244.365 374.275 244.565 374.491 244.821 374.641C245.077 374.787 245.374 374.861 245.712 374.861C245.932 374.861 246.131 374.83 246.309 374.768C246.489 374.705 246.644 374.61 246.774 374.484C246.904 374.357 247.005 374.198 247.076 374.009L247.885 374.236C247.8 374.51 247.657 374.752 247.456 374.96C247.255 375.166 247.006 375.327 246.71 375.443C246.414 375.557 246.081 375.614 245.712 375.614ZM249.246 377.545V370.045H250.055V370.912H250.155C250.216 370.817 250.301 370.696 250.41 370.55C250.522 370.401 250.68 370.268 250.886 370.152C251.095 370.034 251.376 369.974 251.731 369.974C252.191 369.974 252.595 370.089 252.946 370.319C253.296 370.549 253.57 370.874 253.766 371.295C253.963 371.717 254.061 372.214 254.061 372.787C254.061 373.365 253.963 373.865 253.766 374.289C253.57 374.71 253.297 375.037 252.949 375.269C252.601 375.499 252.2 375.614 251.746 375.614C251.395 375.614 251.115 375.556 250.904 375.44C250.693 375.321 250.531 375.187 250.417 375.038C250.304 374.887 250.216 374.761 250.155 374.662H250.084V377.545H249.246ZM250.069 372.773C250.069 373.185 250.13 373.548 250.251 373.863C250.371 374.175 250.548 374.42 250.78 374.598C251.012 374.773 251.296 374.861 251.632 374.861C251.982 374.861 252.275 374.768 252.509 374.584C252.746 374.397 252.923 374.146 253.042 373.831C253.162 373.514 253.223 373.161 253.223 372.773C253.223 372.389 253.164 372.044 253.045 371.736C252.929 371.426 252.753 371.181 252.516 371.001C252.282 370.818 251.987 370.727 251.632 370.727C251.291 370.727 251.005 370.814 250.773 370.987C250.541 371.157 250.365 371.396 250.247 371.704C250.129 372.009 250.069 372.366 250.069 372.773ZM258.138 375.5V374.861L260.538 372.233C260.82 371.925 261.052 371.658 261.234 371.43C261.416 371.201 261.551 370.985 261.639 370.784C261.729 370.58 261.774 370.367 261.774 370.145C261.774 369.889 261.712 369.668 261.589 369.481C261.469 369.294 261.303 369.149 261.092 369.048C260.881 368.946 260.645 368.895 260.382 368.895C260.103 368.895 259.859 368.953 259.65 369.069C259.444 369.183 259.285 369.342 259.171 369.548C259.06 369.754 259.004 369.996 259.004 370.273H258.166C258.166 369.847 258.264 369.473 258.461 369.151C258.657 368.829 258.925 368.578 259.263 368.398C259.604 368.218 259.987 368.128 260.41 368.128C260.836 368.128 261.214 368.218 261.543 368.398C261.872 368.578 262.13 368.82 262.317 369.126C262.504 369.431 262.598 369.771 262.598 370.145C262.598 370.412 262.549 370.674 262.452 370.93C262.358 371.183 262.192 371.466 261.955 371.778C261.721 372.089 261.395 372.467 260.979 372.915L259.345 374.662V374.719H262.726V375.5H258.138ZM266.607 375.599C266.309 375.595 266.01 375.538 265.712 375.429C265.414 375.32 265.142 375.137 264.895 374.879C264.649 374.618 264.452 374.267 264.302 373.824C264.153 373.379 264.079 372.82 264.079 372.148C264.079 371.504 264.139 370.933 264.26 370.436C264.381 369.937 264.556 369.516 264.785 369.175C265.015 368.832 265.292 368.572 265.616 368.394C265.943 368.217 266.311 368.128 266.721 368.128C267.128 368.128 267.49 368.21 267.807 368.373C268.127 368.534 268.387 368.759 268.589 369.048C268.79 369.336 268.92 369.669 268.979 370.045H268.113C268.032 369.719 267.876 369.448 267.644 369.232C267.412 369.017 267.104 368.909 266.721 368.909C266.157 368.909 265.713 369.154 265.389 369.644C265.067 370.134 264.905 370.822 264.903 371.707H264.959C265.092 371.506 265.249 371.335 265.432 371.192C265.616 371.048 265.82 370.937 266.042 370.859C266.265 370.781 266.501 370.741 266.749 370.741C267.166 370.741 267.547 370.846 267.893 371.054C268.238 371.26 268.515 371.545 268.724 371.91C268.932 372.272 269.036 372.688 269.036 373.156C269.036 373.606 268.935 374.018 268.734 374.392C268.533 374.764 268.25 375.06 267.885 375.28C267.523 375.498 267.097 375.604 266.607 375.599ZM266.607 374.818C266.905 374.818 267.173 374.744 267.41 374.594C267.649 374.445 267.837 374.245 267.974 373.994C268.114 373.743 268.184 373.464 268.184 373.156C268.184 372.856 268.116 372.582 267.981 372.336C267.849 372.087 267.665 371.89 267.431 371.743C267.199 371.596 266.934 371.523 266.635 371.523C266.411 371.523 266.201 371.568 266.007 371.658C265.813 371.745 265.642 371.866 265.496 372.02C265.351 372.174 265.238 372.35 265.155 372.549C265.072 372.746 265.03 372.953 265.03 373.17C265.03 373.459 265.098 373.729 265.233 373.98C265.37 374.231 265.557 374.433 265.794 374.587C266.033 374.741 266.304 374.818 266.607 374.818Z" fill="#15D6FF"/>
<path d="M372.258 360.5V365.5" stroke="#15D6FF" stroke-linecap="square"/>
<path d="M359.951 368.227H360.832V373.426C360.832 373.89 360.746 374.284 360.576 374.609C360.405 374.933 360.165 375.179 359.855 375.347C359.545 375.515 359.179 375.599 358.758 375.599C358.36 375.599 358.006 375.527 357.696 375.383C357.386 375.236 357.142 375.028 356.964 374.758C356.787 374.488 356.698 374.167 356.698 373.795H357.565C357.565 374.001 357.615 374.181 357.717 374.335C357.821 374.487 357.963 374.605 358.143 374.69C358.323 374.776 358.528 374.818 358.758 374.818C359.011 374.818 359.226 374.765 359.404 374.658C359.582 374.552 359.717 374.396 359.809 374.19C359.904 373.981 359.951 373.727 359.951 373.426V368.227ZM364.088 375.628C363.742 375.628 363.429 375.563 363.147 375.433C362.865 375.3 362.641 375.109 362.476 374.861C362.31 374.61 362.227 374.307 362.227 373.952C362.227 373.639 362.289 373.386 362.412 373.192C362.535 372.995 362.699 372.841 362.905 372.73C363.111 372.619 363.339 372.536 363.587 372.482C363.838 372.425 364.09 372.38 364.344 372.347C364.675 372.304 364.944 372.272 365.15 372.251C365.358 372.227 365.51 372.188 365.604 372.134C365.701 372.079 365.75 371.984 365.75 371.849V371.821C365.75 371.471 365.654 371.198 365.462 371.004C365.273 370.81 364.985 370.713 364.599 370.713C364.199 370.713 363.886 370.801 363.658 370.976C363.431 371.151 363.271 371.338 363.179 371.537L362.383 371.253C362.525 370.921 362.715 370.663 362.952 370.479C363.191 370.292 363.451 370.161 363.733 370.088C364.017 370.012 364.296 369.974 364.571 369.974C364.746 369.974 364.947 369.996 365.175 370.038C365.404 370.079 365.626 370.163 365.839 370.29C366.054 370.418 366.233 370.611 366.375 370.869C366.517 371.127 366.588 371.473 366.588 371.906V375.5H365.75V374.761H365.707C365.65 374.88 365.556 375.006 365.423 375.141C365.291 375.276 365.114 375.391 364.894 375.486C364.674 375.58 364.405 375.628 364.088 375.628ZM364.216 374.875C364.547 374.875 364.827 374.81 365.054 374.68C365.284 374.549 365.456 374.381 365.572 374.175C365.691 373.969 365.75 373.753 365.75 373.526V372.759C365.714 372.801 365.636 372.84 365.516 372.876C365.397 372.909 365.26 372.938 365.104 372.964C364.95 372.988 364.799 373.009 364.653 373.028C364.508 373.045 364.391 373.059 364.301 373.071C364.083 373.099 363.88 373.146 363.69 373.21C363.503 373.271 363.352 373.365 363.236 373.49C363.122 373.613 363.065 373.781 363.065 373.994C363.065 374.286 363.173 374.506 363.388 374.655C363.606 374.802 363.882 374.875 364.216 374.875ZM368.956 372.219V375.5H368.118V370.045H368.927V370.898H368.998C369.126 370.621 369.32 370.398 369.581 370.23C369.841 370.06 370.177 369.974 370.589 369.974C370.959 369.974 371.282 370.05 371.559 370.202C371.836 370.351 372.051 370.578 372.205 370.884C372.359 371.187 372.436 371.57 372.436 372.034V375.5H371.598V372.091C371.598 371.662 371.486 371.329 371.264 371.089C371.041 370.848 370.736 370.727 370.348 370.727C370.08 370.727 369.841 370.785 369.63 370.901C369.422 371.017 369.258 371.187 369.137 371.409C369.016 371.632 368.956 371.902 368.956 372.219ZM376.766 375.5V374.861L379.166 372.233C379.448 371.925 379.68 371.658 379.862 371.43C380.044 371.201 380.179 370.985 380.267 370.784C380.357 370.58 380.402 370.367 380.402 370.145C380.402 369.889 380.34 369.668 380.217 369.481C380.097 369.294 379.931 369.149 379.72 369.048C379.509 368.946 379.273 368.895 379.01 368.895C378.73 368.895 378.487 368.953 378.278 369.069C378.072 369.183 377.913 369.342 377.799 369.548C377.688 369.754 377.632 369.996 377.632 370.273H376.794C376.794 369.847 376.892 369.473 377.089 369.151C377.285 368.829 377.553 368.578 377.891 368.398C378.232 368.218 378.614 368.128 379.038 368.128C379.464 368.128 379.842 368.218 380.171 368.398C380.5 368.578 380.758 368.82 380.945 369.126C381.132 369.431 381.226 369.771 381.226 370.145C381.226 370.412 381.177 370.674 381.08 370.93C380.985 371.183 380.82 371.466 380.583 371.778C380.349 372.089 380.023 372.467 379.606 372.915L377.973 374.662V374.719H381.354V375.5H376.766ZM385.15 375.599C384.662 375.599 384.231 375.513 383.857 375.34C383.485 375.165 383.195 374.925 382.987 374.619C382.779 374.312 382.676 373.961 382.678 373.568C382.676 373.26 382.736 372.976 382.859 372.716C382.982 372.453 383.15 372.234 383.364 372.059C383.579 371.881 383.819 371.769 384.084 371.722V371.679C383.736 371.589 383.459 371.394 383.253 371.093C383.047 370.79 382.946 370.446 382.948 370.06C382.946 369.69 383.039 369.36 383.229 369.069C383.418 368.778 383.678 368.548 384.01 368.38C384.344 368.212 384.724 368.128 385.15 368.128C385.571 368.128 385.948 368.212 386.279 368.38C386.61 368.548 386.871 368.778 387.06 369.069C387.252 369.36 387.349 369.69 387.351 370.06C387.349 370.446 387.244 370.79 387.035 371.093C386.829 371.394 386.556 371.589 386.215 371.679V371.722C386.478 371.769 386.715 371.881 386.925 372.059C387.136 372.234 387.304 372.453 387.43 372.716C387.555 372.976 387.619 373.26 387.621 373.568C387.619 373.961 387.512 374.312 387.302 374.619C387.093 374.925 386.803 375.165 386.432 375.34C386.062 375.513 385.635 375.599 385.15 375.599ZM385.15 374.818C385.479 374.818 385.763 374.765 386.002 374.658C386.241 374.552 386.426 374.402 386.556 374.207C386.686 374.013 386.753 373.786 386.755 373.526C386.753 373.251 386.681 373.008 386.542 372.798C386.402 372.587 386.212 372.421 385.97 372.3C385.731 372.18 385.458 372.119 385.15 372.119C384.84 372.119 384.563 372.18 384.319 372.3C384.077 372.421 383.887 372.587 383.747 372.798C383.61 373.008 383.542 373.251 383.545 373.526C383.542 373.786 383.605 374.013 383.733 374.207C383.863 374.402 384.049 374.552 384.29 374.658C384.532 374.765 384.818 374.818 385.15 374.818ZM385.15 371.366C385.41 371.366 385.641 371.314 385.842 371.21C386.046 371.106 386.206 370.96 386.322 370.773C386.438 370.586 386.497 370.367 386.499 370.116C386.497 369.87 386.439 369.656 386.325 369.474C386.212 369.289 386.054 369.147 385.853 369.048C385.652 368.946 385.417 368.895 385.15 368.895C384.878 368.895 384.64 368.946 384.436 369.048C384.232 369.147 384.075 369.289 383.964 369.474C383.852 369.656 383.798 369.87 383.8 370.116C383.798 370.367 383.854 370.586 383.967 370.773C384.083 370.96 384.243 371.106 384.447 371.21C384.65 371.314 384.885 371.366 385.15 371.366Z" fill="#15D6FF"/>
<path d="M491.533 360.5V365.5" stroke="#15D6FF" stroke-linecap="square"/>
<path d="M483.423 368.227H484.303V373.426C484.303 373.89 484.218 374.284 484.048 374.609C483.877 374.933 483.637 375.179 483.327 375.347C483.017 375.515 482.651 375.599 482.229 375.599C481.832 375.599 481.478 375.527 481.168 375.383C480.857 375.236 480.614 375.028 480.436 374.758C480.259 374.488 480.17 374.167 480.17 373.795H481.036C481.036 374.001 481.087 374.181 481.189 374.335C481.293 374.487 481.435 374.605 481.615 374.69C481.795 374.776 482 374.818 482.229 374.818C482.483 374.818 482.698 374.765 482.876 374.658C483.053 374.552 483.188 374.396 483.281 374.19C483.375 373.981 483.423 373.727 483.423 373.426V368.227ZM489.392 373.27V370.045H490.23V375.5H489.392V374.577H489.335C489.207 374.854 489.009 375.089 488.739 375.283C488.469 375.475 488.128 375.571 487.716 375.571C487.375 375.571 487.072 375.496 486.807 375.347C486.542 375.196 486.333 374.969 486.182 374.665C486.03 374.36 485.955 373.975 485.955 373.511V370.045H486.793V373.455C486.793 373.852 486.904 374.17 487.126 374.406C487.351 374.643 487.638 374.761 487.986 374.761C488.194 374.761 488.406 374.708 488.621 374.602C488.839 374.495 489.022 374.332 489.168 374.112C489.317 373.891 489.392 373.611 489.392 373.27ZM492.603 372.219V375.5H491.765V370.045H492.575V370.898H492.646C492.774 370.621 492.968 370.398 493.228 370.23C493.489 370.06 493.825 369.974 494.237 369.974C494.606 369.974 494.929 370.05 495.206 370.202C495.483 370.351 495.699 370.578 495.852 370.884C496.006 371.187 496.083 371.57 496.083 372.034V375.5H495.245V372.091C495.245 371.662 495.134 371.329 494.911 371.089C494.689 370.848 494.383 370.727 493.995 370.727C493.728 370.727 493.489 370.785 493.278 370.901C493.07 371.017 492.905 371.187 492.784 371.409C492.664 371.632 492.603 371.902 492.603 372.219ZM502.97 368.227V375.5H502.089V369.151H502.047L500.271 370.33V369.435L502.089 368.227H502.97Z" fill="#15D6FF"/>
</g>
<defs>
<clipPath id="clip0_1174_22020">
<rect width="606" height="380" fill="white"/>
</clipPath>
</defs>
</svg>
