<svg width="145" height="13" viewBox="0 0 145 13" fill="none" xmlns="http://www.w3.org/2000/svg">
<path d="M4.768 0C8.62017 0 10.5463 1.94293 10.5463 5.82629C10.5463 9.70467 8.62017 11.6426 4.768 11.6426H0V0H4.768ZM3.53115 8.84918H4.70191C6.1866 8.84918 6.93012 8.00866 6.93012 6.32512V5.31749C6.93012 3.63644 6.1866 2.79343 4.70191 2.79343H3.53115V8.84918Z" fill="white"/>
<path d="M12.5461 0H22.0727V2.79343H16.0773V4.39965H21.2041V7.07336H16.0773V8.84918H22.1766V11.6426H12.5461V0Z" fill="white"/>
<path d="M30.1816 0C31.2391 0 32.1879 0.169601 33.033 0.508803C33.8756 0.848005 34.546 1.34683 35.044 2.00528C35.5397 2.66373 35.7899 3.46684 35.7899 4.40962H32.4098C32.4098 3.93075 32.2045 3.54167 31.7961 3.24237C31.3925 2.94308 30.9039 2.79343 30.3327 2.79343C29.4947 2.79343 28.8621 3.02788 28.4349 3.49178C28.0124 3.95819 27.8023 4.61913 27.8023 5.47711V6.56455C27.8023 7.42254 28.0124 8.08847 28.4349 8.55986C28.8621 9.02626 29.4947 9.25822 30.3327 9.25822C30.9039 9.25822 31.3925 9.11605 31.7961 8.82923C32.2045 8.53741 32.4098 8.16579 32.4098 7.71185H29.9078V5.34742H35.7899V11.8421H33.9677L33.6089 10.6948C32.6081 11.5927 31.2957 12.0417 29.6718 12.0417C27.8448 12.0417 26.4734 11.5403 25.5552 10.5352C24.6347 9.52509 24.1768 8.02113 24.1768 6.02582C24.1768 4.05047 24.696 2.55399 25.7346 1.53638C26.7779 0.513791 28.2602 0 30.1816 0Z" fill="white"/>
<path d="M37.7898 0H47.3164V2.79343H41.3209V4.39965H46.4477V7.07336H41.3209V8.84918H47.4202V11.6426H37.7898V0Z" fill="white"/>
<path d="M57.2944 11.6426L52.6681 5.99589V11.6426H49.4202V0H52.5076L57.1339 5.7365V0H60.3818V11.6426H57.2944Z" fill="white"/>
<path d="M72.3818 0H81.2758V2.79343H75.913V4.78873H80.5299V7.46244H75.913V11.6426H72.3818V0Z" fill="white"/>
<path d="M89.2241 0C91.1171 0 92.5806 0.513791 93.6144 1.53638C94.653 2.56147 95.1723 4.05795 95.1723 6.02582C95.1723 7.9887 94.653 9.48269 93.6144 10.5053C92.5806 11.5304 91.1171 12.0417 89.2241 12.0417C87.3216 12.0417 85.8558 11.5329 84.8243 10.5153C83.7904 9.49266 83.2759 7.99619 83.2759 6.02582C83.2759 4.05047 83.7904 2.55399 84.8243 1.53638C85.8558 0.513791 87.3216 0 89.2241 0ZM89.2241 2.79343C88.4617 2.79343 87.8834 3.03785 87.4868 3.52171C87.095 4.00059 86.9014 4.65405 86.9014 5.47711V6.56455C86.9014 7.39011 87.095 8.04607 87.4868 8.52993C87.8834 9.01628 88.4617 9.25822 89.2241 9.25822C89.9794 9.25822 90.5553 9.01628 90.9519 8.52993C91.3532 8.04607 91.5561 7.39011 91.5561 6.56455V5.47711C91.5561 4.65405 91.3532 4.00059 90.9519 3.52171C90.5553 3.03785 89.9794 2.79343 89.2241 2.79343Z" fill="white"/>
<path d="M107.624 3.5716C107.624 4.28492 107.44 4.9284 107.077 5.50704C106.718 6.08069 106.189 6.5022 105.49 6.77406L107.945 11.6426H103.97L102.016 7.39261H100.704V11.6426H97.1724V0H103.914C104.7 0 105.372 0.164613 105.934 0.48885C106.494 0.808099 106.916 1.24208 107.199 1.7858C107.483 2.33201 107.624 2.92811 107.624 3.5716ZM104.018 3.72124C104.018 3.41696 103.918 3.16256 103.725 2.96303C103.536 2.75851 103.302 2.65376 103.026 2.65376H100.704V4.80869H103.026C103.302 4.80869 103.536 4.70643 103.725 4.49941C103.918 4.28741 104.018 4.02802 104.018 3.72124Z" fill="white"/>
<path d="M109.945 0H119.472V2.79343H113.476V4.39965H118.603V7.07336H113.476V8.84918H119.575V11.6426H109.945V0Z" fill="white"/>
<path d="M126.702 0C128.111 0 129.27 0.304284 130.177 0.907864C131.083 1.50646 131.546 2.39935 131.565 3.58157V3.79108H128.251V3.72124C128.251 3.38204 128.133 3.10021 127.901 2.87324C127.668 2.64877 127.309 2.53404 126.825 2.53404C126.358 2.53404 125.999 2.60886 125.749 2.75352C125.496 2.90068 125.371 3.08275 125.371 3.30223C125.371 3.60153 125.541 3.826 125.881 3.97066C126.221 4.11781 126.771 4.26995 127.533 4.42958C128.421 4.62412 129.148 4.82614 129.714 5.03815C130.285 5.24516 130.786 5.58436 131.215 6.05575C131.643 6.52964 131.86 7.17063 131.867 7.98122C131.867 9.35798 131.425 10.3806 130.545 11.044C129.669 11.7099 128.496 12.0417 127.023 12.0417C125.305 12.0417 123.967 11.7399 123.011 11.1338C122.052 10.5227 121.575 9.44528 121.575 7.90141H124.918C124.918 8.48753 125.062 8.87911 125.352 9.07864C125.64 9.27318 126.091 9.36796 126.702 9.36796C127.148 9.36796 127.517 9.31808 127.807 9.21831C128.102 9.11854 128.251 8.90904 128.251 8.58979C128.251 8.31045 128.085 8.10094 127.76 7.96127C127.439 7.8216 126.91 7.67195 126.173 7.51232C125.272 7.30781 124.531 7.09331 123.945 6.87383C123.36 6.65434 122.845 6.29269 122.406 5.78639C121.972 5.28257 121.755 4.59419 121.755 3.72124C121.755 2.44425 122.22 1.50646 123.152 0.907864C124.082 0.304284 125.267 0 126.702 0Z" fill="white"/>
<path d="M141.024 2.98298V11.6426H137.483V2.98298H133.867V0H144.63V2.98298H141.024Z" fill="white"/>
</svg>
