<svg width="512" height="512" viewBox="0 0 512 512" fill="none" xmlns="http://www.w3.org/2000/svg">
<path d="M512 256C512 397.385 397.385 512 256 512C181.467 512 114.375 480.151 67.5945 429.317C55.3065 415.974 44.4291 401.314 35.1713 385.588C12.8209 347.575 0 303.282 0 256C0 114.615 114.615 0 256 0C303.292 0 347.585 12.8209 385.588 35.1817C401.314 44.4291 415.963 55.3064 429.307 67.6049C480.141 114.364 512 181.467 512 256Z" fill="#F0CD00"/>
<path d="M512 256C512 394.198 402.505 506.817 265.529 511.822C128.554 506.817 19.0589 394.198 19.0589 256C19.0589 117.802 128.554 5.1827 265.529 0.177644C402.505 5.1827 512 117.802 512 256Z" fill="#FFDE50"/>
<path d="M429.307 67.6049L67.5945 429.317C55.3065 415.974 44.4291 401.314 35.1713 385.588L385.588 35.1817C401.314 44.4291 415.963 55.3064 429.307 67.6049Z" fill="#FFEA94"/>
<path d="M494.341 162.408L162.398 494.352C138.898 485.115 117.091 472.503 97.583 457.112L457.112 97.583C472.503 117.091 485.115 138.898 494.341 162.408Z" fill="#FFEA94"/>
<path d="M454.928 256C454.928 365.861 365.861 454.928 256 454.928C217.736 454.928 182 444.123 151.667 425.399C138.449 417.249 126.265 407.583 115.336 396.654C107.301 388.629 99.9445 379.904 93.3721 370.594C84.3233 357.773 76.7478 343.834 70.9068 329.028C62.255 307.137 57.3858 283.335 57.0932 258.445C57.0723 257.63 57.0723 256.815 57.0723 256C57.0723 146.139 146.129 57.0723 256 57.0723C256.815 57.0723 257.641 57.0723 258.456 57.0932C283.345 57.3858 307.137 62.2655 329.028 70.9068C343.834 76.7582 357.773 84.3233 370.594 93.3721C379.904 99.955 388.618 107.301 396.654 115.336C407.583 126.255 417.249 138.449 425.399 151.667C444.123 182 454.928 217.736 454.928 256Z" fill="#FAA300"/>
<path d="M396.654 115.336L115.336 396.654C107.301 388.629 99.9445 379.904 93.3721 370.594C84.3233 357.773 76.7478 343.834 70.9068 329.028C62.255 307.137 57.3858 283.335 57.0932 258.445C57.0723 257.63 57.0723 256.815 57.0723 256C57.0723 146.139 146.129 57.0723 256 57.0723C256.815 57.0723 257.641 57.0723 258.456 57.0932C283.345 57.3858 307.137 62.2655 329.028 70.9068C343.834 76.7582 357.773 84.3233 370.594 93.3721C379.904 99.955 388.618 107.301 396.654 115.336Z" fill="#FFBD00"/>
<path d="M454.922 256C454.922 365.861 365.855 454.928 255.995 454.928C252.223 454.928 248.482 454.823 244.762 454.614C349.398 448.794 432.447 362.088 432.447 256C432.447 149.912 349.398 63.2059 244.762 57.3858C248.482 57.1768 252.223 57.0723 255.995 57.0723C365.855 57.0723 454.922 146.139 454.922 256Z" fill="#F68E00"/>
<path d="M346.404 306.225C346.404 279.694 332.691 256.32 311.993 242.773C320.498 231.052 325.533 216.656 325.533 201.1C325.533 174.235 310.557 150.806 288.518 138.709V112.949C288.518 101.407 279.162 92.0513 267.62 92.0513C256.078 92.0513 246.722 101.407 246.722 112.949V129.977H221.501V112.949C221.501 101.407 212.145 92.0513 200.603 92.0513C189.061 92.0513 179.705 101.407 179.705 112.949V129.977H155.146C143.605 129.977 134.248 139.333 134.248 150.875C134.248 162.417 143.605 171.773 155.146 171.773H162.358V340.227H155.146C143.605 340.227 134.248 349.583 134.248 361.125C134.248 372.667 143.605 382.023 155.146 382.023H179.706V399.051C179.706 410.593 189.062 419.949 200.604 419.949C212.146 419.949 221.502 410.593 221.502 399.051V382.023H246.723V399.051C246.723 410.593 256.079 419.949 267.621 419.949C279.163 419.949 288.519 410.593 288.519 399.051V379.866C321.694 371.795 346.404 341.85 346.404 306.225ZM204.154 171.773H254.41C270.582 171.773 283.737 184.929 283.737 201.1C283.737 217.271 270.581 230.427 254.41 230.427H204.154V171.773ZM270.607 340.227H204.154V272.224H270.607C289.354 272.224 304.608 287.478 304.608 306.226C304.608 324.975 289.354 340.227 270.607 340.227Z" fill="#F68E00"/>
<path d="M372.527 306.225C372.527 279.694 358.815 256.32 338.116 242.773C346.622 231.052 351.656 216.656 351.656 201.1C351.656 174.235 336.681 150.806 314.642 138.709V112.949C314.642 101.407 305.286 92.0513 293.744 92.0513C282.202 92.0513 272.846 101.407 272.846 112.949V129.977H247.624V112.949C247.624 101.407 238.268 92.0513 226.726 92.0513C215.184 92.0513 205.828 101.407 205.828 112.949V129.977H181.269C169.727 129.977 160.371 139.333 160.371 150.875C160.371 162.417 169.727 171.773 181.269 171.773H188.481V340.227H181.269C169.727 340.227 160.371 349.583 160.371 361.125C160.371 372.667 169.727 382.023 181.269 382.023H205.828V399.051C205.828 410.593 215.184 419.949 226.726 419.949C238.268 419.949 247.624 410.593 247.624 399.051V382.023H272.846V399.051C272.846 410.593 282.202 419.949 293.744 419.949C305.286 419.949 314.642 410.593 314.642 399.051V379.866C347.818 371.795 372.527 341.85 372.527 306.225ZM230.278 171.773H280.533C296.705 171.773 309.86 184.929 309.86 201.1C309.86 217.271 296.704 230.427 280.533 230.427H230.278V171.773ZM296.73 340.227H230.278V272.224H296.73C315.478 272.224 330.731 287.478 330.731 306.226C330.731 324.975 315.479 340.227 296.73 340.227Z" fill="#FFEA94"/>
</svg>
