<svg width="35" height="30" viewBox="0 0 40 40" fill="none" xmlns="http://www.w3.org/2000/svg" class="mx-1">
 <path
  d="M17.15 6.43367L3.03337 30.0003C2.74231 30.5044 2.58831 31.0758 2.58668 31.6579C2.58505 32.2399 2.73585 32.8122 3.02408 33.3179C3.31231 33.8235 3.72791 34.2449 4.22955 34.5401C4.73118 34.8353 5.30137 34.9939 5.88337 35.0003H34.1167C34.6987 34.9939 35.2689 34.8353 35.7705 34.5401C36.2722 34.2449 36.6878 33.8235 36.976 33.3179C37.2642 32.8122 37.415 32.2399 37.4134 31.6579C37.4118 31.0758 37.2578 30.5044 36.9667 30.0003L22.85 6.43367C22.5529 5.94385 22.1346 5.53887 21.6354 5.25781C21.1361 4.97675 20.5729 4.8291 20 4.8291C19.4271 4.8291 18.8639 4.97675 18.3647 5.25781C17.8655 5.53887 17.4472 5.94385 17.15 6.43367V6.43367Z"
  stroke="#FFAA00" stroke-width="2" stroke-linecap="round" stroke-linejoin="round" />
 <path d="M20 15V21.6667" stroke="#FFAA00" stroke-width="2" stroke-linecap="round" stroke-linejoin="round" />
 <path d="M20 28.333H20.0167" stroke="#FFAA00" stroke-width="2" stroke-linecap="round" stroke-linejoin="round" />
</svg>
