<svg width="24" height="17" viewBox="0 0 24 17" fill="none" xmlns="http://www.w3.org/2000/svg">
<path d="M20.9023 0.5C19.3008 0.5 17.998 1.95998 17.998 3.75447C17.998 4.61928 18.3012 5.40578 18.7939 5.98918L16.359 10.1015C16.1196 10.0297 15.8683 9.99079 15.6089 9.99079C14.8555 9.99079 14.1682 10.3141 13.6516 10.8431L11.8354 8.80791C12.0429 8.36006 12.161 7.85202 12.161 7.31344C12.161 5.51886 10.8581 4.05897 9.25668 4.05897C7.65523 4.05897 6.35244 5.51895 6.35244 7.31344C6.35244 7.80962 6.45239 8.27993 6.63034 8.70111L4.56366 10.5764C4.09289 10.2077 3.52105 9.9907 2.90449 9.9907C1.30287 9.99088 0 11.4509 0 13.2455C0 15.0401 1.30287 16.5 2.90433 16.5C4.50578 16.5 5.80857 15.04 5.80857 13.2455C5.80857 12.7808 5.72056 12.3389 5.56329 11.9386L7.6634 10.0329C8.12118 10.3708 8.66849 10.5682 9.25644 10.5682C9.8064 10.5682 10.3211 10.396 10.7599 10.0972L12.8067 12.3908C12.7404 12.6633 12.7044 12.9497 12.7044 13.2454C12.7044 15.04 14.0073 16.4999 15.6087 16.4999C17.2102 16.4999 18.513 15.0399 18.513 13.2454C18.513 12.3779 18.2079 11.5892 17.7124 11.0053L20.1454 6.8963C20.3868 6.96942 20.6403 7.00903 20.9021 7.00903C22.5036 7.00903 23.8065 5.54904 23.8065 3.75447C23.8066 1.95998 22.5037 0.5 20.9023 0.5ZM2.90433 14.7364C2.17065 14.7364 1.5738 14.0676 1.5738 13.2455C1.5738 12.4234 2.17065 11.7546 2.90433 11.7546C3.63792 11.7546 4.23477 12.4234 4.23477 13.2455C4.23485 14.0675 3.63792 14.7364 2.90433 14.7364ZM9.25652 8.80459C8.52293 8.80459 7.92608 8.13577 7.92608 7.31362C7.92608 6.49156 8.52293 5.82273 9.25652 5.82273C9.9902 5.82273 10.587 6.49156 10.587 7.31362C10.587 8.13577 9.9902 8.80459 9.25652 8.80459ZM15.6088 14.7364C14.8751 14.7364 14.2783 14.0676 14.2783 13.2455C14.2783 12.4234 14.8751 11.7546 15.6088 11.7546C16.3424 11.7546 16.9392 12.4234 16.9392 13.2455C16.9392 14.0675 16.3424 14.7364 15.6088 14.7364ZM20.9023 5.24553C20.1687 5.24553 19.5718 4.57671 19.5718 3.75456C19.5718 2.9325 20.1687 2.26368 20.9023 2.26368C21.636 2.26368 22.2328 2.9325 22.2328 3.75456C22.2328 4.57662 21.6359 5.24553 20.9023 5.24553Z" fill="white"/>
</svg>
