<svg width="20" height="16" viewBox="0 0 20 16" fill="none" xmlns="http://www.w3.org/2000/svg" color="#fff">
 <path d="M7.9231 4.80493H12.077" stroke="#F5F3F7" stroke-linecap="round" stroke-linejoin="round" />
 <path d="M18.7923 10.1963L15.0106 1.603C14.6201 1.21668 14.093 1 13.5437 1C12.9945 1 12.4674 1.21668 12.0769 1.603V11.3819" stroke="#F5F3F7" stroke-linecap="round" stroke-linejoin="round" />
 <path d="M7.92292 11.3819V1.603C7.53246 1.21668 7.00536 1 6.45609 1C5.90682 1 5.37972 1.21668 4.98926 1.603L1.20752 10.1963" stroke="#F5F3F7" stroke-linecap="round" stroke-linejoin="round" />
 <path d="M4.46155 14.8434C6.37331 14.8434 7.92309 13.2936 7.92309 11.3819C7.92309 9.47011 6.37331 7.92032 4.46155 7.92032C2.54979 7.92032 1 9.47011 1 11.3819C1 13.2936 2.54979 14.8434 4.46155 14.8434Z" stroke="#F5F3F7" stroke-linecap="round" stroke-linejoin="round" />
 <path d="M15.5385 14.8434C17.4502 14.8434 19 13.2936 19 11.3819C19 9.47011 17.4502 7.92032 15.5385 7.92032C13.6267 7.92032 12.0769 9.47011 12.0769 11.3819C12.0769 13.2936 13.6267 14.8434 15.5385 14.8434Z" stroke="#F5F3F7" stroke-linecap="round" stroke-linejoin="round" />
</svg>
