<svg width="55" height="65" viewBox="0 0 55 65" fill="none" xmlns="http://www.w3.org/2000/svg">
<path fill-rule="evenodd" clip-rule="evenodd" d="M53.0753 15.4725L54.5879 11.7596C54.5879 11.7596 52.6626 9.69687 50.3253 7.35911C47.9875 5.02139 43.0376 6.39652 43.0376 6.39652L37.4001 0H27.5001H17.6L11.9625 6.39652C11.9625 6.39652 7.01254 5.02139 4.67504 7.35911C2.3375 9.69687 0.412501 11.7596 0.412501 11.7596L1.925 15.4725L0 20.9731C0 20.9731 5.66158 42.4193 6.32502 45.0383C7.63127 50.1952 8.52505 52.1892 12.2375 54.8018C15.9501 57.4148 22.6876 61.9525 23.7876 62.64C24.8876 63.328 26.2626 64.499 27.5001 64.499C28.7376 64.499 30.1126 63.328 31.2126 62.64C32.3126 61.9525 39.0501 57.4148 42.7626 54.8018C46.4751 52.1892 47.369 50.1952 48.6753 45.0383C49.3383 42.4193 55 20.9731 55 20.9731L53.0753 15.4725Z" fill="url(#paint0_linear_93_1471)"/>
<path fill-rule="evenodd" clip-rule="evenodd" d="M34.513 11.622C35.338 11.622 41.4568 10.4531 41.4568 10.4531C41.4568 10.4531 48.7082 19.2197 48.7082 21.0934C48.7082 22.6425 48.0845 23.2489 47.3502 23.9629C47.1961 24.1125 47.0375 24.2668 46.8787 24.4355C45.9616 25.4095 41.9561 29.6634 41.4417 30.2096C41.3878 30.2669 41.3278 30.3272 41.2643 30.3911C40.7216 30.9368 39.9224 31.7404 40.4863 33.075C40.524 33.1643 40.5628 33.255 40.6021 33.347C41.2204 34.793 41.9836 36.578 41.0121 38.387C39.9787 40.3111 38.2083 41.5954 37.074 41.383C35.9396 41.1706 33.2755 39.7782 32.2958 39.1422C31.3161 38.5062 28.2111 35.9451 28.2111 34.9652C28.2111 34.1479 30.4441 32.7883 31.5291 32.1277C31.7449 31.9964 31.9153 31.8926 32.0136 31.8263C32.1257 31.7508 32.313 31.6344 32.5435 31.4912C33.5339 30.8758 35.3219 29.7648 35.3669 29.2722C35.4222 28.6648 35.4011 28.4867 34.6029 26.9862C34.4332 26.6671 34.2346 26.3253 34.0293 25.9721C33.2693 24.6642 32.4182 23.1996 32.6066 22.1506C32.8193 20.9663 34.6746 20.2874 36.2463 19.7122C36.4427 19.6403 36.6347 19.5701 36.8185 19.5007C37.2772 19.3274 37.8536 19.1115 38.4557 18.886C40.0248 18.2981 41.7681 17.6451 42.0556 17.5124C42.4537 17.3289 42.3508 17.1541 41.1453 17.0398C40.9859 17.0247 40.7876 17.0036 40.56 16.9794C39.0678 16.8208 36.3156 16.5284 34.9776 16.9014C34.7145 16.9747 34.4195 17.0546 34.1101 17.1384C32.6069 17.5455 30.7647 18.0444 30.5876 18.3321C30.5567 18.3824 30.5263 18.4256 30.4975 18.4665C30.3282 18.7072 30.2178 18.8641 30.4052 19.8869C30.4609 20.1915 30.5757 20.7907 30.7175 21.5315C31.1327 23.7004 31.7804 27.0836 31.862 27.8437C31.8734 27.9501 31.886 28.0527 31.8981 28.1515C32.002 28.9994 32.0711 29.5637 31.0865 29.7889C31.0045 29.8076 30.9184 29.8273 30.8289 29.8479C29.7178 30.1029 28.089 30.4767 27.5005 30.4767C26.9117 30.4767 25.2817 30.1026 24.1707 29.8476C24.0817 29.8272 23.996 29.8075 23.9145 29.7889C22.9297 29.5637 22.9989 28.9994 23.1027 28.1515C23.1148 28.0527 23.1274 27.9501 23.1388 27.8437C23.2206 27.0825 23.87 23.6909 24.2852 21.5224C24.4262 20.7858 24.5402 20.1903 24.5958 19.8869C24.783 18.8642 24.6726 18.7072 24.5034 18.4666C24.4747 18.4257 24.4443 18.3824 24.4133 18.3321C24.2364 18.0444 22.3943 17.5456 20.891 17.1384C20.5816 17.0547 20.2865 16.9748 20.0232 16.9014C18.6853 16.5284 15.9334 16.8208 14.4411 16.9794C14.2134 17.0036 14.0151 17.0247 13.8555 17.0398C12.6502 17.1541 12.5473 17.3289 12.9453 17.5124C13.2328 17.645 14.9753 18.2978 16.5441 18.8855C17.1466 19.1112 17.7235 19.3273 18.1825 19.5007C18.3664 19.5701 18.5585 19.6404 18.755 19.7123C20.3265 20.2875 22.1818 20.9664 22.3944 22.1506C22.5828 23.1995 21.7319 24.6637 20.9719 25.9715C20.7666 26.3249 20.5678 26.6669 20.398 26.9862C19.5999 28.4867 19.5787 28.6648 19.6341 29.2722C19.6789 29.7647 21.4664 30.8754 22.4568 31.4908C22.6876 31.6342 22.8751 31.7507 22.9872 31.8263C23.0855 31.8926 23.2557 31.9962 23.4713 32.1274C24.5561 32.7879 26.7898 34.1478 26.7898 34.9652C26.7898 35.9451 23.6849 38.5062 22.7052 39.1422C21.7255 39.7782 19.0614 41.1706 17.927 41.383C16.7926 41.5954 15.0223 40.3111 13.9889 38.387C13.0174 36.5781 13.7805 34.7933 14.3986 33.3473C14.438 33.2551 14.4768 33.1644 14.5145 33.075C15.0785 31.7403 14.2792 30.9366 13.7364 30.3909C13.673 30.3271 13.613 30.2668 13.5592 30.2096C13.261 29.8928 11.7882 28.3288 10.4248 26.8809C9.43741 25.8323 8.50735 24.8446 8.12217 24.4355C7.96334 24.2669 7.80466 24.1126 7.65087 23.963C6.91649 23.2489 6.29297 22.6426 6.29297 21.0934C6.29297 19.2197 13.5442 10.4531 13.5442 10.4531C13.5442 10.4531 19.663 11.622 20.488 11.622C21.1463 11.622 22.4175 11.1842 23.7426 10.7278C24.0781 10.6123 24.4171 10.4955 24.7505 10.3844C26.4005 9.8343 27.5005 9.83032 27.5005 9.83032C27.5005 9.83032 28.6005 9.8343 30.2505 10.3844C30.5839 10.4955 30.9229 10.6123 31.2584 10.7278C32.5835 11.1842 33.8547 11.622 34.513 11.622ZM33.4628 42.6304C34.7563 43.297 35.6739 43.7699 36.0208 43.987C36.4696 44.2681 36.1959 44.798 35.7871 45.087C35.3781 45.3761 29.8835 49.6312 29.3503 50.1018C29.282 50.1621 29.2097 50.2272 29.1343 50.2952C28.6205 50.7581 27.9651 51.3489 27.5004 51.3489C27.0357 51.3489 26.3798 50.7577 25.866 50.2942C25.7908 50.2267 25.7187 50.1616 25.6507 50.1018C25.1173 49.6312 19.6228 45.3761 19.2139 45.087C18.8049 44.798 18.5313 44.2681 18.9801 43.987C19.3273 43.7698 20.2458 43.2964 21.5405 42.6292C21.9201 42.4336 22.3319 42.2214 22.7712 41.994C24.7086 40.9913 27.1236 40.1387 27.5004 40.1387C27.8773 40.1387 30.2922 40.9913 32.2299 41.994C32.6701 42.2218 33.0826 42.4345 33.4628 42.6304Z" fill="white"/>
<mask id="mask0_93_1471" style="mask-type:alpha" maskUnits="userSpaceOnUse" x="4" y="0" width="47" height="12">
<path fill-rule="evenodd" clip-rule="evenodd" d="M43.0375 6.39652L37.3999 0H27.4999H17.5999L11.9623 6.39652C11.9623 6.39652 7.0123 5.02139 4.6748 7.35911C4.6748 7.35911 11.2748 6.76325 13.5436 10.4532C13.5436 10.4532 19.6624 11.6221 20.4874 11.6221C21.3123 11.6221 23.0999 10.9345 24.7499 10.3845C26.3999 9.83437 27.4999 9.8304 27.4999 9.8304C27.4999 9.8304 28.5999 9.83437 30.2499 10.3845C31.8999 10.9345 33.6874 11.6221 34.5124 11.6221C35.3374 11.6221 41.4562 10.4532 41.4562 10.4532C43.7249 6.76325 50.3251 7.35911 50.3251 7.35911C47.9873 5.02139 43.0375 6.39652 43.0375 6.39652Z" fill="white"/>
</mask>
<g mask="url(#mask0_93_1471)">
</g>
<defs>
<linearGradient id="paint0_linear_93_1471" x1="0" y1="64.9538" x2="55" y2="64.9538" gradientUnits="userSpaceOnUse">
<stop stop-color="#FF5500"/>
<stop offset="0.409877" stop-color="#FF5500"/>
<stop offset="0.581981" stop-color="#FF2000"/>
<stop offset="1" stop-color="#FF2000"/>
</linearGradient>
</defs>
</svg>
