<svg width="512" height="446" viewBox="0 0 512 446" fill="none" xmlns="http://www.w3.org/2000/svg">
<path d="M504.88 214.756C504.88 266.154 482.204 313.056 444.89 349.232V438.115L356.007 404.115C325.394 415.34 291.607 421.642 256 421.642C118.551 421.642 7.12021 329.018 7.12021 214.77C7.12021 100.523 118.551 7.88486 256 7.88486C393.45 7.88486 504.88 100.509 504.88 214.756Z" fill="#6F7A8B"/>
<path d="M444.89 445.228C444.022 445.228 443.169 445.071 442.344 444.759L355.936 411.712C324.156 423.036 290.54 428.769 256 428.769C114.852 428.755 0.00732422 332.759 0.00732422 214.77C0.00732422 96.7818 114.852 0.771973 256 0.771973C397.163 0.771973 511.993 96.7675 511.993 214.756C511.993 264.987 490.711 313.682 452.003 352.22V438.115C452.003 440.462 450.851 442.639 448.916 443.976C447.735 444.787 446.313 445.228 444.89 445.228ZM356.007 397.003C356.875 397.003 357.729 397.159 358.554 397.472L437.777 427.773V349.232C437.777 347.298 438.56 345.463 439.94 344.125C477.225 307.978 497.753 262.028 497.753 214.756C497.753 104.606 389.296 14.9978 255.986 14.9978C122.676 14.9978 14.2331 104.606 14.2331 214.77C14.2331 324.935 122.69 414.543 256 414.543C289.786 414.543 322.62 408.796 353.561 397.444C354.357 397.145 355.182 397.003 356.007 397.003Z" fill="#6F7A8B"/>
</svg>
