<svg width="11" height="10" viewBox="0 0 11 10" fill="none" xmlns="http://www.w3.org/2000/svg">
<path d="M2.76799 6.35004H2.31798C2.07928 6.35004 1.85036 6.25522 1.68158 6.08643C1.51279 5.91765 1.41797 5.68873 1.41797 5.45003V1.39998C1.41797 1.16128 1.51279 0.932361 1.68158 0.763577C1.85036 0.594792 2.07928 0.499969 2.31798 0.499969H6.36803C6.60673 0.499969 6.83565 0.594792 7.00443 0.763577C7.17322 0.932361 7.26804 1.16128 7.26804 1.39998V1.84999M5.46798 3.64997H9.51803C10.0151 3.64997 10.418 4.05292 10.418 4.54998V8.60003C10.418 9.09709 10.0151 9.50004 9.51803 9.50004H5.46798C4.97092 9.50004 4.56797 9.09709 4.56797 8.60003V4.54998C4.56797 4.05292 4.97092 3.64997 5.46798 3.64997Z" stroke="#9D8AA1" stroke-linecap="round" stroke-linejoin="round"/>
</svg>
