<svg xmlns="http://www.w3.org/2000/svg" width="752pt" height="752pt" version="1.1" stroke="#ffffff" fill="#ffffff" viewBox="0 0 752 752">
 <path d="m218.14 237.88c-10.898 0-19.73 8.832-19.73 19.73 0 10.898 8.832 19.734 19.73 19.734h315.72c10.898 0 19.73-8.8359 19.73-19.734 0-10.898-8.832-19.73-19.73-19.73zm98.664 138.12c0-10.898 8.832-19.73 19.73-19.73h197.33c10.898 0 19.73 8.832 19.73 19.73s-8.832 19.734-19.73 19.734h-197.33c-10.898 0-19.73-8.8359-19.73-19.734zm-118.39 118.4c0-10.898 8.832-19.734 19.73-19.734h315.72c10.898 0 19.73 8.8359 19.73 19.734 0 10.898-8.832 19.73-19.73 19.73h-315.72c-10.898 0-19.73-8.832-19.73-19.73z" fill-rule="evenodd"/>
</svg>
