<svg x="0" y="0" enable-background="new 0 0 512 512" viewBox="0 0 512 512" fill="currentColor" stroke-width="2" xml:space="preserve" color="#15D6FF" width="20" height="20">

 <path d="M424.787 235.476c-10.711-10.709-26.775-12.866-39.652-6.488L244.446 88.301c6.378-12.878 4.222-28.942-6.488-39.651-6.503-6.503-15.15-10.085-24.348-10.085s-17.844 3.581-24.348 10.085l-83.65 83.65c-13.424 13.425-13.424 35.269 0 48.694h.001c6.713 6.712 15.53 10.069 24.348 10.069a34.49 34.49 0 0015.305-3.581l45.445 45.445L2.987 420.648c-3.983 3.983-3.983 10.441 0 14.424l35.376 35.376a10.203 10.203 0 0014.424 0l187.724-187.724 45.432 45.432a34.285 34.285 0 00-3.586 15.317c0 9.198 3.583 17.845 10.086 24.346 6.503 6.503 15.15 10.085 24.348 10.085 9.198 0 17.844-3.582 24.347-10.085l83.649-83.65c6.504-6.503 10.086-15.15 10.086-24.348s-3.583-17.842-10.086-24.345zm-284.908-68.903c-5.469 5.466-14.37 5.466-19.841-.004-5.472-5.472-5.472-14.376 0-19.847l83.65-83.65a13.942 13.942 0 019.923-4.11c3.749 0 7.273 1.46 9.923 4.11 5.471 5.472 5.471 14.375 0 19.847l-83.655 83.654zM45.575 448.812L24.623 427.86l180.513-180.512 20.952 20.952L45.575 448.812zm115.394-274.479l70.331-70.331 138.134 138.135-70.331 70.331-138.134-138.135zm249.394 95.415l-83.65 83.65a13.94 13.94 0 01-9.923 4.11c-3.749 0-7.273-1.46-9.923-4.11h-.001c-2.651-2.651-4.11-6.175-4.11-9.923s1.461-7.273 4.111-9.923l83.655-83.654a13.938 13.938 0 019.917-4.105 13.932 13.932 0 019.925 4.109c2.651 2.651 4.109 6.175 4.109 9.923s-1.46 7.272-4.11 9.923zM477.567 404.402H319.663c-18.986 0-34.432 15.447-34.432 34.432 0 18.986 15.447 34.432 34.432 34.432h157.904c18.986 0 34.433-15.447 34.433-34.433 0-18.985-15.446-34.431-34.433-34.431zm0 48.465H319.663c-7.738 0-14.034-6.296-14.034-14.034s6.296-14.033 14.034-14.033h157.904c7.738 0 14.034 6.296 14.034 14.034s-6.296 14.033-14.034 14.033z" />
 <path d="M296.389 181.215l-4.169-4.168c-3.982-3.983-10.441-3.983-14.424 0-3.983 3.984-3.983 10.441.001 14.424l4.169 4.168c1.991 1.992 4.601 2.987 7.211 2.987s5.221-.996 7.212-2.987c3.983-3.983 3.983-10.441 0-14.424zM269.306 153.908l-30.789-30.565c-3.998-3.97-10.455-3.945-14.424.052s-3.945 10.455.053 14.424l30.789 30.566a10.162 10.162 0 007.185 2.961 10.17 10.17 0 007.238-3.014c3.969-3.997 3.946-10.455-.052-14.424z" />
</svg>
