<svg width="20" height="18" viewBox="0 0 20 18" fill="none" xmlns="http://www.w3.org/2000/svg">
<path d="M16.5933 8.19818C16.1749 7.77986 15.5474 7.6956 15.0443 7.94475L9.54868 2.44916C9.79782 1.94611 9.7136 1.31861 9.29524 0.900293C9.04122 0.64627 8.70345 0.506348 8.34415 0.506348C7.98485 0.506348 7.64712 0.646231 7.39306 0.900293L4.12548 4.16787C3.6011 4.69228 3.6011 5.54557 4.12548 6.06998C4.3877 6.33217 4.73216 6.4633 5.07661 6.4633C5.28401 6.46331 5.4886 6.41544 5.67446 6.32342L7.44966 8.09861L0.116689 15.4315C-0.0388965 15.587 -0.0388965 15.8393 0.116689 15.9949L1.49856 17.3768C1.5733 17.4515 1.67463 17.4934 1.78028 17.4934C1.88594 17.4934 1.98727 17.4515 2.062 17.3768L9.39497 10.0438L11.1697 11.8185C11.0772 12.0044 11.0293 12.2092 11.0296 12.4168C11.0296 12.7761 11.1695 13.1139 11.4236 13.3678C11.6776 13.6219 12.0154 13.7618 12.3747 13.7618C12.734 13.7618 13.0717 13.6219 13.3257 13.3678L16.5933 10.1003C16.8473 9.84623 16.9872 9.50846 16.9872 9.14916C16.9872 8.78986 16.8473 8.45221 16.5933 8.19818ZM5.46403 5.50666C5.2504 5.72018 4.90271 5.72018 4.68899 5.5065C4.47524 5.29275 4.47524 4.94494 4.68899 4.73123L7.95657 1.46365C8.00736 1.41259 8.06777 1.37211 8.1343 1.34456C8.20083 1.317 8.27217 1.30291 8.34419 1.30311C8.49063 1.30311 8.62829 1.36014 8.73181 1.46365C8.94552 1.6774 8.94552 2.02518 8.73181 2.23893L5.46403 5.50666ZM1.78028 16.5316L0.961846 15.7132L8.01313 8.66193L8.83157 9.48037L1.78028 16.5316ZM6.28786 5.80978L9.03517 3.06248L14.431 8.45838L11.6837 11.2057L6.28786 5.80978ZM16.0298 9.53693L12.7622 12.8045C12.7115 12.8556 12.651 12.8961 12.5845 12.9236C12.518 12.9512 12.4466 12.9653 12.3746 12.9651C12.2282 12.9651 12.0905 12.908 11.987 12.8045C11.8834 12.701 11.8264 12.5633 11.8264 12.4169C11.8264 12.2705 11.8835 12.1328 11.987 12.0293L15.2548 8.76154C15.3055 8.71054 15.3659 8.67011 15.4324 8.64258C15.4989 8.61506 15.5702 8.60099 15.6422 8.60119C15.7142 8.60096 15.7855 8.61502 15.8521 8.64258C15.9186 8.67013 15.9791 8.71062 16.0299 8.7617C16.1334 8.86525 16.1904 9.00291 16.1904 9.14932C16.1904 9.29572 16.1333 9.43338 16.0298 9.53693ZM18.655 14.7969H12.4868C11.7452 14.7969 11.1418 15.4003 11.1418 16.1419C11.1418 16.8835 11.7452 17.4869 12.4868 17.4869H18.655C19.3966 17.4869 20 16.8835 20 16.1418C20 15.4002 19.3967 14.7969 18.655 14.7969ZM18.655 16.69H12.4868C12.1846 16.69 11.9386 16.4441 11.9386 16.1418C11.9386 15.8395 12.1846 15.5936 12.4868 15.5936H18.655C18.9572 15.5936 19.2032 15.8396 19.2032 16.1419C19.2032 16.4441 18.9572 16.69 18.655 16.69Z" fill="white"/>
<path d="M11.5777 6.07862L11.4148 5.9158C11.2593 5.76022 11.007 5.76022 10.8514 5.9158C10.6958 6.07143 10.6958 6.32366 10.8514 6.47924L11.0143 6.64206C11.092 6.71987 11.194 6.75873 11.296 6.75873C11.3979 6.75873 11.4999 6.71983 11.5777 6.64206C11.7333 6.48647 11.7333 6.2342 11.5777 6.07862ZM10.5197 5.01194L9.31705 3.81799C9.16088 3.66291 8.90865 3.66389 8.75361 3.82002C8.59857 3.97616 8.59951 4.22842 8.75568 4.38346L9.95838 5.57745C10.0329 5.65166 10.1339 5.69326 10.239 5.69311C10.2916 5.69317 10.3437 5.68279 10.3922 5.66258C10.4407 5.64237 10.4848 5.61273 10.5218 5.57538C10.6768 5.41924 10.6759 5.16698 10.5197 5.01194Z" fill="white"/>
</svg>
