<svg width="18" height="18" viewBox="0 0 18 18" fill="none" xmlns="http://www.w3.org/2000/svg">
<path d="M9 16.875C6.91142 16.875 4.90838 16.0453 3.43153 14.5685C1.95468 13.0916 1.125 11.0886 1.125 9C1.125 6.91142 1.95468 4.90838 3.43153 3.43153C4.90838 1.95468 6.91142 1.125 9 1.125C11.0886 1.125 13.0916 1.95468 14.5685 3.43153C16.0453 4.90838 16.875 6.91142 16.875 9C16.875 11.0886 16.0453 13.0916 14.5685 14.5685C13.0916 16.0453 11.0886 16.875 9 16.875ZM9 18C11.3869 18 13.6761 17.0518 15.364 15.364C17.0518 13.6761 18 11.3869 18 9C18 6.61305 17.0518 4.32387 15.364 2.63604C13.6761 0.948212 11.3869 0 9 0C6.61305 0 4.32387 0.948212 2.63604 2.63604C0.948212 4.32387 0 6.61305 0 9C0 11.3869 0.948212 13.6761 2.63604 15.364C4.32387 17.0518 6.61305 18 9 18Z" fill="#9D8AA1"/>
<path d="M7.87724 12.375C7.87724 12.2273 7.90634 12.081 7.96288 11.9445C8.01942 11.808 8.10228 11.684 8.20675 11.5795C8.31121 11.475 8.43523 11.3922 8.57172 11.3356C8.70822 11.2791 8.85451 11.25 9.00224 11.25C9.14998 11.25 9.29627 11.2791 9.43276 11.3356C9.56925 11.3922 9.69327 11.475 9.79774 11.5795C9.9022 11.684 9.98507 11.808 10.0416 11.9445C10.0981 12.081 10.1272 12.2273 10.1272 12.375C10.1272 12.6734 10.0087 12.9595 9.79774 13.1705C9.58676 13.3815 9.30061 13.5 9.00224 13.5C8.70387 13.5 8.41773 13.3815 8.20675 13.1705C7.99577 12.9595 7.87724 12.6734 7.87724 12.375ZM7.98749 5.61938C7.97251 5.47745 7.98754 5.33396 8.03159 5.19821C8.07565 5.06246 8.14775 4.9375 8.24323 4.83141C8.3387 4.72533 8.45541 4.64051 8.58578 4.58245C8.71615 4.52438 8.85728 4.49438 8.99999 4.49438C9.14271 4.49438 9.28383 4.52438 9.41421 4.58245C9.54458 4.64051 9.66129 4.72533 9.75676 4.83141C9.85223 4.9375 9.92434 5.06246 9.96839 5.19821C10.0124 5.33396 10.0275 5.47745 10.0125 5.61938L9.61874 9.56475C9.60551 9.71975 9.5346 9.86413 9.42002 9.96934C9.30544 10.0746 9.15555 10.1329 8.99999 10.1329C8.84444 10.1329 8.69454 10.0746 8.57997 9.96934C8.46539 9.86413 8.39447 9.71975 8.38124 9.56475L7.98749 5.61938Z" fill="#9D8AA1"/>
</svg>
