<svg width="512" height="512" viewBox="0 0 512 512" fill="none" xmlns="http://www.w3.org/2000/svg">
<path d="M15.3403 224.949C6.97534 224.949 0.194336 231.73 0.194336 240.094V462.553C0.194336 470.918 6.97634 477.699 15.3403 477.699H106.593V224.949H15.3403Z" fill="#6F7A8B"/>
<path d="M511.806 308.587C511.806 289.36 501.475 272.5 486.073 263.266C491.974 254.745 495.435 244.408 495.435 233.281C495.435 204.168 471.749 180.482 442.636 180.482H331.178C334.594 165.002 339.266 141.773 342.519 117.456C350.985 54.1751 345.199 19.0801 324.312 7.01107C311.29 -0.51193 297.25 -2.03793 284.778 2.71007C275.143 6.38007 262.131 15.4031 254.716 37.5481L225.422 114.249C210.571 150.926 165.092 189.431 136.887 210.722V484.4C189.161 502.716 243.709 512 299.359 512H420.805C449.918 512 473.604 488.314 473.604 459.201C473.604 449.006 470.699 439.476 465.674 431.397C483.275 422.825 495.433 404.751 495.433 383.894C495.433 372.766 491.972 362.431 486.071 353.909C501.475 344.675 511.806 327.814 511.806 308.587Z" fill="#6F7A8B"/>
</svg>
