<svg width="486" height="512" viewBox="0 0 486 512" fill="none" xmlns="http://www.w3.org/2000/svg">
<path d="M485.265 108.963C485.265 102.467 481.342 96.6146 475.334 94.1458L249.087 1.20138C245.187 -0.400458 240.814 -0.400458 236.913 1.20138L10.6662 94.1458C4.65835 96.6136 0.734863 102.467 0.734863 108.963V403.037C0.734863 409.533 4.65735 415.385 10.6662 417.854L236.913 510.799C240.772 512.383 245.109 512.417 249.067 510.798C249.26 510.734 240.694 514.247 475.334 417.854C481.343 415.386 485.265 409.533 485.265 403.037V108.963ZM243 185.937L159.637 151.691L339.794 73.0997L428.733 109.636L243 185.937ZM32.7715 134.208L104.695 163.754V247.114C104.695 255.96 111.867 263.132 120.713 263.132C129.559 263.132 136.732 255.96 136.732 247.114V176.915L226.982 213.991V472.083L32.7715 392.3V134.208ZM243 33.3352L298.53 56.1473L118.372 134.738L57.2676 109.635L243 33.3352ZM259.018 213.991L453.229 134.208V392.3L259.018 472.083V213.991Z" fill="#15D6FF"/>
</svg>
