<svg width="17" height="17" viewBox="0 0 17 17" fill="none" xmlns="http://www.w3.org/2000/svg">
<path d="M15.335 3.19045L13.521 2.42667C13.4255 2.37892 13.33 2.28345 13.33 2.18798L12.9004 0.278495C12.8526 -0.00792723 12.4708 -0.103408 12.3275 0.135279L11.0386 1.61514C10.9432 1.71061 10.8477 1.75834 10.7522 1.71061L8.79494 1.47192C8.50855 1.42418 8.3176 1.75834 8.46081 1.99703L9.46331 3.66783C9.51102 3.7633 9.51102 3.90651 9.46331 4.00198L8.65173 5.76826C8.50855 6.00695 8.74723 6.29337 9.03367 6.24563L10.9909 5.816C11.0864 5.76826 11.2295 5.816 11.2773 5.91147L12.7572 7.24811C12.9481 7.43906 13.33 7.29585 13.33 7.00942L13.4732 5.09994C13.4732 5.00447 13.5687 4.86125 13.6642 4.81352L15.3827 3.85878C15.6214 3.66783 15.6214 3.28593 15.335 3.19045Z" fill="white"/>
<path d="M15.2425 14.9174L16.2449 14.6787C16.436 14.631 16.4837 14.4401 16.3404 14.2968L15.5289 13.6285C15.4811 13.5808 15.4334 13.5331 15.4334 13.4375L15.5289 12.3873C15.5289 12.1964 15.3379 12.1009 15.1947 12.1964L14.3355 12.7693C14.2877 12.817 14.1923 12.817 14.1445 12.7693L13.1898 12.3873C13.0466 12.3396 12.8556 12.4828 12.9034 12.6261L13.1898 13.6763C13.1898 13.724 13.1898 13.8195 13.1421 13.8672L12.4737 14.6787C12.3783 14.8219 12.4737 15.0129 12.6169 15.0129L13.6671 15.0606C13.7148 15.0606 13.8104 15.1083 13.8581 15.1561L14.3832 16.0631C14.4786 16.2064 14.7174 16.2064 14.7651 16.0153L15.147 15.0129C15.0993 14.9651 15.147 14.9174 15.2425 14.9174Z" fill="white"/>
<path d="M3.53866 8.59946L2.91808 7.3583C2.8226 7.16735 2.53618 7.16735 2.39296 7.3583L1.82012 8.59946C1.77238 8.69497 1.67691 8.74268 1.62918 8.74268L0.244793 8.9336C0.00610577 8.9814 -0.0893681 9.26774 0.101577 9.41095L1.10406 10.3658C1.1518 10.4135 1.19954 10.509 1.19954 10.6044L0.960853 11.9888C0.913118 12.2275 1.1518 12.3707 1.39049 12.2752L2.63165 11.6069C2.72713 11.5592 2.8226 11.5592 2.91808 11.6069L4.15924 12.2752C4.35019 12.3707 4.58888 12.2275 4.58888 11.9888L4.35019 10.6044C4.35019 10.509 4.35019 10.4135 4.44567 10.3658L5.44815 9.41095C5.6391 9.26774 5.54363 8.9814 5.30494 8.9336L3.92056 8.74268C3.68187 8.74268 3.5864 8.69497 3.53866 8.59946Z" fill="white"/>
</svg>
