<svg width="63" height="60" viewBox="0 0 63 60" fill="none" xmlns="http://www.w3.org/2000/svg">
<path d="M61.4746 0.508301L34.4704 20.4895L39.4921 8.71392L61.4746 0.508301Z" fill="#E17726"/>
<path d="M1.52186 0.531784L23.4455 8.71536L28.2138 20.6453L1.52186 0.531784Z" fill="#E27625"/>
<path d="M50.6072 43.0026L62.5426 43.2297L58.3714 57.4001L43.8076 53.3902L50.6072 43.0026Z" fill="#E27625"/>
<path d="M12.3259 43.0026L19.1004 53.3902L4.56096 57.4004L0.415082 43.2297L12.3259 43.0026Z" fill="#E27625"/>
<path d="M27.5655 17.6064L28.0534 33.3603L13.458 32.6962L17.6095 26.433L17.6621 26.3726L27.5655 17.6064Z" fill="#E27625"/>
<path d="M35.2167 17.4307L45.2712 26.3733L45.3232 26.4332L49.4748 32.6964L34.8828 33.3603L35.2167 17.4307Z" fill="#E27625"/>
<path d="M19.5277 43.0483L27.4972 49.2577L18.2396 53.7274L19.5277 43.0483Z" fill="#E27625"/>
<path d="M43.407 43.0473L44.6683 53.7274L35.4367 49.2573L43.407 43.0473Z" fill="#E27625"/>
<path d="M35.6404 48.6724L45.0084 53.2085L36.2943 57.35L36.3848 54.6127L35.6404 48.6724Z" fill="#D5BFB2"/>
<path d="M27.2903 48.6744L26.5751 54.5679L26.6338 57.3467L17.8993 53.2085L27.2903 48.6744Z" fill="#D5BFB2"/>
<path d="M24.5851 35.4164L27.0331 40.5611L18.6985 38.1196L24.5851 35.4164Z" fill="#233447"/>
<path d="M38.3479 35.4169L44.2622 38.1195L35.9005 40.5604L38.3479 35.4169Z" fill="#233447"/>
<path d="M20.1648 42.9958L18.8176 54.068L11.5967 43.2378L20.1648 42.9958Z" fill="#CC6228"/>
<path d="M42.7691 42.9958L51.3375 43.2378L44.0895 54.0684L42.7691 42.9958Z" fill="#CC6228"/>
<path d="M49.6859 32.0702L43.4502 38.4252L38.6426 36.2282L36.3408 41.0672L34.8318 32.746L49.6859 32.0702Z" fill="#CC6228"/>
<path d="M13.2444 32.0701L28.1011 32.746L26.5921 41.0672L24.2898 36.2288L19.5075 38.4253L13.2444 32.0701Z" fill="#CC6228"/>
<path d="M12.824 30.7661L19.879 37.925L20.1235 44.9924L12.824 30.7661Z" fill="#E27525"/>
<path d="M50.1164 30.7531L42.8039 45.0049L43.0792 37.9248L50.1164 30.7531Z" fill="#E27525"/>
<path d="M27.7562 31.202L28.0402 32.9892L28.7418 37.4414L28.2907 51.116L26.1581 40.1311L26.1574 40.0175L27.7562 31.202Z" fill="#E27525"/>
<path d="M35.1733 31.1773L36.7764 40.0175L36.7757 40.1311L34.6378 51.1435L34.2195 37.3605L35.1733 31.1773Z" fill="#E27525"/>
<path d="M43.7063 37.6404L43.4676 43.7808L36.0252 49.5794L34.5207 48.5164L36.2072 39.8297L43.7063 37.6404Z" fill="#F5841F"/>
<path d="M19.2529 37.6406L26.7261 39.8299L28.4125 48.5164L26.908 49.5794L19.4653 43.7803L19.2529 37.6406Z" fill="#F5841F"/>
<path d="M16.4753 51.8525L25.9969 56.364L25.9566 54.4375L26.7533 53.7382H36.177L37.0025 54.4351L36.9417 56.3603L46.4029 51.8639L41.7991 55.6683L36.2321 59.4919H26.677L21.1135 55.6526L16.4753 51.8525Z" fill="#C0AC9D"/>
<path d="M34.9584 48.072L36.3046 49.0229L37.0935 55.3175L35.9518 54.3534H26.985L25.865 55.3369L26.628 49.0234L27.9747 48.072H34.9584Z" fill="#161616"/>
<path d="M59.6918 1.06137L62.9333 10.7859L60.909 20.6184L62.3505 21.7305L60.3999 23.2187L61.8658 24.3508L59.9246 26.1188L61.1164 26.9818L57.9536 30.6757L44.981 26.8986L44.8685 26.8383L35.5202 18.9524L59.6918 1.06137Z" fill="#763E1A"/>
<path d="M3.24156 1.06137L27.4132 18.9524L18.0649 26.8383L17.9525 26.8986L4.97978 30.6757L1.81701 26.9818L3.00784 26.1194L1.06753 24.3508L2.53075 23.2199L0.550995 21.7274L2.04688 20.6147L0 10.7863L3.24156 1.06137Z" fill="#763E1A"/>
<path d="M44.3463 26.0726L58.0916 30.0745L62.5573 43.8376L50.776 43.8376L42.6584 43.94L48.5618 32.433L44.3463 26.0726Z" fill="#F5841F"/>
<path d="M18.587 26.0726L14.3706 32.433L20.2749 43.94L12.1612 43.8376H0.400839L4.84142 30.0746L18.587 26.0726Z" fill="#F5841F"/>
<path d="M40.1652 8.64827L36.3206 19.032L35.5047 33.0594L35.1925 37.4561L35.1677 48.6876H27.7653L27.7414 37.4771L27.4281 33.0555L26.6119 19.032L22.7679 8.64827H40.1652Z" fill="#F5841F"/>
</svg>
