<svg width="409" height="393" viewBox="0 0 409 393" fill="none" xmlns="http://www.w3.org/2000/svg">
<path d="M405.432 139.348C383.107 105.293 345.571 84.991 304.857 84.991C297.845 84.991 290.93 85.608 284.167 86.779L341.847 29.097C345.906 25.038 347.422 19.085 345.797 13.578C344.172 8.073 339.669 3.895 334.057 2.689C325.749 0.905 317.221 0 308.71 0C276.603 0 246.421 12.502 223.718 35.202C215.98 42.941 209.454 51.561 204.19 60.796C198.926 51.561 192.4 42.941 184.661 35.202C161.96 12.502 131.777 0 99.6691 0C91.1571 0 82.6291 0.905 74.3201 2.69C68.7081 3.896 64.2021 8.073 62.5801 13.579C60.9551 19.086 62.4711 25.038 66.5301 29.098L124.212 86.78C117.448 85.609 110.534 84.992 103.522 84.992C62.5401 84.992 24.7781 105.565 2.50907 140.026C-0.605929 144.847 -0.83693 150.986 1.90807 156.028C4.65307 161.069 9.93307 164.207 15.6731 164.207H97.2051C91.6031 168.162 86.2991 172.625 81.3521 177.572C52.3761 206.546 40.2221 247.794 48.8381 287.912C50.0441 293.524 54.2211 298.029 59.7281 299.652C61.1881 300.084 62.6811 300.293 64.1601 300.293C68.2581 300.293 72.2631 298.684 75.2441 295.702L164.292 206.655L158.519 294.687H184.458C193.114 294.687 200.131 301.705 200.131 310.361C200.131 319.017 193.113 326.034 184.458 326.034H156.462L152.074 392.928C169.064 389.526 186.5 387.772 204.191 387.772C221.88 387.772 239.315 389.525 256.304 392.928L255.29 377.483H219.197C210.541 377.483 203.524 370.465 203.524 361.81C203.524 353.154 210.542 346.136 219.197 346.136H253.233L248.539 274.584H219.196C210.54 274.584 203.523 267.566 203.523 258.911C203.523 250.256 210.541 243.238 219.196 243.238H246.482L244.083 206.657L281.926 244.5C285.625 246.084 288.59 249.049 290.173 252.748L333.13 295.704C336.112 298.687 340.116 300.295 344.213 300.295C345.694 300.295 347.187 300.086 348.648 299.654C354.154 298.029 358.331 293.526 359.536 287.914C368.154 247.795 355.999 206.546 327.024 177.574C322.076 172.626 316.77 168.164 311.169 164.209H392.704C392.711 164.209 392.72 164.208 392.725 164.209C401.382 164.209 408.398 157.191 408.398 148.536C408.403 145.101 407.302 141.929 405.432 139.348Z" fill="white"/>
</svg>
