<svg width="59" height="59" viewBox="0 0 59 59" fill="none" xmlns="http://www.w3.org/2000/svg">
<path d="M29.5 59C45.7924 59 59 45.7924 59 29.5C59 13.2076 45.7924 0 29.5 0C13.2076 0 0 13.2076 0 29.5C0 45.7924 13.2076 59 29.5 59Z" fill="url(#paint0_linear_576_9375)"/>
<path d="M50.6189 29.8594H45.4184C45.4184 19.2612 36.797 10.6702 26.161 10.6702C15.6568 10.6702 7.11679 19.0509 6.90777 29.4675C6.69154 40.235 16.8293 49.5851 27.6365 49.5851H28.9959C38.5238 49.5851 51.294 42.153 53.2892 33.0976C53.6576 31.4284 52.3344 29.8594 50.6189 29.8594ZM18.4329 30.3315C18.4329 31.7487 17.2696 32.9079 15.8473 32.9079C14.4249 32.9079 13.2617 31.7482 13.2617 30.3315V26.1635C13.2617 24.7463 14.4249 23.5871 15.8473 23.5871C17.2696 23.5871 18.4329 24.7463 18.4329 26.1635V30.3315ZM27.4109 30.3315C27.4109 31.7487 26.2478 32.9079 24.8255 32.9079C23.4031 32.9079 22.2399 31.7482 22.2399 30.3315V26.1635C22.2399 24.7463 23.4036 23.5871 24.8255 23.5871C26.2478 23.5871 27.4109 24.7463 27.4109 26.1635V30.3315Z" fill="url(#paint1_linear_576_9375)"/>
<defs>
<linearGradient id="paint0_linear_576_9375" x1="29.5" y1="0" x2="29.5" y2="59" gradientUnits="userSpaceOnUse">
<stop stop-color="#534BB1"/>
<stop offset="1" stop-color="#551BF9"/>
</linearGradient>
<linearGradient id="paint1_linear_576_9375" x1="30.1277" y1="10.6699" x2="30.1277" y2="49.5849" gradientUnits="userSpaceOnUse">
<stop stop-color="white"/>
<stop offset="1" stop-color="white" stop-opacity="0.82"/>
</linearGradient>
</defs>
</svg>
