<svg width="492" height="512" viewBox="0 0 492 512" fill="none" xmlns="http://www.w3.org/2000/svg">
<path d="M184.421 166C165.992 166 151 180.993 151 199.421C151 217.85 165.994 232.842 184.421 232.842C202.85 232.842 217.842 217.849 217.842 199.421C217.843 180.993 202.85 166 184.421 166Z" fill="#15D6FF"/>
<path d="M306.965 288.544C288.536 288.544 273.544 303.537 273.544 321.965C273.544 340.394 288.537 355.386 306.965 355.386C325.393 355.386 340.386 340.393 340.386 321.965C340.387 303.537 325.394 288.544 306.965 288.544Z" fill="#15D6FF"/>
<path d="M465.13 264.499C461.77 259.335 461.77 252.665 465.13 247.501L483.828 218.761C500.86 192.583 489.384 157.413 460.275 146.271L428.255 134.011C422.502 131.807 418.579 126.41 418.263 120.257L416.498 86.0169C414.89 54.8331 384.935 33.1152 354.831 41.2151L321.722 50.1171C315.774 51.7151 309.427 49.6541 305.555 44.8631L284.001 18.1983C264.37 -6.08559 227.376 -6.04659 207.778 18.1983L186.222 44.8641C182.35 49.6561 176.005 51.7151 170.055 50.1181L136.944 41.2161C106.782 33.1042 76.8817 54.8941 75.2777 86.0179L73.5128 120.258C73.1948 126.41 69.2738 131.808 63.5208 134.011L31.503 146.271C2.33217 157.436 -9.05176 192.635 7.94714 218.762L26.646 247.501C30.005 252.664 30.005 259.336 26.646 264.499L7.95014 293.238C-9.08376 319.419 2.39618 354.589 31.504 365.729L63.5238 377.989C69.2768 380.193 73.1988 385.59 73.5158 391.743L75.2807 425.983C76.8887 457.173 106.849 478.882 136.947 470.785L170.056 461.883C176.007 460.287 182.351 462.346 186.224 467.137L207.779 493.801C227.414 518.091 264.407 518.041 284.002 493.801L305.556 467.137C309.428 462.347 315.777 460.288 321.723 461.883L354.834 470.785C384.989 478.9 414.896 457.111 416.501 425.983L418.266 391.743C418.584 385.591 422.505 380.193 428.258 377.99L460.276 365.73C489.444 354.564 500.829 319.367 483.832 293.238L465.13 264.499ZM448.325 334.518L416.305 346.778C398.216 353.704 385.884 370.678 384.887 390.021L383.122 424.261C382.611 434.182 373.086 441.082 363.51 438.51L330.399 429.608C311.694 424.576 291.738 431.063 279.564 446.126L258.011 472.79C251.766 480.515 240.002 480.499 233.769 472.79L212.216 446.126C202.778 434.45 188.666 427.928 174.084 427.928C169.855 427.928 165.585 428.476 161.378 429.608L128.267 438.51C118.671 441.086 109.168 434.162 108.656 424.261L106.891 390.021C105.894 370.678 93.5606 353.703 75.4727 346.778L43.4529 334.517C34.176 330.965 30.557 319.774 35.963 311.465L54.6609 282.726C65.2238 266.49 65.2238 245.508 54.6609 229.274L35.963 200.535C30.545 192.209 34.195 181.026 43.4539 177.481L75.4737 165.221C93.5626 158.295 105.895 141.322 106.892 121.979L108.657 87.7389C109.168 77.8179 118.693 70.918 128.268 73.49L161.379 82.3919C180.084 87.4229 200.039 80.9369 212.215 65.874L233.77 39.2091C240.015 31.4852 251.78 31.5012 258.011 39.2091L279.566 65.875C291.743 80.9379 311.694 87.4239 330.401 82.3919L363.512 73.49C373.107 70.913 382.612 77.8379 383.124 87.7389L384.887 121.979C385.884 141.322 398.217 158.296 416.305 165.221L448.326 177.482C457.602 181.032 461.22 192.226 455.816 200.535L437.119 229.273C426.554 245.508 426.554 266.49 437.118 282.726L455.816 311.464C461.231 319.792 457.583 330.973 448.325 334.518Z" fill="#15D6FF"/>
<path d="M329.372 170.843C322.847 164.318 312.266 164.318 305.74 170.843L149.775 326.809C143.25 333.333 143.25 343.914 149.776 350.44C153.039 353.703 157.316 355.335 161.592 355.335C165.868 355.335 170.146 353.703 173.408 350.44L329.373 194.474C335.899 187.95 335.899 177.369 329.372 170.843Z" fill="#15D6FF"/>
</svg>
