<svg width="512" height="512" viewBox="0 0 512 512" fill="none" xmlns="http://www.w3.org/2000/svg">
<path d="M83.8194 510.757C129.427 510.757 166.4 473.785 166.4 428.177C166.4 382.568 129.427 345.596 83.8194 345.596C38.2113 345.596 1.23871 382.568 1.23871 428.177C1.23871 473.785 38.2113 510.757 83.8194 510.757Z" fill="white"/>
<path d="M276.645 470.297C276.645 493.006 295.226 511.587 317.935 511.587C340.645 511.587 359.226 493.006 359.226 470.297C359.226 295.226 216.774 152.361 41.2903 152.361C18.5806 152.361 0 170.942 0 193.652C0 216.361 18.5806 234.942 41.2903 234.942C171.355 234.942 276.645 340.645 276.645 470.297Z" fill="white"/>
<path d="M470.71 511.587C493.419 511.587 512 493.006 512 470.297C512 210.993 301.006 0 41.7032 0C18.9935 0 0.412903 18.5806 0.412903 41.2903C0.412903 64 18.9935 82.5806 41.7032 82.5806C255.587 82.5806 429.419 256.413 429.419 470.297C429.419 493.006 447.587 511.587 470.71 511.587Z" fill="white"/>
</svg>
