<svg width="392" height="448" viewBox="0 0 392 448" fill="none" xmlns="http://www.w3.org/2000/svg">
<path d="M391.992 162.047V122.828C391.699 120.746 391.648 118.578 390.722 116.577L346.562 9.875C344.094 3.90625 338.258 0 331.781 0H60.2188C53.7422 0 47.9062 3.90625 45.4375 9.875L1.27832 116.577C0.35128 118.578 0.303005 120.747 0.0078125 122.828V162.047C0.0078125 184.792 12.6641 204.432 31.1641 214.919V288.592C22.7432 289.054 16.0078 295.878 16.0078 304.422C16.0078 312.966 22.7432 319.79 31.1641 320.252V416.17C22.7432 416.632 16.0078 423.456 16.0078 432C16.0078 440.844 23.1719 448 32.0078 448H359.992C368.828 448 375.992 440.844 375.992 432C375.992 423.456 369.257 416.632 360.836 416.17V320.252C369.257 319.79 375.992 312.966 375.992 304.422C375.992 295.878 369.257 289.054 360.836 288.592V214.919C379.336 204.432 391.992 184.792 391.992 162.047ZM359.992 162.047C359.992 178.031 346.984 191.047 330.992 191.047C315 191.047 301.992 178.031 301.992 162.047V138.828H359.992V162.047ZM63.1641 320.422H328.836V416H63.1641V320.422ZM63.1641 288.422V222.829C80.1602 222.223 95.2988 214.667 106.006 202.877C117.172 215.175 133.12 223.047 151 223.047C168.881 223.047 184.832 215.174 196 202.875C207.168 215.174 223.119 223.047 241 223.047C258.88 223.047 274.828 215.175 285.994 202.877C296.701 214.667 311.84 222.223 328.836 222.829V288.422H63.1641ZM269.992 162.047C269.992 178.031 256.984 191.047 241 191.047C225.008 191.047 212 178.031 212 162.047V138.828H269.992V162.047ZM180 162.047C180 178.031 166.992 191.047 151 191.047C135.016 191.047 122.008 178.031 122.008 162.047V138.828H180V162.047ZM32.0078 138.828H90.0078V162.047C90.0078 178.031 76.9999 191.047 61.0078 191.047C45.0156 191.047 32.0078 178.031 32.0078 162.047V138.828ZM70.9141 32H321.086L352.055 106.828H39.9453L70.9141 32Z" fill="#15D6FF"/>
</svg>
