<svg xmlns="http://www.w3.org/2000/svg" width="48" height="48" viewBox="0 0 48 48" fill="none" style="&#10;"><script xmlns="">(function(){window['_docs_annotate_canvas_by_ext']='kohfgcgbkjodfcfkcackpagifgbcmimk';})();</script>
<path d="M0 19.3864C0.0359734 14.2379 2.10426 9.31209 5.75459 5.68122C9.40493 2.05036 14.3418 0.00844106 19.4904 0H20.9175V3.09897H19.512C15.1814 3.10111 11.0269 4.81381 7.95291 7.86425C4.87895 10.9147 3.13438 15.0559 3.09897 19.3864H0Z" fill="white"/>
<path d="M5.94434 38.9958V35.8968H7.37146C11.7013 35.8918 15.854 34.177 18.9259 31.1254C21.9977 28.0739 23.74 23.9327 23.7737 19.6029H26.8748C26.8388 24.7533 24.769 29.6807 21.1164 33.3119C17.4637 36.9431 12.5241 38.9837 7.37363 38.9893L5.94434 38.9958Z" fill="white"/>
<path d="M5.94434 33.0512V29.9523H7.37146C10.1253 29.949 12.767 28.861 14.7244 26.9239C16.6818 24.9868 17.7972 22.3566 17.8291 19.6029H20.9281C20.8939 23.1772 19.451 26.5936 16.9127 29.1104C14.3745 31.6271 10.9459 33.0409 7.37146 33.0448L5.94434 33.0512Z" fill="white"/>
<path d="M5.94434 19.3864C5.97744 15.8094 7.42125 12.3899 9.96188 9.8716C12.5025 7.35328 15.9345 5.93967 19.5118 5.93811H20.9389V9.03708H19.5118C16.7561 9.03746 14.1116 10.1242 12.1519 12.0616C10.1922 13.999 9.07522 16.6309 9.0433 19.3864H5.94434Z" fill="white"/>
<path d="M5.94434 27.1068V24.0079H7.37146C8.54934 24.0071 9.68029 23.5461 10.523 22.7231C11.3658 21.9002 11.8536 20.7806 11.8824 19.603V19.4883C11.8864 17.4682 12.6923 15.5325 14.1229 14.1063C15.5535 12.6802 17.4918 11.8804 19.5118 11.8827H20.9389V14.9817H19.5118C18.3322 14.9802 17.1988 15.4401 16.3539 16.2632C15.5089 17.0863 15.0194 18.2073 14.99 19.3865V19.5013C14.9877 21.5198 14.1847 23.4549 12.7572 24.882C11.3297 26.3091 9.39431 27.1116 7.37579 27.1133L5.94434 27.1068Z" fill="white"/>


<script xmlns=""/></svg>
