<svg width="14" height="11" viewBox="0 0 14 11" fill="none" xmlns="http://www.w3.org/2000/svg">
<path d="M2.27455 8.03003C2.35903 7.94902 2.47519 7.9017 2.59839 7.9017H13.7705C13.9746 7.9017 14.0767 8.13804 13.9324 8.27641L11.7254 10.3928C11.641 10.4738 11.5248 10.5211 11.4016 10.5211H0.229502C0.0253498 10.5211 -0.0767295 10.2848 0.0675889 10.1464L2.27455 8.03003Z" fill="url(#paint0_linear_627_9107)"/>
<path d="M2.27455 0.128264C2.36255 0.0472525 2.4787 0 2.59838 0H13.7705C13.9746 0 14.0767 0.236278 13.9324 0.374674L11.7254 2.49105C11.641 2.57207 11.5248 2.61932 11.4016 2.61932H0.229502C0.0253498 2.61932 -0.0767295 2.38304 0.0675889 2.24465L2.27455 0.128264Z" fill="url(#paint1_linear_627_9107)"/>
<path d="M11.7254 4.0538C11.641 3.97279 11.5248 3.92554 11.4016 3.92554H0.229502C0.0253498 3.92554 -0.0767295 4.16181 0.0675889 4.3002L2.27455 6.4166C2.35903 6.49761 2.47519 6.54485 2.59839 6.54485H13.7705C13.9746 6.54485 14.0767 6.30858 13.9324 6.17022L11.7254 4.0538Z" fill="url(#paint2_linear_627_9107)"/>
<defs>
<linearGradient id="paint0_linear_627_9107" x1="12.7032" y1="-36.817" x2="-16.2387" y2="-22.425" gradientUnits="userSpaceOnUse">
<stop stop-color="#00FFA3"/>
<stop offset="1" stop-color="#DC1FFF"/>
</linearGradient>
<linearGradient id="paint1_linear_627_9107" x1="9.3224" y1="-11.8771" x2="-19.6198" y2="2.51493" gradientUnits="userSpaceOnUse">
<stop stop-color="#00FFA3"/>
<stop offset="1" stop-color="#DC1FFF"/>
</linearGradient>
<linearGradient id="paint2_linear_627_9107" x1="11.0021" y1="-2.11605" x2="3.76714" y2="12.3348" gradientUnits="userSpaceOnUse">
<stop stop-color="#00FFA3"/>
<stop offset="1" stop-color="#DC1FFF"/>
</linearGradient>
</defs>
</svg>
