<svg width="18" height="16" viewBox="0 0 18 16" fill="none" xmlns="http://www.w3.org/2000/svg">
<path d="M17.0042 7.67574C17.0043 7.54601 16.9666 7.41883 16.8954 7.30848C16.8242 7.19812 16.7223 7.10894 16.6011 7.05095L14.2606 5.93053L16.6011 4.8136C16.7224 4.7557 16.8244 4.66657 16.8958 4.5562C16.9671 4.44584 17.0049 4.31861 17.0049 4.18882C17.0049 4.05902 16.9671 3.9318 16.8958 3.82143C16.8244 3.71107 16.7224 3.62193 16.6011 3.56403L9.31214 0.0736239C9.21097 0.025206 9.09942 0 8.98632 0C8.87322 0 8.76168 0.025206 8.66051 0.0736239L1.37153 3.56403C1.25024 3.62193 1.1482 3.71107 1.07688 3.82143C1.00556 3.9318 0.967773 4.05902 0.967773 4.18882C0.967773 4.31861 1.00556 4.44584 1.07688 4.5562C1.1482 4.66657 1.25024 4.7557 1.37153 4.8136L3.71202 5.93053L1.37153 7.05095C1.25024 7.10885 1.1482 7.19799 1.07688 7.30835C1.00556 7.41872 0.967773 7.54594 0.967773 7.67574C0.967773 7.80553 1.00556 7.93275 1.07688 8.04312C1.1482 8.15349 1.25024 8.24262 1.37153 8.30052L3.71202 9.42094L1.37153 10.5414C1.25024 10.5993 1.1482 10.6884 1.07688 10.7988C1.00556 10.9091 0.967773 11.0364 0.967773 11.1661C0.967773 11.2959 1.00556 11.4232 1.07688 11.5335C1.1482 11.6439 1.25024 11.733 1.37153 11.7909L8.66051 15.2813C8.76168 15.3298 8.87322 15.355 8.98632 15.355C9.09942 15.355 9.21097 15.3298 9.31214 15.2813L16.6011 11.7909C16.7224 11.733 16.8244 11.6439 16.8958 11.5335C16.9671 11.4232 17.0049 11.2959 17.0049 11.1661C17.0049 11.0364 16.9671 10.9091 16.8958 10.7988C16.8244 10.6884 16.7224 10.5993 16.6011 10.5414L14.2606 9.42094L16.6011 8.30401C16.7228 8.24576 16.8251 8.15604 16.8963 8.045C16.9676 7.93397 17.0049 7.80605 17.0042 7.67574V7.67574ZM14.6455 11.1661L8.98632 13.8761L3.32717 11.1661L5.34184 10.2014L8.66051 11.7944C8.76168 11.8428 8.87322 11.868 8.98632 11.868C9.09942 11.868 9.21097 11.8428 9.31214 11.7944L12.6308 10.2014L14.6455 11.1661ZM8.98632 10.3857L3.32717 7.67574L5.34184 6.71099L8.66051 8.30401C8.76168 8.35243 8.87322 8.37763 8.98632 8.37763C9.09942 8.37763 9.21097 8.35243 9.31214 8.30401L12.6308 6.71099L14.6455 7.67574L8.98632 10.3857Z" fill="white"/>
</svg>
