<svg width="440" height="440" viewBox="0 0 440 440" fill="none" xmlns="http://www.w3.org/2000/svg">
<path d="M111.923 118.823L73.8034 121.768C63.1962 122.588 53.7492 128.147 47.8831 137.02L3.92041 203.511C-0.528541 210.24 -1.2358 218.661 2.02722 226.038C5.2911 233.415 11.9985 238.555 19.9691 239.79L54.8724 245.196C63.0372 201.866 82.5827 158.644 111.923 118.823Z" fill="#15D6FF"/>
<path d="M194.803 385.127L200.21 420.03C201.444 428.001 206.585 434.708 213.961 437.971C217.03 439.329 220.278 439.999 223.51 439.999C228.051 439.999 232.559 438.677 236.489 436.078L302.981 392.116C311.854 386.249 317.414 376.801 318.232 366.196L321.177 328.076C281.355 357.417 238.134 376.963 194.803 385.127Z" fill="#15D6FF"/>
<path d="M181.676 360.935C182.888 360.935 184.107 360.835 185.323 360.632C203.476 357.597 220.973 352.484 237.663 345.791L94.2091 202.337C87.5163 219.026 82.4031 236.523 79.3678 254.677C78.1716 261.833 80.5718 269.123 85.7013 274.254L165.746 354.299C170.005 358.557 175.754 360.935 181.676 360.935Z" fill="#15D6FF"/>
<path d="M404.915 195.079C440.02 127.211 441.32 55.492 439.485 21.8563C438.857 10.3313 429.669 1.14296 418.143 0.514762C412.666 0.215701 406.175 0 398.859 0C361.248 0 301.736 5.69675 244.92 35.0846C199.767 58.4396 140.559 109.865 105.628 177.448C106.04 177.77 106.443 178.112 106.823 178.492L261.509 333.178C261.889 333.558 262.23 333.96 262.552 334.372C330.135 299.44 381.56 240.232 404.915 195.079ZM255.832 93.018C280.961 67.8892 321.851 67.8867 346.981 93.018C359.155 105.191 365.859 121.377 365.859 138.593C365.859 155.809 359.155 171.995 346.981 184.168C334.418 196.731 317.91 203.014 301.407 203.015C284.899 203.016 268.399 196.734 255.832 184.168C243.658 171.995 236.954 155.809 236.954 138.593C236.954 121.377 243.658 105.191 255.832 93.018Z" fill="#15D6FF"/>
<path d="M274.062 165.938C289.14 181.015 313.675 181.016 328.753 165.938C336.057 158.633 340.079 148.922 340.079 138.592C340.079 128.263 336.057 118.552 328.753 111.248C321.214 103.709 311.311 99.9394 301.407 99.9394C291.505 99.9394 281.601 103.709 274.063 111.248C266.759 118.552 262.736 128.263 262.736 138.592C262.736 148.922 266.758 158.634 274.062 165.938Z" fill="#15D6FF"/>
<path d="M13.1527 362.601C16.4518 362.601 19.751 361.343 22.2672 358.825L64.3534 316.738C69.3876 311.704 69.3876 303.543 64.3534 298.508C59.3201 293.474 51.1577 293.474 46.1235 298.508L4.03731 340.595C-0.996906 345.629 -0.996906 353.79 4.03731 358.825C6.55442 361.342 9.85356 362.601 13.1527 362.601Z" fill="#15D6FF"/>
<path d="M102.923 337.078C97.8897 332.044 89.7273 332.044 84.6931 337.078L3.77864 417.992C-1.25558 423.026 -1.25558 431.188 3.77864 436.222C6.29575 438.739 9.59489 439.997 12.894 439.997C16.1932 439.997 19.4923 438.739 22.0086 436.221L102.922 355.308C107.957 350.274 107.957 342.112 102.923 337.078Z" fill="#15D6FF"/>
<path d="M123.261 375.647L81.1759 417.733C76.1417 422.767 76.1417 430.929 81.1759 435.963C83.693 438.48 86.9922 439.739 90.2905 439.739C93.5887 439.739 96.8887 438.481 99.405 435.963L141.491 393.877C146.525 388.843 146.525 380.681 141.491 375.647C136.458 370.613 128.295 370.613 123.261 375.647Z" fill="#15D6FF"/>
</svg>
