<svg width="455" height="434" viewBox="0 0 455 434" fill="none" xmlns="http://www.w3.org/2000/svg">
<path d="M449.985 180.324L350.321 277.476L373.857 414.692C374.881 420.692 372.417 426.756 367.489 430.34C364.705 432.372 361.393 433.396 358.081 433.396C355.537 433.396 352.977 432.788 350.641 431.556L227.409 366.772L104.193 431.54C98.8168 434.388 92.2728 433.924 87.3448 430.324C82.4168 426.74 79.9528 420.676 80.9768 414.676L104.513 277.46L4.83276 180.324C0.48076 176.068 -1.10324 169.7 0.78476 163.924C2.67276 158.148 7.68076 153.908 13.7128 153.028L151.457 133.028L213.057 8.196C218.449 -2.732 236.369 -2.732 241.761 8.196L303.361 133.028L441.105 153.028C447.137 153.908 452.145 158.132 454.033 163.924C455.921 169.716 454.337 176.052 449.985 180.324Z" fill="#6F7A8B"/>
</svg>
