<svg width="13" height="17" viewBox="0 0 13 17" fill="none" xmlns="http://www.w3.org/2000/svg">
<path d="M12.4228 13.2445C12.0603 12.1656 10.6155 11.4902 9.58531 11.0375C9.18175 10.8608 8.06449 10.5609 7.93021 10.0528C7.88215 9.8697 7.88863 9.69708 7.92805 9.53166C7.86595 9.54354 7.80295 9.55056 7.73779 9.55056H7.06657C6.53071 9.55056 6.09529 9.1146 6.09529 8.5791C6.09529 8.04396 6.53089 7.6089 7.06657 7.6089H7.73779C7.95955 7.6089 8.16979 7.68396 8.33935 7.81788C8.58793 7.78476 8.82769 7.73166 9.05125 7.662C9.34483 7.04694 9.57379 6.31146 9.62509 5.6784C9.84415 2.96976 8.18365 1.38504 5.80279 1.659C4.07173 1.85826 3.03763 3.14904 2.92585 4.8108C2.81281 6.5046 3.44083 7.7556 4.10791 8.67324C4.40005 9.07446 4.70695 9.3324 4.65979 9.81588C4.60507 10.3876 3.99379 10.5469 3.55657 10.7225C3.03853 10.9306 2.48053 11.2463 2.21701 11.3923C1.30927 11.8936 0.312972 12.4973 0.0890523 13.3232C-0.406848 15.1534 1.26787 15.7078 2.65045 15.9638C3.83701 16.1827 5.17495 16.1999 6.27547 16.1999C8.26609 16.1999 11.8456 16.1202 12.4228 14.6239C12.587 14.1992 12.5166 13.5226 12.4228 13.2445Z" fill="white"/>
<path d="M8.16258 8.30574C8.07151 8.16696 7.9158 8.0748 7.73814 8.0748H7.06692C6.78684 8.0748 6.56094 8.30106 6.56094 8.5797C6.56094 8.85942 6.78684 9.08604 7.06692 9.08604H7.73814C7.93416 9.08604 8.10048 8.97426 8.18436 8.81262C9.12018 8.739 9.93414 8.45316 10.5055 8.03106C10.6367 8.11566 10.7918 8.16516 10.9592 8.16516H11.0014C11.4679 8.16516 11.8452 7.78752 11.8452 7.32042V5.63418C11.8452 5.2983 11.6483 5.0085 11.3642 4.87386C11.2404 2.16612 8.99886 0 6.2607 0C3.52254 0 1.28065 2.16612 1.15735 4.87386C0.872765 5.00868 0.676025 5.2983 0.676025 5.63418V7.32042C0.676025 7.78752 1.05367 8.16516 1.51915 8.16516H1.56181C2.02765 8.16516 2.40547 7.78752 2.40547 7.32042V5.63418C2.40547 5.30316 2.21413 5.01768 1.93603 4.87962C2.05645 2.59812 3.94968 0.77958 6.2607 0.77958C8.57082 0.77958 10.465 2.59812 10.5848 4.87962C10.3071 5.01786 10.1159 5.30316 10.1159 5.63418V7.32042C10.1159 7.43238 10.1377 7.5366 10.1761 7.63398C9.6843 7.98588 8.96844 8.23662 8.16258 8.30574Z" fill="white"/>
</svg>
