<svg width="15" height="12" viewBox="0 0 15 12" fill="none" xmlns="http://www.w3.org/2000/svg">
<path d="M13.4582 2.99061C13.4677 3.12186 13.4677 3.25313 13.4677 3.38437C13.4677 7.38748 10.3744 12 4.72083 12C2.97906 12 1.36105 11.5031 0 10.6406C0.247472 10.6687 0.485393 10.6781 0.742386 10.6781C2.17955 10.6781 3.50254 10.2 4.55902 9.38439C3.20749 9.35625 2.07487 8.48438 1.68464 7.28437C1.87501 7.31248 2.06535 7.33124 2.26524 7.33124C2.54125 7.33124 2.81729 7.29372 3.07425 7.22813C1.66562 6.94686 0.609114 5.72812 0.609114 4.25624V4.21876C1.01836 4.44376 1.49429 4.58438 1.9987 4.60311C1.17065 4.05935 0.628157 3.13124 0.628157 2.08123C0.628157 1.51874 0.780413 1.00311 1.04693 0.553111C2.56026 2.39061 4.83503 3.59059 7.38577 3.72186C7.33819 3.49686 7.30963 3.26251 7.30963 3.02813C7.30963 1.35936 8.6802 0 10.3839 0C11.269 0 12.0685 0.365624 12.6301 0.95625C13.3249 0.825006 13.9911 0.571868 14.5812 0.225002C14.3528 0.928142 13.8674 1.51877 13.2297 1.89374C13.8484 1.82815 14.448 1.65936 15 1.42501C14.5813 2.02499 14.0578 2.55934 13.4582 2.99061Z" fill="white"/>
</svg>
