<svg width="59" height="60" viewBox="0 0 59 60" fill="none" xmlns="http://www.w3.org/2000/svg">
<path fill-rule="evenodd" clip-rule="evenodd" d="M29.5 0.5C45.7941 0.5 59 13.7059 59 30C59 46.2941 45.7941 59.5 29.5 59.5C13.2059 59.5 0 46.2941 0 30C0 13.7059 13.2059 0.5 29.5 0.5Z" fill="url(#paint0_radial_624_7653)"/>
<path d="M18.7486 23.2818C24.6832 17.4855 34.3168 17.4855 40.2514 23.2818L40.9658 23.9848C41.2654 24.2729 41.2654 24.7453 40.9658 25.0334L38.5229 27.4188C38.373 27.5686 38.1311 27.5686 37.9813 27.4188L37.0018 26.4623C32.8533 22.4176 26.1467 22.4176 21.9982 26.4623L20.9496 27.4879C20.7998 27.6377 20.5578 27.6377 20.408 27.4879L17.965 25.1025C17.6654 24.8145 17.6654 24.342 17.965 24.0539L18.7486 23.2818ZM45.3102 28.2139L47.4881 30.3342C47.7877 30.6223 47.7877 31.0947 47.4881 31.3828L37.6816 40.9588C37.382 41.2469 36.898 41.2469 36.61 40.9588L29.6498 34.16C29.5807 34.0908 29.4539 34.0908 29.3848 34.16L22.4246 40.9588C22.125 41.2469 21.641 41.2469 21.3529 40.9588L11.5119 31.3828C11.2123 31.0947 11.2123 30.6223 11.5119 30.3342L13.6898 28.2139C13.9895 27.9258 14.4734 27.9258 14.7615 28.2139L21.7217 35.0127C21.7908 35.0818 21.9176 35.0818 21.9867 35.0127L28.9469 28.2139C29.2465 27.9258 29.7305 27.9258 30.0186 28.2139L36.9787 35.0127C37.0479 35.0818 37.1746 35.0818 37.2438 35.0127L44.2039 28.2139C44.5266 27.9258 45.0105 27.9258 45.3102 28.2139Z" fill="white"/>
<defs>
<radialGradient id="paint0_radial_624_7653" cx="0" cy="0" r="1" gradientUnits="userSpaceOnUse" gradientTransform="translate(0.000182867 30.0009) scale(59)">
<stop stop-color="#5D9DF6"/>
<stop offset="1" stop-color="#006FFF"/>
</radialGradient>
</defs>
</svg>
