<svg width="23" height="23" viewBox="0 0 23 23" fill="none" xmlns="http://www.w3.org/2000/svg">
<path d="M2.02184 23C1.48585 22.9994 0.971975 22.7863 0.592941 22.4073C0.213906 22.0283 0.000665875 21.5145 0 20.9785L0 8.62502C0.000776662 8.14172 0.17441 7.67463 0.489522 7.30818C0.804633 6.94172 1.24043 6.70008 1.71817 6.6269C1.92321 6.6036 2.12974 6.59603 2.33593 6.60426C2.37261 6.60423 2.4088 6.59583 2.44175 6.5797C2.47469 6.56357 2.50352 6.54014 2.52604 6.51118L7.44157 0.190149C7.52106 0.0881989 7.63737 0.0214927 7.76551 0.004358C7.89365 -0.0127767 8.0234 0.021027 8.12689 0.0985084L10.667 2.00319C10.7052 2.03195 10.7513 2.04861 10.7991 2.05104C10.8469 2.05348 10.8944 2.04157 10.9354 2.01685L14.1813 0.0719147C14.2897 0.00656715 14.4192 -0.0145817 14.5428 0.0128447C14.6664 0.0402711 14.7747 0.114173 14.8454 0.219258L19.0684 6.55431C19.1029 6.60593 19.1559 6.64234 19.2165 6.65601C19.6636 6.75772 20.0631 7.00759 20.3503 7.36504C20.6375 7.72248 20.7954 8.16651 20.7984 8.62502V11.5C20.7984 11.5639 20.8238 11.6251 20.869 11.6703C20.9141 11.7154 20.9754 11.7408 21.0392 11.7408H22.5069C22.6376 11.7409 22.763 11.7929 22.8554 11.8853C22.9479 11.9778 22.9999 12.1031 23 12.2339V16.6366C22.9998 16.7673 22.9478 16.8926 22.8553 16.985C22.7629 17.0774 22.6376 17.1294 22.5069 17.1296H17.3704C16.6678 17.1115 16.0001 16.8196 15.5096 16.3163C15.0191 15.813 14.7446 15.138 14.7446 14.4352C14.7446 13.7324 15.0191 13.0574 15.5096 12.5541C16.0001 12.0508 16.6678 11.7589 17.3704 11.7408H19.5719C19.6357 11.7408 19.697 11.7154 19.7421 11.6703C19.7873 11.6251 19.8127 11.5639 19.8127 11.5V8.62502C19.8123 8.35039 19.703 8.08712 19.5088 7.89295C19.3145 7.69879 19.0512 7.58959 18.7766 7.58931H2.02184C1.74724 7.58959 1.48397 7.6988 1.28979 7.89298C1.09562 8.08715 0.986409 8.35042 0.986123 8.62502V20.9785C0.986504 21.2531 1.09576 21.5162 1.28992 21.7103C1.48408 21.9044 1.7473 22.0136 2.02184 22.0139H18.7766C19.0512 22.0137 19.3145 21.9046 19.5087 21.7105C19.703 21.5164 19.8123 21.2531 19.8127 20.9785V18.8381C19.8109 18.7722 19.8223 18.7067 19.8463 18.6453C19.8703 18.584 19.9063 18.5281 19.9522 18.4809C19.9982 18.4337 20.0531 18.3961 20.1138 18.3705C20.1745 18.3449 20.2397 18.3317 20.3055 18.3317C20.3714 18.3317 20.4366 18.3449 20.4973 18.3705C20.558 18.3961 20.6129 18.4337 20.6589 18.4809C20.7048 18.5281 20.7408 18.584 20.7648 18.6453C20.7888 18.7067 20.8002 18.7722 20.7984 18.8381V20.9785C20.7979 21.5145 20.5847 22.0284 20.2056 22.4074C19.8265 22.7864 19.3126 22.9995 18.7766 23H2.02184ZM17.3704 12.7266C16.9172 12.7266 16.4827 12.9066 16.1623 13.227C15.8419 13.5474 15.6619 13.9819 15.6619 14.435C15.6619 14.8881 15.8419 15.3227 16.1623 15.6431C16.4827 15.9635 16.9172 16.1435 17.3704 16.1435H21.7731C21.8369 16.1435 21.8982 16.1181 21.9433 16.073C21.9885 16.0278 22.0138 15.9666 22.0138 15.9027V12.9677C22.0139 12.9361 22.0077 12.9047 21.9956 12.8755C21.9835 12.8462 21.9658 12.8196 21.9434 12.7972C21.9211 12.7748 21.8945 12.757 21.8653 12.7449C21.836 12.7328 21.8047 12.7266 21.7731 12.7266H17.3704ZM14.0875 1.2751L11.9553 2.55555C11.9215 2.57592 11.8932 2.60428 11.8729 2.63814C11.8526 2.672 11.841 2.71032 11.8389 2.74974C11.8369 2.78916 11.8446 2.82847 11.8613 2.86423C11.878 2.89999 11.9033 2.93109 11.9348 2.95482C16.9948 6.72825 16.7289 6.60426 16.8813 6.60426H17.4656C17.5092 6.60425 17.5519 6.5924 17.5893 6.56999C17.6267 6.54757 17.6573 6.51543 17.6779 6.47699C17.6984 6.43855 17.7081 6.39526 17.706 6.35172C17.7039 6.30819 17.69 6.26605 17.6658 6.22979L14.4131 1.34805C14.3786 1.29634 14.3255 1.25989 14.2649 1.24631C14.2043 1.23272 14.1407 1.24303 14.0875 1.2751ZM8.83809 3.75191C13.3119 6.71675 13.0514 6.60426 13.1898 6.60426H14.4353C14.4858 6.60399 14.5349 6.58789 14.5757 6.55824C14.6166 6.52859 14.6471 6.48688 14.6629 6.43898C14.6788 6.39109 14.6793 6.33942 14.6642 6.29125C14.6492 6.24309 14.6194 6.20085 14.5791 6.1705L8.11036 1.31894C8.05989 1.28103 7.99654 1.26445 7.93396 1.27278C7.87138 1.28112 7.81458 1.3137 7.77578 1.36351L4.00235 6.21506C3.97475 6.25068 3.95768 6.29332 3.95308 6.33815C3.94848 6.38298 3.95654 6.42819 3.97633 6.46868C3.99612 6.50916 4.02686 6.54329 4.06506 6.56719C4.10326 6.59109 4.1474 6.60381 4.19246 6.6039H5.99436C6.03173 6.60382 6.06857 6.59508 6.10199 6.57837C6.13541 6.56166 6.1645 6.53743 6.18699 6.50759L8.16786 3.86619C8.24329 3.76439 8.35512 3.69567 8.48001 3.67437C8.60491 3.65308 8.7332 3.68086 8.83809 3.75191ZM8.54269 5.01259L7.63814 6.21722C7.61135 6.25302 7.59504 6.29558 7.59104 6.34012C7.58704 6.38466 7.59551 6.42944 7.61549 6.46945C7.63548 6.50945 7.6662 6.54312 7.70421 6.56667C7.74223 6.59022 7.78605 6.60274 7.83077 6.60282H10.544C10.5957 6.60266 10.6459 6.58594 10.6873 6.55511C10.7287 6.52429 10.7591 6.481 10.7741 6.4316C10.789 6.3822 10.7877 6.3293 10.7704 6.28068C10.7531 6.23207 10.7206 6.19029 10.6777 6.16151L8.869 4.95545C8.8176 4.92149 8.75516 4.90849 8.69448 4.91912C8.6338 4.92975 8.57949 4.96319 8.54269 5.01259Z" fill="#15D6FF"/>
<path d="M9.29852 20.0646C9.16771 20.0647 9.04223 20.0128 8.94964 19.9205C8.85704 19.8281 8.80493 19.7027 8.80473 19.5719V18.838C8.80473 18.7742 8.77937 18.7129 8.73421 18.6678C8.68906 18.6226 8.62781 18.5973 8.56395 18.5973H7.83119C7.7673 18.5973 7.70602 18.6226 7.66081 18.6678C7.61559 18.7129 7.59015 18.7742 7.59005 18.838V19.5719C7.58658 19.7003 7.53313 19.8223 7.44108 19.9119C7.34902 20.0015 7.22563 20.0516 7.09717 20.0516C6.9687 20.0516 6.84531 20.0015 6.75326 19.9119C6.6612 19.8223 6.60775 19.7003 6.60429 19.5719V18.838C6.60429 18.7742 6.57892 18.7129 6.53376 18.6678C6.48861 18.6226 6.42736 18.5973 6.36351 18.5973H5.62966C5.49889 18.5973 5.37348 18.5453 5.28102 18.4528C5.18855 18.3604 5.1366 18.235 5.1366 18.1042C5.1366 17.9734 5.18855 17.848 5.28102 17.7556C5.37348 17.6631 5.49889 17.6111 5.62966 17.6111H6.36351C6.39513 17.6111 6.42643 17.6049 6.45565 17.5928C6.48486 17.5807 6.5114 17.563 6.53376 17.5406C6.55612 17.5183 6.57386 17.4917 6.58596 17.4625C6.59806 17.4333 6.60429 17.402 6.60429 17.3704V12.9677C6.60433 12.936 6.59814 12.9047 6.58606 12.8754C6.57398 12.8462 6.55625 12.8196 6.53389 12.7972C6.51153 12.7748 6.48497 12.757 6.45573 12.7449C6.42649 12.7328 6.39516 12.7265 6.36351 12.7265H5.62966C5.56382 12.7283 5.49828 12.7169 5.43693 12.6929C5.37557 12.6689 5.31964 12.6329 5.27244 12.587C5.22524 12.541 5.18772 12.4861 5.16211 12.4254C5.13649 12.3647 5.12329 12.2995 5.12329 12.2336C5.12329 12.1678 5.13649 12.1026 5.16211 12.0419C5.18772 11.9812 5.22524 11.9263 5.27244 11.8803C5.31964 11.8344 5.37557 11.7984 5.43693 11.7744C5.49828 11.7504 5.56382 11.739 5.62966 11.7408H6.36351C6.42736 11.7408 6.48861 11.7154 6.53376 11.6702C6.57892 11.6251 6.60429 11.5638 6.60429 11.5V10.7661C6.60251 10.7003 6.61394 10.6348 6.63791 10.5734C6.66188 10.512 6.6979 10.4561 6.74385 10.4089C6.78979 10.3617 6.84473 10.3242 6.90541 10.2986C6.9661 10.273 7.0313 10.2598 7.09717 10.2598C7.16304 10.2598 7.22824 10.273 7.28892 10.2986C7.34961 10.3242 7.40455 10.3617 7.45049 10.4089C7.49643 10.4561 7.53245 10.512 7.55642 10.5734C7.58039 10.6348 7.59183 10.7003 7.59005 10.7661V11.5C7.59015 11.5639 7.61559 11.6251 7.66081 11.6703C7.70602 11.7154 7.7673 11.7408 7.83119 11.7408H8.56503C8.6287 11.7405 8.68967 11.715 8.73459 11.6699C8.77952 11.6247 8.80474 11.5637 8.80473 11.5V10.7661C8.80296 10.7003 8.81439 10.6348 8.83836 10.5734C8.86233 10.512 8.89835 10.4561 8.9443 10.4089C8.99024 10.3617 9.04518 10.3242 9.10586 10.2986C9.16654 10.273 9.23175 10.2598 9.29762 10.2598C9.36349 10.2598 9.42869 10.273 9.48937 10.2986C9.55006 10.3242 9.60499 10.3617 9.65094 10.4089C9.69688 10.4561 9.7329 10.512 9.75687 10.5734C9.78084 10.6348 9.79228 10.7003 9.7905 10.7661V11.6351C9.79051 11.6848 9.80588 11.7332 9.83451 11.7738C9.86314 11.8144 9.90363 11.8452 9.95042 11.8619C10.2202 11.9554 10.466 12.1074 10.6703 12.3069C10.8746 12.5064 11.0324 12.7486 11.1323 13.0161C11.2323 13.2835 11.272 13.5698 11.2486 13.8544C11.2252 14.139 11.1392 14.4149 10.9969 14.6625C10.966 14.7164 10.9572 14.7801 10.9722 14.8404C10.9872 14.9006 11.0249 14.9528 11.0774 14.9859C11.4353 15.2129 11.7099 15.5499 11.86 15.9462C12.0102 16.3426 12.0277 16.7769 11.91 17.1841C11.7923 17.5912 11.5458 17.9492 11.2074 18.2044C10.8689 18.4595 10.4569 18.598 10.0331 18.5991C9.96922 18.5991 9.90797 18.6244 9.86282 18.6696C9.81766 18.7147 9.7923 18.776 9.7923 18.8398V19.5737C9.79163 19.7042 9.7393 19.8291 9.64676 19.9211C9.55422 20.0131 9.42901 20.0647 9.29852 20.0646ZM7.83119 15.6619C7.7673 15.6619 7.70602 15.6872 7.66081 15.7324C7.61559 15.7775 7.59015 15.8388 7.59005 15.9027V17.3704C7.59015 17.4343 7.61559 17.4955 7.66081 17.5406C7.70602 17.5858 7.7673 17.6111 7.83119 17.6111H10.0324C11.3225 17.6111 11.3211 15.6619 10.0324 15.6619H7.83119ZM7.83119 12.7265C7.76724 12.7265 7.7059 12.7519 7.66068 12.7972C7.61546 12.8424 7.59005 12.9037 7.59005 12.9677V14.435C7.59015 14.4989 7.61558 14.5602 7.66078 14.6054C7.70599 14.6506 7.76726 14.676 7.83119 14.6761H9.29852C10.5887 14.6761 10.5872 12.7265 9.29852 12.7265H7.83119Z" fill="#15D6FF"/>
</svg>
