<svg width="465" height="432" viewBox="0 0 465 432" fill="none" xmlns="http://www.w3.org/2000/svg">
<path d="M201.852 17.348L3.60007 386.576C-7.59993 407.444 8.69207 432 33.7481 432H430.252C455.308 432 471.604 407.444 460.4 386.576L262.148 17.348C249.724 -5.78398 214.276 -5.78398 201.852 17.348Z" fill="#FAD271"/>
<path d="M232 86.904C229.116 86.8603 226.252 87.3929 223.576 88.4704C220.9 89.548 218.466 91.1489 216.417 93.1793C214.368 95.2097 212.745 97.6287 211.643 100.295C210.541 102.96 209.983 105.819 210 108.704L214.068 285.86C214.236 290.481 216.207 294.853 219.559 298.039C222.91 301.224 227.376 302.971 232 302.904C236.623 302.97 241.088 301.223 244.439 298.037C247.79 294.852 249.76 290.48 249.928 285.86L254 108.704C254.017 105.819 253.459 102.96 252.357 100.295C251.255 97.6287 249.632 95.2097 247.583 93.1793C245.534 91.1489 243.1 89.548 240.424 88.4704C237.748 87.3929 234.884 86.8603 232 86.904Z" fill="#423E4F"/>
<path d="M232 384.888C245.255 384.888 256 374.143 256 360.888C256 347.633 245.255 336.888 232 336.888C218.745 336.888 208 347.633 208 360.888C208 374.143 218.745 384.888 232 384.888Z" fill="#423E4F"/>
</svg>
