<svg width="16" height="20" viewBox="0 0 16 20" fill="none" xmlns="http://www.w3.org/2000/svg">
<path d="M9.09108 12.9226H7.96526C7.89747 12.9226 7.84253 12.976 7.84253 13.0419V14.0359C7.84253 14.1018 7.89747 14.1552 7.96526 14.1552H9.09108C9.92975 14.1552 9.92828 12.9226 9.09108 12.9226Z" fill="white"/>
<path d="M7.84253 15.9048C7.84253 15.9707 7.89747 16.0241 7.96526 16.0241H9.09108C9.92975 16.0241 9.92828 14.7915 9.09108 14.7915H7.96526C7.89747 14.7915 7.84253 14.8449 7.84253 14.9108V15.9048Z" fill="white"/>
<path d="M8.41556 9.86084C5.79891 9.86084 3.66992 11.9301 3.66992 14.4732C3.66992 17.0164 5.79891 19.0856 8.41556 19.0856C11.0322 19.0856 13.1612 17.0164 13.1612 14.4732C13.1612 11.9301 11.0322 9.86084 8.41556 9.86084V9.86084ZM9.4463 16.6117C9.39336 16.6264 9.3565 16.6728 9.3565 16.7263V17.0866C9.3565 17.256 9.22494 17.404 9.05098 17.4149C8.86038 17.4269 8.70193 17.2802 8.70193 17.0975V16.7794C8.70193 16.7135 8.64699 16.6601 8.5792 16.6601H7.96554C7.89775 16.6601 7.84281 16.7135 7.84281 16.7794V17.0866C7.84281 17.256 7.71124 17.404 7.53729 17.4149C7.34669 17.4269 7.18824 17.2802 7.18824 17.0975V16.7794C7.18824 16.7135 7.1333 16.6601 7.06551 16.6601H6.79034C6.61602 16.6601 6.46383 16.5323 6.45254 16.3632C6.44019 16.178 6.59115 16.0239 6.77913 16.0239H7.06551C7.1333 16.0239 7.18824 15.9705 7.18824 15.9047V13.0418C7.18824 12.9759 7.1333 12.9225 7.06551 12.9225H6.79034C6.61602 12.9225 6.46383 12.7947 6.45254 12.6256C6.44019 12.4404 6.59115 12.2863 6.77913 12.2863H7.06551C7.1333 12.2863 7.18824 12.2329 7.18824 12.167V11.8598C7.18824 11.6904 7.31981 11.5425 7.49376 11.5315C7.68436 11.5195 7.84281 11.6662 7.84281 11.8489V12.167C7.84281 12.2329 7.89775 12.2863 7.96554 12.2863H8.5792C8.64699 12.2863 8.70193 12.2329 8.70193 12.167V11.8598C8.70193 11.6904 8.8335 11.5425 9.00745 11.5315C9.19806 11.5195 9.3565 11.6662 9.3565 11.8489V12.2202C9.3565 12.2737 9.3934 12.32 9.4463 12.3348C10.3728 12.5933 10.6861 13.712 10.0323 14.3928C9.98931 14.4376 9.98935 14.5086 10.0324 14.5534C10.6942 15.2421 10.3598 16.3567 9.4463 16.6117V16.6117Z" fill="white"/>
<path d="M14.1314 7.72852C12.5739 6.81324 10.5071 7.05364 9.2201 8.30388C8.77716 8.73518 8.05414 8.73569 7.61067 8.30388C6.32485 7.05456 4.25927 6.81241 2.69935 7.72852C1.91304 8.19064 0.911715 7.59818 0.979054 6.70863C1.2586 2.98302 4.46202 0 8.41538 0C12.3669 0 15.5712 2.98147 15.8517 6.70823C15.9182 7.59818 14.9184 8.1902 14.1314 7.72852Z" fill="white"/>
<path d="M5.09544 10.3362C4.95037 10.4465 4.76525 10.4226 4.65524 10.3106L3.07539 8.70155C2.9293 8.55277 2.96632 8.30966 3.15116 8.20946C3.29606 8.13089 3.45304 8.16485 3.54991 8.26354L5.12923 9.87167C5.26108 10.006 5.24591 10.2219 5.09544 10.3362V10.3362Z" fill="white"/>
<path d="M13.7555 8.70174L12.1755 10.3106C12.06 10.4281 11.8721 10.4403 11.7405 10.3402C11.5765 10.2155 11.5751 10.0004 11.7015 9.87169L13.2808 8.2636C13.3819 8.1607 13.5418 8.13565 13.6699 8.20436C13.8747 8.31414 13.8963 8.55836 13.7555 8.70174V8.70174Z" fill="white"/>
</svg>
