<svg width="415" height="415" viewBox="0 0 415 415" fill="none" xmlns="http://www.w3.org/2000/svg">
<path d="M241.424 189.544C237.328 189.544 233.232 187.984 230.112 184.856C205.16 159.904 164.56 159.896 139.6 184.856C133.36 191.104 123.216 191.104 116.976 184.856C110.728 178.608 110.728 168.48 116.976 162.232C154.408 124.792 215.312 124.8 252.736 162.232C258.984 168.48 258.984 178.608 252.736 184.856C249.616 187.984 245.512 189.544 241.424 189.544Z" fill="white"/>
<path d="M230.112 280.816C205.528 280.816 180.944 271.456 162.232 252.744C155.984 246.496 155.984 236.368 162.232 230.12C168.472 223.872 178.616 223.872 184.856 230.12C209.808 255.072 250.408 255.08 275.368 230.12C281.608 223.872 291.752 223.872 297.992 230.12C304.24 236.368 304.24 246.496 297.992 252.744C279.272 271.456 254.688 280.816 230.112 280.816Z" fill="white"/>
<path d="M286.672 257.424C282.576 257.424 278.48 255.864 275.36 252.736C269.112 246.488 269.112 236.36 275.36 230.112L364.736 140.736C370.976 134.488 381.12 134.488 387.36 140.736C393.608 146.984 393.608 157.112 387.36 163.36L297.984 252.736C294.864 255.864 290.768 257.424 286.672 257.424Z" fill="white"/>
<path d="M152.048 392.048C147.952 392.048 143.856 390.488 140.736 387.36C134.488 381.112 134.488 370.984 140.736 364.736L190.696 314.776C196.936 308.528 207.08 308.528 213.32 314.776C219.568 321.024 219.568 331.152 213.32 337.4L163.36 387.36C160.24 390.488 156.144 392.048 152.048 392.048Z" fill="white"/>
<path d="M38.912 278.912C34.816 278.912 30.72 277.352 27.6 274.224C21.352 267.976 21.352 257.848 27.6 251.6L116.976 162.232C123.224 155.984 133.36 155.984 139.6 162.232C145.848 168.48 145.848 178.608 139.6 184.856L50.224 274.224C47.096 277.344 43 278.912 38.912 278.912Z" fill="white"/>
<path d="M212.952 104.88C208.856 104.88 204.768 103.32 201.64 100.2C195.392 93.952 195.392 83.824 201.64 77.568L251.6 27.6C257.848 21.352 267.976 21.352 274.232 27.6C280.48 33.848 280.48 43.976 274.232 50.232L224.272 100.2C221.144 103.312 217.04 104.88 212.952 104.88Z" fill="white"/>
<path d="M95.48 414.96C70.736 414.96 45.992 405.76 27.6 387.36C-9.2 350.56 -9.2 288.392 27.6 251.592C33.84 245.344 43.984 245.344 50.224 251.592C56.472 257.84 56.472 267.968 50.224 274.216C25.696 298.744 25.696 340.2 50.224 364.728C74.752 389.256 116.208 389.256 140.736 364.728C146.976 358.48 157.12 358.48 163.36 364.728C169.608 370.976 169.608 381.104 163.36 387.352C144.968 405.76 120.224 414.96 95.48 414.96Z" fill="white"/>
<path d="M376.048 168.048C371.952 168.048 367.856 166.488 364.736 163.36C358.488 157.112 358.488 146.984 364.736 140.736C389.264 116.208 389.264 74.752 364.736 50.224C340.208 25.696 298.752 25.696 274.224 50.224C267.984 56.472 257.84 56.472 251.6 50.224C245.352 43.976 245.352 33.848 251.6 27.6C288.4 -9.2 350.568 -9.2 387.368 27.6C424.168 64.4 424.168 126.568 387.368 163.368C384.24 166.488 380.144 168.048 376.048 168.048Z" fill="white"/>
</svg>
