<svg width="22" height="26" viewBox="0 0 22 26" fill="none" xmlns="http://www.w3.org/2000/svg">
<path d="M8.73404 2.06218C8.91665 1.60062 9.22989 1.20534 9.6336 0.927018C10.0373 0.648692 10.5131 0.5 11 0.5C11.4869 0.5 11.9627 0.648692 12.3664 0.927018C12.7701 1.20534 13.0834 1.60062 13.266 2.06218C15.0733 2.57048 16.6675 3.67146 17.8037 5.19602C18.9399 6.72058 19.5553 8.58443 19.5554 10.5013V16.3719L21.7945 19.8066C21.9173 19.9948 21.9878 20.2136 21.9986 20.4396C22.0093 20.6656 21.9598 20.8904 21.8554 21.0899C21.7511 21.2894 21.5957 21.4562 21.4058 21.5725C21.216 21.6887 20.9989 21.7501 20.7776 21.7501H15.2349C15.0878 22.7914 14.5787 23.7436 13.8009 24.4323C13.0232 25.1209 12.0288 25.5 11 25.5C9.9712 25.5 8.97684 25.1209 8.19908 24.4323C7.42132 23.7436 6.91223 22.7914 6.76507 21.7501H1.22239C1.00111 21.7501 0.783985 21.6887 0.594162 21.5725C0.40434 21.4562 0.248945 21.2894 0.144557 21.0899C0.0401689 20.8904 -0.00929576 20.6656 0.00143957 20.4396C0.0121749 20.2136 0.0827076 19.9948 0.205513 19.8066L2.44459 16.3719V10.5013C2.44459 6.47172 5.10899 3.07708 8.73404 2.06218ZM9.27181 21.7501C9.39803 22.1159 9.63209 22.4326 9.94172 22.6567C10.2514 22.8807 10.6213 23.001 11.0006 23.001C11.3799 23.001 11.7499 22.8807 12.0595 22.6567C12.3691 22.4326 12.6032 22.1159 12.7294 21.7501H9.27058H9.27181ZM11 4.25195C9.37926 4.25195 7.8249 4.91036 6.67886 6.08234C5.53283 7.25432 4.88899 8.84387 4.88899 10.5013V16.7506C4.88904 16.9975 4.8176 17.2389 4.68366 17.4443L3.50668 19.2504H18.4921L17.3151 17.4443C17.1816 17.2388 17.1106 16.9974 17.111 16.7506V10.5013C17.111 8.84387 16.4672 7.25432 15.3211 6.08234C14.1751 4.91036 12.6207 4.25195 11 4.25195V4.25195Z" fill="#F8F8F8"/>
</svg>
