<svg width="512" height="512" viewBox="0 0 512 512" fill="none" xmlns="http://www.w3.org/2000/svg">
<path d="M102.51 219.28V466.27C93.0086 459.877 83.9512 452.847 75.4 445.23C28.68 403.58 2.13 348.66 0.13 289.895V227.695C0.505653 225.347 1.70548 223.21 3.51427 221.667C5.32306 220.124 7.62245 219.276 10 219.275L102.51 219.28Z" fill="#FFEA2C"/>
<path d="M512 229.28V282.71C512 344.17 485.22 401.89 436.6 445.23C428.091 452.809 419.081 459.804 409.63 466.17V219.28H502C504.652 219.28 507.196 220.334 509.071 222.209C510.946 224.084 512 226.628 512 229.28Z" fill="url(#paint0_linear_6_40)"/>
<path d="M204.88 219.28V507.44C168.273 500.957 133.412 486.938 102.51 466.27V219.28H204.88Z" fill="#FFC229"/>
<path d="M307.25 219.28V507.42C273.399 513.507 238.734 513.513 204.88 507.44V219.28H307.25Z" fill="#FFEA2C"/>
<path d="M409.63 219.28V466.17C378.733 486.871 343.868 500.918 307.25 507.42V219.28H409.63Z" fill="#FFC229"/>
<path d="M502 219.28H10C7.62245 219.281 5.32306 220.129 3.51427 221.672C1.70548 223.215 0.505653 225.352 0.13 227.7V289.9C2.13 348.66 28.68 403.58 75.4 445.23C83.9512 452.847 93.0086 459.877 102.51 466.27C133.412 486.938 168.273 500.957 204.88 507.44C238.734 513.513 273.399 513.507 307.25 507.42C343.868 500.918 378.733 486.871 409.63 466.17C419.081 459.804 428.091 452.809 436.6 445.23C485.22 401.89 512 344.17 512 282.71V229.28C512 226.628 510.946 224.084 509.071 222.209C507.196 220.334 504.652 219.28 502 219.28Z" fill="#DB4D0F"/>
<path d="M512 229.28C511.997 242.398 510.755 255.486 508.29 268.37C508.28 268.44 508.26 268.51 508.25 268.58C498.08 321.34 467.23 369.55 421.37 404.32C375.26 439.3 316.53 458.56 256 458.56C195.47 458.56 136.74 439.3 90.63 404.32C44.77 369.55 13.92 321.34 3.75 268.58C3.73186 268.511 3.71849 268.441 3.71 268.37C1.24532 255.486 0.00313344 242.398 0 229.28C0 167.82 26.78 110.1 75.4 66.76C123.7 23.71 187.84 0 256 0C324.16 0 388.3 23.71 436.6 66.76C485.22 110.1 512 167.82 512 229.28Z" fill="url(#paint1_linear_6_40)"/>
<path d="M461.483 229.28C461.478 239.155 460.536 249.006 458.67 258.703C458.641 258.913 458.611 259.082 458.57 259.262C450.73 299.337 426.763 336.331 391.096 363.39C353.665 391.776 305.69 407.405 256 407.405C206.31 407.405 158.335 391.776 120.9 363.395C85.233 336.336 61.256 299.332 53.416 259.217C53.396 259.137 53.386 259.057 53.366 258.978C53.346 258.899 53.336 258.798 53.327 258.718C51.459 249.018 50.5214 239.163 50.527 229.285C50.527 182.627 71.372 138.442 109.204 104.885C148.281 70.236 200.415 51.156 256 51.156C311.585 51.156 363.709 70.236 402.786 104.875C440.638 138.447 461.483 182.622 461.483 229.28Z" fill="url(#paint2_linear_6_40)"/>
<path d="M256.005 420.795C202.578 420.795 150.992 403.989 110.75 373.472C72.4 344.376 46.625 304.595 38.187 261.46C38.171 261.374 38.154 261.287 38.14 261.2C38.126 261.113 38.105 261.018 38.09 260.936C36.0885 250.503 35.0816 239.903 35.083 229.28C35.083 179.112 57.489 131.61 98.173 95.524C140.19 58.276 196.241 37.764 256.005 37.764C315.769 37.764 371.805 58.276 413.823 95.522C454.517 131.622 476.923 179.122 476.923 229.28C476.918 239.896 475.908 250.488 473.907 260.914C473.869 261.141 473.836 261.328 473.798 261.514C465.369 304.599 439.598 344.375 401.246 373.472C361.007 403.995 309.425 420.795 256.005 420.795ZM59.261 257.468C66.712 295.38 89.597 330.505 123.711 356.386C160.245 384.086 207.229 399.349 256.005 399.349C304.781 399.349 351.754 384.095 388.289 356.385C422.423 330.49 445.315 295.339 452.752 257.407C452.789 257.187 452.821 257.007 452.858 256.821C454.599 247.744 455.476 238.522 455.48 229.28C455.48 185.339 435.632 143.535 399.593 111.569C361.509 77.806 310.514 59.211 256.005 59.211C201.496 59.211 150.49 77.811 112.405 111.571C76.374 143.528 56.53 185.332 56.53 229.28C56.528 238.566 57.41 247.832 59.164 256.951C59.174 257.003 59.184 257.051 59.193 257.108C59.218 257.232 59.24 257.352 59.261 257.468Z" fill="url(#paint3_linear_6_40)"/>
<path d="M178.235 227.995C178.236 228.586 178.12 229.171 177.893 229.717C177.667 230.263 177.334 230.758 176.915 231.175L149.475 258.605C149.06 259.023 148.567 259.355 148.022 259.58C147.478 259.805 146.894 259.919 146.305 259.915C145.714 259.916 145.129 259.8 144.583 259.573C144.037 259.347 143.542 259.014 143.125 258.595L115.7 231.175C114.859 230.33 114.387 229.185 114.389 227.993C114.391 226.8 114.866 225.657 115.71 224.815L143.13 197.395C143.547 196.977 144.043 196.645 144.588 196.418C145.134 196.191 145.719 196.075 146.31 196.075C146.901 196.075 147.486 196.191 148.032 196.418C148.577 196.645 149.073 196.977 149.49 197.395L176.92 224.815C177.338 225.232 177.67 225.728 177.896 226.273C178.121 226.819 178.237 227.404 178.235 227.995Z" fill="#FFFFA4"/>
<path d="M397.615 227.995C397.617 229.187 397.145 230.33 396.305 231.175L368.875 258.595C368.458 259.013 367.962 259.345 367.417 259.572C366.871 259.799 366.286 259.915 365.695 259.915C365.104 259.915 364.519 259.799 363.973 259.572C363.428 259.345 362.932 259.013 362.515 258.595L335.085 231.175C334.244 230.33 333.773 229.187 333.773 227.995C333.773 226.803 334.244 225.66 335.085 224.815L362.525 197.385C362.943 196.969 363.438 196.639 363.983 196.414C364.528 196.189 365.112 196.074 365.702 196.075C366.292 196.076 366.875 196.193 367.42 196.419C367.964 196.646 368.459 196.977 368.875 197.395L396.305 224.815C397.145 225.66 397.617 226.803 397.615 227.995Z" fill="#FFFFA4"/>
<path d="M286.605 231.175L259.185 258.595C258.767 259.014 258.271 259.346 257.724 259.573C257.178 259.799 256.592 259.916 256 259.916C255.408 259.916 254.822 259.799 254.276 259.573C253.729 259.346 253.233 259.014 252.815 258.595L225.4 231.175C224.982 230.758 224.65 230.262 224.423 229.717C224.196 229.171 224.08 228.586 224.08 227.995C224.08 227.404 224.196 226.819 224.423 226.273C224.65 225.728 224.982 225.232 225.4 224.815L252.82 197.395C253.238 196.976 253.734 196.644 254.281 196.417C254.827 196.191 255.413 196.074 256.005 196.074C256.597 196.074 257.183 196.191 257.729 196.417C258.276 196.644 258.772 196.976 259.19 197.395L286.61 224.815C287.45 225.661 287.921 226.804 287.92 227.996C287.919 229.188 287.446 230.331 286.605 231.175Z" fill="#FFFFA4"/>
<path d="M342.765 173.155C342.766 173.746 342.65 174.331 342.423 174.877C342.197 175.423 341.864 175.918 341.445 176.335L314.025 203.755C313.608 204.173 313.112 204.505 312.567 204.732C312.021 204.959 311.436 205.075 310.845 205.075C310.254 205.075 309.669 204.959 309.123 204.732C308.578 204.505 308.082 204.173 307.665 203.755L256 152.095L204.34 203.755C203.923 204.174 203.428 204.507 202.882 204.733C202.336 204.96 201.751 205.076 201.16 205.075H201.15C200.561 205.075 199.977 204.958 199.433 204.732C198.889 204.505 198.395 204.173 197.98 203.755L170.55 176.345C169.709 175.498 169.238 174.353 169.238 173.16C169.238 171.967 169.709 170.822 170.55 169.975L252.82 87.705C253.237 87.2865 253.733 86.9545 254.278 86.728C254.824 86.5014 255.409 86.3848 256 86.3848C256.591 86.3848 257.176 86.5014 257.722 86.728C258.267 86.9545 258.763 87.2865 259.18 87.705L341.46 169.985C341.876 170.401 342.206 170.895 342.43 171.439C342.654 171.983 342.768 172.567 342.765 173.155Z" fill="#FFFFA4"/>
<path d="M342.765 282.835C342.767 283.428 342.651 284.015 342.425 284.562C342.198 285.11 341.865 285.607 341.445 286.025L259.165 368.295C258.75 368.713 258.257 369.045 257.712 369.27C257.168 369.495 256.584 369.609 255.995 369.605C255.404 369.606 254.819 369.49 254.273 369.263C253.727 369.037 253.232 368.704 252.815 368.285L170.545 286.035C169.704 285.186 169.233 284.04 169.233 282.845C169.233 281.65 169.704 280.504 170.545 279.655L197.975 252.225C198.817 251.387 199.957 250.916 201.145 250.915H201.155C201.746 250.914 202.331 251.03 202.877 251.257C203.423 251.483 203.918 251.816 204.335 252.235L256 303.905L307.67 252.225C308.512 251.387 309.652 250.916 310.84 250.915H310.85C311.441 250.914 312.026 251.03 312.572 251.257C313.118 251.483 313.613 251.816 314.03 252.235L341.45 279.655C341.868 280.072 342.2 280.568 342.426 281.113C342.651 281.659 342.767 282.244 342.765 282.835Z" fill="#FFFFA4"/>
<defs>
<linearGradient id="paint0_linear_6_40" x1="256" y1="88.2612" x2="256" y2="-544.355" gradientUnits="userSpaceOnUse">
<stop stop-color="#F67E00"/>
<stop offset="0.186" stop-color="#F79F00"/>
<stop offset="0.39" stop-color="#F9BB00"/>
<stop offset="0.594" stop-color="#F9CF00"/>
<stop offset="0.798" stop-color="#FADB00"/>
<stop offset="1" stop-color="#FADF00"/>
</linearGradient>
<linearGradient id="paint1_linear_6_40" x1="510.474" y1="255.995" x2="7.59202" y2="255.995" gradientUnits="userSpaceOnUse">
<stop stop-color="#F67E00"/>
<stop offset="0.186" stop-color="#F79F00"/>
<stop offset="0.39" stop-color="#F9BB00"/>
<stop offset="0.594" stop-color="#F9CF00"/>
<stop offset="0.798" stop-color="#FADB00"/>
<stop offset="1" stop-color="#FADF00"/>
</linearGradient>
<linearGradient id="paint2_linear_6_40" x1="500.289" y1="255.994" x2="-942.248" y2="255.994" gradientUnits="userSpaceOnUse">
<stop stop-color="#F67E00"/>
<stop offset="0.186" stop-color="#F79F00"/>
<stop offset="0.39" stop-color="#F9BB00"/>
<stop offset="0.594" stop-color="#F9CF00"/>
<stop offset="0.798" stop-color="#FADB00"/>
<stop offset="1" stop-color="#FADF00"/>
</linearGradient>
<linearGradient id="paint3_linear_6_40" x1="22.1016" y1="255.996" x2="487.487" y2="255.996" gradientUnits="userSpaceOnUse">
<stop stop-color="#FFF033"/>
<stop offset="1" stop-color="#FFC229"/>
</linearGradient>
</defs>
</svg>
