<svg width="437" height="429" viewBox="0 0 437 429" fill="none" xmlns="http://www.w3.org/2000/svg">
<path d="M154.784 427.848C184.036 427.848 207.749 404.135 207.749 374.882C207.749 345.63 184.036 321.917 154.784 321.917C125.531 321.917 101.818 345.63 101.818 374.882C101.818 404.135 125.531 427.848 154.784 427.848Z" fill="#15D6FF"/>
<path d="M324.48 321.402C295.085 318.51 268.912 339.993 266.019 369.388C263.127 398.782 284.61 424.956 314.004 427.848C317.487 428.191 320.997 428.191 324.48 427.848C353.874 424.956 375.358 398.782 372.465 369.388C369.966 343.992 349.874 323.901 324.48 321.402Z" fill="#15D6FF"/>
<path d="M433.497 119.824C430.865 115.884 426.407 113.558 421.669 113.653H363.047V112.625C363.051 50.4278 312.634 0.00401767 250.438 2.40078e-07C188.242 -0.00401719 137.818 50.4127 137.814 112.61C137.814 112.615 137.814 112.62 137.814 112.625V113.653H94.1043L79.1916 45.7746C77.5354 38.8696 71.3797 33.9875 64.2789 33.9473H0V64.8011H51.9373L99.7608 284.378C101.023 291.597 107.346 296.829 114.674 296.719H383.616C390.717 296.678 396.872 291.797 398.529 284.892L436.582 132.68C437.698 128.147 436.548 123.355 433.497 119.824ZM250.431 194.387C205.275 194.387 168.668 157.781 168.668 112.625C168.668 67.4687 205.275 30.8619 250.431 30.8619C295.586 30.8619 332.193 67.4687 332.193 112.625C331.913 157.664 295.47 194.106 250.431 194.387Z" fill="#15D6FF"/>
<path d="M238.089 114.167L209.806 85.3704L187.694 106.968L226.776 146.564C229.624 149.47 233.505 151.134 237.575 151.192C241.591 151.389 245.506 149.897 248.374 147.078L313.167 85.8846L292.083 63.2585L238.089 114.167Z" fill="#15D6FF"/>
</svg>
