<svg width="75" height="75" viewBox="0 0 75 75" fill="none" xmlns="http://www.w3.org/2000/svg">
<path d="M37.1542 40.7009C39.0349 40.7009 40.5594 39.1733 40.5594 37.2889C40.5594 35.4045 39.0349 33.877 37.1542 33.877C35.2736 33.877 33.749 35.4045 33.749 37.2889C33.749 39.1733 35.2736 40.7009 37.1542 40.7009Z" fill="#F8BF1E"/>
<path d="M64.3066 40.7009C66.1872 40.7009 67.7118 39.1733 67.7118 37.2889C67.7118 35.4045 66.1872 33.877 64.3066 33.877C62.4259 33.877 60.9014 35.4045 60.9014 37.2889C60.9014 39.1733 62.4259 40.7009 64.3066 40.7009Z" fill="#F8BF1E"/>
<path d="M64.3066 67.9515C66.1872 67.9515 67.7118 66.4239 67.7118 64.5395C67.7118 62.6552 66.1872 61.1276 64.3066 61.1276C62.4259 61.1276 60.9014 62.6552 60.9014 64.5395C60.9014 66.4239 62.4259 67.9515 64.3066 67.9515Z" fill="#F8BF1E"/>
<path d="M74.2978 9.40948C73.9393 4.42622 69.9517 0.385744 64.9783 0.0265904C61.7971 -0.197881 58.9295 1.01426 56.9133 3.0794C55.3899 4.65069 53.3289 5.59347 51.1334 5.59347H50.3269C48.0867 5.59347 45.9808 4.65069 44.4126 3.0345C42.5756 1.14894 40.0217 0.0265904 37.199 0.0265904C34.3762 0.0265904 31.8223 1.19384 29.9853 3.0345C28.4171 4.65069 26.3113 5.59347 24.071 5.59347H23.3093C21.1139 5.59347 19.008 4.74048 17.4846 3.16919C17.171 2.85493 16.8573 2.54067 16.5437 2.2713C12.7353 -0.8264 7.13459 -0.736612 3.46056 2.54067C-0.975169 6.44646 -1.15439 13.2704 2.9677 17.4006C3.01251 17.4455 3.05731 17.4904 3.10212 17.5353C4.71511 19.0617 5.56641 21.2167 5.56641 23.4165V24.1797C5.56641 26.4244 4.6255 28.5344 3.0125 30.1057C1.13068 31.9464 0.0105493 34.5053 0.0105493 37.3337C0.0105493 40.162 1.17549 42.721 3.0125 44.5617C4.6255 46.133 5.56641 48.243 5.56641 50.4877V51.5203C5.56641 53.7201 4.6255 55.7852 3.05731 57.3116C1.08588 59.2421 -0.123866 61.9806 0.0105493 64.9885C0.234576 70.286 4.53588 74.551 9.77811 74.7306C12.8249 74.8204 15.558 73.6082 17.4846 71.588C19.008 70.0167 21.069 69.029 23.2645 69.029H24.1158C26.3113 69.029 28.3723 69.9718 29.8957 71.588C31.9119 73.698 34.8243 74.9101 38.0055 74.6857C42.9788 74.3265 47.0113 70.286 47.3698 65.2579C47.773 59.287 43.1133 54.3486 37.2438 54.3486C34.4658 54.3486 31.9119 55.4709 30.0749 57.3116C28.5067 58.8829 26.4009 59.8257 24.2054 59.8257H23.2645C21.069 59.8257 18.9184 58.9727 17.3502 57.3565C17.3054 57.3116 17.3054 57.3116 17.2606 57.2667C15.6476 55.6954 14.7067 53.5854 14.7067 51.3407V50.4428C14.7067 48.1981 15.6476 46.0881 17.2606 44.5168C19.1424 42.6761 20.2626 40.1171 20.2626 37.2888C20.2626 34.4605 19.0976 31.9015 17.2606 30.0608C15.6476 28.4895 14.7067 26.3795 14.7067 24.1348V23.3267C14.7067 21.082 15.6476 18.9719 17.2158 17.4006C17.2606 17.3558 17.2606 17.3558 17.3054 17.3109C17.3502 17.266 17.3502 17.266 17.395 17.2211C18.9632 15.6498 21.069 14.707 23.3093 14.707H24.1158C26.3561 14.707 28.4619 15.6498 30.0301 17.266C31.8671 19.1515 34.421 20.2739 37.2438 20.2739C40.0665 20.2739 42.6204 19.1066 44.4574 17.266C46.0256 15.6498 48.1315 14.707 50.3717 14.707H51.0886C53.3289 14.707 55.4347 15.6498 57.0029 17.266C58.8399 19.1515 61.3938 20.2739 64.2166 20.2739C70.0413 20.3188 74.701 15.3804 74.2978 9.40948Z" fill="#F8BF1E"/>
</svg>
