<svg width="606" height="380" viewBox="0 0 606 380" fill="none" xmlns="http://www.w3.org/2000/svg">
<g clip-path="url(#clip0_1174_14414)">
<path d="M0 360L0.930876 360L2.79263 360L4.65438 360L5.58525 360L6.51613 360L7.447 360L8.37788 359.998L10.2396 359.998H11.1705L12.1014 359.998H13.0323H13.9631H14.894L15.8249 359.998L16.7558 359.998H17.6866L18.6175 359.998L19.5484 359.998H20.4793L22.341 359.998H23.2719H24.2028H25.1336H26.0645L26.9954 359.998L30.7189 359.998L31.6498 359.998H33.5115L35.3733 359.998H38.1659H40.0276L40.9585 359.998L41.8894 359.998L42.8203 359.997L43.7512 359.997L44.682 359.997L45.6129 359.997L46.5438 359.997L47.4747 359.997L48.4055 359.997L50.2673 359.997L51.1982 359.997L52.129 359.997L53.0599 359.997H54.9217L55.8525 359.997L57.7143 359.997L58.6452 359.997L59.576 359.996L60.5069 359.996L61.4378 359.996L62.3687 359.996L64.2304 359.996L67.023 359.996L67.9539 359.996L68.8848 359.995L69.8157 359.995L70.7465 359.995L71.6774 359.992L72.6083 359.991L73.5392 359.991L74.47 359.99L75.4009 359.99L76.3318 359.99L77.2627 359.99L78.1936 359.99L79.1244 359.989L80.0553 359.989L80.9862 359.989L81.9171 359.989L82.8479 359.989L83.7788 359.988L84.7097 359.988L85.6406 359.988L86.5714 359.988L87.5023 359.988L88.4332 359.988L89.3641 359.988L90.2949 359.988H91.2258L92.1567 359.987L93.0876 359.987H94.0184L94.9493 359.987L95.8802 359.954L96.8111 359.954L97.7419 359.954L98.6728 359.954L99.6037 359.954L100.535 359.953L101.465 359.953L102.396 359.953L103.327 359.952L104.258 359.952L105.189 359.952L106.12 359.951L107.051 359.95L107.982 359.945L108.912 359.938L109.843 359.932L110.774 359.927L111.705 359.918L112.636 359.91L113.567 359.908L114.498 359.907L115.429 359.9L116.359 359.893L117.29 359.888L118.221 359.886L119.152 359.885L120.083 359.884L121.014 359.882L121.945 359.88L122.876 359.878L123.806 359.875L124.737 359.874L125.668 359.873L126.599 359.872L127.53 359.868L128.461 359.866L129.392 359.864L130.323 359.86L131.253 359.858L132.184 359.858L133.115 359.857L134.046 359.855L134.977 359.854L135.908 359.852L136.839 359.852L137.77 359.852L138.7 359.851L139.631 359.848L140.562 359.844L141.493 359.842L142.424 359.839L143.355 359.837L144.286 359.836L145.217 359.834L146.147 359.833L147.078 359.831L148.009 359.829L148.94 359.827L149.871 359.824L150.802 359.822L151.733 359.819L152.664 359.818L153.594 359.815L154.525 359.813L155.456 359.812L156.387 359.81L157.318 359.809L158.249 359.807L159.18 359.806L160.111 359.805L161.041 359.799L161.972 359.797L162.903 359.794L163.834 359.791L164.765 359.789L165.696 359.784L166.627 359.781L167.558 359.773L168.488 359.766L169.419 359.759L170.35 359.752L171.281 359.748L172.212 359.745L173.143 359.74L174.074 359.737L175.005 359.734L175.935 359.732L176.866 359.73L177.797 359.726L178.728 359.723L179.659 359.722L180.59 359.72L181.521 359.717L182.452 359.715L183.382 359.714L184.313 359.712L185.244 359.71L186.175 359.708L187.106 359.706L188.037 359.704L188.968 359.702L189.899 359.699L190.829 359.698L191.76 359.695L192.691 359.692L193.622 359.688L194.553 359.685L195.484 359.683L196.415 359.68L197.346 359.678L198.277 359.676L199.207 359.674L200.138 359.666L201.069 359.663L202 359.66L202.931 359.658L203.862 359.654L204.793 359.649L205.723 359.635L206.654 359.63L207.585 359.621L208.516 359.616L209.447 359.608L210.378 359.594L211.309 359.567L212.24 359.518L213.171 359.468L214.101 359.439L215.032 359.415L215.963 359.404L216.894 359.394L217.825 359.381L218.756 359.372L219.687 359.359L220.618 359.351L221.548 359.331L222.479 359.321L223.41 358.846L224.341 358.539L225.272 358.175L226.203 358.148L227.134 358.083L228.065 358.034L228.995 358.013L229.926 357.993L230.857 357.963L231.788 357.95L232.719 357.927L233.65 357.885L234.581 357.843L235.512 357.798L236.442 357.654L237.373 357.584L238.304 357.503L239.235 357.375L240.166 356.937L241.097 356.801L242.028 356.699L242.959 356.538L243.889 356.064L244.82 355.689L245.751 355.509L246.682 355.42L247.613 355.277L248.544 355.142L249.475 355.036L250.406 354.896L251.336 354.828L252.267 354.737L253.198 354.648L254.129 354.597L255.06 354.224L255.991 353.978L256.922 353.865L257.853 353.746L258.783 353.259L259.714 352.732L260.645 351.821L261.576 351.452L262.507 350.941L263.438 350.633L264.369 350.396L265.3 350.147L266.23 349.355L267.161 348.9L268.092 348.344L269.023 347.443L269.954 346.805L270.885 346.236L271.816 345.518L272.747 344.579L273.677 344.109L274.608 343.362L275.539 341.656L276.47 340.928L277.401 339.318L278.332 338.3L279.263 337.823L280.194 337.137L281.124 336.339L282.055 335.756L282.986 335.051L283.917 334.468L284.848 333.911L285.779 333.481L286.71 333.072L287.641 332.713L288.571 332.251L289.502 331.877L290.433 331.428L291.364 330.965L292.295 330.596L293.226 329.584L294.157 329.182L295.088 328.833L296.018 328.519L296.949 328.231L297.88 327.861L298.811 327.52L299.742 327.12L300.673 326.692L301.604 326.109L302.535 325.539L303.465 325.029L304.396 324.446L305.327 323.924L306.258 323.476L307.189 322.906L308.12 322.446L309.051 322.099L309.982 321.78L310.912 321.401L311.843 320.9L312.774 320.493L313.705 320.045L314.636 319.666L315.567 319.275L316.498 318.81L317.429 318.419L318.359 317.942L319.29 317.593L320.221 317.265L321.152 316.929L322.083 316.632L323.014 316.252L323.945 315.882L324.876 315.233L325.806 314.705L326.737 313.676L327.668 313.34L328.599 312.803L329.53 311.992L330.461 311.528L331.392 311.087L332.323 310.307L333.253 309.638L334.184 309.192L335.115 308.596L336.046 308.056L336.977 307.738L337.908 307.319L338.839 306.824L339.77 306.401L340.7 305.825L341.631 305.33L342.562 304.751L343.493 304.157L344.424 303.486L345.355 303.008L346.286 302.219L347.217 301.713L348.147 301.285L349.078 300.785L350.009 300.103L350.94 299.569L351.871 298.858L352.802 297.504L353.733 296.932L354.664 296.517L355.594 295.909L356.525 295.177L357.456 294.548L358.387 293.975L359.318 293.406L360.249 292.821L361.18 291.98L362.111 291.338L363.041 290.679L363.972 290.03L364.903 289.371L365.834 288.821L366.765 288.225L367.696 287.382L368.627 286.55L369.558 285.918L370.488 285.153L371.419 284.39L372.35 283.712L373.281 283.264L374.212 282.95L375.143 282.32L376.074 281.49L377.005 280.784L377.935 279.998L378.866 279.142L379.797 278.476L380.728 277.718L381.659 276.939L382.59 276.142L383.521 275.199L384.452 274.458L385.382 273.703L386.313 272.889L387.244 271.974L388.175 271.247L389.106 270.63L390.037 270.029L390.968 269.529L391.899 269.035L392.829 268.574L393.76 268.119L394.691 267.679L395.622 266.988L396.553 266.027L397.484 265.381L398.415 264.765L399.346 264.192L400.276 263.624L401.207 262.93L402.138 262.284L403.069 261.681L404 261.192L404.931 260.564L405.862 260.044L406.793 259.535L407.724 259.026L408.654 258.441L409.585 257.757L410.516 257.284L411.447 256.825L412.378 256.427L413.309 255.961L414.24 255.466L415.171 254.964L416.101 254.543L417.032 254.083L417.963 253.618L418.894 253.117L419.825 252.704L420.756 252.207L421.687 251.516L422.618 251.022L423.548 250.623L424.479 250.182L425.41 249.776L426.341 249.18L427.272 248.736L428.203 248.257L429.134 247.723L430.065 247.033L430.995 246.515L431.926 245.866L432.857 245.313L433.788 244.796L434.719 244.297L435.65 243.82L436.581 243.164L437.512 242.336L438.442 241.696L439.373 241.078L440.304 240.41L441.235 239.417L442.166 238.742L443.097 238.28L444.028 237.772L444.959 236.869L445.889 236.366L446.82 235.847L447.751 235.25L448.682 234.607L449.613 234.055L450.544 233.406L451.475 232.848L452.406 232.266L453.336 231.756L454.267 231.153L455.198 230.394L456.129 229.76L457.06 229.086L457.991 228.404L458.922 227.809L459.853 227.187L460.783 226.514L461.714 225.701L462.645 224.973L463.576 224.117L464.507 223.355L465.438 222.687L466.369 222.279L467.3 221.369L468.23 220.533L469.161 219.633L470.092 218.887L471.023 217.941L471.954 217.147L472.885 216.341L473.816 215.682L474.747 214.89L475.677 214.302L476.608 213.719L477.539 213.107L478.47 212.445L479.401 211.696L480.332 210.949L481.263 210.212L482.194 209.225L483.124 208.344L484.055 207.472L484.986 206.512L485.917 205.591L486.848 204.615L487.779 203.671L488.71 202.855L489.641 201.691L490.571 200.713L491.502 199.913L492.433 198.912L493.364 197.988L494.295 197.142L495.226 196.552L496.157 195.441L497.088 194.664L498.018 193.982L498.949 193.259L499.88 192.541L500.811 191.416L501.742 190.218L502.673 189.429L503.604 188.72L504.535 188.052L505.465 187.501L506.396 186.901L507.327 186.298L508.258 185.62L509.189 185.075L510.12 184.504L511.051 184.069L511.982 183.565L512.912 182.693L513.843 181.906L514.774 181.068L515.705 180.34L516.636 179.676L517.567 178.96L518.498 178.331L519.429 177.835L520.359 177.015L521.29 176.422L522.221 175.72L523.152 174.476L524.083 173.82L525.014 173.165L525.945 172.536L526.876 171.835L527.806 171.18L528.737 170.435L529.668 169.436L530.599 168.829L531.53 168.22L532.461 167.575L533.392 166.836L534.323 166.055L535.253 165.175L536.184 164.354L537.115 163.581L538.046 163.003L538.977 162.298L539.908 161.56L540.839 160.523L541.77 159.434L542.7 158.58L543.631 157.921L544.562 157.187L545.493 156.563L546.424 155.899L547.355 155.293L548.286 154.735L549.217 153.88L550.147 153.353L551.078 152.74L552.009 151.935L552.94 151.068L553.871 150.204L554.802 149.612L555.733 148.985L556.664 148.379L557.594 147.966L558.525 147.551L559.456 146.824L560.387 146.289L561.318 145.71L562.249 145.087L563.18 143.918L564.111 143.409L565.042 142.889L565.972 142.395L566.903 141.904L567.834 141.312L568.765 140.246L569.696 139.796L570.627 139.376L571.558 138.969L572.488 138.624L573.419 137.948L574.35 137.51L575.281 137.147L576.212 136.781L577.143 136.459L578.074 135.949L579.005 135.496L579.935 135.01L580.866 134.527L581.797 134.159L582.728 133.817L583.659 133.499L584.59 133.04L585.521 132.052L586.452 131.494L587.383 130.916L588.313 130.345L589.244 129.823L590.175 129.134L591.106 128.559L592.037 127.988L592.968 127.283L593.899 123.41L594.829 122.592L595.76 121.995L596.691 121.517L597.622 115.973L598.553 115.367L599.484 110.001L600.415 109.391L601.346 108.57L602.276 107.851L603.207 107.122L604.138 106.308L605.069 105.613L606 105.026" stroke="#15D6FF" stroke-width="2" stroke-linecap="round"/>
<path d="M0 360H0.930876H2.79263H4.65438H5.58525H6.51613H7.447H8.37788H10.2396H11.1705H12.1014H13.0323H13.9631H14.894H15.8249H16.7558H17.6866H18.6175H19.5484H20.4793H22.341H23.2719H24.2028H25.1336H26.0645H26.9954H30.7189H31.6498H33.5115H35.3733H38.1659H40.0276H40.9585H41.8894H42.8203H43.7512H44.682H45.6129H46.5438H47.4747H48.4055H50.2673H51.1982H52.129H53.0599H54.9217H55.8525H57.7143H58.6452H59.576H60.5069H61.4378H62.3687H64.2304H67.023H67.9539H68.8848H69.8157H70.7465H71.6774H72.6083H73.5392H74.47H75.4009H76.3318H77.2627H78.1936H79.1244H80.0553H80.9862H81.9171H82.8479H83.7788H84.7097H85.6406H86.5714H87.5023H88.4332H89.3641H90.2949H91.2258H92.1567H93.0876H94.0184H94.9493H95.8802H96.8111H97.7419H98.6728H99.6037H100.535H101.465H102.396H103.327H104.258H105.189H106.12H107.051H107.982H108.912H109.843H110.774H111.705H112.636H113.567H114.498H115.429H116.359H117.29H118.221H119.152H120.083H121.014H121.945H122.876H123.806H124.737H125.668H126.599H127.53H128.461H129.392H130.323H131.253H132.184H133.115H134.046H134.977H135.908H136.839H137.77H138.7H139.631H140.562H141.493H142.424H143.355H144.286H145.217H146.147H147.078H148.009H148.94H149.871H150.802H151.733H152.664H153.594H154.525H155.456H156.387H157.318H158.249H159.18H160.111H161.041H161.972H162.903H163.834H164.765H165.696H166.627H167.558H168.488H169.419H170.35H171.281H172.212H173.143H174.074H175.005H175.935H176.866H177.797H178.728H179.659H180.59H181.521H182.452H183.382H184.313H185.244H186.175H187.106H188.037H188.968H189.899H190.829H191.76H192.691H193.622H194.553H195.484H196.415H197.346H198.277H199.207H200.138H201.069H202H202.931H203.862H204.793H205.723H206.654H207.585H208.516H209.447H210.378H211.309H212.24H213.171H214.101H215.032H215.963H216.894H217.825H218.756H219.687H220.618H221.548H222.479H223.41H224.341H225.272H226.203H227.134H228.065H228.995H229.926H230.857H231.788H232.719H233.65H234.581H235.512H236.442H237.373H238.304H239.235H240.166H241.097H242.028H242.959H243.889H244.82H245.751H246.682H247.613H248.544H249.475H250.406H251.336H252.267H253.198H254.129H255.06H255.991H256.922H257.853H258.783H259.714H260.645H261.576H262.507H263.438H264.369H265.3H266.23H267.161H268.092H269.023H269.954H270.885H271.816H272.747H273.677H274.608H275.539H276.47H277.401H278.332H279.263H280.194H281.124H282.055H282.986H283.917H284.848H285.779H286.71H287.641H288.571H289.502H290.433H291.364H292.295H293.226H294.157H295.088H296.018H296.949H297.88H298.811H299.742H300.673H301.604H302.535H303.465H304.396H305.327H306.258H307.189H308.12H309.051H309.982H310.912H311.843H312.774H313.705H314.636H315.567H316.498H317.429H318.359H319.29H320.221H321.152H322.083H323.014H323.945H324.876H325.806H326.737H327.668H328.599H329.53H330.461H331.392H332.323H333.253H334.184H335.115H336.046H336.977H337.908H338.839H339.77H340.7H341.631H342.562H343.493H344.424H345.355H346.286H347.217H348.147H349.078H350.009H350.94H351.871H352.802H353.733H354.664H355.594H356.525H357.456H358.387H359.318H360.249H361.18H362.111H363.041H363.972H364.903H365.834H366.765H367.696H368.627H369.558H370.488H371.419H372.35H373.281H374.212H375.143H376.074H377.005H377.935H378.866H379.797H380.728H381.659H382.59H383.521H384.452H385.382H386.313H387.244H388.175H389.106H390.037H390.968H391.899H392.829H393.76H394.691H395.622H396.553H397.484H398.415H399.346H400.276H401.207H402.138H403.069H404H404.931H405.862H406.793H407.724H408.654H409.585H410.516H411.447H412.378H413.309H414.24H415.171H416.101H417.032H417.963H418.894H419.825H420.756H421.687H422.618H423.548H424.479H425.41H426.341H427.272H428.203H429.134H430.065H430.995H431.926H432.857H433.788H434.719H435.65H436.581H437.512H438.442H439.373H440.304H441.235H442.166H443.097H444.028H444.959H445.889H446.82H447.751H448.682H449.613H450.544H451.475H452.406H453.336H454.267H455.198H456.129H457.06H457.991H458.922H459.853H460.783H461.714H462.645H463.576H464.507H465.438H466.369H467.3H468.23H469.161H470.092H471.023H471.954H472.885H473.816H474.747H475.677H476.608H477.539H478.47H479.401H480.332H481.263H482.194H483.124H484.055H484.986H485.917H486.848H487.779H488.71H489.641H490.571H491.502H492.433H493.364H494.295H495.226H496.157H497.088H498.018H498.949H499.88H500.811H501.742H502.673H503.604H504.535H505.465H506.396H507.327H508.258H509.189H510.12H511.051H511.982H512.912H513.843H514.774H515.705H516.636H517.567H518.498H519.429H520.359H521.29H522.221H523.152H524.083H525.014H525.945H526.876H527.806H528.737H529.668H530.599H531.53H532.461H533.392H534.323H535.253H536.184H537.115H538.046H538.977H539.908H540.839H541.77H542.7H543.631H544.562H545.493H546.424H547.355H548.286H549.217H550.147H551.078H552.009H552.94H553.871H554.802H555.733H556.664H557.594H558.525H559.456H560.387H561.318H562.249H563.18H564.111H565.042H565.972H566.903H567.834H568.765H569.696H570.627H571.558H572.488H573.419H574.35H575.281H576.212H577.143H578.074H579.005H579.935H580.866H581.797H582.728H583.659H584.59H585.521H586.452H587.383H588.313H589.244H590.175H591.106H592.037H592.968H593.899H594.829H595.76H596.691H597.622H598.553H599.484H600.415H601.346H602.276H603.207H604.138H605.069H606V105.026L605.069 105.613L604.138 106.308L603.207 107.122L602.276 107.851L601.346 108.57L600.415 109.391L599.484 110.001L598.553 115.367L597.622 115.973L596.691 121.517L595.76 121.995L594.829 122.592L593.899 123.41L592.968 127.283L592.037 127.988L591.106 128.559L590.175 129.134L589.244 129.823L588.313 130.345L587.383 130.916L586.452 131.494L585.521 132.052L584.59 133.04L583.659 133.499L582.728 133.817L581.797 134.159L580.866 134.527L579.935 135.01L579.005 135.496L578.074 135.949L577.143 136.459L576.212 136.781L575.281 137.147L574.35 137.51L573.419 137.948L572.488 138.624L571.558 138.969L570.627 139.376L569.696 139.796L568.765 140.246L567.834 141.312L566.903 141.904L565.972 142.395L565.042 142.889L564.111 143.409L563.18 143.918L562.249 145.087L561.318 145.71L560.387 146.289L559.456 146.824L558.525 147.551L557.594 147.966L556.664 148.379L555.733 148.985L554.802 149.612L553.871 150.204L552.94 151.068L552.009 151.935L551.078 152.74L550.147 153.353L549.217 153.88L548.286 154.735L547.355 155.293L546.424 155.899L545.493 156.563L544.562 157.187L543.631 157.921L542.7 158.58L541.77 159.434L540.839 160.523L539.908 161.56L538.977 162.298L538.046 163.003L537.115 163.581L536.184 164.354L535.253 165.175L534.323 166.055L533.392 166.836L532.461 167.575L531.53 168.22L530.599 168.829L529.668 169.436L528.737 170.435L527.806 171.18L526.876 171.835L525.945 172.536L525.014 173.165L524.083 173.82L523.152 174.476L522.221 175.72L521.29 176.422L520.359 177.015L519.429 177.835L518.498 178.331L517.567 178.96L516.636 179.676L515.705 180.34L514.774 181.068L513.843 181.906L512.912 182.693L511.982 183.565L511.051 184.069L510.12 184.504L509.189 185.075L508.258 185.62L507.327 186.298L506.396 186.901L505.465 187.501L504.535 188.052L503.604 188.72L502.673 189.429L501.742 190.218L500.811 191.416L499.88 192.541L498.949 193.259L498.018 193.982L497.088 194.664L496.157 195.441L495.226 196.552L494.295 197.142L493.364 197.988L492.433 198.912L491.502 199.913L490.571 200.713L489.641 201.691L488.71 202.855L487.779 203.671L486.848 204.615L485.917 205.591L484.986 206.512L484.055 207.472L483.124 208.344L482.194 209.225L481.263 210.212L480.332 210.949L479.401 211.696L478.47 212.445L477.539 213.107L476.608 213.719L475.677 214.302L474.747 214.89L473.816 215.682L472.885 216.341L471.954 217.147L471.023 217.941L470.092 218.887L469.161 219.633L468.23 220.533L467.3 221.369L466.369 222.279L465.438 222.687L464.507 223.355L463.576 224.117L462.645 224.973L461.714 225.701L460.783 226.514L459.853 227.187L458.922 227.809L457.991 228.404L457.06 229.086L456.129 229.76L455.198 230.394L454.267 231.153L453.336 231.756L452.406 232.266L451.475 232.848L450.544 233.406L449.613 234.055L448.682 234.607L447.751 235.25L446.82 235.847L445.889 236.366L444.959 236.869L444.028 237.772L443.097 238.28L442.166 238.742L441.235 239.417L440.304 240.41L439.373 241.078L438.442 241.696L437.512 242.336L436.581 243.164L435.65 243.82L434.719 244.297L433.788 244.796L432.857 245.313L431.926 245.866L430.995 246.515L430.065 247.033L429.134 247.723L428.203 248.257L427.272 248.736L426.341 249.18L425.41 249.776L424.479 250.182L423.548 250.623L422.618 251.022L421.687 251.516L420.756 252.207L419.825 252.704L418.894 253.117L417.963 253.618L417.032 254.083L416.101 254.543L415.171 254.964L414.24 255.466L413.309 255.961L412.378 256.427L411.447 256.825L410.516 257.284L409.585 257.757L408.654 258.441L407.724 259.026L406.793 259.535L405.862 260.044L404.931 260.564L404 261.192L403.069 261.681L402.138 262.284L401.207 262.93L400.276 263.624L399.346 264.192L398.415 264.765L397.484 265.381L396.553 266.027L395.622 266.988L394.691 267.679L393.76 268.119L392.829 268.574L391.899 269.035L390.968 269.529L390.037 270.029L389.106 270.63L388.175 271.247L387.244 271.974L386.313 272.889L385.382 273.703L384.452 274.458L383.521 275.199L382.59 276.142L381.659 276.939L380.728 277.718L379.797 278.476L378.866 279.142L377.935 279.998L377.005 280.784L376.074 281.49L375.143 282.32L374.212 282.95L373.281 283.264L372.35 283.712L371.419 284.39L370.488 285.153L369.558 285.918L368.627 286.55L367.696 287.382L366.765 288.225L365.834 288.821L364.903 289.371L363.972 290.03L363.041 290.679L362.111 291.338L361.18 291.98L360.249 292.821L359.318 293.406L358.387 293.975L357.456 294.548L356.525 295.177L355.594 295.909L354.664 296.517L353.733 296.932L352.802 297.504L351.871 298.858L350.94 299.569L350.009 300.103L349.078 300.785L348.147 301.285L347.217 301.713L346.286 302.219L345.355 303.008L344.424 303.486L343.493 304.157L342.562 304.751L341.631 305.33L340.7 305.825L339.77 306.401L338.839 306.824L337.908 307.319L336.977 307.738L336.046 308.056L335.115 308.596L334.184 309.192L333.253 309.638L332.323 310.307L331.392 311.087L330.461 311.528L329.53 311.992L328.599 312.803L327.668 313.34L326.737 313.676L325.806 314.705L324.876 315.233L323.945 315.882L323.014 316.252L322.083 316.632L321.152 316.929L320.221 317.265L319.29 317.593L318.359 317.942L317.429 318.419L316.498 318.81L315.567 319.275L314.636 319.666L313.705 320.045L312.774 320.493L311.843 320.9L310.912 321.401L309.982 321.78L309.051 322.099L308.12 322.446L307.189 322.906L306.258 323.476L305.327 323.924L304.396 324.446L303.465 325.029L302.535 325.539L301.604 326.109L300.673 326.692L299.742 327.12L298.811 327.52L297.88 327.861L296.949 328.231L296.018 328.519L295.088 328.833L294.157 329.182L293.226 329.584L292.295 330.596L291.364 330.965L290.433 331.428L289.502 331.877L288.571 332.251L287.641 332.713L286.71 333.072L285.779 333.481L284.848 333.911L283.917 334.468L282.986 335.051L282.055 335.756L281.124 336.339L280.194 337.137L279.263 337.823L278.332 338.3L277.401 339.318L276.47 340.928L275.539 341.656L274.608 343.362L273.677 344.109L272.747 344.579L271.816 345.518L270.885 346.236L269.954 346.805L269.023 347.443L268.092 348.344L267.161 348.9L266.23 349.355L265.3 350.147L264.369 350.396L263.438 350.633L262.507 350.941L261.576 351.452L260.645 351.821L259.714 352.732L258.783 353.259L257.853 353.746L256.922 353.865L255.991 353.978L255.06 354.224L254.129 354.597L253.198 354.648L252.267 354.737L251.336 354.828L250.406 354.896L249.475 355.036L248.544 355.142L247.613 355.277L246.682 355.42L245.751 355.509L244.82 355.689L243.889 356.064L242.959 356.538L242.028 356.699L241.097 356.801L240.166 356.937L239.235 357.375L238.304 357.503L237.373 357.584L236.442 357.654L235.512 357.798L234.581 357.843L233.65 357.885L232.719 357.927L231.788 357.95L230.857 357.963L229.926 357.993L228.995 358.013L228.065 358.034L227.134 358.083L226.203 358.148L225.272 358.175L224.341 358.539L223.41 358.846L222.479 359.321L221.548 359.331L220.618 359.351L219.687 359.359L218.756 359.372L217.825 359.381L216.894 359.394L215.963 359.404L215.032 359.415L214.101 359.439L213.171 359.468L212.24 359.518L211.309 359.567L210.378 359.594L209.447 359.608L208.516 359.616L207.585 359.621L206.654 359.63L205.723 359.635L204.793 359.649L203.862 359.654L202.931 359.658L202 359.66L201.069 359.663L200.138 359.666L199.207 359.674L198.277 359.676L197.346 359.678L196.415 359.68L195.484 359.683L194.553 359.685L193.622 359.688L192.691 359.692L191.76 359.695L190.829 359.698L189.899 359.699L188.968 359.702L188.037 359.704L187.106 359.706L186.175 359.708L185.244 359.71L184.313 359.712L183.382 359.714L182.452 359.715L181.521 359.717L180.59 359.72L179.659 359.722L178.728 359.723L177.797 359.726L176.866 359.73L175.935 359.732L175.005 359.734L174.074 359.737L173.143 359.74L172.212 359.745L171.281 359.748L170.35 359.752L169.419 359.759L168.488 359.766L167.558 359.773L166.627 359.781L165.696 359.784L164.765 359.789L163.834 359.791L162.903 359.794L161.972 359.797L161.041 359.799L160.111 359.805L159.18 359.806L158.249 359.807L157.318 359.809L156.387 359.81L155.456 359.812L154.525 359.813L153.594 359.815L152.664 359.818L151.733 359.819L150.802 359.822L149.871 359.824L148.94 359.827L148.009 359.829L147.078 359.831L146.147 359.833L145.217 359.834L144.286 359.836L143.355 359.837L142.424 359.839L141.493 359.842L140.562 359.844L139.631 359.848L138.7 359.851L137.77 359.852L136.839 359.852L135.908 359.852L134.977 359.854L134.046 359.855L133.115 359.857L132.184 359.858L131.253 359.858L130.323 359.86L129.392 359.864L128.461 359.866L127.53 359.868L126.599 359.872L125.668 359.873L124.737 359.874L123.806 359.875L122.876 359.878L121.945 359.88L121.014 359.882L120.083 359.884L119.152 359.885L118.221 359.886L117.29 359.888L116.359 359.893L115.429 359.9L114.498 359.907L113.567 359.908L112.636 359.91L111.705 359.918L110.774 359.927L109.843 359.932L108.912 359.938L107.982 359.945L107.051 359.95L106.12 359.951L105.189 359.952L104.258 359.952L103.327 359.952L102.396 359.953L101.465 359.953L100.535 359.953L99.6037 359.954L98.6728 359.954L97.7419 359.954L96.8111 359.954L95.8802 359.954L94.9493 359.987L94.0184 359.987H93.0876L92.1567 359.987L91.2258 359.988H90.2949L89.3641 359.988L88.4332 359.988L87.5023 359.988L86.5714 359.988L85.6406 359.988L84.7097 359.988L83.7788 359.988L82.8479 359.989L81.9171 359.989L80.9862 359.989L80.0553 359.989L79.1244 359.989L78.1936 359.99L77.2627 359.99L76.3318 359.99L75.4009 359.99L74.47 359.99L73.5392 359.991L72.6083 359.991L71.6774 359.992L70.7465 359.995L69.8157 359.995L68.8848 359.995L67.9539 359.996L67.023 359.996L64.2304 359.996L62.3687 359.996L61.4378 359.996L60.5069 359.996L59.576 359.996L58.6452 359.997L57.7143 359.997L55.8525 359.997L54.9217 359.997H53.0599L52.129 359.997L51.1982 359.997L50.2673 359.997L48.4055 359.997L47.4747 359.997L46.5438 359.997L45.6129 359.997L44.682 359.997L43.7512 359.997L42.8203 359.997L41.8894 359.998L40.9585 359.998L40.0276 359.998H38.1659H35.3733L33.5115 359.998H31.6498L30.7189 359.998L26.9954 359.998L26.0645 359.998H25.1336H24.2028H23.2719H22.341L20.4793 359.998H19.5484L18.6175 359.998L17.6866 359.998H16.7558L15.8249 359.998L14.894 359.998H13.9631H13.0323H12.1014L11.1705 359.998H10.2396L8.37788 359.998L7.447 360L6.51613 360L5.58525 360L4.65438 360L2.79263 360L0.930876 360L0 360V360Z" fill="#15D6FF"/>
<path d="M0 360H0.930876H2.79263H4.65438H5.58525H6.51613H7.447H8.37788H10.2396H11.1705H12.1014H13.0323H13.9631H14.894H15.8249H16.7558H17.6866H18.6175H19.5484H20.4793H22.341H23.2719H24.2028H25.1336H26.0645H26.9954H30.7189H31.6498H33.5115H35.3733H38.1659H40.0276H40.9585H41.8894H42.8203H43.7512H44.682H45.6129H46.5438H47.4747H48.4055H50.2673H51.1982H52.129H53.0599H54.9217H55.8525H57.7143H58.6452H59.576H60.5069H61.4378H62.3687H64.2304H67.023H67.9539H68.8848H69.8157H70.7465H71.6774H72.6083H73.5392H74.47H75.4009H76.3318H77.2627H78.1936H79.1244H80.0553H80.9862H81.9171H82.8479H83.7788H84.7097H85.6406H86.5714H87.5023H88.4332H89.3641H90.2949H91.2258H92.1567H93.0876H94.0184H94.9493H95.8802H96.8111H97.7419H98.6728H99.6037H100.535H101.465H102.396H103.327H104.258H105.189H106.12H107.051H107.982H108.912H109.843H110.774H111.705H112.636H113.567H114.498H115.429H116.359H117.29H118.221H119.152H120.083H121.014H121.945H122.876H123.806H124.737H125.668H126.599H127.53H128.461H129.392H130.323H131.253H132.184H133.115H134.046H134.977H135.908H136.839H137.77H138.7H139.631H140.562H141.493H142.424H143.355H144.286H145.217H146.147H147.078H148.009H148.94H149.871H150.802H151.733H152.664H153.594H154.525H155.456H156.387H157.318H158.249H159.18H160.111H161.041H161.972H162.903H163.834H164.765H165.696H166.627H167.558H168.488H169.419H170.35H171.281H172.212H173.143H174.074H175.005H175.935H176.866H177.797H178.728H179.659H180.59H181.521H182.452H183.382H184.313H185.244H186.175H187.106H188.037H188.968H189.899H190.829H191.76H192.691H193.622H194.553H195.484H196.415H197.346H198.277H199.207H200.138H201.069H202H202.931H203.862H204.793H205.723H206.654H207.585H208.516H209.447H210.378H211.309H212.24H213.171H214.101H215.032H215.963H216.894H217.825H218.756H219.687H220.618H221.548H222.479H223.41H224.341H225.272H226.203H227.134H228.065H228.995H229.926H230.857H231.788H232.719H233.65H234.581H235.512H236.442H237.373H238.304H239.235H240.166H241.097H242.028H242.959H243.889H244.82H245.751H246.682H247.613H248.544H249.475H250.406H251.336H252.267H253.198H254.129H255.06H255.991H256.922H257.853H258.783H259.714H260.645H261.576H262.507H263.438H264.369H265.3H266.23H267.161H268.092H269.023H269.954H270.885H271.816H272.747H273.677H274.608H275.539H276.47H277.401H278.332H279.263H280.194H281.124H282.055H282.986H283.917H284.848H285.779H286.71H287.641H288.571H289.502H290.433H291.364H292.295H293.226H294.157H295.088H296.018H296.949H297.88H298.811H299.742H300.673H301.604H302.535H303.465H304.396H305.327H306.258H307.189H308.12H309.051H309.982H310.912H311.843H312.774H313.705H314.636H315.567H316.498H317.429H318.359H319.29H320.221H321.152H322.083H323.014H323.945H324.876H325.806H326.737H327.668H328.599H329.53H330.461H331.392H332.323H333.253H334.184H335.115H336.046H336.977H337.908H338.839H339.77H340.7H341.631H342.562H343.493H344.424H345.355H346.286H347.217H348.147H349.078H350.009H350.94H351.871H352.802H353.733H354.664H355.594H356.525H357.456H358.387H359.318H360.249H361.18H362.111H363.041H363.972H364.903H365.834H366.765H367.696H368.627H369.558H370.488H371.419H372.35H373.281H374.212H375.143H376.074H377.005H377.935H378.866H379.797H380.728H381.659H382.59H383.521H384.452H385.382H386.313H387.244H388.175H389.106H390.037H390.968H391.899H392.829H393.76H394.691H395.622H396.553H397.484H398.415H399.346H400.276H401.207H402.138H403.069H404H404.931H405.862H406.793H407.724H408.654H409.585H410.516H411.447H412.378H413.309H414.24H415.171H416.101H417.032H417.963H418.894H419.825H420.756H421.687H422.618H423.548H424.479H425.41H426.341H427.272H428.203H429.134H430.065H430.995H431.926H432.857H433.788H434.719H435.65H436.581H437.512H438.442H439.373H440.304H441.235H442.166H443.097H444.028H444.959H445.889H446.82H447.751H448.682H449.613H450.544H451.475H452.406H453.336H454.267H455.198H456.129H457.06H457.991H458.922H459.853H460.783H461.714H462.645H463.576H464.507H465.438H466.369H467.3H468.23H469.161H470.092H471.023H471.954H472.885H473.816H474.747H475.677H476.608H477.539H478.47H479.401H480.332H481.263H482.194H483.124H484.055H484.986H485.917H486.848H487.779H488.71H489.641H490.571H491.502H492.433H493.364H494.295H495.226H496.157H497.088H498.018H498.949H499.88H500.811H501.742H502.673H503.604H504.535H505.465H506.396H507.327H508.258H509.189H510.12H511.051H511.982H512.912H513.843H514.774H515.705H516.636H517.567H518.498H519.429H520.359H521.29H522.221H523.152H524.083H525.014H525.945H526.876H527.806H528.737H529.668H530.599H531.53H532.461H533.392H534.323H535.253H536.184H537.115H538.046H538.977H539.908H540.839H541.77H542.7H543.631H544.562H545.493H546.424H547.355H548.286H549.217H550.147H551.078H552.009H552.94H553.871H554.802H555.733H556.664H557.594H558.525H559.456H560.387H561.318H562.249H563.18H564.111H565.042H565.972H566.903H567.834H568.765H569.696H570.627H571.558H572.488H573.419H574.35H575.281H576.212H577.143H578.074H579.005H579.935H580.866H581.797H582.728H583.659H584.59H585.521H586.452H587.383H588.313H589.244H590.175H591.106H592.037H592.968H593.899H594.829H595.76H596.691H597.622H598.553H599.484H600.415H601.346H602.276H603.207H604.138H605.069H606V105.026L605.069 105.613L604.138 106.308L603.207 107.122L602.276 107.851L601.346 108.57L600.415 109.391L599.484 110.001L598.553 115.367L597.622 115.973L596.691 121.517L595.76 121.995L594.829 122.592L593.899 123.41L592.968 127.283L592.037 127.988L591.106 128.559L590.175 129.134L589.244 129.823L588.313 130.345L587.383 130.916L586.452 131.494L585.521 132.052L584.59 133.04L583.659 133.499L582.728 133.817L581.797 134.159L580.866 134.527L579.935 135.01L579.005 135.496L578.074 135.949L577.143 136.459L576.212 136.781L575.281 137.147L574.35 137.51L573.419 137.948L572.488 138.624L571.558 138.969L570.627 139.376L569.696 139.796L568.765 140.246L567.834 141.312L566.903 141.904L565.972 142.395L565.042 142.889L564.111 143.409L563.18 143.918L562.249 145.087L561.318 145.71L560.387 146.289L559.456 146.824L558.525 147.551L557.594 147.966L556.664 148.379L555.733 148.985L554.802 149.612L553.871 150.204L552.94 151.068L552.009 151.935L551.078 152.74L550.147 153.353L549.217 153.88L548.286 154.735L547.355 155.293L546.424 155.899L545.493 156.563L544.562 157.187L543.631 157.921L542.7 158.58L541.77 159.434L540.839 160.523L539.908 161.56L538.977 162.298L538.046 163.003L537.115 163.581L536.184 164.354L535.253 165.175L534.323 166.055L533.392 166.836L532.461 167.575L531.53 168.22L530.599 168.829L529.668 169.436L528.737 170.435L527.806 171.18L526.876 171.835L525.945 172.536L525.014 173.165L524.083 173.82L523.152 174.476L522.221 175.72L521.29 176.422L520.359 177.015L519.429 177.835L518.498 178.331L517.567 178.96L516.636 179.676L515.705 180.34L514.774 181.068L513.843 181.906L512.912 182.693L511.982 183.565L511.051 184.069L510.12 184.504L509.189 185.075L508.258 185.62L507.327 186.298L506.396 186.901L505.465 187.501L504.535 188.052L503.604 188.72L502.673 189.429L501.742 190.218L500.811 191.416L499.88 192.541L498.949 193.259L498.018 193.982L497.088 194.664L496.157 195.441L495.226 196.552L494.295 197.142L493.364 197.988L492.433 198.912L491.502 199.913L490.571 200.713L489.641 201.691L488.71 202.855L487.779 203.671L486.848 204.615L485.917 205.591L484.986 206.512L484.055 207.472L483.124 208.344L482.194 209.225L481.263 210.212L480.332 210.949L479.401 211.696L478.47 212.445L477.539 213.107L476.608 213.719L475.677 214.302L474.747 214.89L473.816 215.682L472.885 216.341L471.954 217.147L471.023 217.941L470.092 218.887L469.161 219.633L468.23 220.533L467.3 221.369L466.369 222.279L465.438 222.687L464.507 223.355L463.576 224.117L462.645 224.973L461.714 225.701L460.783 226.514L459.853 227.187L458.922 227.809L457.991 228.404L457.06 229.086L456.129 229.76L455.198 230.394L454.267 231.153L453.336 231.756L452.406 232.266L451.475 232.848L450.544 233.406L449.613 234.055L448.682 234.607L447.751 235.25L446.82 235.847L445.889 236.366L444.959 236.869L444.028 237.772L443.097 238.28L442.166 238.742L441.235 239.417L440.304 240.41L439.373 241.078L438.442 241.696L437.512 242.336L436.581 243.164L435.65 243.82L434.719 244.297L433.788 244.796L432.857 245.313L431.926 245.866L430.995 246.515L430.065 247.033L429.134 247.723L428.203 248.257L427.272 248.736L426.341 249.18L425.41 249.776L424.479 250.182L423.548 250.623L422.618 251.022L421.687 251.516L420.756 252.207L419.825 252.704L418.894 253.117L417.963 253.618L417.032 254.083L416.101 254.543L415.171 254.964L414.24 255.466L413.309 255.961L412.378 256.427L411.447 256.825L410.516 257.284L409.585 257.757L408.654 258.441L407.724 259.026L406.793 259.535L405.862 260.044L404.931 260.564L404 261.192L403.069 261.681L402.138 262.284L401.207 262.93L400.276 263.624L399.346 264.192L398.415 264.765L397.484 265.381L396.553 266.027L395.622 266.988L394.691 267.679L393.76 268.119L392.829 268.574L391.899 269.035L390.968 269.529L390.037 270.029L389.106 270.63L388.175 271.247L387.244 271.974L386.313 272.889L385.382 273.703L384.452 274.458L383.521 275.199L382.59 276.142L381.659 276.939L380.728 277.718L379.797 278.476L378.866 279.142L377.935 279.998L377.005 280.784L376.074 281.49L375.143 282.32L374.212 282.95L373.281 283.264L372.35 283.712L371.419 284.39L370.488 285.153L369.558 285.918L368.627 286.55L367.696 287.382L366.765 288.225L365.834 288.821L364.903 289.371L363.972 290.03L363.041 290.679L362.111 291.338L361.18 291.98L360.249 292.821L359.318 293.406L358.387 293.975L357.456 294.548L356.525 295.177L355.594 295.909L354.664 296.517L353.733 296.932L352.802 297.504L351.871 298.858L350.94 299.569L350.009 300.103L349.078 300.785L348.147 301.285L347.217 301.713L346.286 302.219L345.355 303.008L344.424 303.486L343.493 304.157L342.562 304.751L341.631 305.33L340.7 305.825L339.77 306.401L338.839 306.824L337.908 307.319L336.977 307.738L336.046 308.056L335.115 308.596L334.184 309.192L333.253 309.638L332.323 310.307L331.392 311.087L330.461 311.528L329.53 311.992L328.599 312.803L327.668 313.34L326.737 313.676L325.806 314.705L324.876 315.233L323.945 315.882L323.014 316.252L322.083 316.632L321.152 316.929L320.221 317.265L319.29 317.593L318.359 317.942L317.429 318.419L316.498 318.81L315.567 319.275L314.636 319.666L313.705 320.045L312.774 320.493L311.843 320.9L310.912 321.401L309.982 321.78L309.051 322.099L308.12 322.446L307.189 322.906L306.258 323.476L305.327 323.924L304.396 324.446L303.465 325.029L302.535 325.539L301.604 326.109L300.673 326.692L299.742 327.12L298.811 327.52L297.88 327.861L296.949 328.231L296.018 328.519L295.088 328.833L294.157 329.182L293.226 329.584L292.295 330.596L291.364 330.965L290.433 331.428L289.502 331.877L288.571 332.251L287.641 332.713L286.71 333.072L285.779 333.481L284.848 333.911L283.917 334.468L282.986 335.051L282.055 335.756L281.124 336.339L280.194 337.137L279.263 337.823L278.332 338.3L277.401 339.318L276.47 340.928L275.539 341.656L274.608 343.362L273.677 344.109L272.747 344.579L271.816 345.518L270.885 346.236L269.954 346.805L269.023 347.443L268.092 348.344L267.161 348.9L266.23 349.355L265.3 350.147L264.369 350.396L263.438 350.633L262.507 350.941L261.576 351.452L260.645 351.821L259.714 352.732L258.783 353.259L257.853 353.746L256.922 353.865L255.991 353.978L255.06 354.224L254.129 354.597L253.198 354.648L252.267 354.737L251.336 354.828L250.406 354.896L249.475 355.036L248.544 355.142L247.613 355.277L246.682 355.42L245.751 355.509L244.82 355.689L243.889 356.064L242.959 356.538L242.028 356.699L241.097 356.801L240.166 356.937L239.235 357.375L238.304 357.503L237.373 357.584L236.442 357.654L235.512 357.798L234.581 357.843L233.65 357.885L232.719 357.927L231.788 357.95L230.857 357.963L229.926 357.993L228.995 358.013L228.065 358.034L227.134 358.083L226.203 358.148L225.272 358.175L224.341 358.539L223.41 358.846L222.479 359.321L221.548 359.331L220.618 359.351L219.687 359.359L218.756 359.372L217.825 359.381L216.894 359.394L215.963 359.404L215.032 359.415L214.101 359.439L213.171 359.468L212.24 359.518L211.309 359.567L210.378 359.594L209.447 359.608L208.516 359.616L207.585 359.621L206.654 359.63L205.723 359.635L204.793 359.649L203.862 359.654L202.931 359.658L202 359.66L201.069 359.663L200.138 359.666L199.207 359.674L198.277 359.676L197.346 359.678L196.415 359.68L195.484 359.683L194.553 359.685L193.622 359.688L192.691 359.692L191.76 359.695L190.829 359.698L189.899 359.699L188.968 359.702L188.037 359.704L187.106 359.706L186.175 359.708L185.244 359.71L184.313 359.712L183.382 359.714L182.452 359.715L181.521 359.717L180.59 359.72L179.659 359.722L178.728 359.723L177.797 359.726L176.866 359.73L175.935 359.732L175.005 359.734L174.074 359.737L173.143 359.74L172.212 359.745L171.281 359.748L170.35 359.752L169.419 359.759L168.488 359.766L167.558 359.773L166.627 359.781L165.696 359.784L164.765 359.789L163.834 359.791L162.903 359.794L161.972 359.797L161.041 359.799L160.111 359.805L159.18 359.806L158.249 359.807L157.318 359.809L156.387 359.81L155.456 359.812L154.525 359.813L153.594 359.815L152.664 359.818L151.733 359.819L150.802 359.822L149.871 359.824L148.94 359.827L148.009 359.829L147.078 359.831L146.147 359.833L145.217 359.834L144.286 359.836L143.355 359.837L142.424 359.839L141.493 359.842L140.562 359.844L139.631 359.848L138.7 359.851L137.77 359.852L136.839 359.852L135.908 359.852L134.977 359.854L134.046 359.855L133.115 359.857L132.184 359.858L131.253 359.858L130.323 359.86L129.392 359.864L128.461 359.866L127.53 359.868L126.599 359.872L125.668 359.873L124.737 359.874L123.806 359.875L122.876 359.878L121.945 359.88L121.014 359.882L120.083 359.884L119.152 359.885L118.221 359.886L117.29 359.888L116.359 359.893L115.429 359.9L114.498 359.907L113.567 359.908L112.636 359.91L111.705 359.918L110.774 359.927L109.843 359.932L108.912 359.938L107.982 359.945L107.051 359.95L106.12 359.951L105.189 359.952L104.258 359.952L103.327 359.952L102.396 359.953L101.465 359.953L100.535 359.953L99.6037 359.954L98.6728 359.954L97.7419 359.954L96.8111 359.954L95.8802 359.954L94.9493 359.987L94.0184 359.987H93.0876L92.1567 359.987L91.2258 359.988H90.2949L89.3641 359.988L88.4332 359.988L87.5023 359.988L86.5714 359.988L85.6406 359.988L84.7097 359.988L83.7788 359.988L82.8479 359.989L81.9171 359.989L80.9862 359.989L80.0553 359.989L79.1244 359.989L78.1936 359.99L77.2627 359.99L76.3318 359.99L75.4009 359.99L74.47 359.99L73.5392 359.991L72.6083 359.991L71.6774 359.992L70.7465 359.995L69.8157 359.995L68.8848 359.995L67.9539 359.996L67.023 359.996L64.2304 359.996L62.3687 359.996L61.4378 359.996L60.5069 359.996L59.576 359.996L58.6452 359.997L57.7143 359.997L55.8525 359.997L54.9217 359.997H53.0599L52.129 359.997L51.1982 359.997L50.2673 359.997L48.4055 359.997L47.4747 359.997L46.5438 359.997L45.6129 359.997L44.682 359.997L43.7512 359.997L42.8203 359.997L41.8894 359.998L40.9585 359.998L40.0276 359.998H38.1659H35.3733L33.5115 359.998H31.6498L30.7189 359.998L26.9954 359.998L26.0645 359.998H25.1336H24.2028H23.2719H22.341L20.4793 359.998H19.5484L18.6175 359.998L17.6866 359.998H16.7558L15.8249 359.998L14.894 359.998H13.9631H13.0323H12.1014L11.1705 359.998H10.2396L8.37788 359.998L7.447 360L6.51613 360L5.58525 360L4.65438 360L2.79263 360L0.930876 360L0 360V360Z" fill="#15D6FF"/>
<path d="M0 360H606" stroke="#15D6FF" stroke-dasharray="4 4"/>
<path d="M0 320H606" stroke="#15D6FF" stroke-dasharray="4 4"/>
<path d="M0 280H606" stroke="#15D6FF" stroke-dasharray="4 4"/>
<path d="M0 240H606" stroke="#15D6FF" stroke-dasharray="4 4"/>
<path d="M0 200H606" stroke="#15D6FF" stroke-dasharray="4 4"/>
<path d="M0 160H606" stroke="#15D6FF" stroke-dasharray="4 4"/>
<path d="M0 120H606" stroke="#15D6FF" stroke-dasharray="4 4"/>
<path d="M0 80H606" stroke="#15D6FF" stroke-dasharray="4 4"/>
<path d="M0 40H606" stroke="#15D6FF" stroke-dasharray="4 4"/>
<path d="M0 0H606" stroke="#15D6FF" stroke-dasharray="4 4"/>
<path opacity="0.6" d="M0 360.5V362.5" stroke="#15D6FF" stroke-linecap="square"/>
<path opacity="0.6" d="M2.79272 360.5V362.5" stroke="#15D6FF" stroke-linecap="square"/>
<path opacity="0.6" d="M5.58521 360.5V362.5" stroke="#15D6FF" stroke-linecap="square"/>
<path opacity="0.6" d="M7.44702 360.5V362.5" stroke="#15D6FF" stroke-linecap="square"/>
<path opacity="0.6" d="M10.2397 360.5V362.5" stroke="#15D6FF" stroke-linecap="square"/>
<path opacity="0.6" d="M12.1013 360.5V362.5" stroke="#15D6FF" stroke-linecap="square"/>
<path opacity="0.6" d="M13.9631 360.5V362.5" stroke="#15D6FF" stroke-linecap="square"/>
<path opacity="0.6" d="M15.825 360.5V362.5" stroke="#15D6FF" stroke-linecap="square"/>
<path opacity="0.6" d="M17.6865 360.5V362.5" stroke="#15D6FF" stroke-linecap="square"/>
<path opacity="0.6" d="M19.5483 360.5V362.5" stroke="#15D6FF" stroke-linecap="square"/>
<path opacity="0.6" d="M22.3411 360.5V362.5" stroke="#15D6FF" stroke-linecap="square"/>
<path opacity="0.6" d="M24.2029 360.5V362.5" stroke="#15D6FF" stroke-linecap="square"/>
<path opacity="0.6" d="M26.0645 360.5V362.5" stroke="#15D6FF" stroke-linecap="square"/>
<path opacity="0.6" d="M30.719 360.5V362.5" stroke="#15D6FF" stroke-linecap="square"/>
<path opacity="0.6" d="M33.5115 360.5V362.5" stroke="#15D6FF" stroke-linecap="square"/>
<path opacity="0.6" d="M38.166 360.5V362.5" stroke="#15D6FF" stroke-linecap="square"/>
<path opacity="0.6" d="M40.9585 360.5V362.5" stroke="#15D6FF" stroke-linecap="square"/>
<path opacity="0.6" d="M42.8203 360.5V362.5" stroke="#15D6FF" stroke-linecap="square"/>
<path opacity="0.6" d="M44.6821 360.5V362.5" stroke="#15D6FF" stroke-linecap="square"/>
<path opacity="0.6" d="M46.5437 360.5V362.5" stroke="#15D6FF" stroke-linecap="square"/>
<path opacity="0.6" d="M48.4055 360.5V362.5" stroke="#15D6FF" stroke-linecap="square"/>
<path opacity="0.6" d="M51.1982 360.5V362.5" stroke="#15D6FF" stroke-linecap="square"/>
<path opacity="0.6" d="M53.0598 360.5V362.5" stroke="#15D6FF" stroke-linecap="square"/>
<path opacity="0.6" d="M55.8525 360.5V362.5" stroke="#15D6FF" stroke-linecap="square"/>
<path opacity="0.6" d="M58.6453 360.5V362.5" stroke="#15D6FF" stroke-linecap="square"/>
<path opacity="0.6" d="M60.5068 360.5V362.5" stroke="#15D6FF" stroke-linecap="square"/>
<path opacity="0.6" d="M62.3687 360.5V362.5" stroke="#15D6FF" stroke-linecap="square"/>
<path opacity="0.6" d="M67.0229 360.5V362.5" stroke="#15D6FF" stroke-linecap="square"/>
<path opacity="0.6" d="M68.8848 360.5V362.5" stroke="#15D6FF" stroke-linecap="square"/>
<path opacity="0.6" d="M70.7466 360.5V362.5" stroke="#15D6FF" stroke-linecap="square"/>
<path opacity="0.6" d="M72.6084 360.5V362.5" stroke="#15D6FF" stroke-linecap="square"/>
<path opacity="0.6" d="M74.47 360.5V362.5" stroke="#15D6FF" stroke-linecap="square"/>
<path opacity="0.6" d="M76.3318 360.5V362.5" stroke="#15D6FF" stroke-linecap="square"/>
<path opacity="0.6" d="M78.1936 360.5V362.5" stroke="#15D6FF" stroke-linecap="square"/>
<path opacity="0.6" d="M80.0552 360.5V362.5" stroke="#15D6FF" stroke-linecap="square"/>
<path opacity="0.6" d="M81.917 360.5V362.5" stroke="#15D6FF" stroke-linecap="square"/>
<path opacity="0.6" d="M83.7788 360.5V362.5" stroke="#15D6FF" stroke-linecap="square"/>
<path opacity="0.6" d="M85.6406 360.5V362.5" stroke="#15D6FF" stroke-linecap="square"/>
<path opacity="0.6" d="M87.5022 360.5V362.5" stroke="#15D6FF" stroke-linecap="square"/>
<path opacity="0.6" d="M89.364 360.5V362.5" stroke="#15D6FF" stroke-linecap="square"/>
<path opacity="0.6" d="M91.2258 360.5V362.5" stroke="#15D6FF" stroke-linecap="square"/>
<path opacity="0.6" d="M93.0876 360.5V362.5" stroke="#15D6FF" stroke-linecap="square"/>
<path opacity="0.6" d="M94.9492 360.5V362.5" stroke="#15D6FF" stroke-linecap="square"/>
<path opacity="0.6" d="M96.811 360.5V362.5" stroke="#15D6FF" stroke-linecap="square"/>
<path opacity="0.6" d="M98.6729 360.5V362.5" stroke="#15D6FF" stroke-linecap="square"/>
<path opacity="0.6" d="M100.535 360.5V362.5" stroke="#15D6FF" stroke-linecap="square"/>
<path opacity="0.6" d="M102.396 360.5V362.5" stroke="#15D6FF" stroke-linecap="square"/>
<path opacity="0.6" d="M104.258 360.5V362.5" stroke="#15D6FF" stroke-linecap="square"/>
<path opacity="0.6" d="M106.12 360.5V362.5" stroke="#15D6FF" stroke-linecap="square"/>
<path opacity="0.6" d="M107.981 360.5V362.5" stroke="#15D6FF" stroke-linecap="square"/>
<path opacity="0.6" d="M109.843 360.5V362.5" stroke="#15D6FF" stroke-linecap="square"/>
<path opacity="0.6" d="M111.705 360.5V362.5" stroke="#15D6FF" stroke-linecap="square"/>
<path opacity="0.6" d="M113.567 360.5V362.5" stroke="#15D6FF" stroke-linecap="square"/>
<path opacity="0.6" d="M115.428 360.5V362.5" stroke="#15D6FF" stroke-linecap="square"/>
<path opacity="0.6" d="M117.29 360.5V362.5" stroke="#15D6FF" stroke-linecap="square"/>
<path opacity="0.6" d="M119.152 360.5V362.5" stroke="#15D6FF" stroke-linecap="square"/>
<path opacity="0.6" d="M121.014 360.5V362.5" stroke="#15D6FF" stroke-linecap="square"/>
<path opacity="0.6" d="M122.875 360.5V362.5" stroke="#15D6FF" stroke-linecap="square"/>
<path opacity="0.6" d="M124.737 360.5V362.5" stroke="#15D6FF" stroke-linecap="square"/>
<path opacity="0.6" d="M126.599 360.5V362.5" stroke="#15D6FF" stroke-linecap="square"/>
<path opacity="0.6" d="M128.461 360.5V362.5" stroke="#15D6FF" stroke-linecap="square"/>
<path opacity="0.6" d="M130.323 360.5V362.5" stroke="#15D6FF" stroke-linecap="square"/>
<path opacity="0.6" d="M132.184 360.5V362.5" stroke="#15D6FF" stroke-linecap="square"/>
<path opacity="0.6" d="M134.046 360.5V362.5" stroke="#15D6FF" stroke-linecap="square"/>
<path opacity="0.6" d="M135.908 360.5V362.5" stroke="#15D6FF" stroke-linecap="square"/>
<path opacity="0.6" d="M137.77 360.5V362.5" stroke="#15D6FF" stroke-linecap="square"/>
<path opacity="0.6" d="M139.631 360.5V362.5" stroke="#15D6FF" stroke-linecap="square"/>
<path opacity="0.6" d="M141.493 360.5V362.5" stroke="#15D6FF" stroke-linecap="square"/>
<path opacity="0.6" d="M143.355 360.5V362.5" stroke="#15D6FF" stroke-linecap="square"/>
<path opacity="0.6" d="M145.217 360.5V362.5" stroke="#15D6FF" stroke-linecap="square"/>
<path opacity="0.6" d="M147.078 360.5V362.5" stroke="#15D6FF" stroke-linecap="square"/>
<path opacity="0.6" d="M148.94 360.5V362.5" stroke="#15D6FF" stroke-linecap="square"/>
<path opacity="0.6" d="M150.802 360.5V362.5" stroke="#15D6FF" stroke-linecap="square"/>
<path opacity="0.6" d="M152.664 360.5V362.5" stroke="#15D6FF" stroke-linecap="square"/>
<path opacity="0.6" d="M154.525 360.5V362.5" stroke="#15D6FF" stroke-linecap="square"/>
<path opacity="0.6" d="M156.387 360.5V362.5" stroke="#15D6FF" stroke-linecap="square"/>
<path opacity="0.6" d="M158.249 360.5V362.5" stroke="#15D6FF" stroke-linecap="square"/>
<path opacity="0.6" d="M160.111 360.5V362.5" stroke="#15D6FF" stroke-linecap="square"/>
<path opacity="0.6" d="M161.972 360.5V362.5" stroke="#15D6FF" stroke-linecap="square"/>
<path opacity="0.6" d="M163.834 360.5V362.5" stroke="#15D6FF" stroke-linecap="square"/>
<path opacity="0.6" d="M165.696 360.5V362.5" stroke="#15D6FF" stroke-linecap="square"/>
<path opacity="0.6" d="M167.558 360.5V362.5" stroke="#15D6FF" stroke-linecap="square"/>
<path opacity="0.6" d="M169.419 360.5V362.5" stroke="#15D6FF" stroke-linecap="square"/>
<path opacity="0.6" d="M171.281 360.5V362.5" stroke="#15D6FF" stroke-linecap="square"/>
<path opacity="0.6" d="M173.143 360.5V362.5" stroke="#15D6FF" stroke-linecap="square"/>
<path opacity="0.6" d="M175.005 360.5V362.5" stroke="#15D6FF" stroke-linecap="square"/>
<path opacity="0.6" d="M176.866 360.5V362.5" stroke="#15D6FF" stroke-linecap="square"/>
<path opacity="0.6" d="M178.728 360.5V362.5" stroke="#15D6FF" stroke-linecap="square"/>
<path opacity="0.6" d="M180.59 360.5V362.5" stroke="#15D6FF" stroke-linecap="square"/>
<path opacity="0.6" d="M182.452 360.5V362.5" stroke="#15D6FF" stroke-linecap="square"/>
<path opacity="0.6" d="M184.313 360.5V362.5" stroke="#15D6FF" stroke-linecap="square"/>
<path opacity="0.6" d="M186.175 360.5V362.5" stroke="#15D6FF" stroke-linecap="square"/>
<path opacity="0.6" d="M188.037 360.5V362.5" stroke="#15D6FF" stroke-linecap="square"/>
<path opacity="0.6" d="M189.899 360.5V362.5" stroke="#15D6FF" stroke-linecap="square"/>
<path opacity="0.6" d="M191.76 360.5V362.5" stroke="#15D6FF" stroke-linecap="square"/>
<path opacity="0.6" d="M193.622 360.5V362.5" stroke="#15D6FF" stroke-linecap="square"/>
<path opacity="0.6" d="M195.484 360.5V362.5" stroke="#15D6FF" stroke-linecap="square"/>
<path opacity="0.6" d="M197.346 360.5V362.5" stroke="#15D6FF" stroke-linecap="square"/>
<path opacity="0.6" d="M199.207 360.5V362.5" stroke="#15D6FF" stroke-linecap="square"/>
<path opacity="0.6" d="M201.069 360.5V362.5" stroke="#15D6FF" stroke-linecap="square"/>
<path opacity="0.6" d="M202.931 360.5V362.5" stroke="#15D6FF" stroke-linecap="square"/>
<path opacity="0.6" d="M204.793 360.5V362.5" stroke="#15D6FF" stroke-linecap="square"/>
<path opacity="0.6" d="M206.654 360.5V362.5" stroke="#15D6FF" stroke-linecap="square"/>
<path opacity="0.6" d="M208.516 360.5V362.5" stroke="#15D6FF" stroke-linecap="square"/>
<path opacity="0.6" d="M210.378 360.5V362.5" stroke="#15D6FF" stroke-linecap="square"/>
<path opacity="0.6" d="M212.24 360.5V362.5" stroke="#15D6FF" stroke-linecap="square"/>
<path opacity="0.6" d="M214.101 360.5V362.5" stroke="#15D6FF" stroke-linecap="square"/>
<path opacity="0.6" d="M215.963 360.5V362.5" stroke="#15D6FF" stroke-linecap="square"/>
<path opacity="0.6" d="M217.825 360.5V362.5" stroke="#15D6FF" stroke-linecap="square"/>
<path opacity="0.6" d="M219.687 360.5V362.5" stroke="#15D6FF" stroke-linecap="square"/>
<path opacity="0.6" d="M221.548 360.5V362.5" stroke="#15D6FF" stroke-linecap="square"/>
<path opacity="0.6" d="M223.41 360.5V362.5" stroke="#15D6FF" stroke-linecap="square"/>
<path opacity="0.6" d="M225.272 360.5V362.5" stroke="#15D6FF" stroke-linecap="square"/>
<path opacity="0.6" d="M227.134 360.5V362.5" stroke="#15D6FF" stroke-linecap="square"/>
<path opacity="0.6" d="M228.995 360.5V362.5" stroke="#15D6FF" stroke-linecap="square"/>
<path opacity="0.6" d="M230.857 360.5V362.5" stroke="#15D6FF" stroke-linecap="square"/>
<path opacity="0.6" d="M232.719 360.5V362.5" stroke="#15D6FF" stroke-linecap="square"/>
<path opacity="0.6" d="M234.581 360.5V362.5" stroke="#15D6FF" stroke-linecap="square"/>
<path opacity="0.6" d="M236.442 360.5V362.5" stroke="#15D6FF" stroke-linecap="square"/>
<path opacity="0.6" d="M238.304 360.5V362.5" stroke="#15D6FF" stroke-linecap="square"/>
<path opacity="0.6" d="M240.166 360.5V362.5" stroke="#15D6FF" stroke-linecap="square"/>
<path opacity="0.6" d="M242.028 360.5V362.5" stroke="#15D6FF" stroke-linecap="square"/>
<path opacity="0.6" d="M243.889 360.5V362.5" stroke="#15D6FF" stroke-linecap="square"/>
<path opacity="0.6" d="M245.751 360.5V362.5" stroke="#15D6FF" stroke-linecap="square"/>
<path opacity="0.6" d="M247.613 360.5V362.5" stroke="#15D6FF" stroke-linecap="square"/>
<path opacity="0.6" d="M249.475 360.5V362.5" stroke="#15D6FF" stroke-linecap="square"/>
<path opacity="0.6" d="M251.336 360.5V362.5" stroke="#15D6FF" stroke-linecap="square"/>
<path opacity="0.6" d="M253.198 360.5V362.5" stroke="#15D6FF" stroke-linecap="square"/>
<path opacity="0.6" d="M255.06 360.5V362.5" stroke="#15D6FF" stroke-linecap="square"/>
<path opacity="0.6" d="M256.922 360.5V362.5" stroke="#15D6FF" stroke-linecap="square"/>
<path opacity="0.6" d="M258.783 360.5V362.5" stroke="#15D6FF" stroke-linecap="square"/>
<path opacity="0.6" d="M260.645 360.5V362.5" stroke="#15D6FF" stroke-linecap="square"/>
<path opacity="0.6" d="M262.507 360.5V362.5" stroke="#15D6FF" stroke-linecap="square"/>
<path opacity="0.6" d="M264.369 360.5V362.5" stroke="#15D6FF" stroke-linecap="square"/>
<path opacity="0.6" d="M266.23 360.5V362.5" stroke="#15D6FF" stroke-linecap="square"/>
<path opacity="0.6" d="M268.092 360.5V362.5" stroke="#15D6FF" stroke-linecap="square"/>
<path opacity="0.6" d="M269.954 360.5V362.5" stroke="#15D6FF" stroke-linecap="square"/>
<path opacity="0.6" d="M271.816 360.5V362.5" stroke="#15D6FF" stroke-linecap="square"/>
<path opacity="0.6" d="M273.677 360.5V362.5" stroke="#15D6FF" stroke-linecap="square"/>
<path opacity="0.6" d="M275.539 360.5V362.5" stroke="#15D6FF" stroke-linecap="square"/>
<path opacity="0.6" d="M277.401 360.5V362.5" stroke="#15D6FF" stroke-linecap="square"/>
<path opacity="0.6" d="M279.263 360.5V362.5" stroke="#15D6FF" stroke-linecap="square"/>
<path opacity="0.6" d="M281.125 360.5V362.5" stroke="#15D6FF" stroke-linecap="square"/>
<path opacity="0.6" d="M282.986 360.5V362.5" stroke="#15D6FF" stroke-linecap="square"/>
<path opacity="0.6" d="M284.848 360.5V362.5" stroke="#15D6FF" stroke-linecap="square"/>
<path opacity="0.6" d="M286.71 360.5V362.5" stroke="#15D6FF" stroke-linecap="square"/>
<path opacity="0.6" d="M288.571 360.5V362.5" stroke="#15D6FF" stroke-linecap="square"/>
<path opacity="0.6" d="M290.433 360.5V362.5" stroke="#15D6FF" stroke-linecap="square"/>
<path opacity="0.6" d="M292.295 360.5V362.5" stroke="#15D6FF" stroke-linecap="square"/>
<path opacity="0.6" d="M294.157 360.5V362.5" stroke="#15D6FF" stroke-linecap="square"/>
<path opacity="0.6" d="M296.019 360.5V362.5" stroke="#15D6FF" stroke-linecap="square"/>
<path opacity="0.6" d="M297.88 360.5V362.5" stroke="#15D6FF" stroke-linecap="square"/>
<path opacity="0.6" d="M299.742 360.5V362.5" stroke="#15D6FF" stroke-linecap="square"/>
<path opacity="0.6" d="M301.604 360.5V362.5" stroke="#15D6FF" stroke-linecap="square"/>
<path opacity="0.6" d="M303.465 360.5V362.5" stroke="#15D6FF" stroke-linecap="square"/>
<path opacity="0.6" d="M305.327 360.5V362.5" stroke="#15D6FF" stroke-linecap="square"/>
<path opacity="0.6" d="M307.189 360.5V362.5" stroke="#15D6FF" stroke-linecap="square"/>
<path opacity="0.6" d="M309.051 360.5V362.5" stroke="#15D6FF" stroke-linecap="square"/>
<path opacity="0.6" d="M310.912 360.5V362.5" stroke="#15D6FF" stroke-linecap="square"/>
<path opacity="0.6" d="M312.774 360.5V362.5" stroke="#15D6FF" stroke-linecap="square"/>
<path opacity="0.6" d="M314.636 360.5V362.5" stroke="#15D6FF" stroke-linecap="square"/>
<path opacity="0.6" d="M316.498 360.5V362.5" stroke="#15D6FF" stroke-linecap="square"/>
<path opacity="0.6" d="M318.359 360.5V362.5" stroke="#15D6FF" stroke-linecap="square"/>
<path opacity="0.6" d="M320.221 360.5V362.5" stroke="#15D6FF" stroke-linecap="square"/>
<path opacity="0.6" d="M322.083 360.5V362.5" stroke="#15D6FF" stroke-linecap="square"/>
<path opacity="0.6" d="M323.945 360.5V362.5" stroke="#15D6FF" stroke-linecap="square"/>
<path opacity="0.6" d="M325.806 360.5V362.5" stroke="#15D6FF" stroke-linecap="square"/>
<path opacity="0.6" d="M327.668 360.5V362.5" stroke="#15D6FF" stroke-linecap="square"/>
<path opacity="0.6" d="M329.53 360.5V362.5" stroke="#15D6FF" stroke-linecap="square"/>
<path opacity="0.6" d="M331.392 360.5V362.5" stroke="#15D6FF" stroke-linecap="square"/>
<path opacity="0.6" d="M333.253 360.5V362.5" stroke="#15D6FF" stroke-linecap="square"/>
<path opacity="0.6" d="M335.115 360.5V362.5" stroke="#15D6FF" stroke-linecap="square"/>
<path opacity="0.6" d="M336.977 360.5V362.5" stroke="#15D6FF" stroke-linecap="square"/>
<path opacity="0.6" d="M338.839 360.5V362.5" stroke="#15D6FF" stroke-linecap="square"/>
<path opacity="0.6" d="M340.7 360.5V362.5" stroke="#15D6FF" stroke-linecap="square"/>
<path opacity="0.6" d="M342.562 360.5V362.5" stroke="#15D6FF" stroke-linecap="square"/>
<path opacity="0.6" d="M344.424 360.5V362.5" stroke="#15D6FF" stroke-linecap="square"/>
<path opacity="0.6" d="M346.286 360.5V362.5" stroke="#15D6FF" stroke-linecap="square"/>
<path opacity="0.6" d="M348.147 360.5V362.5" stroke="#15D6FF" stroke-linecap="square"/>
<path opacity="0.6" d="M350.009 360.5V362.5" stroke="#15D6FF" stroke-linecap="square"/>
<path opacity="0.6" d="M351.871 360.5V362.5" stroke="#15D6FF" stroke-linecap="square"/>
<path opacity="0.6" d="M353.733 360.5V362.5" stroke="#15D6FF" stroke-linecap="square"/>
<path opacity="0.6" d="M355.594 360.5V362.5" stroke="#15D6FF" stroke-linecap="square"/>
<path opacity="0.6" d="M357.456 360.5V362.5" stroke="#15D6FF" stroke-linecap="square"/>
<path opacity="0.6" d="M359.318 360.5V362.5" stroke="#15D6FF" stroke-linecap="square"/>
<path opacity="0.6" d="M361.18 360.5V362.5" stroke="#15D6FF" stroke-linecap="square"/>
<path opacity="0.6" d="M363.042 360.5V362.5" stroke="#15D6FF" stroke-linecap="square"/>
<path opacity="0.6" d="M364.903 360.5V362.5" stroke="#15D6FF" stroke-linecap="square"/>
<path opacity="0.6" d="M366.765 360.5V362.5" stroke="#15D6FF" stroke-linecap="square"/>
<path opacity="0.6" d="M368.627 360.5V362.5" stroke="#15D6FF" stroke-linecap="square"/>
<path opacity="0.6" d="M370.489 360.5V362.5" stroke="#15D6FF" stroke-linecap="square"/>
<path opacity="0.6" d="M372.35 360.5V362.5" stroke="#15D6FF" stroke-linecap="square"/>
<path opacity="0.6" d="M374.212 360.5V362.5" stroke="#15D6FF" stroke-linecap="square"/>
<path opacity="0.6" d="M376.074 360.5V362.5" stroke="#15D6FF" stroke-linecap="square"/>
<path opacity="0.6" d="M377.936 360.5V362.5" stroke="#15D6FF" stroke-linecap="square"/>
<path opacity="0.6" d="M379.797 360.5V362.5" stroke="#15D6FF" stroke-linecap="square"/>
<path opacity="0.6" d="M381.659 360.5V362.5" stroke="#15D6FF" stroke-linecap="square"/>
<path opacity="0.6" d="M383.521 360.5V362.5" stroke="#15D6FF" stroke-linecap="square"/>
<path opacity="0.6" d="M385.383 360.5V362.5" stroke="#15D6FF" stroke-linecap="square"/>
<path opacity="0.6" d="M387.244 360.5V362.5" stroke="#15D6FF" stroke-linecap="square"/>
<path opacity="0.6" d="M389.106 360.5V362.5" stroke="#15D6FF" stroke-linecap="square"/>
<path opacity="0.6" d="M390.968 360.5V362.5" stroke="#15D6FF" stroke-linecap="square"/>
<path opacity="0.6" d="M392.83 360.5V362.5" stroke="#15D6FF" stroke-linecap="square"/>
<path opacity="0.6" d="M394.691 360.5V362.5" stroke="#15D6FF" stroke-linecap="square"/>
<path opacity="0.6" d="M396.553 360.5V362.5" stroke="#15D6FF" stroke-linecap="square"/>
<path opacity="0.6" d="M398.415 360.5V362.5" stroke="#15D6FF" stroke-linecap="square"/>
<path opacity="0.6" d="M400.276 360.5V362.5" stroke="#15D6FF" stroke-linecap="square"/>
<path opacity="0.6" d="M402.138 360.5V362.5" stroke="#15D6FF" stroke-linecap="square"/>
<path opacity="0.6" d="M404 360.5V362.5" stroke="#15D6FF" stroke-linecap="square"/>
<path opacity="0.6" d="M405.862 360.5V362.5" stroke="#15D6FF" stroke-linecap="square"/>
<path opacity="0.6" d="M407.724 360.5V362.5" stroke="#15D6FF" stroke-linecap="square"/>
<path opacity="0.6" d="M409.585 360.5V362.5" stroke="#15D6FF" stroke-linecap="square"/>
<path opacity="0.6" d="M411.447 360.5V362.5" stroke="#15D6FF" stroke-linecap="square"/>
<path opacity="0.6" d="M413.309 360.5V362.5" stroke="#15D6FF" stroke-linecap="square"/>
<path opacity="0.6" d="M415.17 360.5V362.5" stroke="#15D6FF" stroke-linecap="square"/>
<path opacity="0.6" d="M417.032 360.5V362.5" stroke="#15D6FF" stroke-linecap="square"/>
<path opacity="0.6" d="M418.894 360.5V362.5" stroke="#15D6FF" stroke-linecap="square"/>
<path opacity="0.6" d="M420.756 360.5V362.5" stroke="#15D6FF" stroke-linecap="square"/>
<path opacity="0.6" d="M422.617 360.5V362.5" stroke="#15D6FF" stroke-linecap="square"/>
<path opacity="0.6" d="M424.479 360.5V362.5" stroke="#15D6FF" stroke-linecap="square"/>
<path opacity="0.6" d="M426.341 360.5V362.5" stroke="#15D6FF" stroke-linecap="square"/>
<path opacity="0.6" d="M428.203 360.5V362.5" stroke="#15D6FF" stroke-linecap="square"/>
<path opacity="0.6" d="M430.064 360.5V362.5" stroke="#15D6FF" stroke-linecap="square"/>
<path opacity="0.6" d="M431.926 360.5V362.5" stroke="#15D6FF" stroke-linecap="square"/>
<path opacity="0.6" d="M433.788 360.5V362.5" stroke="#15D6FF" stroke-linecap="square"/>
<path opacity="0.6" d="M435.65 360.5V362.5" stroke="#15D6FF" stroke-linecap="square"/>
<path opacity="0.6" d="M437.511 360.5V362.5" stroke="#15D6FF" stroke-linecap="square"/>
<path opacity="0.6" d="M439.373 360.5V362.5" stroke="#15D6FF" stroke-linecap="square"/>
<path opacity="0.6" d="M441.235 360.5V362.5" stroke="#15D6FF" stroke-linecap="square"/>
<path opacity="0.6" d="M443.097 360.5V362.5" stroke="#15D6FF" stroke-linecap="square"/>
<path opacity="0.6" d="M444.958 360.5V362.5" stroke="#15D6FF" stroke-linecap="square"/>
<path opacity="0.6" d="M446.82 360.5V362.5" stroke="#15D6FF" stroke-linecap="square"/>
<path opacity="0.6" d="M448.682 360.5V362.5" stroke="#15D6FF" stroke-linecap="square"/>
<path opacity="0.6" d="M450.544 360.5V362.5" stroke="#15D6FF" stroke-linecap="square"/>
<path opacity="0.6" d="M452.406 360.5V362.5" stroke="#15D6FF" stroke-linecap="square"/>
<path opacity="0.6" d="M454.267 360.5V362.5" stroke="#15D6FF" stroke-linecap="square"/>
<path opacity="0.6" d="M456.129 360.5V362.5" stroke="#15D6FF" stroke-linecap="square"/>
<path opacity="0.6" d="M457.991 360.5V362.5" stroke="#15D6FF" stroke-linecap="square"/>
<path opacity="0.6" d="M459.853 360.5V362.5" stroke="#15D6FF" stroke-linecap="square"/>
<path opacity="0.6" d="M461.714 360.5V362.5" stroke="#15D6FF" stroke-linecap="square"/>
<path opacity="0.6" d="M463.576 360.5V362.5" stroke="#15D6FF" stroke-linecap="square"/>
<path opacity="0.6" d="M465.438 360.5V362.5" stroke="#15D6FF" stroke-linecap="square"/>
<path opacity="0.6" d="M467.3 360.5V362.5" stroke="#15D6FF" stroke-linecap="square"/>
<path opacity="0.6" d="M469.161 360.5V362.5" stroke="#15D6FF" stroke-linecap="square"/>
<path opacity="0.6" d="M471.023 360.5V362.5" stroke="#15D6FF" stroke-linecap="square"/>
<path opacity="0.6" d="M472.885 360.5V362.5" stroke="#15D6FF" stroke-linecap="square"/>
<path opacity="0.6" d="M474.747 360.5V362.5" stroke="#15D6FF" stroke-linecap="square"/>
<path opacity="0.6" d="M476.608 360.5V362.5" stroke="#15D6FF" stroke-linecap="square"/>
<path opacity="0.6" d="M478.47 360.5V362.5" stroke="#15D6FF" stroke-linecap="square"/>
<path opacity="0.6" d="M480.332 360.5V362.5" stroke="#15D6FF" stroke-linecap="square"/>
<path opacity="0.6" d="M482.194 360.5V362.5" stroke="#15D6FF" stroke-linecap="square"/>
<path opacity="0.6" d="M484.055 360.5V362.5" stroke="#15D6FF" stroke-linecap="square"/>
<path opacity="0.6" d="M485.917 360.5V362.5" stroke="#15D6FF" stroke-linecap="square"/>
<path opacity="0.6" d="M487.779 360.5V362.5" stroke="#15D6FF" stroke-linecap="square"/>
<path opacity="0.6" d="M489.641 360.5V362.5" stroke="#15D6FF" stroke-linecap="square"/>
<path opacity="0.6" d="M491.502 360.5V362.5" stroke="#15D6FF" stroke-linecap="square"/>
<path opacity="0.6" d="M493.364 360.5V362.5" stroke="#15D6FF" stroke-linecap="square"/>
<path opacity="0.6" d="M495.226 360.5V362.5" stroke="#15D6FF" stroke-linecap="square"/>
<path opacity="0.6" d="M497.088 360.5V362.5" stroke="#15D6FF" stroke-linecap="square"/>
<path opacity="0.6" d="M498.949 360.5V362.5" stroke="#15D6FF" stroke-linecap="square"/>
<path opacity="0.6" d="M500.811 360.5V362.5" stroke="#15D6FF" stroke-linecap="square"/>
<path opacity="0.6" d="M502.673 360.5V362.5" stroke="#15D6FF" stroke-linecap="square"/>
<path opacity="0.6" d="M504.535 360.5V362.5" stroke="#15D6FF" stroke-linecap="square"/>
<path opacity="0.6" d="M506.396 360.5V362.5" stroke="#15D6FF" stroke-linecap="square"/>
<path opacity="0.6" d="M508.258 360.5V362.5" stroke="#15D6FF" stroke-linecap="square"/>
<path opacity="0.6" d="M510.12 360.5V362.5" stroke="#15D6FF" stroke-linecap="square"/>
<path opacity="0.6" d="M511.981 360.5V362.5" stroke="#15D6FF" stroke-linecap="square"/>
<path opacity="0.6" d="M513.843 360.5V362.5" stroke="#15D6FF" stroke-linecap="square"/>
<path opacity="0.6" d="M515.705 360.5V362.5" stroke="#15D6FF" stroke-linecap="square"/>
<path opacity="0.6" d="M517.567 360.5V362.5" stroke="#15D6FF" stroke-linecap="square"/>
<path opacity="0.6" d="M519.429 360.5V362.5" stroke="#15D6FF" stroke-linecap="square"/>
<path opacity="0.6" d="M521.29 360.5V362.5" stroke="#15D6FF" stroke-linecap="square"/>
<path opacity="0.6" d="M523.152 360.5V362.5" stroke="#15D6FF" stroke-linecap="square"/>
<path opacity="0.6" d="M525.014 360.5V362.5" stroke="#15D6FF" stroke-linecap="square"/>
<path opacity="0.6" d="M526.875 360.5V362.5" stroke="#15D6FF" stroke-linecap="square"/>
<path opacity="0.6" d="M528.737 360.5V362.5" stroke="#15D6FF" stroke-linecap="square"/>
<path opacity="0.6" d="M530.599 360.5V362.5" stroke="#15D6FF" stroke-linecap="square"/>
<path opacity="0.6" d="M532.461 360.5V362.5" stroke="#15D6FF" stroke-linecap="square"/>
<path opacity="0.6" d="M534.323 360.5V362.5" stroke="#15D6FF" stroke-linecap="square"/>
<path opacity="0.6" d="M536.184 360.5V362.5" stroke="#15D6FF" stroke-linecap="square"/>
<path opacity="0.6" d="M538.046 360.5V362.5" stroke="#15D6FF" stroke-linecap="square"/>
<path opacity="0.6" d="M539.908 360.5V362.5" stroke="#15D6FF" stroke-linecap="square"/>
<path opacity="0.6" d="M541.77 360.5V362.5" stroke="#15D6FF" stroke-linecap="square"/>
<path opacity="0.6" d="M543.631 360.5V362.5" stroke="#15D6FF" stroke-linecap="square"/>
<path opacity="0.6" d="M545.493 360.5V362.5" stroke="#15D6FF" stroke-linecap="square"/>
<path opacity="0.6" d="M547.355 360.5V362.5" stroke="#15D6FF" stroke-linecap="square"/>
<path opacity="0.6" d="M549.217 360.5V362.5" stroke="#15D6FF" stroke-linecap="square"/>
<path opacity="0.6" d="M551.078 360.5V362.5" stroke="#15D6FF" stroke-linecap="square"/>
<path opacity="0.6" d="M552.94 360.5V362.5" stroke="#15D6FF" stroke-linecap="square"/>
<path opacity="0.6" d="M554.802 360.5V362.5" stroke="#15D6FF" stroke-linecap="square"/>
<path opacity="0.6" d="M556.664 360.5V362.5" stroke="#15D6FF" stroke-linecap="square"/>
<path opacity="0.6" d="M558.525 360.5V362.5" stroke="#15D6FF" stroke-linecap="square"/>
<path opacity="0.6" d="M560.387 360.5V362.5" stroke="#15D6FF" stroke-linecap="square"/>
<path opacity="0.6" d="M562.249 360.5V362.5" stroke="#15D6FF" stroke-linecap="square"/>
<path opacity="0.6" d="M564.111 360.5V362.5" stroke="#15D6FF" stroke-linecap="square"/>
<path opacity="0.6" d="M565.972 360.5V362.5" stroke="#15D6FF" stroke-linecap="square"/>
<path opacity="0.6" d="M567.834 360.5V362.5" stroke="#15D6FF" stroke-linecap="square"/>
<path opacity="0.6" d="M569.696 360.5V362.5" stroke="#15D6FF" stroke-linecap="square"/>
<path opacity="0.6" d="M571.558 360.5V362.5" stroke="#15D6FF" stroke-linecap="square"/>
<path opacity="0.6" d="M573.419 360.5V362.5" stroke="#15D6FF" stroke-linecap="square"/>
<path opacity="0.6" d="M575.281 360.5V362.5" stroke="#15D6FF" stroke-linecap="square"/>
<path opacity="0.6" d="M577.143 360.5V362.5" stroke="#15D6FF" stroke-linecap="square"/>
<path opacity="0.6" d="M579.005 360.5V362.5" stroke="#15D6FF" stroke-linecap="square"/>
<path opacity="0.6" d="M580.866 360.5V362.5" stroke="#15D6FF" stroke-linecap="square"/>
<path opacity="0.6" d="M582.728 360.5V362.5" stroke="#15D6FF" stroke-linecap="square"/>
<path opacity="0.6" d="M584.59 360.5V362.5" stroke="#15D6FF" stroke-linecap="square"/>
<path opacity="0.6" d="M586.452 360.5V362.5" stroke="#15D6FF" stroke-linecap="square"/>
<path opacity="0.6" d="M588.313 360.5V362.5" stroke="#15D6FF" stroke-linecap="square"/>
<path opacity="0.6" d="M590.175 360.5V362.5" stroke="#15D6FF" stroke-linecap="square"/>
<path opacity="0.6" d="M592.037 360.5V362.5" stroke="#15D6FF" stroke-linecap="square"/>
<path opacity="0.6" d="M593.899 360.5V362.5" stroke="#15D6FF" stroke-linecap="square"/>
<path opacity="0.6" d="M595.76 360.5V362.5" stroke="#15D6FF" stroke-linecap="square"/>
<path opacity="0.6" d="M597.622 360.5V362.5" stroke="#15D6FF" stroke-linecap="square"/>
<path opacity="0.6" d="M599.484 360.5V362.5" stroke="#15D6FF" stroke-linecap="square"/>
<path opacity="0.6" d="M601.346 360.5V362.5" stroke="#15D6FF" stroke-linecap="square"/>
<path opacity="0.6" d="M603.208 360.5V362.5" stroke="#15D6FF" stroke-linecap="square"/>
<path opacity="0.6" d="M605.069 360.5V362.5" stroke="#15D6FF" stroke-linecap="square"/>
<path d="M0 360.5V365.5" stroke="#15D6FF" stroke-linecap="square"/>
<path d="M-12.5225 375.5H-14.7668V368.227H-12.423C-11.7175 368.227 -11.1138 368.373 -10.6119 368.664C-10.1101 368.953 -9.72535 369.368 -9.45783 369.911C-9.19031 370.45 -9.05655 371.097 -9.05655 371.849C-9.05655 372.607 -9.19149 373.259 -9.46138 373.806C-9.73127 374.351 -10.1243 374.77 -10.6404 375.063C-11.1565 375.354 -11.7838 375.5 -12.5225 375.5ZM-13.8861 374.719H-12.5793C-11.978 374.719 -11.4796 374.603 -11.0843 374.371C-10.6889 374.139 -10.3941 373.808 -10.2 373.38C-10.0059 372.951 -9.90882 372.441 -9.90882 371.849C-9.90882 371.262 -10.0047 370.757 -10.1965 370.333C-10.3882 369.907 -10.6747 369.58 -11.0558 369.353C-11.437 369.123 -11.9117 369.009 -12.4798 369.009H-13.8861V374.719ZM-5.40598 375.614C-5.93155 375.614 -6.38491 375.498 -6.76607 375.266C-7.14486 375.031 -7.43723 374.705 -7.6432 374.286C-7.8468 373.864 -7.9486 373.374 -7.9486 372.815C-7.9486 372.257 -7.8468 371.764 -7.6432 371.338C-7.43723 370.91 -7.15078 370.576 -6.78382 370.337C-6.41451 370.095 -5.98364 369.974 -5.49121 369.974C-5.20712 369.974 -4.92658 370.022 -4.64959 370.116C-4.3726 370.211 -4.12047 370.365 -3.8932 370.578C-3.66593 370.789 -3.48482 371.068 -3.34988 371.416C-3.21493 371.764 -3.14746 372.193 -3.14746 372.702V373.057H-7.35201V372.332H-3.99973C-3.99973 372.025 -4.06129 371.75 -4.18439 371.509C-4.30513 371.267 -4.47795 371.076 -4.70286 370.937C-4.9254 370.797 -5.18818 370.727 -5.49121 370.727C-5.82502 370.727 -6.11384 370.81 -6.35769 370.976C-6.59917 371.139 -6.78501 371.352 -6.91522 371.615C-7.04542 371.878 -7.11053 372.16 -7.11053 372.46V372.943C-7.11053 373.355 -7.03951 373.704 -6.89746 373.991C-6.75305 374.275 -6.553 374.491 -6.29732 374.641C-6.04164 374.787 -5.74453 374.861 -5.40598 374.861C-5.18581 374.861 -4.98695 374.83 -4.80939 374.768C-4.62947 374.705 -4.4744 374.61 -4.34419 374.484C-4.21399 374.357 -4.11337 374.198 -4.04235 374.009L-3.23269 374.236C-3.31792 374.51 -3.46114 374.752 -3.66238 374.96C-3.86361 375.166 -4.11219 375.327 -4.40811 375.443C-4.70404 375.557 -5.03667 375.614 -5.40598 375.614ZM0.343306 375.614C-0.168057 375.614 -0.608398 375.493 -0.977717 375.251C-1.34703 375.01 -1.63113 374.677 -1.82999 374.254C-2.02885 373.83 -2.12828 373.346 -2.12828 372.801C-2.12828 372.247 -2.02649 371.758 -1.82289 371.335C-1.61692 370.908 -1.33046 370.576 -0.963512 370.337C-0.594194 370.095 -0.163323 369.974 0.329102 369.974C0.712624 369.974 1.05827 370.045 1.36603 370.188C1.6738 370.33 1.92593 370.528 2.12243 370.784C2.31892 371.04 2.44084 371.338 2.48819 371.679H1.65012C1.5862 371.43 1.44416 371.21 1.22399 371.018C1.00618 370.824 0.712624 370.727 0.343306 370.727C0.0166017 370.727 -0.269857 370.812 -0.516069 370.983C-0.759914 371.151 -0.950491 371.389 -1.0878 371.697C-1.22275 372.002 -1.29022 372.361 -1.29022 372.773C-1.29022 373.194 -1.22393 373.561 -1.09135 373.874C-0.95641 374.186 -0.767016 374.429 -0.523171 374.602C-0.276959 374.774 0.0118668 374.861 0.343306 374.861C0.561109 374.861 0.758789 374.823 0.936346 374.747C1.1139 374.671 1.26423 374.562 1.38734 374.42C1.51045 374.278 1.59804 374.108 1.65012 373.909H2.48819C2.44084 374.231 2.32366 374.521 2.13663 374.779C1.95197 375.035 1.70694 375.238 1.40154 375.39C1.09851 375.539 0.745768 375.614 0.343306 375.614ZM9.06845 368.227V375.5H8.18777V369.151H8.14515L6.36958 370.33V369.435L8.18777 368.227H9.06845ZM13.5748 375.599C13.2765 375.595 12.9782 375.538 12.68 375.429C12.3817 375.32 12.1094 375.137 11.8632 374.879C11.617 374.618 11.4193 374.267 11.2702 373.824C11.121 373.379 11.0464 372.82 11.0464 372.148C11.0464 371.504 11.1068 370.933 11.2275 370.436C11.3483 369.937 11.5235 369.516 11.7531 369.175C11.9827 368.832 12.2597 368.572 12.5841 368.394C12.9108 368.217 13.2789 368.128 13.6885 368.128C14.0957 368.128 14.4579 368.21 14.7751 368.373C15.0947 368.534 15.3551 368.759 15.5564 369.048C15.7576 369.336 15.8878 369.669 15.947 370.045H15.0805C15 369.719 14.8438 369.448 14.6118 369.232C14.3798 369.017 14.072 368.909 13.6885 368.909C13.125 368.909 12.6811 369.154 12.3568 369.644C12.0348 370.134 11.8727 370.822 11.8703 371.707H11.9271C12.0597 371.506 12.2171 371.335 12.3994 371.192C12.5841 371.048 12.7877 370.937 13.0102 370.859C13.2327 370.781 13.4683 370.741 13.7169 370.741C14.1336 370.741 14.5147 370.846 14.8604 371.054C15.206 371.26 15.483 371.545 15.6913 371.91C15.8997 372.272 16.0038 372.688 16.0038 373.156C16.0038 373.606 15.9032 374.018 15.702 374.392C15.5007 374.764 15.2178 375.06 14.8532 375.28C14.491 375.498 14.0649 375.604 13.5748 375.599ZM13.5748 374.818C13.8731 374.818 14.1407 374.744 14.3774 374.594C14.6165 374.445 14.8047 374.245 14.942 373.994C15.0817 373.743 15.1515 373.464 15.1515 373.156C15.1515 372.856 15.0841 372.582 14.9491 372.336C14.8166 372.087 14.6331 371.89 14.3987 371.743C14.1667 371.596 13.9015 371.523 13.6032 371.523C13.3783 371.523 13.1688 371.568 12.9747 371.658C12.7806 371.745 12.6101 371.866 12.4633 372.02C12.3189 372.174 12.2053 372.35 12.1224 372.549C12.0396 372.746 11.9981 372.953 11.9981 373.17C11.9981 373.459 12.0656 373.729 12.2006 373.98C12.3379 374.231 12.5249 374.433 12.7616 374.587C13.0007 374.741 13.2718 374.818 13.5748 374.818Z" fill="#15D6FF"/>
<path d="M134.047 360.5V365.5" stroke="#15D6FF" stroke-linecap="square"/>
<path d="M120.95 368.227H122.001L124.473 374.264H124.558L127.03 368.227H128.081V375.5H127.257V369.974H127.186L124.913 375.5H124.118L121.845 369.974H121.774V375.5H120.95V368.227ZM131.338 375.628C130.992 375.628 130.679 375.563 130.397 375.433C130.115 375.3 129.891 375.109 129.726 374.861C129.56 374.61 129.477 374.307 129.477 373.952C129.477 373.639 129.539 373.386 129.662 373.192C129.785 372.995 129.949 372.841 130.155 372.73C130.361 372.619 130.589 372.536 130.837 372.482C131.088 372.425 131.34 372.38 131.594 372.347C131.925 372.304 132.194 372.272 132.4 372.251C132.608 372.227 132.76 372.188 132.854 372.134C132.951 372.079 133 371.984 133 371.849V371.821C133 371.471 132.904 371.198 132.712 371.004C132.523 370.81 132.235 370.713 131.849 370.713C131.449 370.713 131.136 370.801 130.908 370.976C130.681 371.151 130.521 371.338 130.429 371.537L129.633 371.253C129.775 370.921 129.965 370.663 130.202 370.479C130.441 370.292 130.701 370.161 130.983 370.088C131.267 370.012 131.546 369.974 131.821 369.974C131.996 369.974 132.197 369.996 132.425 370.038C132.654 370.079 132.876 370.163 133.089 370.29C133.304 370.418 133.483 370.611 133.625 370.869C133.767 371.127 133.838 371.473 133.838 371.906V375.5H133V374.761H132.957C132.9 374.88 132.806 375.006 132.673 375.141C132.541 375.276 132.364 375.391 132.144 375.486C131.924 375.58 131.655 375.628 131.338 375.628ZM131.466 374.875C131.797 374.875 132.077 374.81 132.304 374.68C132.534 374.549 132.706 374.381 132.822 374.175C132.941 373.969 133 373.753 133 373.526V372.759C132.964 372.801 132.886 372.84 132.766 372.876C132.647 372.909 132.51 372.938 132.354 372.964C132.2 372.988 132.049 373.009 131.903 373.028C131.758 373.045 131.641 373.059 131.551 373.071C131.333 373.099 131.13 373.146 130.94 373.21C130.753 373.271 130.602 373.365 130.486 373.49C130.372 373.613 130.315 373.781 130.315 373.994C130.315 374.286 130.423 374.506 130.638 374.655C130.856 374.802 131.132 374.875 131.466 374.875ZM135.712 377.545C135.57 377.545 135.443 377.534 135.332 377.51C135.221 377.489 135.144 377.467 135.101 377.446L135.314 376.707C135.518 376.759 135.698 376.778 135.854 376.764C136.01 376.75 136.149 376.68 136.27 376.555C136.393 376.432 136.505 376.232 136.607 375.955L136.763 375.528L134.746 370.045H135.655L137.161 374.392H137.218L138.723 370.045H139.633L137.317 376.295C137.213 376.577 137.084 376.81 136.93 376.995C136.776 377.182 136.598 377.321 136.394 377.411C136.193 377.5 135.965 377.545 135.712 377.545ZM145.852 368.128C146.151 368.13 146.449 368.187 146.747 368.298C147.046 368.41 147.318 368.594 147.564 368.852C147.81 369.108 148.008 369.457 148.157 369.9C148.306 370.343 148.381 370.898 148.381 371.565C148.381 372.212 148.319 372.786 148.196 373.288C148.075 373.787 147.9 374.209 147.671 374.552C147.443 374.895 147.166 375.156 146.84 375.333C146.515 375.511 146.148 375.599 145.739 375.599C145.332 375.599 144.968 375.519 144.649 375.358C144.331 375.195 144.071 374.969 143.867 374.68C143.666 374.388 143.537 374.051 143.48 373.668H144.347C144.425 374.001 144.58 374.277 144.812 374.495C145.046 374.71 145.355 374.818 145.739 374.818C146.3 374.818 146.743 374.573 147.067 374.083C147.394 373.593 147.557 372.901 147.557 372.006H147.5C147.368 372.205 147.21 372.376 147.028 372.521C146.845 372.665 146.643 372.776 146.421 372.854C146.198 372.933 145.961 372.972 145.71 372.972C145.294 372.972 144.911 372.869 144.563 372.663C144.218 372.454 143.941 372.169 143.732 371.807C143.526 371.442 143.423 371.026 143.423 370.557C143.423 370.112 143.523 369.705 143.722 369.335C143.923 368.964 144.205 368.668 144.567 368.447C144.931 368.227 145.36 368.121 145.852 368.128ZM145.852 368.909C145.554 368.909 145.285 368.984 145.046 369.133C144.81 369.28 144.621 369.478 144.482 369.729C144.344 369.978 144.276 370.254 144.276 370.557C144.276 370.86 144.342 371.136 144.475 371.384C144.609 371.63 144.793 371.827 145.025 371.974C145.259 372.118 145.526 372.19 145.824 372.19C146.049 372.19 146.258 372.147 146.453 372.059C146.647 371.969 146.816 371.847 146.96 371.693C147.107 371.537 147.222 371.361 147.305 371.164C147.388 370.965 147.429 370.758 147.429 370.543C147.429 370.259 147.36 369.992 147.223 369.744C147.088 369.495 146.901 369.294 146.662 369.14C146.425 368.986 146.155 368.909 145.852 368.909Z" fill="#15D6FF"/>
<path d="M251.336 360.5V365.5" stroke="#15D6FF" stroke-linecap="square"/>
<path d="M240.291 370.045C240.248 369.686 240.075 369.406 239.772 369.207C239.469 369.009 239.097 368.909 238.657 368.909C238.335 368.909 238.053 368.961 237.812 369.065C237.573 369.17 237.386 369.313 237.251 369.495C237.118 369.677 237.052 369.884 237.052 370.116C237.052 370.311 237.098 370.478 237.19 370.617C237.285 370.754 237.406 370.869 237.553 370.962C237.699 371.052 237.853 371.126 238.014 371.185C238.175 371.242 238.323 371.288 238.458 371.324L239.197 371.523C239.386 371.572 239.597 371.641 239.829 371.729C240.063 371.816 240.287 371.936 240.5 372.087C240.716 372.237 240.893 372.428 241.033 372.663C241.172 372.897 241.242 373.185 241.242 373.526C241.242 373.919 241.139 374.274 240.933 374.591C240.73 374.908 240.431 375.16 240.038 375.347C239.648 375.534 239.173 375.628 238.614 375.628C238.094 375.628 237.643 375.544 237.261 375.376C236.883 375.208 236.584 374.973 236.367 374.673C236.151 374.372 236.029 374.023 236.001 373.625H236.91C236.934 373.9 237.026 374.127 237.187 374.307C237.35 374.484 237.556 374.617 237.805 374.705C238.056 374.79 238.326 374.832 238.614 374.832C238.951 374.832 239.252 374.778 239.52 374.669C239.787 374.558 239.999 374.404 240.156 374.207C240.312 374.009 240.39 373.777 240.39 373.511C240.39 373.27 240.323 373.073 240.188 372.922C240.053 372.77 239.875 372.647 239.655 372.553C239.435 372.458 239.197 372.375 238.941 372.304L238.046 372.048C237.478 371.885 237.028 371.652 236.697 371.349C236.365 371.046 236.2 370.649 236.2 370.159C236.2 369.752 236.31 369.397 236.53 369.094C236.752 368.788 237.051 368.552 237.425 368.384C237.801 368.213 238.221 368.128 238.685 368.128C239.154 368.128 239.571 368.212 239.935 368.38C240.3 368.546 240.589 368.773 240.802 369.062C241.017 369.351 241.131 369.679 241.143 370.045H240.291ZM244.864 375.614C244.338 375.614 243.885 375.498 243.503 375.266C243.125 375.031 242.832 374.705 242.626 374.286C242.423 373.864 242.321 373.374 242.321 372.815C242.321 372.257 242.423 371.764 242.626 371.338C242.832 370.91 243.119 370.576 243.486 370.337C243.855 370.095 244.286 369.974 244.778 369.974C245.062 369.974 245.343 370.022 245.62 370.116C245.897 370.211 246.149 370.365 246.376 370.578C246.604 370.789 246.785 371.068 246.92 371.416C247.055 371.764 247.122 372.193 247.122 372.702V373.057H242.918V372.332H246.27C246.27 372.025 246.208 371.75 246.085 371.509C245.964 371.267 245.792 371.076 245.567 370.937C245.344 370.797 245.081 370.727 244.778 370.727C244.445 370.727 244.156 370.81 243.912 370.976C243.67 371.139 243.485 371.352 243.354 371.615C243.224 371.878 243.159 372.16 243.159 372.46V372.943C243.159 373.355 243.23 373.704 243.372 373.991C243.516 374.275 243.717 374.491 243.972 374.641C244.228 374.787 244.525 374.861 244.864 374.861C245.084 374.861 245.283 374.83 245.46 374.768C245.64 374.705 245.795 374.61 245.925 374.484C246.056 374.357 246.156 374.198 246.227 374.009L247.037 374.236C246.952 374.51 246.808 374.752 246.607 374.96C246.406 375.166 246.157 375.327 245.861 375.443C245.565 375.557 245.233 375.614 244.864 375.614ZM248.397 377.545V370.045H249.207V370.912H249.306C249.368 370.817 249.453 370.696 249.562 370.55C249.673 370.401 249.832 370.268 250.038 370.152C250.246 370.034 250.528 369.974 250.883 369.974C251.342 369.974 251.747 370.089 252.097 370.319C252.448 370.549 252.721 370.874 252.918 371.295C253.114 371.717 253.212 372.214 253.212 372.787C253.212 373.365 253.114 373.865 252.918 374.289C252.721 374.71 252.449 375.037 252.101 375.269C251.753 375.499 251.351 375.614 250.897 375.614C250.547 375.614 250.266 375.556 250.055 375.44C249.845 375.321 249.682 375.187 249.569 375.038C249.455 374.887 249.368 374.761 249.306 374.662H249.235V377.545H248.397ZM249.221 372.773C249.221 373.185 249.281 373.548 249.402 373.863C249.523 374.175 249.699 374.42 249.931 374.598C250.163 374.773 250.447 374.861 250.783 374.861C251.134 374.861 251.426 374.768 251.66 374.584C251.897 374.397 252.075 374.146 252.193 373.831C252.314 373.514 252.374 373.161 252.374 372.773C252.374 372.389 252.315 372.044 252.197 371.736C252.081 371.426 251.904 371.181 251.668 371.001C251.433 370.818 251.138 370.727 250.783 370.727C250.442 370.727 250.156 370.814 249.924 370.987C249.692 371.157 249.517 371.396 249.398 371.704C249.28 372.009 249.221 372.366 249.221 372.773ZM259.846 368.227V375.5H258.965V369.151H258.922L257.147 370.33V369.435L258.965 368.227H259.846ZM261.937 375.5V374.861L264.338 372.233C264.62 371.925 264.852 371.658 265.034 371.43C265.216 371.201 265.351 370.985 265.439 370.784C265.529 370.58 265.574 370.367 265.574 370.145C265.574 369.889 265.512 369.668 265.389 369.481C265.268 369.294 265.103 369.149 264.892 369.048C264.681 368.946 264.445 368.895 264.182 368.895C263.902 368.895 263.659 368.953 263.45 369.069C263.244 369.183 263.084 369.342 262.971 369.548C262.86 369.754 262.804 369.996 262.804 370.273H261.966C261.966 369.847 262.064 369.473 262.261 369.151C262.457 368.829 262.725 368.578 263.063 368.398C263.404 368.218 263.786 368.128 264.21 368.128C264.636 368.128 265.014 368.218 265.343 368.398C265.672 368.578 265.93 368.82 266.117 369.126C266.304 369.431 266.398 369.771 266.398 370.145C266.398 370.412 266.349 370.674 266.252 370.93C266.157 371.183 265.992 371.466 265.755 371.778C265.521 372.089 265.195 372.467 264.778 372.915L263.145 374.662V374.719H266.525V375.5H261.937Z" fill="#15D6FF"/>
<path d="M368.627 360.5V365.5" stroke="#15D6FF" stroke-linecap="square"/>
<path d="M357.484 368.227H358.365V373.426C358.365 373.89 358.28 374.284 358.109 374.609C357.939 374.933 357.698 375.179 357.388 375.347C357.078 375.515 356.712 375.599 356.291 375.599C355.893 375.599 355.539 375.527 355.229 375.383C354.919 375.236 354.675 375.028 354.498 374.758C354.32 374.488 354.231 374.167 354.231 373.795H355.098C355.098 374.001 355.149 374.181 355.25 374.335C355.355 374.487 355.497 374.605 355.677 374.69C355.857 374.776 356.061 374.818 356.291 374.818C356.544 374.818 356.76 374.765 356.937 374.658C357.115 374.552 357.25 374.396 357.342 374.19C357.437 373.981 357.484 373.727 357.484 373.426V368.227ZM361.621 375.628C361.276 375.628 360.962 375.563 360.68 375.433C360.398 375.3 360.175 375.109 360.009 374.861C359.843 374.61 359.76 374.307 359.76 373.952C359.76 373.639 359.822 373.386 359.945 373.192C360.068 372.995 360.233 372.841 360.439 372.73C360.645 372.619 360.872 372.536 361.12 372.482C361.371 372.425 361.624 372.38 361.877 372.347C362.208 372.304 362.477 372.272 362.683 372.251C362.891 372.227 363.043 372.188 363.138 372.134C363.235 372.079 363.283 371.984 363.283 371.849V371.821C363.283 371.471 363.187 371.198 362.995 371.004C362.806 370.81 362.518 370.713 362.133 370.713C361.732 370.713 361.419 370.801 361.191 370.976C360.964 371.151 360.804 371.338 360.712 371.537L359.917 371.253C360.059 370.921 360.248 370.663 360.485 370.479C360.724 370.292 360.984 370.161 361.266 370.088C361.55 370.012 361.83 369.974 362.104 369.974C362.279 369.974 362.481 369.996 362.708 370.038C362.937 370.079 363.159 370.163 363.372 370.29C363.587 370.418 363.766 370.611 363.908 370.869C364.05 371.127 364.121 371.473 364.121 371.906V375.5H363.283V374.761H363.241C363.184 374.88 363.089 375.006 362.956 375.141C362.824 375.276 362.647 375.391 362.427 375.486C362.207 375.58 361.938 375.628 361.621 375.628ZM361.749 374.875C362.08 374.875 362.36 374.81 362.587 374.68C362.817 374.549 362.99 374.381 363.106 374.175C363.224 373.969 363.283 373.753 363.283 373.526V372.759C363.248 372.801 363.169 372.84 363.049 372.876C362.93 372.909 362.793 372.938 362.637 372.964C362.483 372.988 362.333 373.009 362.186 373.028C362.041 373.045 361.924 373.059 361.834 373.071C361.616 373.099 361.413 373.146 361.223 373.21C361.036 373.271 360.885 373.365 360.769 373.49C360.655 373.613 360.598 373.781 360.598 373.994C360.598 374.286 360.706 374.506 360.922 374.655C361.139 374.802 361.415 374.875 361.749 374.875ZM366.489 372.219V375.5H365.651V370.045H366.46V370.898H366.532C366.659 370.621 366.853 370.398 367.114 370.23C367.374 370.06 367.71 369.974 368.122 369.974C368.492 369.974 368.815 370.05 369.092 370.202C369.369 370.351 369.584 370.578 369.738 370.884C369.892 371.187 369.969 371.57 369.969 372.034V375.5H369.131V372.091C369.131 371.662 369.02 371.329 368.797 371.089C368.575 370.848 368.269 370.727 367.881 370.727C367.613 370.727 367.374 370.785 367.164 370.901C366.955 371.017 366.791 371.187 366.67 371.409C366.549 371.632 366.489 371.902 366.489 372.219ZM376.856 368.227V375.5H375.975V369.151H375.932L374.157 370.33V369.435L375.975 368.227H376.856ZM381.362 375.599C381.064 375.595 380.765 375.538 380.467 375.429C380.169 375.32 379.897 375.137 379.65 374.879C379.404 374.618 379.206 374.267 379.057 373.824C378.908 373.379 378.834 372.82 378.834 372.148C378.834 371.504 378.894 370.933 379.015 370.436C379.135 369.937 379.311 369.516 379.54 369.175C379.77 368.832 380.047 368.572 380.371 368.394C380.698 368.217 381.066 368.128 381.476 368.128C381.883 368.128 382.245 368.21 382.562 368.373C382.882 368.534 383.142 368.759 383.343 369.048C383.545 369.336 383.675 369.669 383.734 370.045H382.868C382.787 369.719 382.631 369.448 382.399 369.232C382.167 369.017 381.859 368.909 381.476 368.909C380.912 368.909 380.468 369.154 380.144 369.644C379.822 370.134 379.66 370.822 379.657 371.707H379.714C379.847 371.506 380.004 371.335 380.187 371.192C380.371 371.048 380.575 370.937 380.797 370.859C381.02 370.781 381.255 370.741 381.504 370.741C381.921 370.741 382.302 370.846 382.647 371.054C382.993 371.26 383.27 371.545 383.478 371.91C383.687 372.272 383.791 372.688 383.791 373.156C383.791 373.606 383.69 374.018 383.489 374.392C383.288 374.764 383.005 375.06 382.64 375.28C382.278 375.498 381.852 375.604 381.362 375.599ZM381.362 374.818C381.66 374.818 381.928 374.744 382.165 374.594C382.404 374.445 382.592 374.245 382.729 373.994C382.869 373.743 382.939 373.464 382.939 373.156C382.939 372.856 382.871 372.582 382.736 372.336C382.604 372.087 382.42 371.89 382.186 371.743C381.954 371.596 381.689 371.523 381.39 371.523C381.165 371.523 380.956 371.568 380.762 371.658C380.568 371.745 380.397 371.866 380.25 372.02C380.106 372.174 379.992 372.35 379.91 372.549C379.827 372.746 379.785 372.953 379.785 373.17C379.785 373.459 379.853 373.729 379.988 373.98C380.125 374.231 380.312 374.433 380.549 374.587C380.788 374.741 381.059 374.818 381.362 374.818Z" fill="#15D6FF"/>
<path d="M485.918 360.5V365.5" stroke="#15D6FF" stroke-linecap="square"/>
<path d="M469.887 368.227H470.938L473.409 374.264H473.494L475.966 368.227H477.017V375.5H476.193V369.974H476.122L473.85 375.5H473.054L470.781 369.974H470.71V375.5H469.887V368.227ZM480.275 375.628C479.929 375.628 479.615 375.563 479.333 375.433C479.052 375.3 478.828 375.109 478.662 374.861C478.497 374.61 478.414 374.307 478.414 373.952C478.414 373.639 478.475 373.386 478.598 373.192C478.721 372.995 478.886 372.841 479.092 372.73C479.298 372.619 479.525 372.536 479.774 372.482C480.025 372.425 480.277 372.38 480.53 372.347C480.862 372.304 481.13 372.272 481.336 372.251C481.545 372.227 481.696 372.188 481.791 372.134C481.888 372.079 481.936 371.984 481.936 371.849V371.821C481.936 371.471 481.841 371.198 481.649 371.004C481.459 370.81 481.172 370.713 480.786 370.713C480.386 370.713 480.072 370.801 479.845 370.976C479.618 371.151 479.458 371.338 479.365 371.537L478.57 371.253C478.712 370.921 478.901 370.663 479.138 370.479C479.377 370.292 479.638 370.161 479.919 370.088C480.203 370.012 480.483 369.974 480.757 369.974C480.933 369.974 481.134 369.996 481.361 370.038C481.591 370.079 481.812 370.163 482.025 370.29C482.241 370.418 482.419 370.611 482.561 370.869C482.703 371.127 482.775 371.473 482.775 371.906V375.5H481.936V374.761H481.894C481.837 374.88 481.742 375.006 481.61 375.141C481.477 375.276 481.301 375.391 481.081 375.486C480.86 375.58 480.592 375.628 480.275 375.628ZM480.402 374.875C480.734 374.875 481.013 374.81 481.24 374.68C481.47 374.549 481.643 374.381 481.759 374.175C481.877 373.969 481.936 373.753 481.936 373.526V372.759C481.901 372.801 481.823 372.84 481.702 372.876C481.584 372.909 481.446 372.938 481.29 372.964C481.136 372.988 480.986 373.009 480.839 373.028C480.695 373.045 480.578 373.059 480.488 373.071C480.27 373.099 480.066 373.146 479.877 373.21C479.69 373.271 479.538 373.365 479.422 373.49C479.309 373.613 479.252 373.781 479.252 373.994C479.252 374.286 479.359 374.506 479.575 374.655C479.793 374.802 480.069 374.875 480.402 374.875ZM484.649 377.545C484.507 377.545 484.38 377.534 484.269 377.51C484.157 377.489 484.08 377.467 484.038 377.446L484.251 376.707C484.454 376.759 484.634 376.778 484.791 376.764C484.947 376.75 485.085 376.68 485.206 376.555C485.329 376.432 485.442 376.232 485.544 375.955L485.7 375.528L483.683 370.045H484.592L486.097 374.392H486.154L487.66 370.045H488.569L486.254 376.295C486.15 376.577 486.021 376.81 485.867 376.995C485.713 377.182 485.534 377.321 485.33 377.411C485.129 377.5 484.902 377.545 484.649 377.545ZM492.474 375.5V374.861L494.874 372.233C495.156 371.925 495.388 371.658 495.57 371.43C495.752 371.201 495.887 370.985 495.975 370.784C496.065 370.58 496.11 370.367 496.11 370.145C496.11 369.889 496.048 369.668 495.925 369.481C495.805 369.294 495.639 369.149 495.428 369.048C495.217 368.946 494.981 368.895 494.718 368.895C494.439 368.895 494.195 368.953 493.986 369.069C493.78 369.183 493.621 369.342 493.507 369.548C493.396 369.754 493.34 369.996 493.34 370.273H492.502C492.502 369.847 492.6 369.473 492.797 369.151C492.993 368.829 493.261 368.578 493.599 368.398C493.94 368.218 494.323 368.128 494.746 368.128C495.172 368.128 495.55 368.218 495.879 368.398C496.208 368.578 496.466 368.82 496.653 369.126C496.84 369.431 496.934 369.771 496.934 370.145C496.934 370.412 496.885 370.674 496.788 370.93C496.693 371.183 496.528 371.466 496.291 371.778C496.057 372.089 495.731 372.467 495.314 372.915L493.681 374.662V374.719H497.062V375.5H492.474ZM498.528 375.5V374.861L500.929 372.233C501.211 371.925 501.443 371.658 501.625 371.43C501.807 371.201 501.942 370.985 502.03 370.784C502.12 370.58 502.165 370.367 502.165 370.145C502.165 369.889 502.103 369.668 501.98 369.481C501.859 369.294 501.693 369.149 501.483 369.048C501.272 368.946 501.035 368.895 500.773 368.895C500.493 368.895 500.249 368.953 500.041 369.069C499.835 369.183 499.675 369.342 499.562 369.548C499.45 369.754 499.395 369.996 499.395 370.273H498.557C498.557 369.847 498.655 369.473 498.851 369.151C499.048 368.829 499.315 368.578 499.654 368.398C499.995 368.218 500.377 368.128 500.801 368.128C501.227 368.128 501.605 368.218 501.934 368.398C502.263 368.578 502.521 368.82 502.708 369.126C502.895 369.431 502.988 369.771 502.988 370.145C502.988 370.412 502.94 370.674 502.843 370.93C502.748 371.183 502.582 371.466 502.346 371.778C502.111 372.089 501.786 372.467 501.369 372.915L499.736 374.662V374.719H503.116V375.5H498.528Z" fill="#15D6FF"/>
<path d="M603.207 360.5V365.5" stroke="#15D6FF" stroke-linecap="square"/>
<path d="M591.444 370.045C591.401 369.686 591.228 369.406 590.925 369.207C590.622 369.009 590.251 368.909 589.81 368.909C589.488 368.909 589.207 368.961 588.965 369.065C588.726 369.17 588.539 369.313 588.404 369.495C588.272 369.677 588.205 369.884 588.205 370.116C588.205 370.311 588.251 370.478 588.344 370.617C588.438 370.754 588.559 370.869 588.706 370.962C588.853 371.052 589.007 371.126 589.168 371.185C589.329 371.242 589.477 371.288 589.612 371.324L590.35 371.523C590.54 371.572 590.75 371.641 590.982 371.729C591.217 371.816 591.44 371.936 591.653 372.087C591.869 372.237 592.046 372.428 592.186 372.663C592.326 372.897 592.396 373.185 592.396 373.526C592.396 373.919 592.293 374.274 592.087 374.591C591.883 374.908 591.585 375.16 591.192 375.347C590.801 375.534 590.326 375.628 589.768 375.628C589.247 375.628 588.796 375.544 588.415 375.376C588.036 375.208 587.738 374.973 587.52 374.673C587.304 374.372 587.183 374.023 587.154 373.625H588.063C588.087 373.9 588.179 374.127 588.34 374.307C588.504 374.484 588.71 374.617 588.958 374.705C589.209 374.79 589.479 374.832 589.768 374.832C590.104 374.832 590.406 374.778 590.673 374.669C590.941 374.558 591.153 374.404 591.309 374.207C591.465 374.009 591.543 373.777 591.543 373.511C591.543 373.27 591.476 373.073 591.341 372.922C591.206 372.77 591.028 372.647 590.808 372.553C590.588 372.458 590.35 372.375 590.094 372.304L589.2 372.048C588.631 371.885 588.182 371.652 587.85 371.349C587.519 371.046 587.353 370.649 587.353 370.159C587.353 369.752 587.463 369.397 587.683 369.094C587.906 368.788 588.204 368.552 588.578 368.384C588.955 368.213 589.375 368.128 589.839 368.128C590.308 368.128 590.724 368.212 591.089 368.38C591.453 368.546 591.742 368.773 591.955 369.062C592.171 369.351 592.284 369.679 592.296 370.045H591.444ZM596.017 375.614C595.491 375.614 595.038 375.498 594.657 375.266C594.278 375.031 593.986 374.705 593.78 374.286C593.576 373.864 593.474 373.374 593.474 372.815C593.474 372.257 593.576 371.764 593.78 371.338C593.986 370.91 594.272 370.576 594.639 370.337C595.008 370.095 595.439 369.974 595.932 369.974C596.216 369.974 596.496 370.022 596.773 370.116C597.05 370.211 597.302 370.365 597.53 370.578C597.757 370.789 597.938 371.068 598.073 371.416C598.208 371.764 598.275 372.193 598.275 372.702V373.057H594.071V372.332H597.423C597.423 372.025 597.362 371.75 597.238 371.509C597.118 371.267 596.945 371.076 596.72 370.937C596.497 370.797 596.235 370.727 595.932 370.727C595.598 370.727 595.309 370.81 595.065 370.976C594.824 371.139 594.638 371.352 594.508 371.615C594.377 371.878 594.312 372.16 594.312 372.46V372.943C594.312 373.355 594.383 373.704 594.525 373.991C594.67 374.275 594.87 374.491 595.126 374.641C595.381 374.787 595.678 374.861 596.017 374.861C596.237 374.861 596.436 374.83 596.613 374.768C596.793 374.705 596.948 374.61 597.079 374.484C597.209 374.357 597.309 374.198 597.381 374.009L598.19 374.236C598.105 374.51 597.962 374.752 597.76 374.96C597.559 375.166 597.311 375.327 597.015 375.443C596.719 375.557 596.386 375.614 596.017 375.614ZM599.55 377.545V370.045H600.36V370.912H600.459C600.521 370.817 600.606 370.696 600.715 370.55C600.826 370.401 600.985 370.268 601.191 370.152C601.399 370.034 601.681 369.974 602.036 369.974C602.495 369.974 602.9 370.089 603.251 370.319C603.601 370.549 603.874 370.874 604.071 371.295C604.267 371.717 604.366 372.214 604.366 372.787C604.366 373.365 604.267 373.865 604.071 374.289C603.874 374.71 603.602 375.037 603.254 375.269C602.906 375.499 602.505 375.614 602.05 375.614C601.7 375.614 601.419 375.556 601.209 375.44C600.998 375.321 600.836 375.187 600.722 375.038C600.608 374.887 600.521 374.761 600.459 374.662H600.388V377.545H599.55ZM600.374 372.773C600.374 373.185 600.434 373.548 600.555 373.863C600.676 374.175 600.852 374.42 601.084 374.598C601.316 374.773 601.6 374.861 601.937 374.861C602.287 374.861 602.579 374.768 602.814 374.584C603.05 374.397 603.228 374.146 603.346 373.831C603.467 373.514 603.528 373.161 603.528 372.773C603.528 372.389 603.468 372.044 603.35 371.736C603.234 371.426 603.058 371.181 602.821 371.001C602.586 370.818 602.292 370.727 601.937 370.727C601.596 370.727 601.309 370.814 601.077 370.987C600.845 371.157 600.67 371.396 600.552 371.704C600.433 372.009 600.374 372.366 600.374 372.773ZM608.442 375.5V374.861L610.843 372.233C611.125 371.925 611.357 371.658 611.539 371.43C611.721 371.201 611.856 370.985 611.944 370.784C612.034 370.58 612.079 370.367 612.079 370.145C612.079 369.889 612.017 369.668 611.894 369.481C611.773 369.294 611.608 369.149 611.397 369.048C611.186 368.946 610.949 368.895 610.687 368.895C610.407 368.895 610.163 368.953 609.955 369.069C609.749 369.183 609.589 369.342 609.476 369.548C609.364 369.754 609.309 369.996 609.309 370.273H608.471C608.471 369.847 608.569 369.473 608.765 369.151C608.962 368.829 609.229 368.578 609.568 368.398C609.909 368.218 610.291 368.128 610.715 368.128C611.141 368.128 611.519 368.218 611.848 368.398C612.177 368.578 612.435 368.82 612.622 369.126C612.809 369.431 612.903 369.771 612.903 370.145C612.903 370.412 612.854 370.674 612.757 370.93C612.662 371.183 612.497 371.466 612.26 371.778C612.025 372.089 611.7 372.467 611.283 372.915L609.65 374.662V374.719H613.03V375.5H608.442ZM616.77 375.599C616.353 375.599 615.978 375.517 615.644 375.351C615.31 375.185 615.043 374.958 614.841 374.669C614.64 374.38 614.53 374.051 614.511 373.682H615.363C615.397 374.011 615.546 374.283 615.811 374.499C616.078 374.712 616.398 374.818 616.77 374.818C617.068 374.818 617.333 374.748 617.565 374.609C617.8 374.469 617.983 374.277 618.116 374.033C618.251 373.787 618.318 373.509 618.318 373.199C618.318 372.882 618.248 372.599 618.108 372.35C617.971 372.099 617.782 371.902 617.54 371.757C617.299 371.613 617.023 371.539 616.713 371.537C616.49 371.535 616.262 371.569 616.028 371.64C615.793 371.709 615.6 371.797 615.449 371.906L614.625 371.807L615.065 368.227H618.844V369.009H615.804L615.548 371.153H615.591C615.74 371.035 615.927 370.937 616.152 370.859C616.377 370.781 616.611 370.741 616.855 370.741C617.3 370.741 617.697 370.848 618.045 371.061C618.395 371.272 618.67 371.561 618.868 371.928C619.07 372.295 619.17 372.714 619.17 373.185C619.17 373.649 619.066 374.063 618.858 374.428C618.652 374.79 618.368 375.076 618.006 375.287C617.643 375.495 617.231 375.599 616.77 375.599Z" fill="#15D6FF"/>
</g>
<defs>
<clipPath id="clip0_1174_14414">
<rect width="606" height="380" fill="white"/>
</clipPath>
</defs>
</svg>
