<svg width="606" height="380" viewBox="0 0 606 380" fill="none" xmlns="http://www.w3.org/2000/svg">
<g clip-path="url(#clip0_1174_11625)">
<path d="M0 359.992L11.434 359.91L24.1384 359.999L26.6792 359.991H27.9497L29.2201 359.999L30.4906 357.75L31.761 207L33.0314 328.5L34.3019 324L35.5723 306L36.8428 334.8L38.1132 338.4L39.3836 338.715L40.6541 342H41.9245H43.195H44.4654H45.7358L47.0063 333L48.2767 315L49.5472 333H50.8176L52.0881 324L53.3585 339.3L54.6289 324L55.8994 315L57.1698 324H58.4403L59.7107 315L60.9811 306H62.2516L63.522 303.75L64.7924 315L66.0629 297.9L67.3333 252L68.6038 225L69.8742 234L71.1447 252.18L72.4151 261L73.6855 279H74.956L76.2264 288.181L77.4969 279L78.7673 286.2L80.0377 292.5L81.3082 303.3L82.5786 300.06L83.8491 270L85.1195 198L86.3899 225L87.6604 292.5L88.9308 355.5L90.2013 343.8L91.4717 324L92.7421 306H94.0126L95.283 252L96.5535 288L97.8239 225L99.0943 243L100.365 315L101.635 208.8L102.906 252L104.176 252.09L105.447 225.09L106.717 108.9L107.987 225L109.258 295.2L110.528 288L111.799 315.9L113.069 328.5L114.34 333L115.61 319.5L116.881 342L118.151 342.9H119.421H120.692L121.962 346.5L123.233 342L124.503 347.4L125.774 344.7L127.044 341.1L128.314 338.85L129.585 344.25L130.855 340.2L132.126 337.5L133.396 342.9L134.667 331.92L135.937 342.225L137.208 342.9L138.478 344.7H139.748L141.019 337.68L142.289 340.065L143.56 337.5L144.83 342L146.101 335.25L147.371 337.5L148.642 342.99L149.912 346.552L151.182 343.8L152.453 342.18L153.723 349.2L154.994 350.82L156.264 347.4L157.535 344.88L158.805 349.2L160.075 348.3L161.346 349.2L162.616 351L163.887 353.7L165.157 351.45L166.428 351.9L167.698 352.8L168.969 353.07L170.239 352.53L171.509 353.7L172.78 356.4L174.05 347.4L175.321 353.25L176.591 355.5L177.862 353.25L179.132 356.4L180.403 356.22L181.673 355.95L182.943 355.32L184.214 355.59L185.484 355.77L186.755 356.22L188.025 356.94L189.296 356.712L190.566 357.57L191.836 357.75L193.107 356.58L194.377 357.21L195.648 357.75H196.918L198.189 357.66L199.459 357.489L200.73 357.03L202 355.77L203.27 357.39H204.541L205.811 356.4L207.082 355.68L208.352 356.22L209.623 356.85L210.893 356.76L212.164 356.4L213.434 356.49L214.704 357.3L215.975 354.595L217.245 355.5L218.516 354.6L219.786 354.42L221.057 354.6L222.327 355.32L223.597 355.95L224.868 356.4L226.138 357.48L227.409 355.59L228.679 354.6L229.95 356.4L231.22 356.13L232.491 353.79L233.761 354.6L235.031 356.229L236.302 355.59L237.572 351.9L238.843 354.15L240.113 354.69L241.384 356.4L242.654 351.9L243.925 351.18L245.195 350.1L246.465 352.8L247.736 355.05L249.006 354.6L250.277 353.52L251.547 354.15L252.818 356.4L254.088 351.189L255.358 355.68L256.629 355.5L257.899 355.05L259.17 355.5L260.44 357.3L261.711 355.59L262.981 352.8L264.252 355.059L265.522 354.6L266.792 354.42L268.063 354.6L269.333 348.579L270.604 352.8L271.874 355.05L273.145 356.4L274.415 355.5L275.686 353.07L276.956 353.79L278.226 354.96L279.497 353.25L280.767 354.6L282.038 353.7L283.308 354.6L284.579 354.69L285.849 356.67L287.12 354.6L288.39 355.41L289.66 354.24L290.931 353.79L292.201 353.25L293.472 354.6L294.742 352.8L296.013 351.09L297.283 351L298.553 351.99L299.824 349.2L301.094 349.443L302.365 349.2L303.635 351.36L304.906 349.2H306.176L307.447 351.675L308.717 350.1L309.987 353.25L311.258 351.09L312.528 349.65L313.799 351L315.069 351.99L316.34 351L317.61 352.8L318.88 351L320.151 352.8L321.421 351L322.692 351.45L323.962 351L325.233 351.693L326.503 351.45L327.774 351.09L329.044 351H330.314L331.585 349.2L332.855 351.81L334.126 353.79L335.396 351.09L336.667 350.37L337.937 353.7L339.208 352.35L340.478 353.52L341.748 350.01L343.019 351.9L344.289 351H345.56L346.83 352.35L348.101 344.88L349.371 349.65L350.642 351.9L351.912 352.35L353.182 351L354.453 352.89L355.723 355.5L356.994 355.05L358.264 355.95L359.535 354.69L360.805 355.5L362.075 351.81L363.346 352.35L364.616 349.65L365.887 349.853L367.157 350.73L368.428 351.09L369.698 351L370.969 354.15L372.239 350.1L373.509 354.6L374.78 354.33L376.05 353.07L377.321 356.13L378.591 356.85L379.862 357.57L381.132 356.409L382.403 353.97L383.673 351L384.943 350.19L386.214 349.2L387.484 351H388.755L390.025 351.18L391.296 352.44L392.566 353.709L393.836 351.81L395.107 354.15L396.377 352.35L397.648 350.73L398.918 353.25L400.189 353.79L401.459 354.6L402.73 350.55L404 354.42L405.27 355.95L406.541 351.9L407.811 342.72L409.082 344.7L410.352 353.7L411.623 351.18L412.893 351L414.164 350.01L415.434 353.25L416.704 352.8L417.975 351L419.245 352.8L420.516 353.43L421.786 355.5L423.057 356.76L424.327 356.85L425.597 356.58L426.868 356.04L428.138 351.99L429.409 350.19L430.679 351L431.95 349.74L433.22 351.099L434.491 355.05L435.761 357.39L437.031 356.4H438.302L439.572 356.49L440.843 354.15L442.113 357.3L443.384 351.9L444.654 351H445.925L447.195 350.1L448.465 352.8L449.736 350.1L451.006 355.5H452.277L453.547 357.12L454.818 356.49L456.088 357.48L457.358 358.02L458.629 358.2L459.899 357.93L461.17 357.75L462.44 357.3L463.711 358.47L464.981 358.74L466.252 358.912L467.522 358.74L468.792 358.335L470.063 357.48L471.333 356.932L472.604 358.38L473.874 356.85L475.145 358.425L476.415 357.48L477.686 358.29L478.956 358.425L480.226 358.38L481.497 358.785L482.767 358.659L484.038 358.912L485.308 359.1L486.579 359.191L487.849 358.515L489.12 358.74L490.39 358.192L491.66 355.68L492.931 358.2L494.201 358.66L495.472 358.758L496.742 358.38L498.013 358.569L499.283 358.29L500.553 358.65L501.824 358.192L503.094 358.902L504.365 358.92L505.635 358.29L506.906 358.74L508.176 358.83L509.447 358.47L510.717 358.74L511.987 358.749L513.258 358.867L514.528 359.118L515.799 358.74L517.069 358.83L518.34 358.875L519.61 359.1L520.88 358.83L522.151 358.479L523.421 359.1L524.692 359.01H525.962L527.233 358.83L528.503 359.19L529.774 359L531.044 359.01L532.314 358.65L533.585 358.788L534.855 358.929L536.126 359.019L537.396 358.29L538.667 358.74L539.937 359.298H541.208L542.478 358.92L543.748 358.758L545.019 358.83L546.289 359.1L547.56 359.01L548.83 359.118L550.101 359.379L551.371 358.758L552.641 358.789L553.912 358.417L555.182 359.1H556.453L557.723 357.66L558.994 357.75L560.264 358.893L561.535 358.38L562.805 358.92L564.076 359.1L565.346 358.92L566.616 359.1L567.887 358.83L569.157 358.47L570.428 358.2L571.698 358.65L572.969 359.118L574.239 358.74L575.509 359.019L576.78 358.286L578.05 359.118L579.321 359.201L580.591 359.191L581.862 359.01L583.132 358.92L584.403 358.785L585.673 358.668L586.943 357.281L588.214 358.389L589.484 359.01L590.755 358.65L592.025 359.01L593.296 357.615L594.566 358.488L595.836 358.929L597.107 357.354L598.377 357.66L599.648 358.65L600.918 359.1L602.189 358.47L603.459 357.39L604.73 358.38L606 358.11" stroke="#15D6FF" stroke-width="2" stroke-linecap="round"/>
<path d="M0 360H11.434H24.1384H26.6792H27.9497H29.2201H30.4906H31.761H33.0314H34.3019H35.5723H36.8428H38.1132H39.3836H40.6541H41.9245H43.195H44.4654H45.7358H47.0063H48.2767H49.5472H50.8176H52.0881H53.3585H54.6289H55.8994H57.1698H58.4403H59.7107H60.9811H62.2516H63.522H64.7924H66.0629H67.3333H68.6038H69.8742H71.1447H72.4151H73.6855H74.956H76.2264H77.4969H78.7673H80.0377H81.3082H82.5786H83.8491H85.1195H86.3899H87.6604H88.9308H90.2013H91.4717H92.7421H94.0126H95.283H96.5535H97.8239H99.0943H100.365H101.635H102.906H104.176H105.447H106.717H107.987H109.258H110.528H111.799H113.069H114.34H115.61H116.881H118.151H119.421H120.692H121.962H123.233H124.503H125.774H127.044H128.314H129.585H130.855H132.126H133.396H134.667H135.937H137.208H138.478H139.748H141.019H142.289H143.56H144.83H146.101H147.371H148.642H149.912H151.182H152.453H153.723H154.994H156.264H157.535H158.805H160.075H161.346H162.616H163.887H165.157H166.428H167.698H168.969H170.239H171.509H172.78H174.05H175.321H176.591H177.862H179.132H180.403H181.673H182.943H184.214H185.484H186.755H188.025H189.296H190.566H191.836H193.107H194.377H195.648H196.918H198.189H199.459H200.73H202H203.27H204.541H205.811H207.082H208.352H209.623H210.893H212.164H213.434H214.704H215.975H217.245H218.516H219.786H221.057H222.327H223.597H224.868H226.138H227.409H228.679H229.95H231.22H232.491H233.761H235.031H236.302H237.572H238.843H240.113H241.384H242.654H243.925H245.195H246.465H247.736H249.006H250.277H251.547H252.818H254.088H255.358H256.629H257.899H259.17H260.44H261.711H262.981H264.252H265.522H266.792H268.063H269.333H270.604H271.874H273.145H274.415H275.686H276.956H278.226H279.497H280.767H282.038H283.308H284.579H285.849H287.12H288.39H289.66H290.931H292.201H293.472H294.742H296.013H297.283H298.553H299.824H301.094H302.365H303.635H304.906H306.176H307.447H308.717H309.987H311.258H312.528H313.799H315.069H316.34H317.61H318.88H320.151H321.421H322.692H323.962H325.233H326.503H327.774H329.044H330.314H331.585H332.855H334.126H335.396H336.667H337.937H339.208H340.478H341.748H343.019H344.289H345.56H346.83H348.101H349.371H350.642H351.912H353.182H354.453H355.723H356.994H358.264H359.535H360.805H362.075H363.346H364.616H365.887H367.157H368.428H369.698H370.969H372.239H373.509H374.78H376.05H377.321H378.591H379.862H381.132H382.403H383.673H384.943H386.214H387.484H388.755H390.025H391.296H392.566H393.836H395.107H396.377H397.648H398.918H400.189H401.459H402.73H404H405.27H406.541H407.811H409.082H410.352H411.623H412.893H414.164H415.434H416.704H417.975H419.245H420.516H421.786H423.057H424.327H425.597H426.868H428.138H429.409H430.679H431.95H433.22H434.491H435.761H437.031H438.302H439.572H440.843H442.113H443.384H444.654H445.925H447.195H448.465H449.736H451.006H452.277H453.547H454.818H456.088H457.358H458.629H459.899H461.17H462.44H463.711H464.981H466.252H467.522H468.792H470.063H471.333H472.604H473.874H475.145H476.415H477.686H478.956H480.226H481.497H482.767H484.038H485.308H486.579H487.849H489.12H490.39H491.66H492.931H494.201H495.472H496.742H498.013H499.283H500.553H501.824H503.094H504.365H505.635H506.906H508.176H509.447H510.717H511.987H513.258H514.528H515.799H517.069H518.34H519.61H520.88H522.151H523.421H524.692H525.962H527.233H528.503H529.774H531.044H532.314H533.585H534.855H536.126H537.396H538.667H539.937H541.208H542.478H543.748H545.019H546.289H547.56H548.83H550.101H551.371H552.641H553.912H555.182H556.453H557.723H558.994H560.264H561.535H562.805H564.076H565.346H566.616H567.887H569.157H570.428H571.698H572.969H574.239H575.509H576.78H578.05H579.321H580.591H581.862H583.132H584.403H585.673H586.943H588.214H589.484H590.755H592.025H593.296H594.566H595.836H597.107H598.377H599.648H600.918H602.189H603.459H604.73H606V358.11L604.73 358.38L603.459 357.39L602.189 358.47L600.918 359.1L599.648 358.65L598.377 357.66L597.107 357.354L595.836 358.929L594.566 358.488L593.296 357.615L592.025 359.01L590.755 358.65L589.484 359.01L588.214 358.389L586.943 357.281L585.673 358.668L584.403 358.785L583.132 358.92L581.862 359.01L580.591 359.191L579.321 359.201L578.05 359.118L576.78 358.286L575.509 359.019L574.239 358.74L572.969 359.118L571.698 358.65L570.428 358.2L569.157 358.47L567.887 358.83L566.616 359.1L565.346 358.92L564.076 359.1L562.805 358.92L561.535 358.38L560.264 358.893L558.994 357.75L557.723 357.66L556.453 359.1H555.182L553.912 358.417L552.641 358.789L551.371 358.758L550.101 359.379L548.83 359.118L547.56 359.01L546.289 359.1L545.019 358.83L543.748 358.758L542.478 358.92L541.208 359.298H539.937L538.667 358.74L537.396 358.29L536.126 359.019L534.855 358.929L533.585 358.788L532.314 358.65L531.044 359.01L529.774 359L528.503 359.19L527.233 358.83L525.962 359.01H524.692L523.421 359.1L522.151 358.479L520.88 358.83L519.61 359.1L518.34 358.875L517.069 358.83L515.799 358.74L514.528 359.118L513.258 358.867L511.987 358.749L510.717 358.74L509.447 358.47L508.176 358.83L506.906 358.74L505.635 358.29L504.365 358.92L503.094 358.902L501.824 358.192L500.553 358.65L499.283 358.29L498.013 358.569L496.742 358.38L495.472 358.758L494.201 358.66L492.931 358.2L491.66 355.68L490.39 358.192L489.12 358.74L487.849 358.515L486.579 359.191L485.308 359.1L484.038 358.912L482.767 358.659L481.497 358.785L480.226 358.38L478.956 358.425L477.686 358.29L476.415 357.48L475.145 358.425L473.874 356.85L472.604 358.38L471.333 356.932L470.063 357.48L468.792 358.335L467.522 358.74L466.252 358.912L464.981 358.74L463.711 358.47L462.44 357.3L461.17 357.75L459.899 357.93L458.629 358.2L457.358 358.02L456.088 357.48L454.818 356.49L453.547 357.12L452.277 355.5H451.006L449.736 350.1L448.465 352.8L447.195 350.1L445.925 351H444.654L443.384 351.9L442.113 357.3L440.843 354.15L439.572 356.49L438.302 356.4H437.031L435.761 357.39L434.491 355.05L433.22 351.099L431.95 349.74L430.679 351L429.409 350.19L428.138 351.99L426.868 356.04L425.597 356.58L424.327 356.85L423.057 356.76L421.786 355.5L420.516 353.43L419.245 352.8L417.975 351L416.704 352.8L415.434 353.25L414.164 350.01L412.893 351L411.623 351.18L410.352 353.7L409.082 344.7L407.811 342.72L406.541 351.9L405.27 355.95L404 354.42L402.73 350.55L401.459 354.6L400.189 353.79L398.918 353.25L397.648 350.73L396.377 352.35L395.107 354.15L393.836 351.81L392.566 353.709L391.296 352.44L390.025 351.18L388.755 351H387.484L386.214 349.2L384.943 350.19L383.673 351L382.403 353.97L381.132 356.409L379.862 357.57L378.591 356.85L377.321 356.13L376.05 353.07L374.78 354.33L373.509 354.6L372.239 350.1L370.969 354.15L369.698 351L368.428 351.09L367.157 350.73L365.887 349.853L364.616 349.65L363.346 352.35L362.075 351.81L360.805 355.5L359.535 354.69L358.264 355.95L356.994 355.05L355.723 355.5L354.453 352.89L353.182 351L351.912 352.35L350.642 351.9L349.371 349.65L348.101 344.88L346.83 352.35L345.56 351H344.289L343.019 351.9L341.748 350.01L340.478 353.52L339.208 352.35L337.937 353.7L336.667 350.37L335.396 351.09L334.126 353.79L332.855 351.81L331.585 349.2L330.314 351H329.044L327.774 351.09L326.503 351.45L325.233 351.693L323.962 351L322.692 351.45L321.421 351L320.151 352.8L318.88 351L317.61 352.8L316.34 351L315.069 351.99L313.799 351L312.528 349.65L311.258 351.09L309.987 353.25L308.717 350.1L307.447 351.675L306.176 349.2H304.906L303.635 351.36L302.365 349.2L301.094 349.443L299.824 349.2L298.553 351.99L297.283 351L296.013 351.09L294.742 352.8L293.472 354.6L292.201 353.25L290.931 353.79L289.66 354.24L288.39 355.41L287.12 354.6L285.849 356.67L284.579 354.69L283.308 354.6L282.038 353.7L280.767 354.6L279.497 353.25L278.226 354.96L276.956 353.79L275.686 353.07L274.415 355.5L273.145 356.4L271.874 355.05L270.604 352.8L269.333 348.579L268.063 354.6L266.792 354.42L265.522 354.6L264.252 355.059L262.981 352.8L261.711 355.59L260.44 357.3L259.17 355.5L257.899 355.05L256.629 355.5L255.358 355.68L254.088 351.189L252.818 356.4L251.547 354.15L250.277 353.52L249.006 354.6L247.736 355.05L246.465 352.8L245.195 350.1L243.925 351.18L242.654 351.9L241.384 356.4L240.113 354.69L238.843 354.15L237.572 351.9L236.302 355.59L235.031 356.229L233.761 354.6L232.491 353.79L231.22 356.13L229.95 356.4L228.679 354.6L227.409 355.59L226.138 357.48L224.868 356.4L223.597 355.95L222.327 355.32L221.057 354.6L219.786 354.42L218.516 354.6L217.245 355.5L215.975 354.595L214.704 357.3L213.434 356.49L212.164 356.4L210.893 356.76L209.623 356.85L208.352 356.22L207.082 355.68L205.811 356.4L204.541 357.39H203.27L202 355.77L200.73 357.03L199.459 357.489L198.189 357.66L196.918 357.75H195.648L194.377 357.21L193.107 356.58L191.836 357.75L190.566 357.57L189.296 356.712L188.025 356.94L186.755 356.22L185.484 355.77L184.214 355.59L182.943 355.32L181.673 355.95L180.403 356.22L179.132 356.4L177.862 353.25L176.591 355.5L175.321 353.25L174.05 347.4L172.78 356.4L171.509 353.7L170.239 352.53L168.969 353.07L167.698 352.8L166.428 351.9L165.157 351.45L163.887 353.7L162.616 351L161.346 349.2L160.075 348.3L158.805 349.2L157.535 344.88L156.264 347.4L154.994 350.82L153.723 349.2L152.453 342.18L151.182 343.8L149.912 346.552L148.642 342.99L147.371 337.5L146.101 335.25L144.83 342L143.56 337.5L142.289 340.065L141.019 337.68L139.748 344.7H138.478L137.208 342.9L135.937 342.225L134.667 331.92L133.396 342.9L132.126 337.5L130.855 340.2L129.585 344.25L128.314 338.85L127.044 341.1L125.774 344.7L124.503 347.4L123.233 342L121.962 346.5L120.692 342.9H119.421H118.151L116.881 342L115.61 319.5L114.34 333L113.069 328.5L111.799 315.9L110.528 288L109.258 295.2L107.987 225L106.717 108.9L105.447 225.09L104.176 252.09L102.906 252L101.635 208.8L100.365 315L99.0943 243L97.8239 225L96.5535 288L95.283 252L94.0126 306H92.7421L91.4717 324L90.2013 343.8L88.9308 355.5L87.6604 292.5L86.3899 225L85.1195 198L83.8491 270L82.5786 300.06L81.3082 303.3L80.0377 292.5L78.7673 286.2L77.4969 279L76.2264 288.181L74.956 279H73.6855L72.4151 261L71.1447 252.18L69.8742 234L68.6038 225L67.3333 252L66.0629 297.9L64.7924 315L63.522 303.75L62.2516 306H60.9811L59.7107 315L58.4403 324H57.1698L55.8994 315L54.6289 324L53.3585 339.3L52.0881 324L50.8176 333H49.5472L48.2767 315L47.0063 333L45.7358 342H44.4654H43.195H41.9245H40.6541L39.3836 338.715L38.1132 338.4L36.8428 334.8L35.5723 306L34.3019 324L33.0314 328.5L31.761 207L30.4906 357.75L29.2201 359.999L27.9497 359.991H26.6792L24.1384 359.999L11.434 359.91L0 359.992V360Z" fill="#15D6FF"/>
<path d="M0 360H606" stroke="#15D6FF" stroke-dasharray="4 4"/>
<path d="M0 315H606" stroke="#15D6FF" stroke-dasharray="4 4"/>
<path d="M0 270H606" stroke="#15D6FF" stroke-dasharray="4 4"/>
<path d="M0 225H606" stroke="#15D6FF" stroke-dasharray="4 4"/>
<path d="M0 180H606" stroke="#15D6FF" stroke-dasharray="4 4"/>
<path d="M0 135H606" stroke="#15D6FF" stroke-dasharray="4 4"/>
<path d="M0 90H606" stroke="#15D6FF" stroke-dasharray="4 4"/>
<path d="M0 45H606" stroke="#15D6FF" stroke-dasharray="4 4"/>
<path d="M0 0H606" stroke="#15D6FF" stroke-dasharray="4 4"/>
<path opacity="0.6" d="M0 360.5V362.5" stroke="#15D6FF" stroke-linecap="square"/>
<path opacity="0.6" d="M24.1383 360.5V362.5" stroke="#15D6FF" stroke-linecap="square"/>
<path opacity="0.6" d="M27.9497 360.5V362.5" stroke="#15D6FF" stroke-linecap="square"/>
<path opacity="0.6" d="M30.4906 360.5V362.5" stroke="#15D6FF" stroke-linecap="square"/>
<path opacity="0.6" d="M33.0315 360.5V362.5" stroke="#15D6FF" stroke-linecap="square"/>
<path opacity="0.6" d="M35.5723 360.5V362.5" stroke="#15D6FF" stroke-linecap="square"/>
<path opacity="0.6" d="M38.1132 360.5V362.5" stroke="#15D6FF" stroke-linecap="square"/>
<path opacity="0.6" d="M40.6541 360.5V362.5" stroke="#15D6FF" stroke-linecap="square"/>
<path opacity="0.6" d="M43.1949 360.5V362.5" stroke="#15D6FF" stroke-linecap="square"/>
<path opacity="0.6" d="M45.7358 360.5V362.5" stroke="#15D6FF" stroke-linecap="square"/>
<path opacity="0.6" d="M48.2767 360.5V362.5" stroke="#15D6FF" stroke-linecap="square"/>
<path opacity="0.6" d="M50.8176 360.5V362.5" stroke="#15D6FF" stroke-linecap="square"/>
<path opacity="0.6" d="M53.3585 360.5V362.5" stroke="#15D6FF" stroke-linecap="square"/>
<path opacity="0.6" d="M55.8994 360.5V362.5" stroke="#15D6FF" stroke-linecap="square"/>
<path opacity="0.6" d="M58.4403 360.5V362.5" stroke="#15D6FF" stroke-linecap="square"/>
<path opacity="0.6" d="M60.9811 360.5V362.5" stroke="#15D6FF" stroke-linecap="square"/>
<path opacity="0.6" d="M63.522 360.5V362.5" stroke="#15D6FF" stroke-linecap="square"/>
<path opacity="0.6" d="M66.0629 360.5V362.5" stroke="#15D6FF" stroke-linecap="square"/>
<path opacity="0.6" d="M68.6038 360.5V362.5" stroke="#15D6FF" stroke-linecap="square"/>
<path opacity="0.6" d="M71.1447 360.5V362.5" stroke="#15D6FF" stroke-linecap="square"/>
<path opacity="0.6" d="M73.6855 360.5V362.5" stroke="#15D6FF" stroke-linecap="square"/>
<path opacity="0.6" d="M76.2264 360.5V362.5" stroke="#15D6FF" stroke-linecap="square"/>
<path opacity="0.6" d="M78.7673 360.5V362.5" stroke="#15D6FF" stroke-linecap="square"/>
<path opacity="0.6" d="M81.3082 360.5V362.5" stroke="#15D6FF" stroke-linecap="square"/>
<path opacity="0.6" d="M83.8491 360.5V362.5" stroke="#15D6FF" stroke-linecap="square"/>
<path opacity="0.6" d="M86.3899 360.5V362.5" stroke="#15D6FF" stroke-linecap="square"/>
<path opacity="0.6" d="M88.9308 360.5V362.5" stroke="#15D6FF" stroke-linecap="square"/>
<path opacity="0.6" d="M91.4717 360.5V362.5" stroke="#15D6FF" stroke-linecap="square"/>
<path opacity="0.6" d="M94.0126 360.5V362.5" stroke="#15D6FF" stroke-linecap="square"/>
<path opacity="0.6" d="M96.5535 360.5V362.5" stroke="#15D6FF" stroke-linecap="square"/>
<path opacity="0.6" d="M99.0944 360.5V362.5" stroke="#15D6FF" stroke-linecap="square"/>
<path opacity="0.6" d="M101.635 360.5V362.5" stroke="#15D6FF" stroke-linecap="square"/>
<path opacity="0.6" d="M104.176 360.5V362.5" stroke="#15D6FF" stroke-linecap="square"/>
<path opacity="0.6" d="M106.717 360.5V362.5" stroke="#15D6FF" stroke-linecap="square"/>
<path opacity="0.6" d="M109.258 360.5V362.5" stroke="#15D6FF" stroke-linecap="square"/>
<path opacity="0.6" d="M111.799 360.5V362.5" stroke="#15D6FF" stroke-linecap="square"/>
<path opacity="0.6" d="M114.34 360.5V362.5" stroke="#15D6FF" stroke-linecap="square"/>
<path opacity="0.6" d="M116.88 360.5V362.5" stroke="#15D6FF" stroke-linecap="square"/>
<path opacity="0.6" d="M119.421 360.5V362.5" stroke="#15D6FF" stroke-linecap="square"/>
<path opacity="0.6" d="M121.962 360.5V362.5" stroke="#15D6FF" stroke-linecap="square"/>
<path opacity="0.6" d="M124.503 360.5V362.5" stroke="#15D6FF" stroke-linecap="square"/>
<path opacity="0.6" d="M127.044 360.5V362.5" stroke="#15D6FF" stroke-linecap="square"/>
<path opacity="0.6" d="M129.585 360.5V362.5" stroke="#15D6FF" stroke-linecap="square"/>
<path opacity="0.6" d="M132.126 360.5V362.5" stroke="#15D6FF" stroke-linecap="square"/>
<path opacity="0.6" d="M134.667 360.5V362.5" stroke="#15D6FF" stroke-linecap="square"/>
<path opacity="0.6" d="M137.208 360.5V362.5" stroke="#15D6FF" stroke-linecap="square"/>
<path opacity="0.6" d="M139.748 360.5V362.5" stroke="#15D6FF" stroke-linecap="square"/>
<path opacity="0.6" d="M142.289 360.5V362.5" stroke="#15D6FF" stroke-linecap="square"/>
<path opacity="0.6" d="M144.83 360.5V362.5" stroke="#15D6FF" stroke-linecap="square"/>
<path opacity="0.6" d="M147.371 360.5V362.5" stroke="#15D6FF" stroke-linecap="square"/>
<path opacity="0.6" d="M149.912 360.5V362.5" stroke="#15D6FF" stroke-linecap="square"/>
<path opacity="0.6" d="M152.453 360.5V362.5" stroke="#15D6FF" stroke-linecap="square"/>
<path opacity="0.6" d="M154.994 360.5V362.5" stroke="#15D6FF" stroke-linecap="square"/>
<path opacity="0.6" d="M157.535 360.5V362.5" stroke="#15D6FF" stroke-linecap="square"/>
<path opacity="0.6" d="M160.075 360.5V362.5" stroke="#15D6FF" stroke-linecap="square"/>
<path opacity="0.6" d="M162.616 360.5V362.5" stroke="#15D6FF" stroke-linecap="square"/>
<path opacity="0.6" d="M165.157 360.5V362.5" stroke="#15D6FF" stroke-linecap="square"/>
<path opacity="0.6" d="M167.698 360.5V362.5" stroke="#15D6FF" stroke-linecap="square"/>
<path opacity="0.6" d="M170.239 360.5V362.5" stroke="#15D6FF" stroke-linecap="square"/>
<path opacity="0.6" d="M172.78 360.5V362.5" stroke="#15D6FF" stroke-linecap="square"/>
<path opacity="0.6" d="M175.321 360.5V362.5" stroke="#15D6FF" stroke-linecap="square"/>
<path opacity="0.6" d="M177.862 360.5V362.5" stroke="#15D6FF" stroke-linecap="square"/>
<path opacity="0.6" d="M180.403 360.5V362.5" stroke="#15D6FF" stroke-linecap="square"/>
<path opacity="0.6" d="M182.943 360.5V362.5" stroke="#15D6FF" stroke-linecap="square"/>
<path opacity="0.6" d="M185.484 360.5V362.5" stroke="#15D6FF" stroke-linecap="square"/>
<path opacity="0.6" d="M188.025 360.5V362.5" stroke="#15D6FF" stroke-linecap="square"/>
<path opacity="0.6" d="M190.566 360.5V362.5" stroke="#15D6FF" stroke-linecap="square"/>
<path opacity="0.6" d="M193.107 360.5V362.5" stroke="#15D6FF" stroke-linecap="square"/>
<path opacity="0.6" d="M195.648 360.5V362.5" stroke="#15D6FF" stroke-linecap="square"/>
<path opacity="0.6" d="M198.189 360.5V362.5" stroke="#15D6FF" stroke-linecap="square"/>
<path opacity="0.6" d="M200.73 360.5V362.5" stroke="#15D6FF" stroke-linecap="square"/>
<path opacity="0.6" d="M203.27 360.5V362.5" stroke="#15D6FF" stroke-linecap="square"/>
<path opacity="0.6" d="M205.811 360.5V362.5" stroke="#15D6FF" stroke-linecap="square"/>
<path opacity="0.6" d="M208.352 360.5V362.5" stroke="#15D6FF" stroke-linecap="square"/>
<path opacity="0.6" d="M210.893 360.5V362.5" stroke="#15D6FF" stroke-linecap="square"/>
<path opacity="0.6" d="M213.434 360.5V362.5" stroke="#15D6FF" stroke-linecap="square"/>
<path opacity="0.6" d="M215.975 360.5V362.5" stroke="#15D6FF" stroke-linecap="square"/>
<path opacity="0.6" d="M218.516 360.5V362.5" stroke="#15D6FF" stroke-linecap="square"/>
<path opacity="0.6" d="M221.057 360.5V362.5" stroke="#15D6FF" stroke-linecap="square"/>
<path opacity="0.6" d="M223.597 360.5V362.5" stroke="#15D6FF" stroke-linecap="square"/>
<path opacity="0.6" d="M226.138 360.5V362.5" stroke="#15D6FF" stroke-linecap="square"/>
<path opacity="0.6" d="M228.679 360.5V362.5" stroke="#15D6FF" stroke-linecap="square"/>
<path opacity="0.6" d="M231.22 360.5V362.5" stroke="#15D6FF" stroke-linecap="square"/>
<path opacity="0.6" d="M233.761 360.5V362.5" stroke="#15D6FF" stroke-linecap="square"/>
<path opacity="0.6" d="M236.302 360.5V362.5" stroke="#15D6FF" stroke-linecap="square"/>
<path opacity="0.6" d="M238.843 360.5V362.5" stroke="#15D6FF" stroke-linecap="square"/>
<path opacity="0.6" d="M241.384 360.5V362.5" stroke="#15D6FF" stroke-linecap="square"/>
<path opacity="0.6" d="M243.925 360.5V362.5" stroke="#15D6FF" stroke-linecap="square"/>
<path opacity="0.6" d="M246.465 360.5V362.5" stroke="#15D6FF" stroke-linecap="square"/>
<path opacity="0.6" d="M249.006 360.5V362.5" stroke="#15D6FF" stroke-linecap="square"/>
<path opacity="0.6" d="M251.547 360.5V362.5" stroke="#15D6FF" stroke-linecap="square"/>
<path opacity="0.6" d="M254.088 360.5V362.5" stroke="#15D6FF" stroke-linecap="square"/>
<path opacity="0.6" d="M256.629 360.5V362.5" stroke="#15D6FF" stroke-linecap="square"/>
<path opacity="0.6" d="M259.17 360.5V362.5" stroke="#15D6FF" stroke-linecap="square"/>
<path opacity="0.6" d="M261.711 360.5V362.5" stroke="#15D6FF" stroke-linecap="square"/>
<path opacity="0.6" d="M264.252 360.5V362.5" stroke="#15D6FF" stroke-linecap="square"/>
<path opacity="0.6" d="M266.792 360.5V362.5" stroke="#15D6FF" stroke-linecap="square"/>
<path opacity="0.6" d="M269.333 360.5V362.5" stroke="#15D6FF" stroke-linecap="square"/>
<path opacity="0.6" d="M271.874 360.5V362.5" stroke="#15D6FF" stroke-linecap="square"/>
<path opacity="0.6" d="M274.415 360.5V362.5" stroke="#15D6FF" stroke-linecap="square"/>
<path opacity="0.6" d="M276.956 360.5V362.5" stroke="#15D6FF" stroke-linecap="square"/>
<path opacity="0.6" d="M279.497 360.5V362.5" stroke="#15D6FF" stroke-linecap="square"/>
<path opacity="0.6" d="M282.038 360.5V362.5" stroke="#15D6FF" stroke-linecap="square"/>
<path opacity="0.6" d="M284.579 360.5V362.5" stroke="#15D6FF" stroke-linecap="square"/>
<path opacity="0.6" d="M287.12 360.5V362.5" stroke="#15D6FF" stroke-linecap="square"/>
<path opacity="0.6" d="M289.66 360.5V362.5" stroke="#15D6FF" stroke-linecap="square"/>
<path opacity="0.6" d="M292.201 360.5V362.5" stroke="#15D6FF" stroke-linecap="square"/>
<path opacity="0.6" d="M294.742 360.5V362.5" stroke="#15D6FF" stroke-linecap="square"/>
<path opacity="0.6" d="M297.283 360.5V362.5" stroke="#15D6FF" stroke-linecap="square"/>
<path opacity="0.6" d="M299.824 360.5V362.5" stroke="#15D6FF" stroke-linecap="square"/>
<path opacity="0.6" d="M302.365 360.5V362.5" stroke="#15D6FF" stroke-linecap="square"/>
<path opacity="0.6" d="M304.906 360.5V362.5" stroke="#15D6FF" stroke-linecap="square"/>
<path opacity="0.6" d="M307.447 360.5V362.5" stroke="#15D6FF" stroke-linecap="square"/>
<path opacity="0.6" d="M309.987 360.5V362.5" stroke="#15D6FF" stroke-linecap="square"/>
<path opacity="0.6" d="M312.528 360.5V362.5" stroke="#15D6FF" stroke-linecap="square"/>
<path opacity="0.6" d="M315.069 360.5V362.5" stroke="#15D6FF" stroke-linecap="square"/>
<path opacity="0.6" d="M317.61 360.5V362.5" stroke="#15D6FF" stroke-linecap="square"/>
<path opacity="0.6" d="M320.151 360.5V362.5" stroke="#15D6FF" stroke-linecap="square"/>
<path opacity="0.6" d="M322.692 360.5V362.5" stroke="#15D6FF" stroke-linecap="square"/>
<path opacity="0.6" d="M325.233 360.5V362.5" stroke="#15D6FF" stroke-linecap="square"/>
<path opacity="0.6" d="M327.774 360.5V362.5" stroke="#15D6FF" stroke-linecap="square"/>
<path opacity="0.6" d="M330.314 360.5V362.5" stroke="#15D6FF" stroke-linecap="square"/>
<path opacity="0.6" d="M332.855 360.5V362.5" stroke="#15D6FF" stroke-linecap="square"/>
<path opacity="0.6" d="M335.396 360.5V362.5" stroke="#15D6FF" stroke-linecap="square"/>
<path opacity="0.6" d="M337.937 360.5V362.5" stroke="#15D6FF" stroke-linecap="square"/>
<path opacity="0.6" d="M340.478 360.5V362.5" stroke="#15D6FF" stroke-linecap="square"/>
<path opacity="0.6" d="M343.019 360.5V362.5" stroke="#15D6FF" stroke-linecap="square"/>
<path opacity="0.6" d="M345.56 360.5V362.5" stroke="#15D6FF" stroke-linecap="square"/>
<path opacity="0.6" d="M348.101 360.5V362.5" stroke="#15D6FF" stroke-linecap="square"/>
<path opacity="0.6" d="M350.641 360.5V362.5" stroke="#15D6FF" stroke-linecap="square"/>
<path opacity="0.6" d="M353.182 360.5V362.5" stroke="#15D6FF" stroke-linecap="square"/>
<path opacity="0.6" d="M355.723 360.5V362.5" stroke="#15D6FF" stroke-linecap="square"/>
<path opacity="0.6" d="M358.264 360.5V362.5" stroke="#15D6FF" stroke-linecap="square"/>
<path opacity="0.6" d="M360.805 360.5V362.5" stroke="#15D6FF" stroke-linecap="square"/>
<path opacity="0.6" d="M363.346 360.5V362.5" stroke="#15D6FF" stroke-linecap="square"/>
<path opacity="0.6" d="M365.887 360.5V362.5" stroke="#15D6FF" stroke-linecap="square"/>
<path opacity="0.6" d="M368.428 360.5V362.5" stroke="#15D6FF" stroke-linecap="square"/>
<path opacity="0.6" d="M370.969 360.5V362.5" stroke="#15D6FF" stroke-linecap="square"/>
<path opacity="0.6" d="M373.509 360.5V362.5" stroke="#15D6FF" stroke-linecap="square"/>
<path opacity="0.6" d="M376.05 360.5V362.5" stroke="#15D6FF" stroke-linecap="square"/>
<path opacity="0.6" d="M378.591 360.5V362.5" stroke="#15D6FF" stroke-linecap="square"/>
<path opacity="0.6" d="M381.132 360.5V362.5" stroke="#15D6FF" stroke-linecap="square"/>
<path opacity="0.6" d="M383.673 360.5V362.5" stroke="#15D6FF" stroke-linecap="square"/>
<path opacity="0.6" d="M386.214 360.5V362.5" stroke="#15D6FF" stroke-linecap="square"/>
<path opacity="0.6" d="M388.755 360.5V362.5" stroke="#15D6FF" stroke-linecap="square"/>
<path opacity="0.6" d="M391.296 360.5V362.5" stroke="#15D6FF" stroke-linecap="square"/>
<path opacity="0.6" d="M393.836 360.5V362.5" stroke="#15D6FF" stroke-linecap="square"/>
<path opacity="0.6" d="M396.377 360.5V362.5" stroke="#15D6FF" stroke-linecap="square"/>
<path opacity="0.6" d="M398.918 360.5V362.5" stroke="#15D6FF" stroke-linecap="square"/>
<path opacity="0.6" d="M401.459 360.5V362.5" stroke="#15D6FF" stroke-linecap="square"/>
<path opacity="0.6" d="M404 360.5V362.5" stroke="#15D6FF" stroke-linecap="square"/>
<path opacity="0.6" d="M406.541 360.5V362.5" stroke="#15D6FF" stroke-linecap="square"/>
<path opacity="0.6" d="M409.082 360.5V362.5" stroke="#15D6FF" stroke-linecap="square"/>
<path opacity="0.6" d="M411.623 360.5V362.5" stroke="#15D6FF" stroke-linecap="square"/>
<path opacity="0.6" d="M414.164 360.5V362.5" stroke="#15D6FF" stroke-linecap="square"/>
<path opacity="0.6" d="M416.704 360.5V362.5" stroke="#15D6FF" stroke-linecap="square"/>
<path opacity="0.6" d="M419.245 360.5V362.5" stroke="#15D6FF" stroke-linecap="square"/>
<path opacity="0.6" d="M421.786 360.5V362.5" stroke="#15D6FF" stroke-linecap="square"/>
<path opacity="0.6" d="M424.327 360.5V362.5" stroke="#15D6FF" stroke-linecap="square"/>
<path opacity="0.6" d="M426.868 360.5V362.5" stroke="#15D6FF" stroke-linecap="square"/>
<path opacity="0.6" d="M429.409 360.5V362.5" stroke="#15D6FF" stroke-linecap="square"/>
<path opacity="0.6" d="M431.95 360.5V362.5" stroke="#15D6FF" stroke-linecap="square"/>
<path opacity="0.6" d="M434.491 360.5V362.5" stroke="#15D6FF" stroke-linecap="square"/>
<path opacity="0.6" d="M437.031 360.5V362.5" stroke="#15D6FF" stroke-linecap="square"/>
<path opacity="0.6" d="M439.572 360.5V362.5" stroke="#15D6FF" stroke-linecap="square"/>
<path opacity="0.6" d="M442.113 360.5V362.5" stroke="#15D6FF" stroke-linecap="square"/>
<path opacity="0.6" d="M444.654 360.5V362.5" stroke="#15D6FF" stroke-linecap="square"/>
<path opacity="0.6" d="M447.195 360.5V362.5" stroke="#15D6FF" stroke-linecap="square"/>
<path opacity="0.6" d="M449.736 360.5V362.5" stroke="#15D6FF" stroke-linecap="square"/>
<path opacity="0.6" d="M452.277 360.5V362.5" stroke="#15D6FF" stroke-linecap="square"/>
<path opacity="0.6" d="M454.818 360.5V362.5" stroke="#15D6FF" stroke-linecap="square"/>
<path opacity="0.6" d="M457.359 360.5V362.5" stroke="#15D6FF" stroke-linecap="square"/>
<path opacity="0.6" d="M459.899 360.5V362.5" stroke="#15D6FF" stroke-linecap="square"/>
<path opacity="0.6" d="M462.44 360.5V362.5" stroke="#15D6FF" stroke-linecap="square"/>
<path opacity="0.6" d="M464.981 360.5V362.5" stroke="#15D6FF" stroke-linecap="square"/>
<path opacity="0.6" d="M467.522 360.5V362.5" stroke="#15D6FF" stroke-linecap="square"/>
<path opacity="0.6" d="M470.063 360.5V362.5" stroke="#15D6FF" stroke-linecap="square"/>
<path opacity="0.6" d="M472.604 360.5V362.5" stroke="#15D6FF" stroke-linecap="square"/>
<path opacity="0.6" d="M475.145 360.5V362.5" stroke="#15D6FF" stroke-linecap="square"/>
<path opacity="0.6" d="M477.686 360.5V362.5" stroke="#15D6FF" stroke-linecap="square"/>
<path opacity="0.6" d="M480.226 360.5V362.5" stroke="#15D6FF" stroke-linecap="square"/>
<path opacity="0.6" d="M482.767 360.5V362.5" stroke="#15D6FF" stroke-linecap="square"/>
<path opacity="0.6" d="M485.308 360.5V362.5" stroke="#15D6FF" stroke-linecap="square"/>
<path opacity="0.6" d="M487.849 360.5V362.5" stroke="#15D6FF" stroke-linecap="square"/>
<path opacity="0.6" d="M490.39 360.5V362.5" stroke="#15D6FF" stroke-linecap="square"/>
<path opacity="0.6" d="M492.931 360.5V362.5" stroke="#15D6FF" stroke-linecap="square"/>
<path opacity="0.6" d="M495.472 360.5V362.5" stroke="#15D6FF" stroke-linecap="square"/>
<path opacity="0.6" d="M498.013 360.5V362.5" stroke="#15D6FF" stroke-linecap="square"/>
<path opacity="0.6" d="M500.553 360.5V362.5" stroke="#15D6FF" stroke-linecap="square"/>
<path opacity="0.6" d="M503.094 360.5V362.5" stroke="#15D6FF" stroke-linecap="square"/>
<path opacity="0.6" d="M505.635 360.5V362.5" stroke="#15D6FF" stroke-linecap="square"/>
<path opacity="0.6" d="M508.176 360.5V362.5" stroke="#15D6FF" stroke-linecap="square"/>
<path opacity="0.6" d="M510.717 360.5V362.5" stroke="#15D6FF" stroke-linecap="square"/>
<path opacity="0.6" d="M513.258 360.5V362.5" stroke="#15D6FF" stroke-linecap="square"/>
<path opacity="0.6" d="M515.799 360.5V362.5" stroke="#15D6FF" stroke-linecap="square"/>
<path opacity="0.6" d="M518.34 360.5V362.5" stroke="#15D6FF" stroke-linecap="square"/>
<path opacity="0.6" d="M520.88 360.5V362.5" stroke="#15D6FF" stroke-linecap="square"/>
<path opacity="0.6" d="M523.421 360.5V362.5" stroke="#15D6FF" stroke-linecap="square"/>
<path opacity="0.6" d="M525.962 360.5V362.5" stroke="#15D6FF" stroke-linecap="square"/>
<path opacity="0.6" d="M528.503 360.5V362.5" stroke="#15D6FF" stroke-linecap="square"/>
<path opacity="0.6" d="M531.044 360.5V362.5" stroke="#15D6FF" stroke-linecap="square"/>
<path opacity="0.6" d="M533.585 360.5V362.5" stroke="#15D6FF" stroke-linecap="square"/>
<path opacity="0.6" d="M536.126 360.5V362.5" stroke="#15D6FF" stroke-linecap="square"/>
<path opacity="0.6" d="M538.667 360.5V362.5" stroke="#15D6FF" stroke-linecap="square"/>
<path opacity="0.6" d="M541.208 360.5V362.5" stroke="#15D6FF" stroke-linecap="square"/>
<path opacity="0.6" d="M543.748 360.5V362.5" stroke="#15D6FF" stroke-linecap="square"/>
<path opacity="0.6" d="M546.289 360.5V362.5" stroke="#15D6FF" stroke-linecap="square"/>
<path opacity="0.6" d="M548.83 360.5V362.5" stroke="#15D6FF" stroke-linecap="square"/>
<path opacity="0.6" d="M551.371 360.5V362.5" stroke="#15D6FF" stroke-linecap="square"/>
<path opacity="0.6" d="M553.912 360.5V362.5" stroke="#15D6FF" stroke-linecap="square"/>
<path opacity="0.6" d="M556.453 360.5V362.5" stroke="#15D6FF" stroke-linecap="square"/>
<path opacity="0.6" d="M558.994 360.5V362.5" stroke="#15D6FF" stroke-linecap="square"/>
<path opacity="0.6" d="M561.535 360.5V362.5" stroke="#15D6FF" stroke-linecap="square"/>
<path opacity="0.6" d="M564.076 360.5V362.5" stroke="#15D6FF" stroke-linecap="square"/>
<path opacity="0.6" d="M566.616 360.5V362.5" stroke="#15D6FF" stroke-linecap="square"/>
<path opacity="0.6" d="M569.157 360.5V362.5" stroke="#15D6FF" stroke-linecap="square"/>
<path opacity="0.6" d="M571.698 360.5V362.5" stroke="#15D6FF" stroke-linecap="square"/>
<path opacity="0.6" d="M574.239 360.5V362.5" stroke="#15D6FF" stroke-linecap="square"/>
<path opacity="0.6" d="M576.78 360.5V362.5" stroke="#15D6FF" stroke-linecap="square"/>
<path opacity="0.6" d="M579.321 360.5V362.5" stroke="#15D6FF" stroke-linecap="square"/>
<path opacity="0.6" d="M581.862 360.5V362.5" stroke="#15D6FF" stroke-linecap="square"/>
<path opacity="0.6" d="M584.403 360.5V362.5" stroke="#15D6FF" stroke-linecap="square"/>
<path opacity="0.6" d="M586.943 360.5V362.5" stroke="#15D6FF" stroke-linecap="square"/>
<path opacity="0.6" d="M589.484 360.5V362.5" stroke="#15D6FF" stroke-linecap="square"/>
<path opacity="0.6" d="M592.025 360.5V362.5" stroke="#15D6FF" stroke-linecap="square"/>
<path opacity="0.6" d="M594.566 360.5V362.5" stroke="#15D6FF" stroke-linecap="square"/>
<path opacity="0.6" d="M597.107 360.5V362.5" stroke="#15D6FF" stroke-linecap="square"/>
<path opacity="0.6" d="M599.648 360.5V362.5" stroke="#15D6FF" stroke-linecap="square"/>
<path opacity="0.6" d="M602.189 360.5V362.5" stroke="#15D6FF" stroke-linecap="square"/>
<path opacity="0.6" d="M604.73 360.5V362.5" stroke="#15D6FF" stroke-linecap="square"/>
<path d="M0 360.5V365.5" stroke="#15D6FF" stroke-linecap="square"/>
<path d="M-8.90652 368.227H-8.02583V373.426C-8.02583 373.89 -8.11106 374.284 -8.28152 374.609C-8.45197 374.933 -8.69226 375.179 -9.0024 375.347C-9.31253 375.515 -9.6783 375.599 -10.0997 375.599C-10.4974 375.599 -10.8514 375.527 -11.1615 375.383C-11.4716 375.236 -11.7155 375.028 -11.893 374.758C-12.0706 374.488 -12.1594 374.167 -12.1594 373.795H-11.2929C-11.2929 374.001 -11.242 374.181 -11.1402 374.335C-11.036 374.487 -10.894 374.605 -10.714 374.69C-10.5341 374.776 -10.3293 374.818 -10.0997 374.818C-9.84638 374.818 -9.63095 374.765 -9.45339 374.658C-9.27583 374.552 -9.14089 374.396 -9.04856 374.19C-8.95386 373.981 -8.90652 373.727 -8.90652 373.426V368.227ZM-2.93706 373.27V370.045H-2.09899V375.5H-2.93706V374.577H-2.99387C-3.12172 374.854 -3.32058 375.089 -3.59047 375.283C-3.86035 375.475 -4.20126 375.571 -4.61319 375.571C-4.9541 375.571 -5.25713 375.496 -5.52228 375.347C-5.78743 375.196 -5.99577 374.969 -6.14728 374.665C-6.2988 374.36 -6.37456 373.975 -6.37456 373.511V370.045H-5.53649V373.455C-5.53649 373.852 -5.42522 374.17 -5.20268 374.406C-4.97778 374.643 -4.69132 374.761 -4.34331 374.761C-4.13497 374.761 -3.92309 374.708 -3.70765 374.602C-3.48985 374.495 -3.30756 374.332 -3.16078 374.112C-3.01163 373.891 -2.93706 373.611 -2.93706 373.27ZM0.274059 372.219V375.5H-0.564009V370.045H0.24565V370.898H0.316673C0.444514 370.621 0.638642 370.398 0.899059 370.23C1.15948 370.06 1.49565 369.974 1.90758 369.974C2.2769 369.974 2.60005 370.05 2.87704 370.202C3.15403 370.351 3.36947 370.578 3.52335 370.884C3.67723 371.187 3.75417 371.57 3.75417 372.034V375.5H2.9161V372.091C2.9161 371.662 2.80484 371.329 2.5823 371.089C2.35976 370.848 2.05436 370.727 1.6661 370.727C1.39859 370.727 1.15948 370.785 0.948775 370.901C0.740442 371.017 0.575906 371.187 0.455167 371.409C0.334428 371.632 0.274059 371.902 0.274059 372.219ZM10.3992 368.128C10.6975 368.13 10.9958 368.187 11.2941 368.298C11.5924 368.41 11.8647 368.594 12.1109 368.852C12.3571 369.108 12.5548 369.457 12.7039 369.9C12.8531 370.343 12.9276 370.898 12.9276 371.565C12.9276 372.212 12.8661 372.786 12.743 373.288C12.6222 373.787 12.4471 374.209 12.2174 374.552C11.9901 374.895 11.7132 375.156 11.3865 375.333C11.0621 375.511 10.6952 375.599 10.2856 375.599C9.8784 375.599 9.515 375.519 9.1954 375.358C8.87817 375.195 8.61775 374.969 8.41415 374.68C8.21292 374.388 8.0839 374.051 8.02708 373.668H8.89355C8.97168 374.001 9.12675 374.277 9.35875 374.495C9.59313 374.71 9.90208 374.818 10.2856 374.818C10.8467 374.818 11.2894 374.573 11.6137 374.083C11.9404 373.593 12.1038 372.901 12.1038 372.006H12.047C11.9144 372.205 11.757 372.376 11.5747 372.521C11.3924 372.665 11.19 372.776 10.9674 372.854C10.7449 372.933 10.5081 372.972 10.2572 372.972C9.84052 372.972 9.45819 372.869 9.11017 372.663C8.76453 372.454 8.48754 372.169 8.27921 371.807C8.07324 371.442 7.97026 371.026 7.97026 370.557C7.97026 370.112 8.06969 369.705 8.26855 369.335C8.46979 368.964 8.75151 368.668 9.11373 368.447C9.47831 368.227 9.90681 368.121 10.3992 368.128ZM10.3992 368.909C10.1009 368.909 9.83224 368.984 9.59313 369.133C9.35639 369.28 9.16818 369.478 9.0285 369.729C8.89119 369.978 8.82253 370.254 8.82253 370.557C8.82253 370.86 8.88882 371.136 9.0214 371.384C9.15634 371.63 9.33981 371.827 9.57182 371.974C9.8062 372.118 10.0725 372.19 10.3708 372.19C10.5957 372.19 10.8052 372.147 10.9994 372.059C11.1935 371.969 11.3628 371.847 11.5072 371.693C11.654 371.537 11.7688 371.361 11.8517 371.164C11.9345 370.965 11.9759 370.758 11.9759 370.543C11.9759 370.259 11.9073 369.992 11.77 369.744C11.635 369.495 11.448 369.294 11.2089 369.14C10.9722 368.986 10.7023 368.909 10.3992 368.909Z" fill="#15D6FF"/>
<path d="M139.748 360.5V365.5" stroke="#15D6FF" stroke-linecap="square"/>
<path d="M128.67 370.045C128.628 369.686 128.455 369.406 128.152 369.207C127.849 369.009 127.477 368.909 127.037 368.909C126.715 368.909 126.433 368.961 126.192 369.065C125.953 369.17 125.766 369.313 125.631 369.495C125.498 369.677 125.432 369.884 125.432 370.116C125.432 370.311 125.478 370.478 125.57 370.617C125.665 370.754 125.786 370.869 125.933 370.962C126.079 371.052 126.233 371.126 126.394 371.185C126.555 371.242 126.703 371.288 126.838 371.324L127.577 371.523C127.766 371.572 127.977 371.641 128.209 371.729C128.443 371.816 128.667 371.936 128.88 372.087C129.095 372.237 129.273 372.428 129.413 372.663C129.552 372.897 129.622 373.185 129.622 373.526C129.622 373.919 129.519 374.274 129.313 374.591C129.11 374.908 128.811 375.16 128.418 375.347C128.028 375.534 127.553 375.628 126.994 375.628C126.473 375.628 126.022 375.544 125.641 375.376C125.263 375.208 124.964 374.973 124.746 374.673C124.531 374.372 124.409 374.023 124.381 373.625H125.29C125.313 373.9 125.406 374.127 125.567 374.307C125.73 374.484 125.936 374.617 126.185 374.705C126.436 374.79 126.705 374.832 126.994 374.832C127.33 374.832 127.632 374.778 127.9 374.669C128.167 374.558 128.379 374.404 128.536 374.207C128.692 374.009 128.77 373.777 128.77 373.511C128.77 373.27 128.702 373.073 128.567 372.922C128.433 372.77 128.255 372.647 128.035 372.553C127.815 372.458 127.577 372.375 127.321 372.304L126.426 372.048C125.858 371.885 125.408 371.652 125.077 371.349C124.745 371.046 124.58 370.649 124.58 370.159C124.58 369.752 124.69 369.397 124.91 369.094C125.132 368.788 125.431 368.552 125.805 368.384C126.181 368.213 126.601 368.128 127.065 368.128C127.534 368.128 127.951 368.212 128.315 368.38C128.68 368.546 128.969 368.773 129.182 369.062C129.397 369.351 129.511 369.679 129.523 370.045H128.67ZM133.243 375.614C132.718 375.614 132.265 375.498 131.883 375.266C131.505 375.031 131.212 374.705 131.006 374.286C130.803 373.864 130.701 373.374 130.701 372.815C130.701 372.257 130.803 371.764 131.006 371.338C131.212 370.91 131.499 370.576 131.866 370.337C132.235 370.095 132.666 369.974 133.158 369.974C133.442 369.974 133.723 370.022 134 370.116C134.277 370.211 134.529 370.365 134.756 370.578C134.983 370.789 135.165 371.068 135.3 371.416C135.434 371.764 135.502 372.193 135.502 372.702V373.057H131.297V372.332H134.65C134.65 372.025 134.588 371.75 134.465 371.509C134.344 371.267 134.171 371.076 133.947 370.937C133.724 370.797 133.461 370.727 133.158 370.727C132.824 370.727 132.536 370.81 132.292 370.976C132.05 371.139 131.864 371.352 131.734 371.615C131.604 371.878 131.539 372.16 131.539 372.46V372.943C131.539 373.355 131.61 373.704 131.752 373.991C131.896 374.275 132.096 374.491 132.352 374.641C132.608 374.787 132.905 374.861 133.243 374.861C133.464 374.861 133.662 374.83 133.84 374.768C134.02 374.705 134.175 374.61 134.305 374.484C134.435 374.357 134.536 374.198 134.607 374.009L135.417 374.236C135.331 374.51 135.188 374.752 134.987 374.96C134.786 375.166 134.537 375.327 134.241 375.443C133.945 375.557 133.613 375.614 133.243 375.614ZM136.777 377.545V370.045H137.586V370.912H137.686C137.747 370.817 137.833 370.696 137.942 370.55C138.053 370.401 138.211 370.268 138.417 370.152C138.626 370.034 138.907 369.974 139.263 369.974C139.722 369.974 140.127 370.089 140.477 370.319C140.827 370.549 141.101 370.874 141.297 371.295C141.494 371.717 141.592 372.214 141.592 372.787C141.592 373.365 141.494 373.865 141.297 374.289C141.101 374.71 140.829 375.037 140.481 375.269C140.133 375.499 139.731 375.614 139.277 375.614C138.926 375.614 138.646 375.556 138.435 375.44C138.224 375.321 138.062 375.187 137.949 375.038C137.835 374.887 137.747 374.761 137.686 374.662H137.615V377.545H136.777ZM137.601 372.773C137.601 373.185 137.661 373.548 137.782 373.863C137.903 374.175 138.079 374.42 138.311 374.598C138.543 374.773 138.827 374.861 139.163 374.861C139.514 374.861 139.806 374.768 140.04 374.584C140.277 374.397 140.455 374.146 140.573 373.831C140.694 373.514 140.754 373.161 140.754 372.773C140.754 372.389 140.695 372.044 140.577 371.736C140.461 371.426 140.284 371.181 140.047 371.001C139.813 370.818 139.518 370.727 139.163 370.727C138.822 370.727 138.536 370.814 138.304 370.987C138.072 371.157 137.897 371.396 137.778 371.704C137.66 372.009 137.601 372.366 137.601 372.773ZM145.669 375.5V374.861L148.069 372.233C148.351 371.925 148.583 371.658 148.765 371.43C148.948 371.201 149.083 370.985 149.17 370.784C149.26 370.58 149.305 370.367 149.305 370.145C149.305 369.889 149.244 369.668 149.121 369.481C149 369.294 148.834 369.149 148.623 369.048C148.413 368.946 148.176 368.895 147.913 368.895C147.634 368.895 147.39 368.953 147.182 369.069C146.976 369.183 146.816 369.342 146.702 369.548C146.591 369.754 146.535 369.996 146.535 370.273H145.697C145.697 369.847 145.796 369.473 145.992 369.151C146.189 368.829 146.456 368.578 146.795 368.398C147.135 368.218 147.518 368.128 147.942 368.128C148.368 368.128 148.745 368.218 149.074 368.398C149.403 368.578 149.662 368.82 149.849 369.126C150.036 369.431 150.129 369.771 150.129 370.145C150.129 370.412 150.081 370.674 149.983 370.93C149.889 371.183 149.723 371.466 149.486 371.778C149.252 372.089 148.926 372.467 148.51 372.915L146.876 374.662V374.719H150.257V375.5H145.669ZM151.951 375.5L155.204 369.065V369.009H151.454V368.227H156.113V369.051L152.874 375.5H151.951Z" fill="#15D6FF"/>
<path d="M256.629 360.5V365.5" stroke="#15D6FF" stroke-linecap="square"/>
<path d="M242.942 375.5H240.698V368.227H243.042C243.747 368.227 244.351 368.373 244.853 368.664C245.355 368.953 245.739 369.368 246.007 369.911C246.275 370.45 246.408 371.097 246.408 371.849C246.408 372.607 246.273 373.259 246.003 373.806C245.734 374.351 245.341 374.77 244.824 375.063C244.308 375.354 243.681 375.5 242.942 375.5ZM241.579 374.719H242.886C243.487 374.719 243.985 374.603 244.381 374.371C244.776 374.139 245.071 373.808 245.265 373.38C245.459 372.951 245.556 372.441 245.556 371.849C245.556 371.262 245.46 370.757 245.268 370.333C245.077 369.907 244.79 369.58 244.409 369.353C244.028 369.123 243.553 369.009 242.985 369.009H241.579V374.719ZM250.059 375.614C249.533 375.614 249.08 375.498 248.699 375.266C248.32 375.031 248.028 374.705 247.822 374.286C247.618 373.864 247.516 373.374 247.516 372.815C247.516 372.257 247.618 371.764 247.822 371.338C248.028 370.91 248.314 370.576 248.681 370.337C249.05 370.095 249.481 369.974 249.974 369.974C250.258 369.974 250.538 370.022 250.815 370.116C251.092 370.211 251.344 370.365 251.572 370.578C251.799 370.789 251.98 371.068 252.115 371.416C252.25 371.764 252.317 372.193 252.317 372.702V373.057H248.113V372.332H251.465C251.465 372.025 251.404 371.75 251.28 371.509C251.16 371.267 250.987 371.076 250.762 370.937C250.539 370.797 250.277 370.727 249.974 370.727C249.64 370.727 249.351 370.81 249.107 370.976C248.866 371.139 248.68 371.352 248.55 371.615C248.419 371.878 248.354 372.16 248.354 372.46V372.943C248.354 373.355 248.425 373.704 248.567 373.991C248.712 374.275 248.912 374.491 249.168 374.641C249.423 374.787 249.72 374.861 250.059 374.861C250.279 374.861 250.478 374.83 250.655 374.768C250.835 374.705 250.99 374.61 251.121 374.484C251.251 374.357 251.351 374.198 251.422 374.009L252.232 374.236C252.147 374.51 252.004 374.752 251.802 374.96C251.601 375.166 251.353 375.327 251.057 375.443C250.761 375.557 250.428 375.614 250.059 375.614ZM255.808 375.614C255.297 375.614 254.856 375.493 254.487 375.251C254.118 375.01 253.834 374.677 253.635 374.254C253.436 373.83 253.337 373.346 253.337 372.801C253.337 372.247 253.438 371.758 253.642 371.335C253.848 370.908 254.134 370.576 254.501 370.337C254.871 370.095 255.302 369.974 255.794 369.974C256.177 369.974 256.523 370.045 256.831 370.188C257.139 370.33 257.391 370.528 257.587 370.784C257.784 371.04 257.906 371.338 257.953 371.679H257.115C257.051 371.43 256.909 371.21 256.689 371.018C256.471 370.824 256.177 370.727 255.808 370.727C255.481 370.727 255.195 370.812 254.949 370.983C254.705 371.151 254.514 371.389 254.377 371.697C254.242 372.002 254.175 372.361 254.175 372.773C254.175 373.194 254.241 373.561 254.373 373.874C254.508 374.186 254.698 374.429 254.942 374.602C255.188 374.774 255.477 374.861 255.808 374.861C256.026 374.861 256.224 374.823 256.401 374.747C256.579 374.671 256.729 374.562 256.852 374.42C256.975 374.278 257.063 374.108 257.115 373.909H257.953C257.906 374.231 257.789 374.521 257.601 374.779C257.417 375.035 257.172 375.238 256.866 375.39C256.563 375.539 256.211 375.614 255.808 375.614ZM261.976 375.5V374.861L264.377 372.233C264.659 371.925 264.891 371.658 265.073 371.43C265.255 371.201 265.39 370.985 265.478 370.784C265.568 370.58 265.613 370.367 265.613 370.145C265.613 369.889 265.551 369.668 265.428 369.481C265.307 369.294 265.142 369.149 264.931 369.048C264.72 368.946 264.484 368.895 264.221 368.895C263.941 368.895 263.698 368.953 263.489 369.069C263.283 369.183 263.123 369.342 263.01 369.548C262.899 369.754 262.843 369.996 262.843 370.273H262.005C262.005 369.847 262.103 369.473 262.3 369.151C262.496 368.829 262.764 368.578 263.102 368.398C263.443 368.218 263.825 368.128 264.249 368.128C264.675 368.128 265.053 368.218 265.382 368.398C265.711 368.578 265.969 368.82 266.156 369.126C266.343 369.431 266.437 369.771 266.437 370.145C266.437 370.412 266.388 370.674 266.291 370.93C266.196 371.183 266.031 371.466 265.794 371.778C265.56 372.089 265.234 372.467 264.817 372.915L263.184 374.662V374.719H266.565V375.5H261.976ZM270.361 375.599C269.873 375.599 269.442 375.513 269.068 375.34C268.696 375.165 268.406 374.925 268.198 374.619C267.99 374.312 267.887 373.961 267.889 373.568C267.887 373.26 267.947 372.976 268.07 372.716C268.193 372.453 268.361 372.234 268.574 372.059C268.79 371.881 269.03 371.769 269.295 371.722V371.679C268.947 371.589 268.67 371.394 268.464 371.093C268.258 370.79 268.157 370.446 268.159 370.06C268.157 369.69 268.25 369.36 268.44 369.069C268.629 368.778 268.889 368.548 269.221 368.38C269.555 368.212 269.935 368.128 270.361 368.128C270.782 368.128 271.159 368.212 271.49 368.38C271.821 368.548 272.082 368.778 272.271 369.069C272.463 369.36 272.56 369.69 272.562 370.06C272.56 370.446 272.455 370.79 272.246 371.093C272.04 371.394 271.767 371.589 271.426 371.679V371.722C271.689 371.769 271.926 371.881 272.136 372.059C272.347 372.234 272.515 372.453 272.641 372.716C272.766 372.976 272.83 373.26 272.832 373.568C272.83 373.961 272.723 374.312 272.513 374.619C272.304 374.925 272.014 375.165 271.643 375.34C271.273 375.513 270.846 375.599 270.361 375.599ZM270.361 374.818C270.69 374.818 270.974 374.765 271.213 374.658C271.452 374.552 271.637 374.402 271.767 374.207C271.897 374.013 271.963 373.786 271.966 373.526C271.963 373.251 271.892 373.008 271.753 372.798C271.613 372.587 271.422 372.421 271.181 372.3C270.942 372.18 270.668 372.119 270.361 372.119C270.051 372.119 269.774 372.18 269.53 372.3C269.288 372.421 269.098 372.587 268.958 372.798C268.821 373.008 268.753 373.251 268.756 373.526C268.753 373.786 268.816 374.013 268.944 374.207C269.074 374.402 269.26 374.552 269.501 374.658C269.743 374.765 270.029 374.818 270.361 374.818ZM270.361 371.366C270.621 371.366 270.852 371.314 271.053 371.21C271.257 371.106 271.417 370.96 271.533 370.773C271.649 370.586 271.708 370.367 271.71 370.116C271.708 369.87 271.65 369.656 271.536 369.474C271.422 369.289 271.265 369.147 271.064 369.048C270.863 368.946 270.628 368.895 270.361 368.895C270.088 368.895 269.851 368.946 269.647 369.048C269.443 369.147 269.286 369.289 269.175 369.474C269.063 369.656 269.009 369.87 269.011 370.116C269.009 370.367 269.065 370.586 269.178 370.773C269.294 370.96 269.454 371.106 269.658 371.21C269.861 371.314 270.096 371.366 270.361 371.366Z" fill="#15D6FF"/>
<path d="M373.51 360.5V365.5" stroke="#15D6FF" stroke-linecap="square"/>
<path d="M357.55 368.227H358.601L361.072 374.264H361.158L363.629 368.227H364.68V375.5H363.856V369.974H363.785L361.513 375.5H360.717L358.445 369.974H358.373V375.5H357.55V368.227ZM367.938 375.628C367.592 375.628 367.278 375.563 366.997 375.433C366.715 375.3 366.491 375.109 366.325 374.861C366.16 374.61 366.077 374.307 366.077 373.952C366.077 373.639 366.138 373.386 366.261 373.192C366.385 372.995 366.549 372.841 366.755 372.73C366.961 372.619 367.188 372.536 367.437 372.482C367.688 372.425 367.94 372.38 368.193 372.347C368.525 372.304 368.793 372.272 368.999 372.251C369.208 372.227 369.359 372.188 369.454 372.134C369.551 372.079 369.6 371.984 369.6 371.849V371.821C369.6 371.471 369.504 371.198 369.312 371.004C369.122 370.81 368.835 370.713 368.449 370.713C368.049 370.713 367.735 370.801 367.508 370.976C367.281 371.151 367.121 371.338 367.028 371.537L366.233 371.253C366.375 370.921 366.564 370.663 366.801 370.479C367.04 370.292 367.301 370.161 367.582 370.088C367.867 370.012 368.146 369.974 368.421 369.974C368.596 369.974 368.797 369.996 369.024 370.038C369.254 370.079 369.475 370.163 369.688 370.29C369.904 370.418 370.082 370.611 370.225 370.869C370.367 371.127 370.438 371.473 370.438 371.906V375.5H369.6V374.761H369.557C369.5 374.88 369.405 375.006 369.273 375.141C369.14 375.276 368.964 375.391 368.744 375.486C368.524 375.58 368.255 375.628 367.938 375.628ZM368.065 374.875C368.397 374.875 368.676 374.81 368.903 374.68C369.133 374.549 369.306 374.381 369.422 374.175C369.54 373.969 369.6 373.753 369.6 373.526V372.759C369.564 372.801 369.486 372.84 369.365 372.876C369.247 372.909 369.109 372.938 368.953 372.964C368.799 372.988 368.649 373.009 368.502 373.028C368.358 373.045 368.241 373.059 368.151 373.071C367.933 373.099 367.729 373.146 367.54 373.21C367.353 373.271 367.201 373.365 367.085 373.49C366.972 373.613 366.915 373.781 366.915 373.994C366.915 374.286 367.023 374.506 367.238 374.655C367.456 374.802 367.732 374.875 368.065 374.875ZM371.967 375.5V370.045H372.777V370.869H372.834C372.933 370.599 373.113 370.38 373.373 370.212C373.634 370.044 373.927 369.96 374.254 369.96C374.316 369.96 374.393 369.961 374.485 369.964C374.577 369.966 374.647 369.97 374.695 369.974V370.827C374.666 370.82 374.601 370.809 374.499 370.795C374.4 370.778 374.294 370.77 374.183 370.77C373.918 370.77 373.681 370.826 373.473 370.937C373.267 371.046 373.104 371.197 372.983 371.391C372.864 371.583 372.805 371.802 372.805 372.048V375.5H371.967ZM380.944 375.599C380.475 375.599 380.057 375.519 379.69 375.358C379.325 375.197 379.035 374.973 378.82 374.687C378.607 374.398 378.491 374.063 378.472 373.682H379.367C379.386 373.916 379.466 374.119 379.608 374.289C379.75 374.457 379.936 374.587 380.166 374.68C380.396 374.772 380.65 374.818 380.929 374.818C381.242 374.818 381.519 374.764 381.76 374.655C382.002 374.546 382.191 374.394 382.329 374.2C382.466 374.006 382.535 373.781 382.535 373.526C382.535 373.258 382.468 373.022 382.336 372.819C382.203 372.613 382.009 372.452 381.753 372.336C381.498 372.22 381.185 372.162 380.816 372.162H380.233V371.381H380.816C381.105 371.381 381.358 371.329 381.576 371.224C381.796 371.12 381.968 370.973 382.091 370.784C382.216 370.595 382.279 370.372 382.279 370.116C382.279 369.87 382.224 369.656 382.116 369.474C382.007 369.291 381.853 369.149 381.654 369.048C381.457 368.946 381.225 368.895 380.958 368.895C380.707 368.895 380.47 368.941 380.248 369.033C380.027 369.123 379.848 369.255 379.708 369.428C379.568 369.598 379.492 369.804 379.481 370.045H378.628C378.642 369.664 378.757 369.33 378.973 369.044C379.188 368.755 379.47 368.53 379.818 368.369C380.168 368.208 380.553 368.128 380.972 368.128C381.422 368.128 381.808 368.219 382.13 368.401C382.452 368.581 382.699 368.819 382.872 369.115C383.045 369.411 383.131 369.731 383.131 370.074C383.131 370.483 383.023 370.833 382.808 371.121C382.595 371.41 382.305 371.61 381.938 371.722V371.778C382.397 371.854 382.756 372.049 383.014 372.364C383.272 372.677 383.401 373.064 383.401 373.526C383.401 373.921 383.293 374.276 383.078 374.591C382.865 374.903 382.574 375.15 382.204 375.33C381.835 375.509 381.415 375.599 380.944 375.599ZM387.226 375.599C386.691 375.599 386.235 375.454 385.858 375.163C385.482 374.869 385.194 374.444 384.995 373.888C384.797 373.329 384.697 372.654 384.697 371.864C384.697 371.078 384.797 370.406 384.995 369.85C385.197 369.291 385.486 368.865 385.862 368.572C386.241 368.276 386.695 368.128 387.226 368.128C387.756 368.128 388.209 368.276 388.586 368.572C388.964 368.865 389.253 369.291 389.452 369.85C389.653 370.406 389.754 371.078 389.754 371.864C389.754 372.654 389.655 373.329 389.456 373.888C389.257 374.444 388.969 374.869 388.593 375.163C388.216 375.454 387.761 375.599 387.226 375.599ZM387.226 374.818C387.756 374.818 388.168 374.562 388.461 374.051C388.755 373.54 388.902 372.811 388.902 371.864C388.902 371.234 388.834 370.698 388.699 370.255C388.567 369.812 388.375 369.475 388.124 369.243C387.875 369.011 387.576 368.895 387.226 368.895C386.7 368.895 386.289 369.154 385.993 369.673C385.697 370.189 385.549 370.919 385.549 371.864C385.549 372.493 385.616 373.028 385.748 373.469C385.881 373.909 386.071 374.244 386.32 374.474C386.571 374.703 386.873 374.818 387.226 374.818Z" fill="#15D6FF"/>
<path d="M490.391 360.5V365.5" stroke="#15D6FF" stroke-linecap="square"/>
<path d="M478.296 368.227H479.176V373.426C479.176 373.89 479.091 374.284 478.921 374.609C478.75 374.933 478.51 375.179 478.2 375.347C477.89 375.515 477.524 375.599 477.102 375.599C476.705 375.599 476.351 375.527 476.041 375.383C475.731 375.236 475.487 375.028 475.309 374.758C475.132 374.488 475.043 374.167 475.043 373.795H475.909C475.909 374.001 475.96 374.181 476.062 374.335C476.166 374.487 476.308 374.605 476.488 374.69C476.668 374.776 476.873 374.818 477.102 374.818C477.356 374.818 477.571 374.765 477.749 374.658C477.926 374.552 478.061 374.396 478.154 374.19C478.248 373.981 478.296 373.727 478.296 373.426V368.227ZM484.265 373.27V370.045H485.103V375.5H484.265V374.577H484.208C484.08 374.854 483.882 375.089 483.612 375.283C483.342 375.475 483.001 375.571 482.589 375.571C482.248 375.571 481.945 375.496 481.68 375.347C481.415 375.196 481.206 374.969 481.055 374.665C480.903 374.36 480.828 373.975 480.828 373.511V370.045H481.666V373.455C481.666 373.852 481.777 374.17 481.999 374.406C482.224 374.643 482.511 374.761 482.859 374.761C483.067 374.761 483.279 374.708 483.494 374.602C483.712 374.495 483.895 374.332 484.041 374.112C484.191 373.891 484.265 373.611 484.265 373.27ZM487.476 372.219V375.5H486.638V370.045H487.448V370.898H487.519C487.647 370.621 487.841 370.398 488.101 370.23C488.362 370.06 488.698 369.974 489.11 369.974C489.479 369.974 489.802 370.05 490.079 370.202C490.356 370.351 490.572 370.578 490.725 370.884C490.879 371.187 490.956 371.57 490.956 372.034V375.5H490.118V372.091C490.118 371.662 490.007 371.329 489.784 371.089C489.562 370.848 489.257 370.727 488.868 370.727C488.601 370.727 488.362 370.785 488.151 370.901C487.943 371.017 487.778 371.187 487.657 371.409C487.537 371.632 487.476 371.902 487.476 372.219ZM497.743 375.599C497.275 375.599 496.857 375.519 496.49 375.358C496.125 375.197 495.835 374.973 495.62 374.687C495.407 374.398 495.291 374.063 495.272 373.682H496.167C496.186 373.916 496.266 374.119 496.408 374.289C496.55 374.457 496.736 374.587 496.966 374.68C497.195 374.772 497.45 374.818 497.729 374.818C498.042 374.818 498.319 374.764 498.56 374.655C498.802 374.546 498.991 374.394 499.128 374.2C499.266 374.006 499.334 373.781 499.334 373.526C499.334 373.258 499.268 373.022 499.135 372.819C499.003 372.613 498.809 372.452 498.553 372.336C498.297 372.22 497.985 372.162 497.616 372.162H497.033V371.381H497.616C497.904 371.381 498.158 371.329 498.376 371.224C498.596 371.12 498.767 370.973 498.89 370.784C499.016 370.595 499.079 370.372 499.079 370.116C499.079 369.87 499.024 369.656 498.915 369.474C498.806 369.291 498.653 369.149 498.454 369.048C498.257 368.946 498.025 368.895 497.758 368.895C497.507 368.895 497.27 368.941 497.047 369.033C496.827 369.123 496.647 369.255 496.508 369.428C496.368 369.598 496.292 369.804 496.28 370.045H495.428C495.442 369.664 495.557 369.33 495.773 369.044C495.988 368.755 496.27 368.53 496.618 368.369C496.968 368.208 497.353 368.128 497.772 368.128C498.222 368.128 498.608 368.219 498.93 368.401C499.251 368.581 499.499 368.819 499.672 369.115C499.845 369.411 499.931 369.731 499.931 370.074C499.931 370.483 499.823 370.833 499.608 371.121C499.395 371.41 499.105 371.61 498.738 371.722V371.778C499.197 371.854 499.556 372.049 499.814 372.364C500.072 372.677 500.201 373.064 500.201 373.526C500.201 373.921 500.093 374.276 499.878 374.591C499.665 374.903 499.373 375.15 499.004 375.33C498.635 375.509 498.215 375.599 497.743 375.599ZM504.025 375.599C503.49 375.599 503.035 375.454 502.658 375.163C502.282 374.869 501.994 374.444 501.795 373.888C501.596 373.329 501.497 372.654 501.497 371.864C501.497 371.078 501.596 370.406 501.795 369.85C501.997 369.291 502.285 368.865 502.662 368.572C503.041 368.276 503.495 368.128 504.025 368.128C504.556 368.128 505.009 368.276 505.385 368.572C505.764 368.865 506.053 369.291 506.252 369.85C506.453 370.406 506.554 371.078 506.554 371.864C506.554 372.654 506.454 373.329 506.256 373.888C506.057 374.444 505.769 374.869 505.393 375.163C505.016 375.454 504.56 375.599 504.025 375.599ZM504.025 374.818C504.556 374.818 504.968 374.562 505.261 374.051C505.555 373.54 505.702 372.811 505.702 371.864C505.702 371.234 505.634 370.698 505.499 370.255C505.367 369.812 505.175 369.475 504.924 369.243C504.675 369.011 504.376 368.895 504.025 368.895C503.5 368.895 503.089 369.154 502.793 369.673C502.497 370.189 502.349 370.919 502.349 371.864C502.349 372.493 502.416 373.028 502.548 373.469C502.681 373.909 502.871 374.244 503.12 374.474C503.371 374.703 503.673 374.818 504.025 374.818Z" fill="#15D6FF"/>
</g>
<defs>
<clipPath id="clip0_1174_11625">
<rect width="606" height="380" fill="white"/>
</clipPath>
</defs>
</svg>
