<svg width="17" height="16" viewBox="0 0 17 16" fill="none" xmlns="http://www.w3.org/2000/svg">
<path d="M11.1051 16.0001C10.8836 16.0001 10.736 15.9256 10.5883 15.7024C10.5145 15.5535 10.5145 15.3303 10.5883 15.107L11.4003 13.7675C11.548 13.4698 11.9171 13.3954 12.1385 13.5442C12.4338 13.6931 12.5076 14.0652 12.36 14.2884L12.1385 14.6605C14.2054 14.214 15.6818 12.3535 15.6818 10.121C15.6818 9.82331 15.9033 9.52563 16.2723 9.52563C16.6414 9.52563 16.8629 9.74889 16.8629 10.121C16.8629 13.4698 14.2792 16.0001 11.1051 16.0001Z" fill="white"/>
<path d="M1.50867 6.4C1.2134 6.4 0.991943 6.10233 0.991943 5.80465C0.991943 2.60465 3.57559 0 6.74978 0C6.97124 0 7.11888 0.0744186 7.19269 0.297674C7.26651 0.446512 7.26651 0.669767 7.19269 0.893023L6.38069 2.15814C6.23305 2.3814 5.86396 2.53023 5.64251 2.3814C5.42105 2.23256 5.27341 1.86047 5.42105 1.63721L5.64251 1.33953C3.57559 1.78605 2.09922 3.57209 2.09922 5.80465C2.09922 6.10233 1.80395 6.4 1.50867 6.4V6.4Z" fill="white"/>
<path d="M10.9574 8.48382V10.642C10.9574 12.428 10.2192 13.1722 8.44753 13.1722H6.23297C4.46133 13.2466 3.72314 12.5024 3.72314 10.7164V8.55823C3.72314 6.77219 4.46133 6.028 6.23297 6.028H8.37371C10.2192 5.95358 10.9574 6.69777 10.9574 8.48382V8.48382Z" fill="white"/>
<path d="M11.548 2.82788H9.40729C7.63565 2.82788 6.89746 3.57207 6.89746 5.28369H8.52147C10.6622 5.28369 11.6957 6.32556 11.6957 8.4837V10.1209C13.4673 10.1209 14.1317 9.37672 14.1317 7.59067V5.35811C14.0579 3.57207 13.3197 2.82788 11.548 2.82788V2.82788Z" fill="white"/>
</svg>
