<svg width="17" height="13" viewBox="0 0 17 13" fill="none" xmlns="http://www.w3.org/2000/svg">
<path d="M14.4134 1.09794C14.4086 1.08875 14.4008 1.08155 14.3913 1.07763C13.2891 0.570064 12.1259 0.208132 10.9309 0.000887765C10.9201 -0.001138 10.9089 0.000323411 10.8989 0.00506416C10.8889 0.00980492 10.8807 0.0175836 10.8753 0.0272941C10.717 0.315816 10.5732 0.612176 10.4446 0.915243C9.15645 0.71899 7.8462 0.71899 6.55809 0.915243C6.42861 0.611407 6.28253 0.314973 6.12051 0.0272941C6.11495 0.0177947 6.10667 0.0101951 6.09675 0.00548514C6.08683 0.000775178 6.07572 -0.000826856 6.06488 0.000887765C4.86978 0.207697 3.70657 0.569656 2.6045 1.07766C2.59507 1.08167 2.58711 1.08852 2.58172 1.09727C0.377814 4.40062 -0.22592 7.62274 0.0702513 10.805C0.0710845 10.8128 0.0734719 10.8203 0.0772715 10.8272C0.0810711 10.834 0.0862053 10.84 0.0923687 10.8449C1.37568 11.7986 2.81109 12.5265 4.33732 12.9977C4.34807 13.0009 4.35955 13.0008 4.37021 12.9973C4.38088 12.9938 4.39021 12.9871 4.39697 12.9781C4.72477 12.5304 5.01523 12.0564 5.26539 11.5608C5.26883 11.554 5.27079 11.5465 5.27115 11.5389C5.27151 11.5313 5.27025 11.5237 5.26747 11.5166C5.26468 11.5095 5.26043 11.5031 5.255 11.4977C5.24956 11.4924 5.24306 11.4883 5.23593 11.4857C4.7779 11.3098 4.33447 11.0977 3.90981 10.8515C3.90209 10.847 3.89561 10.8406 3.89094 10.8329C3.88627 10.8253 3.88355 10.8166 3.88302 10.8076C3.88249 10.7986 3.88417 10.7897 3.88791 10.7815C3.89165 10.7734 3.89733 10.7663 3.90446 10.7608C3.99356 10.6938 4.08273 10.6241 4.16782 10.5537C4.17537 10.5475 4.18452 10.5435 4.19423 10.5422C4.20393 10.5408 4.21381 10.5423 4.22275 10.5463C7.00489 11.8207 10.0169 11.8207 12.7661 10.5463C12.7751 10.542 12.7851 10.5404 12.7949 10.5416C12.8048 10.5428 12.8141 10.5468 12.8218 10.5531C12.9069 10.6235 12.996 10.6938 13.0858 10.7608C13.093 10.7662 13.0987 10.7733 13.1025 10.7814C13.1063 10.7895 13.108 10.7985 13.1076 10.8074C13.1071 10.8164 13.1044 10.8251 13.0998 10.8328C13.0952 10.8405 13.0888 10.8469 13.0811 10.8515C12.6574 11.0998 12.2136 11.3117 11.7544 11.485C11.7472 11.4877 11.7407 11.4919 11.7353 11.4973C11.7299 11.5027 11.7257 11.5092 11.723 11.5164C11.7203 11.5235 11.7191 11.5312 11.7195 11.5388C11.7199 11.5465 11.7219 11.554 11.7254 11.5608C11.9798 12.0536 12.2698 12.527 12.5932 12.9773C12.5998 12.9865 12.609 12.9934 12.6198 12.9971C12.6305 13.0007 12.642 13.0009 12.6528 12.9976C14.1818 12.528 15.6197 11.8 16.9046 10.8449C16.9109 10.8403 16.9161 10.8344 16.9199 10.8276C16.9237 10.8209 16.9261 10.8134 16.9268 10.8056C17.2813 7.12665 16.3332 3.93093 14.4134 1.09794ZM5.68088 8.86732C4.84325 8.86732 4.15307 8.09582 4.15307 7.14833C4.15307 6.20083 4.82986 5.42927 5.68088 5.42927C6.53854 5.42927 7.22204 6.20753 7.20866 7.14827C7.20866 8.09582 6.53184 8.86732 5.68088 8.86732ZM11.3296 8.86732C10.492 8.86732 9.80186 8.09582 9.80186 7.14833C9.80186 6.20083 10.4787 5.42927 11.3296 5.42927C12.1874 5.42927 12.8708 6.20753 12.8574 7.14827C12.8574 8.09582 12.1874 8.86732 11.3296 8.86732Z" fill="white"/>
</svg>
