<svg width="556" height="557" viewBox="0 0 556 557" fill="none" xmlns="http://www.w3.org/2000/svg">
<path d="M539.421 312.171C548.501 312.171 555.861 304.815 555.861 295.744V54.4714C555.861 45.3989 548.499 38.0444 539.421 38.0444L440.375 38.0444L440.375 312.171L539.421 312.171Z" fill="#6F7A8B"/>
<path d="M0.557617 221.459C0.557619 242.312 11.7709 260.598 28.4883 270.613C22.0833 279.854 18.3267 291.066 18.3267 303.134C18.3267 334.709 44.0355 360.398 75.6347 360.398L196.611 360.398C192.904 377.187 187.833 402.381 184.302 428.755C175.113 497.388 181.393 535.451 204.064 548.541C218.198 556.7 233.437 558.355 246.974 553.206C257.432 549.225 271.555 539.439 279.603 515.421L311.399 432.233C327.518 392.454 376.881 350.692 407.495 327.601L407.495 30.7761C350.757 10.911 291.55 0.841792 231.148 0.841797L99.3301 0.841808C67.7309 0.841811 42.0221 26.5311 42.0221 58.1064C42.0221 69.1636 45.1752 79.4996 50.6293 88.2619C31.5252 97.5589 18.3288 117.161 18.3289 139.783C18.3289 151.852 22.0854 163.061 28.4904 172.304C11.7709 182.319 0.557615 200.606 0.557617 221.459Z" fill="#6F7A8B"/>
</svg>
