<svg width="15" height="11" viewBox="0 0 15 11" fill="none" xmlns="http://www.w3.org/2000/svg">
<path d="M14.2495 0.000123912L0.749165 0.000122732C0.61248 0.000542337 0.4785 0.0374676 0.361647 0.106924C0.244793 0.17638 0.149491 0.275736 0.0859995 0.394297C0.0225076 0.51286 -0.00677114 0.646139 0.00131696 0.779788C0.00940411 0.913436 0.054551 1.04239 0.131897 1.15278L6.88209 10.7031C7.16185 11.0991 7.83537 11.0991 8.11587 10.7031L14.8661 1.15278C14.9442 1.04262 14.99 0.913602 14.9985 0.779731C15.0071 0.64586 14.978 0.51226 14.9144 0.393447C14.8509 0.274633 14.7553 0.17515 14.6381 0.105807C14.5209 0.0364637 14.3865 -8.6838e-05 14.2495 0.000123912Z" fill="#FF9A62"/>
</svg>
