<svg width="448" height="478" viewBox="0 0 448 478" fill="none" xmlns="http://www.w3.org/2000/svg">
<path d="M3.13973 275.814L216.486 475.093C218.492 476.965 221.2 478 224.036 478C226.872 478 229.581 476.944 231.585 475.073L444.293 275.814C447.343 272.967 448.239 268.687 446.597 264.963C444.933 261.24 441.051 258.83 436.744 258.83L319.45 258.83L319.45 9.95528C319.45 4.46013 314.673 -1.1604e-05 308.787 -1.21186e-05L138.177 -2.70338e-05C132.291 -2.75484e-05 127.513 4.46011 127.513 9.95526L127.513 258.831L10.6672 258.831C6.35963 258.831 2.47792 261.261 0.814472 264.983C-0.848973 268.706 0.0897458 272.967 3.13973 275.814Z" fill="#6F7A8B"/>
</svg>
