<svg width="447" height="512" viewBox="0 0 447 512" fill="none" xmlns="http://www.w3.org/2000/svg">
<path d="M441.692 65.4836C438.372 62.1824 434.471 60.5219 429.942 60.5219C427.692 60.5219 422.946 62.3691 415.754 66.0141C408.533 69.669 400.85 73.7366 392.793 78.2757C384.707 82.7854 375.138 86.8726 364.085 90.5275C353.051 94.1725 342.843 96.0196 333.441 96.0196C324.745 96.0196 317.102 94.369 310.489 91.058C288.59 80.8007 269.529 73.1471 253.367 68.097C237.195 63.0568 219.805 60.5219 201.186 60.5219C169.039 60.5219 132.421 70.9757 91.3724 91.844C82.9033 96.0688 76.8314 99.3405 72.9014 101.738L69.0009 73.1372C77.8139 65.4836 83.5026 54.3322 83.5026 41.7464C83.5026 18.6871 64.8155 0 41.7562 0C18.697 0 0 18.6871 0 41.7464C0 56.7885 8.03685 69.8655 19.9644 77.2146L76.3598 490.749C78.0399 503.059 88.5723 511.99 100.667 511.99C101.767 511.99 102.887 511.902 104.017 511.784C117.458 509.937 126.87 497.567 125.033 484.126L102.367 317.927C143.494 297.52 179.07 287.234 208.997 287.234C221.701 287.234 234.09 289.11 246.165 292.962C258.25 296.803 268.311 300.949 276.298 305.459C284.276 309.988 293.718 314.174 304.594 317.976C315.471 321.808 326.209 323.724 336.811 323.724C363.594 323.724 395.652 313.633 433.056 293.463C437.753 291.026 441.181 288.629 443.363 286.29C445.544 283.942 446.624 280.592 446.624 276.259V77.2244C446.624 72.7148 444.984 68.7946 441.692 65.4836Z" fill="white"/>
</svg>
