<svg width="427" height="512" viewBox="0 0 427 512" fill="none" xmlns="http://www.w3.org/2000/svg">
<path d="M277.32 42.6667H149.32C137.544 42.6667 127.986 33.1093 127.986 21.3333C127.986 9.55733 137.544 0 149.32 0H277.32C289.096 0 298.653 9.55733 298.653 21.3333C298.653 33.1093 289.096 42.6667 277.32 42.6667Z" fill="white"/>
<path d="M328.925 512H116.744C50.0344 512 3.16503 476.309 0.157027 423.168C-1.01631 402.411 4.40236 382.357 15.8584 365.205L138.077 187.541C145.416 176.811 149.32 164.267 149.32 151.253V32C149.32 20.224 158.877 10.6667 170.653 10.6667C182.429 10.6667 191.986 20.224 191.986 32V151.253C191.986 172.949 185.48 193.856 173.192 211.712L51.165 389.12C45.0637 398.272 42.0984 409.28 42.7384 420.736C44.4237 450.261 73.4584 469.333 116.744 469.333H328.946C357.725 469.333 382.386 447.552 383.901 420.757C384.562 409.301 381.597 398.293 375.304 388.885L253.448 211.712C241.16 193.856 234.653 172.949 234.653 151.253V32C234.653 20.224 244.21 10.6667 255.986 10.6667C267.762 10.6667 277.32 20.224 277.32 32V151.253C277.32 164.267 281.224 176.811 288.584 187.52L410.61 364.928C422.237 382.336 427.656 402.389 426.482 423.147C423.666 472.981 380.808 512 328.925 512Z" fill="white"/>
<path d="M316.701 426.667H109.938C96.3704 426.667 85.3197 416.064 85.3197 403.051C85.3197 397.952 86.9837 393.109 90.141 389.013C90.4184 388.651 90.717 388.288 91.037 387.947L151.346 309.312C154.205 305.6 158.536 303.317 163.229 303.083C167.09 302.891 170.824 301.995 173.768 300.565L187.08 293.931C203.08 286.123 223.602 286.101 239.496 293.867L253.064 300.629C255.858 301.973 259.592 302.869 263.453 303.083C268.125 303.317 272.477 305.6 275.336 309.312L335.645 387.925C335.965 388.267 336.264 388.629 336.541 388.992C339.656 393.088 341.32 397.952 341.32 403.051C341.32 416.064 330.269 426.667 316.701 426.667Z" fill="white"/>
</svg>
