<svg width="17" height="16" viewBox="0 0 17 16" fill="none" xmlns="http://www.w3.org/2000/svg">
<path d="M7.77751 10.2856C7.46446 10.2856 7.21069 10.5415 7.21069 10.8571C7.21069 11.1727 7.46446 11.4285 7.77751 11.4285H10.0448C10.3578 11.4285 10.6116 11.1727 10.6116 10.8571C10.6116 10.5415 10.3578 10.2856 10.0448 10.2856H7.77751Z" fill="white"/>
<path d="M5.51025 12.5714C5.51025 12.2558 5.76402 12 6.07707 12H11.7453C12.0583 12 12.3121 12.2558 12.3121 12.5714C12.3121 12.887 12.0583 13.1429 11.7453 13.1429H6.07707C5.76402 13.1429 5.51025 12.887 5.51025 12.5714Z" fill="white"/>
<path d="M8.91149 2.85718C7.34628 2.85718 6.07739 4.13637 6.07739 5.71432C6.07739 7.29226 7.34628 8.57146 8.91149 8.57146C10.4767 8.57146 11.7456 7.29226 11.7456 5.71432C11.7456 4.13637 10.4767 2.85718 8.91149 2.85718Z" fill="white"/>
<path fill-rule="evenodd" clip-rule="evenodd" d="M2.67629 0C1.73715 0 0.97583 0.767514 0.97583 1.71429V14.2857C0.97583 15.2325 1.73715 16 2.67629 16H12.8791C13.8182 16 14.5795 15.2325 14.5795 14.2857V7.42857H15.1463C16.0855 7.42857 16.8468 6.66109 16.8468 5.71429C16.8468 5.2752 16.683 4.87474 16.4138 4.57143C16.683 4.26814 16.8468 3.86763 16.8468 3.42857C16.8468 2.4818 16.0855 1.71429 15.1463 1.71429H14.5795C14.5795 0.767514 13.8182 0 12.8791 0H2.67629ZM13.4459 1.71429C13.4459 1.39869 13.1921 1.14286 12.8791 1.14286H4.37675V14.8571H12.8791C13.1921 14.8571 13.4459 14.6013 13.4459 14.2857V1.71429Z" fill="white"/>
</svg>
