<svg width="16" height="16" viewBox="0 0 16 16" fill="none" xmlns="http://www.w3.org/2000/svg">
<path d="M13.0022 8.69904C12.8551 8.69904 12.7238 8.61643 12.6593 8.48428C12.5948 8.35212 12.6113 8.19794 12.7026 8.08231C12.8395 7.90768 12.9716 7.73305 13.0943 7.56314L13.0959 7.56157C13.1713 7.46088 13.2775 7.40503 13.3963 7.40503C13.5402 7.40503 13.6771 7.48841 13.7447 7.61821C13.8093 7.7417 13.7982 7.88723 13.7141 8.00758L13.7125 8.00994C13.5875 8.18379 13.453 8.36078 13.3027 8.55272C13.2295 8.64554 13.1203 8.69904 13.0022 8.69904Z" fill="white"/>
<path d="M7.08624 13.2373C6.98477 13.2373 6.88959 13.1972 6.81723 13.1255L2.87419 9.18221C2.75856 9.0666 2.72945 8.89117 2.80103 8.74484C3.11173 8.10929 3.45782 7.48314 3.82986 6.88216C4.32304 6.07508 4.88543 5.30341 5.50131 4.58679C7.89796 1.80372 10.511 0.718186 12.2815 0.29813C13.0469 0.0999011 13.8357 0 14.6262 0C14.9566 0 15.2909 0.0180923 15.6197 0.0527037L15.6236 0.0534904L15.6276 0.054277C15.7912 0.0802354 15.9186 0.207669 15.9446 0.371286C15.9634 0.48928 16.3819 3.29359 14.5948 6.60606L14.5932 6.60841L14.5916 6.61078C14.5209 6.73192 14.4029 6.80114 14.2692 6.80114C14.1339 6.80114 14.0049 6.72955 13.9332 6.61471C13.8648 6.50458 13.8601 6.37086 13.9207 6.24814L13.9223 6.245L13.9239 6.24185C14.8536 4.57264 15.2987 2.6871 15.2146 0.78033C15.099 0.77325 14.9487 0.766957 14.7686 0.766957C13.9325 0.766957 12.615 0.889667 11.0843 1.47413C9.20919 2.18995 7.52436 3.4045 6.07786 5.08473C5.48794 5.77145 4.94993 6.51087 4.47878 7.28255L4.47799 7.28334C4.17045 7.77813 3.87784 8.30044 3.60648 8.8353L7.16174 12.3917C7.69816 12.1203 8.2197 11.8276 8.71288 11.5209L8.71364 11.5201C9.48528 11.0481 10.2246 10.5093 10.9113 9.92006C11.1669 9.70066 11.4257 9.46228 11.6805 9.21056L11.6821 9.20896C11.7569 9.1374 11.8481 9.09883 11.9449 9.09883C12.0974 9.09883 12.2406 9.19638 12.302 9.34194C12.3617 9.48354 12.3311 9.63611 12.2194 9.75019L12.2178 9.7518C11.9519 10.0152 11.6798 10.267 11.4092 10.499C10.6919 11.1149 9.9194 11.6766 9.11402 12.1698C8.51384 12.5419 7.88775 12.888 7.25299 13.198C7.20107 13.2231 7.14445 13.2357 7.08781 13.2357H7.08624V13.2373Z" fill="white"/>
<path d="M15.062 4.94613C14.9605 4.94613 14.8646 4.9068 14.7922 4.83442L11.1645 1.20653C11.0505 1.09246 11.0183 0.939864 11.0773 0.796695C11.1379 0.649597 11.2826 0.55127 11.436 0.55127C11.535 0.55127 11.6278 0.591387 11.7034 0.666902L15.3318 4.29481C15.4411 4.40414 15.4733 4.56698 15.4144 4.71014C15.3554 4.85331 15.2169 4.94613 15.062 4.94613Z" fill="white"/>
<path d="M10.341 7.70746C9.65433 7.70746 9.01728 7.36686 8.63573 6.79577C8.25426 6.22468 8.18346 5.50571 8.44622 4.8709C8.70888 4.23688 9.26814 3.77829 9.94147 3.64456C10.0728 3.6186 10.2073 3.60522 10.341 3.60522C10.6101 3.60522 10.8735 3.65715 11.1228 3.76019C11.3745 3.86402 11.5996 4.01427 11.7915 4.20621C12.0793 4.49411 12.2736 4.85753 12.3531 5.25635C12.4325 5.65595 12.3924 6.06578 12.2359 6.44179C12.0801 6.81779 11.819 7.13558 11.4808 7.36214C11.1425 7.5879 10.7485 7.70746 10.3418 7.70746H10.341ZM10.3418 4.36903C10.0445 4.36903 9.75508 4.47366 9.52541 4.66244C9.29573 4.85124 9.13837 5.11554 9.08014 5.40659C9.02277 5.69764 9.06842 6.00285 9.2084 6.26401C9.34838 6.52595 9.5773 6.73205 9.85102 6.84611C10.0075 6.91062 10.1728 6.94365 10.3418 6.94365C10.7736 6.94365 11.174 6.72969 11.4131 6.37099C11.5783 6.12399 11.6522 5.82508 11.6231 5.53009C11.594 5.23432 11.4619 4.95664 11.2519 4.74662C11.0096 4.50355 10.6864 4.36983 10.3434 4.36983L10.3418 4.36903Z" fill="white"/>
<path d="M0.644658 7.55914C0.532959 7.55914 0.426778 7.51036 0.354416 7.42463C0.282045 7.33889 0.250589 7.2264 0.26868 7.11627C0.354416 6.58845 0.547911 6.09524 0.844439 5.6508C1.1921 5.11747 1.67191 4.67853 2.23194 4.38118C2.77546 4.09328 3.3874 3.94067 4.0025 3.94067C4.7049 3.94067 5.39315 4.13812 5.99172 4.51097L5.99408 4.51255L5.99644 4.51412C6.13959 4.61009 6.20016 4.77607 6.15139 4.93732C6.10183 5.10094 5.95239 5.21579 5.78878 5.21579C5.72272 5.21579 5.65743 5.1977 5.59608 5.16308L5.59293 5.16151L5.59057 5.15994C5.11234 4.86181 4.56332 4.7037 4.0025 4.7037C3.51089 4.7037 3.02244 4.82562 2.58826 5.05532C2.14148 5.29209 1.75843 5.64292 1.48077 6.07007L1.47999 6.07164C1.39818 6.19513 1.32503 6.32414 1.26211 6.45709C1.65225 6.32335 2.0589 6.2557 2.47578 6.2557C3.12941 6.2557 3.77518 6.42719 4.34229 6.75207C4.49725 6.84016 4.56883 7.00615 4.52477 7.17527C4.47916 7.34754 4.32892 7.46868 4.15902 7.46868C4.09217 7.46868 4.02688 7.45059 3.96474 7.41519C3.51168 7.15639 2.99727 7.01952 2.47578 7.01952C1.89765 7.01952 1.33604 7.18471 0.849949 7.49857C0.788598 7.5379 0.717805 7.55914 0.645443 7.55992L0.644658 7.55914Z" fill="white"/>
<path d="M8.82185 15.7366C8.68262 15.7366 8.55445 15.6602 8.48754 15.5383C8.42071 15.4156 8.4262 15.2669 8.50096 15.1497C8.79906 14.688 8.96419 14.1531 8.97913 13.604C8.99406 13.0549 8.8572 12.5122 8.58432 12.0355C8.51429 11.9119 8.51269 11.7751 8.5796 11.6595C8.64879 11.5399 8.78413 11.462 8.92251 11.462C9.05785 11.462 9.17581 11.5336 9.2466 11.6571C9.54159 12.1723 9.71144 12.7584 9.73895 13.3515C9.76021 13.8203 9.69254 14.2938 9.54074 14.7383C9.67448 14.6753 9.8035 14.603 9.92618 14.5212L9.92778 14.5204C10.5916 14.0885 11.0509 13.4246 11.2225 12.6514C11.3939 11.8789 11.2578 11.0845 10.8402 10.4127C10.7835 10.3277 10.7631 10.2215 10.7843 10.1216C10.8056 10.0201 10.8685 9.93128 10.9566 9.87693C11.0172 9.83997 11.0864 9.82031 11.1572 9.82031C11.294 9.82031 11.4198 9.89347 11.4883 10.0123C11.7526 10.4371 11.9272 10.9012 12.0082 11.3904C12.0861 11.8648 12.0727 12.3446 11.9689 12.8166C11.8643 13.2877 11.6747 13.7291 11.4034 14.1263C11.1233 14.5369 10.7686 14.8846 10.3486 15.1584C9.90416 15.4549 9.41097 15.6485 8.88395 15.7333C8.86429 15.7366 8.84463 15.7381 8.82421 15.7381L8.82185 15.7366Z" fill="white"/>
<path d="M3.44179 15.9999C3.28684 15.9999 3.1484 15.9071 3.08941 15.7648C3.03041 15.6216 3.06266 15.4587 3.172 15.3494L5.14548 13.3758C5.22021 13.3034 5.31145 13.2649 5.40898 13.2649C5.56079 13.2649 5.70473 13.3624 5.76609 13.5072C5.82586 13.6479 5.79597 13.8006 5.68507 13.9154L3.71158 15.8891C3.64079 15.959 3.54247 15.9999 3.44179 15.9999Z" fill="white"/>
<path d="M0.678115 15.7024C0.523164 15.7024 0.384726 15.6095 0.325737 15.4663C0.266741 15.3232 0.29899 15.1604 0.408326 15.051L2.37946 13.0797C2.45182 13.005 2.54857 12.9641 2.65239 12.9641C2.75386 12.9641 2.84982 13.0034 2.92218 13.0758C2.99534 13.149 3.03467 13.2457 3.03387 13.3488C3.03309 13.451 2.99219 13.547 2.91825 13.6186L0.947905 15.5899C0.876327 15.6622 0.780364 15.7024 0.678115 15.7024Z" fill="white"/>
<path d="M0.380695 12.9393C0.226528 12.9393 0.0880981 12.8473 0.0291013 12.7041C-0.029888 12.5609 0.00236199 12.3982 0.11169 12.2888L2.08282 10.3175C2.15519 10.2427 2.25194 10.2019 2.35655 10.2019C2.45801 10.2019 2.55398 10.2412 2.62634 10.3135C2.69949 10.3867 2.73882 10.4835 2.73803 10.5865C2.73724 10.6888 2.69635 10.7847 2.62241 10.8564L0.650492 12.8276C0.580484 12.8984 0.482167 12.9393 0.381488 12.9393H0.380695Z" fill="white"/>
</svg>
