<svg width="291" height="292" viewBox="0 0 291 292" fill="none" xmlns="http://www.w3.org/2000/svg">
<path d="M210.168 292H48.5001C35.5443 292 23.3651 286.955 14.205 277.794C5.04485 268.633 0 256.453 0 243.499V81.8316C0 68.8764 5.04541 56.6972 14.2055 47.5371C23.3657 38.3769 35.5449 33.3315 48.5007 33.3315H113.168C122.097 33.3315 129.335 40.5693 129.335 49.4984C129.335 58.4276 122.097 65.6653 113.168 65.6653H48.5001C44.1815 65.6653 40.1221 67.3471 37.0691 70.4001C34.0161 73.4531 32.3338 77.513 32.3338 81.8316V243.499C32.3338 247.818 34.0156 251.877 37.0691 254.931C40.1221 257.984 44.1815 259.666 48.5001 259.666H210.167C214.486 259.666 218.545 257.984 221.599 254.93C224.652 251.877 226.334 247.817 226.334 243.499V178.832C226.334 169.903 233.572 162.666 242.501 162.666C251.43 162.666 258.668 169.904 258.668 178.832V243.499C258.668 256.455 253.623 268.633 244.462 277.794C235.302 286.955 223.122 292 210.168 292ZM113.168 194.999C109.03 194.999 104.892 193.421 101.736 190.264C95.4229 183.951 95.4229 173.714 101.736 167.4L235.804 33.3315H177.835C168.905 33.3315 161.668 26.0938 161.668 17.1646C161.668 8.2355 168.905 0.997765 177.835 0.997765H274.835C277.071 0.997765 279.201 1.45182 281.138 2.27239C282.946 3.03705 284.643 4.14507 286.129 5.59703L286.13 5.59816C286.14 5.60889 286.151 5.61905 286.161 5.62978C286.164 5.63261 286.168 5.636 286.171 5.63882C286.179 5.64673 286.188 5.6552 286.196 5.66367C286.201 5.66931 286.206 5.6744 286.212 5.68005C286.218 5.68626 286.225 5.69303 286.23 5.69812C286.241 5.70941 286.254 5.72127 286.265 5.73313C286.276 5.74443 286.289 5.75685 286.3 5.76814C286.306 5.77379 286.313 5.78113 286.318 5.78622C286.324 5.79186 286.328 5.79695 286.334 5.80259C286.343 5.81107 286.351 5.81897 286.359 5.82801C286.362 5.83027 286.366 5.83422 286.368 5.83704C286.379 5.84777 286.389 5.8585 286.4 5.86923L286.401 5.87036C287.852 7.35677 288.961 9.05438 289.725 10.8616C290.545 12.7986 291 14.9277 291 17.1641V114.165C291 123.094 283.762 130.332 274.833 130.332C265.903 130.332 258.666 123.094 258.666 114.165V56.1951L124.596 190.264C121.442 193.421 117.305 194.999 113.168 194.999Z" fill="white"/>
</svg>
