<svg width="825" height="380" viewBox="0 0 825 380" fill="none" xmlns="http://www.w3.org/2000/svg">
<g clip-path="url(#clip0_1174_7695)">
<path d="M23.2759 260.854H0V359.5H23.2759V260.854Z" fill="#15D6FF"/>
<path d="M49.1379 249.152H25.8621V359.5H49.1379V249.152Z" fill="#15D6FF"/>
<path d="M75 225.592H51.7241V359.5H75V225.592Z" fill="#15D6FF"/>
<path d="M100.862 234.234H77.5862V359.5H100.862V234.234Z" fill="#15D6FF"/>
<path d="M126.724 232.795H103.448V359.5H126.724V232.795Z" fill="#15D6FF"/>
<path d="M152.586 229.417H129.31V359.5H152.586V229.417Z" fill="#15D6FF"/>
<path d="M178.448 237.014H155.172V359.5H178.448V237.014Z" fill="#15D6FF"/>
<path d="M204.31 227.542H181.034V359.5H204.31V227.542Z" fill="#15D6FF"/>
<path d="M230.172 211.839H206.897V359.5H230.172V211.839Z" fill="#15D6FF"/>
<path d="M256.034 76.8811H232.759V359.5H256.034V76.8811Z" fill="#15D6FF"/>
<path d="M281.897 86.3741H258.621V359.5H281.897V86.3741Z" fill="#15D6FF"/>
<path d="M307.759 146.283H284.483V359.5H307.759V146.283Z" fill="#15D6FF"/>
<path d="M333.621 185.039H310.345V359.5H333.621V185.039Z" fill="#15D6FF"/>
<path d="M359.483 169.267H336.207V359.5H359.483V169.267Z" fill="#15D6FF"/>
<path d="M385.345 179.016H362.069V359.5H385.345V179.016Z" fill="#15D6FF"/>
<path d="M411.207 179.538H387.931V359.5H411.207V179.538Z" fill="#15D6FF"/>
<path d="M437.069 183.386H413.793V359.5H437.069V183.386Z" fill="#15D6FF"/>
<path d="M462.931 178.381H439.655V359.5H462.931V178.381Z" fill="#15D6FF"/>
<path d="M488.793 180.683H465.517V359.5H488.793V180.683Z" fill="#15D6FF"/>
<path d="M514.655 177.275H491.379V359.5H514.655V177.275Z" fill="#15D6FF"/>
<path d="M540.517 173.956H517.241V359.5H540.517V173.956Z" fill="#15D6FF"/>
<path d="M566.379 147.971H543.103V359.5H566.379V147.971Z" fill="#15D6FF"/>
<path d="M592.241 146.575H568.966V359.5H592.241V146.575Z" fill="#15D6FF"/>
<path d="M618.103 163.42H594.828V359.5H618.103V163.42Z" fill="#15D6FF"/>
<path d="M643.966 201.515H620.69V359.5H643.966V201.515Z" fill="#15D6FF"/>
<path d="M669.828 194.195H646.552V359.5H669.828V194.195Z" fill="#15D6FF"/>
<path d="M695.69 189.274H672.414V359.5H695.69V189.274Z" fill="#15D6FF"/>
<path d="M721.552 180.867H698.276V359.5H721.552V180.867Z" fill="#15D6FF"/>
<path d="M747.414 189.426H724.138V359.5H747.414V189.426Z" fill="#15D6FF"/>
<path d="M773.276 174.379H750V359.5H773.276V174.379Z" fill="#15D6FF"/>
<path d="M799.138 185.027H775.862V359.5H799.138V185.027Z" fill="#15D6FF"/>
<path d="M825 302.637H801.724V359.5H825V302.637Z" fill="#15D6FF"/>
<path d="M23.2759 256.753H0V260.354H23.2759V256.753Z" fill="#15D6FF"/>
<path d="M49.1379 243.59H25.8621V248.652H49.1379V243.59Z" fill="#15D6FF"/>
<path d="M75 220.056H51.7241V225.092H75V220.056Z" fill="#15D6FF"/>
<path d="M100.862 229.401H77.5862V233.734H100.862V229.401Z" fill="#15D6FF"/>
<path d="M126.724 228.203H103.448V232.295H126.724V228.203Z" fill="#15D6FF"/>
<path d="M152.586 225.557H129.31V228.917H152.586V225.557Z" fill="#15D6FF"/>
<path d="M178.448 235.371H155.172V236.514H178.448V235.371Z" fill="#15D6FF"/>
<path d="M204.31 222.134H181.034V227.042H204.31V222.134Z" fill="#15D6FF"/>
<path d="M230.172 205.692H206.897V211.339H230.172V205.692Z" fill="#15D6FF"/>
<path d="M256.034 64.0087H232.759V76.3811H256.034V64.0087Z" fill="#15D6FF"/>
<path d="M281.897 73.8927H258.621V85.8741H281.897V73.8927Z" fill="#15D6FF"/>
<path d="M307.759 138.477H284.483V145.783H307.759V138.477Z" fill="#15D6FF"/>
<path d="M333.621 178.25H310.345V184.539H333.621V178.25Z" fill="#15D6FF"/>
<path d="M359.483 161.839H336.207V168.767H359.483V161.839Z" fill="#15D6FF"/>
<path d="M385.345 167.603H362.069V178.516H385.345V167.603Z" fill="#15D6FF"/>
<path d="M411.207 157.31H387.931V179.038H411.207V157.31Z" fill="#15D6FF"/>
<path d="M437.069 179.872H413.793V182.886H437.069V179.872Z" fill="#15D6FF"/>
<path d="M462.931 168.812H439.655V177.881H462.931V168.812Z" fill="#15D6FF"/>
<path d="M488.793 170.276H465.517V180.183H488.793V170.276Z" fill="#15D6FF"/>
<path d="M514.655 167.072H491.379V176.775H514.655V167.072Z" fill="#15D6FF"/>
<path d="M540.517 168.14H517.241V173.456H540.517V168.14Z" fill="#15D6FF"/>
<path d="M566.379 141.758H543.103V147.472H566.379V141.758Z" fill="#15D6FF"/>
<path d="M592.241 137.047H568.966V146.075H592.241V137.047Z" fill="#15D6FF"/>
<path d="M618.103 156.915H594.828V162.92H618.103V156.915Z" fill="#15D6FF"/>
<path d="M643.966 194.434H620.69V201.015H643.966V194.434Z" fill="#15D6FF"/>
<path d="M669.828 189.657H646.552V193.695H669.828V189.657Z" fill="#15D6FF"/>
<path d="M695.69 185.236H672.414V188.774H695.69V185.236Z" fill="#15D6FF"/>
<path d="M721.552 174.716H698.276V180.367H721.552V174.716Z" fill="#15D6FF"/>
<path d="M747.414 179.027H724.138V188.926H747.414V179.027Z" fill="#15D6FF"/>
<path d="M773.276 156.976H750V173.879H773.276V156.976Z" fill="#15D6FF"/>
<path d="M799.138 177.416H775.862V184.527H799.138V177.416Z" fill="#15D6FF"/>
<path d="M825 299.36H801.724V302.137H825V299.36Z" fill="#15D6FF"/>
<path d="M23.2759 253.987H0V256.253H23.2759V253.987Z" fill="#15D6FF"/>
<path d="M49.1379 241.672H25.8621V243.09H49.1379V241.672Z" fill="#15D6FF"/>
<path d="M75 218.619H51.7241V219.556H75V218.619Z" fill="#15D6FF"/>
<path d="M100.862 227.088H77.5862V228.901H100.862V227.088Z" fill="#15D6FF"/>
<path d="M126.724 226.584H103.448V227.703H126.724V226.584Z" fill="#15D6FF"/>
<path d="M152.586 224.108H129.31V225.057H152.586V224.108Z" fill="#15D6FF"/>
<path d="M178.448 234.241H155.172V234.871H178.448V234.241Z" fill="#15D6FF"/>
<path d="M204.31 220.228H181.034V221.634H204.31V220.228Z" fill="#15D6FF"/>
<path d="M230.172 203.825H206.897V205.192H230.172V203.825Z" fill="#15D6FF"/>
<path d="M256.034 60.7793H232.759V63.5087H256.034V60.7793Z" fill="#15D6FF"/>
<path d="M281.897 70.1964H258.621V73.3927H281.897V70.1964Z" fill="#15D6FF"/>
<path d="M307.759 135.932H284.483V137.977H307.759V135.932Z" fill="#15D6FF"/>
<path d="M333.621 176.601H310.345V177.75H333.621V176.601Z" fill="#15D6FF"/>
<path d="M359.483 159.054H336.207V161.339H359.483V159.054Z" fill="#15D6FF"/>
<path d="M385.345 165.865H362.069V167.103H385.345V165.865Z" fill="#15D6FF"/>
<path d="M411.207 155.266H387.931V156.81H411.207V155.266Z" fill="#15D6FF"/>
<path d="M437.069 178.046H413.793V179.372H437.069V178.046Z" fill="#15D6FF"/>
<path d="M462.931 167.444H439.655V168.312H462.931V167.444Z" fill="#15D6FF"/>
<path d="M488.793 167.158H465.517V169.776H488.793V167.158Z" fill="#15D6FF"/>
<path d="M514.655 164.586H491.379V166.572H514.655V164.586Z" fill="#15D6FF"/>
<path d="M540.517 166.225H517.241V167.64H540.517V166.225Z" fill="#15D6FF"/>
<path d="M566.379 139.66H543.103V141.258H566.379V139.66Z" fill="#15D6FF"/>
<path d="M592.241 133.557H568.966V136.547H592.241V133.557Z" fill="#15D6FF"/>
<path d="M618.103 154.739H594.828V156.415H618.103V154.739Z" fill="#15D6FF"/>
<path d="M643.966 191.914H620.69V193.934H643.966V191.914Z" fill="#15D6FF"/>
<path d="M669.828 187.471H646.552V189.157H669.828V187.471Z" fill="#15D6FF"/>
<path d="M695.69 183.997H672.414V184.736H695.69V183.997Z" fill="#15D6FF"/>
<path d="M721.552 173.416H698.276V174.216H721.552V173.416Z" fill="#15D6FF"/>
<path d="M747.414 177.68H724.138V178.527H747.414V177.68Z" fill="#15D6FF"/>
<path d="M773.276 155.07H750V156.476H773.276V155.07Z" fill="#15D6FF"/>
<path d="M799.138 176.176H775.862V176.916H799.138V176.176Z" fill="#15D6FF"/>
<path d="M825 297.12H801.724V298.86H825V297.12Z" fill="#15D6FF"/>
<path d="M204.31 219.671H181.034V219.728H204.31V219.671Z" fill="#15D6FF"/>
<path d="M230.172 203.162H206.897V203.325H230.172V203.162Z" fill="#15D6FF"/>
<path d="M488.793 166.568H465.517V166.658H488.793V166.568Z" fill="#15D6FF"/>
<path d="M592.241 133H568.966V133.057H592.241V133Z" fill="#15D6FF"/>
<path d="M618.103 153.339H594.828V154.239H618.103V153.339Z" fill="#15D6FF"/>
<path d="M773.276 154.46H750V154.57H773.276V154.46Z" fill="#15D6FF"/>
<path d="M514.655 163.768H491.379V163.833H514.655V163.768Z" fill="#15D6FF"/>
<path d="M566.379 138.425H543.103V138.638H566.379V138.425Z" fill="#15D6FF"/>
<path d="M592.241 132.281H568.966V132.297H592.241V132.281Z" fill="#15D6FF"/>
<path d="M618.103 152.207H594.828V152.502H618.103V152.207Z" fill="#15D6FF"/>
<path d="M643.966 190.681H620.69V191.025H643.966V190.681Z" fill="#15D6FF"/>
<path d="M669.828 186.128H646.552V186.675H669.828V186.128Z" fill="#15D6FF"/>
<path d="M695.69 182.732H672.414V183.278H695.69V182.732Z" fill="#15D6FF"/>
<path d="M721.552 172.172H698.276V172.605H721.552V172.172Z" fill="#15D6FF"/>
<path d="M747.414 175.858H724.138V176.886H747.414V175.858Z" fill="#15D6FF"/>
<path d="M773.276 152.816H750V153.813H773.276V152.816Z" fill="#15D6FF"/>
<path d="M799.138 174.77H775.862V175.291H799.138V174.77Z" fill="#15D6FF"/>
<path d="M825 360.5H0V380.5H825V360.5Z" fill="#15D6FF"/>
<path opacity="0.6" d="M11.6379 360.5V363.5" stroke="#15D6FF" stroke-linecap="square"/>
<path opacity="0.6" d="M37.5 360.5V363.5" stroke="#15D6FF" stroke-linecap="square"/>
<path opacity="0.6" d="M63.3621 360.5V363.5" stroke="#15D6FF" stroke-linecap="square"/>
<path opacity="0.6" d="M89.2242 360.5V363.5" stroke="#15D6FF" stroke-linecap="square"/>
<path opacity="0.6" d="M115.086 360.5V363.5" stroke="#15D6FF" stroke-linecap="square"/>
<path opacity="0.6" d="M140.948 360.5V363.5" stroke="#15D6FF" stroke-linecap="square"/>
<path opacity="0.6" d="M166.81 360.5V363.5" stroke="#15D6FF" stroke-linecap="square"/>
<path opacity="0.6" d="M192.672 360.5V363.5" stroke="#15D6FF" stroke-linecap="square"/>
<path opacity="0.6" d="M218.534 360.5V363.5" stroke="#15D6FF" stroke-linecap="square"/>
<path opacity="0.6" d="M244.397 360.5V363.5" stroke="#15D6FF" stroke-linecap="square"/>
<path opacity="0.6" d="M270.259 360.5V363.5" stroke="#15D6FF" stroke-linecap="square"/>
<path opacity="0.6" d="M296.121 360.5V363.5" stroke="#15D6FF" stroke-linecap="square"/>
<path opacity="0.6" d="M321.983 360.5V363.5" stroke="#15D6FF" stroke-linecap="square"/>
<path opacity="0.6" d="M347.845 360.5V363.5" stroke="#15D6FF" stroke-linecap="square"/>
<path opacity="0.6" d="M373.707 360.5V363.5" stroke="#15D6FF" stroke-linecap="square"/>
<path opacity="0.6" d="M399.569 360.5V363.5" stroke="#15D6FF" stroke-linecap="square"/>
<path opacity="0.6" d="M425.431 360.5V363.5" stroke="#15D6FF" stroke-linecap="square"/>
<path opacity="0.6" d="M451.293 360.5V363.5" stroke="#15D6FF" stroke-linecap="square"/>
<path opacity="0.6" d="M477.155 360.5V363.5" stroke="#15D6FF" stroke-linecap="square"/>
<path opacity="0.6" d="M503.017 360.5V363.5" stroke="#15D6FF" stroke-linecap="square"/>
<path opacity="0.6" d="M528.879 360.5V363.5" stroke="#15D6FF" stroke-linecap="square"/>
<path opacity="0.6" d="M554.741 360.5V363.5" stroke="#15D6FF" stroke-linecap="square"/>
<path opacity="0.6" d="M580.603 360.5V363.5" stroke="#15D6FF" stroke-linecap="square"/>
<path opacity="0.6" d="M606.466 360.5V363.5" stroke="#15D6FF" stroke-linecap="square"/>
<path opacity="0.6" d="M632.328 360.5V363.5" stroke="#15D6FF" stroke-linecap="square"/>
<path opacity="0.6" d="M658.19 360.5V363.5" stroke="#15D6FF" stroke-linecap="square"/>
<path opacity="0.6" d="M684.052 360.5V363.5" stroke="#15D6FF" stroke-linecap="square"/>
<path opacity="0.6" d="M709.914 360.5V363.5" stroke="#15D6FF" stroke-linecap="square"/>
<path opacity="0.6" d="M735.776 360.5V363.5" stroke="#15D6FF" stroke-linecap="square"/>
<path opacity="0.6" d="M761.638 360.5V363.5" stroke="#15D6FF" stroke-linecap="square"/>
<path opacity="0.6" d="M787.5 360.5V363.5" stroke="#15D6FF" stroke-linecap="square"/>
<path opacity="0.6" d="M813.362 360.5V363.5" stroke="#15D6FF" stroke-linecap="square"/>
<path d="M11.6379 360.5V365.5" stroke="#15D6FF" stroke-linecap="square"/>
<path d="M-4.06785 375.5H-4.99114L-2.32069 368.227H-1.4116L1.25886 375.5H0.33556L-1.83774 369.378H-1.89455L-4.06785 375.5ZM-3.72694 372.659H-0.00534868V373.44H-3.72694V372.659ZM5.71553 373.27V370.045H6.5536V375.5H5.71553V374.577H5.65871C5.53087 374.854 5.33201 375.089 5.06212 375.283C4.79224 375.475 4.45133 375.571 4.0394 375.571C3.69849 375.571 3.39546 375.496 3.1303 375.347C2.86515 375.196 2.65682 374.969 2.5053 374.665C2.35379 374.36 2.27803 373.975 2.27803 373.511V370.045H3.1161V373.455C3.1161 373.852 3.22737 374.17 3.44991 374.406C3.67481 374.643 3.96127 374.761 4.30928 374.761C4.51762 374.761 4.7295 374.708 4.94494 374.602C5.16274 374.495 5.34503 374.332 5.49181 374.112C5.64096 373.891 5.71553 373.611 5.71553 373.27ZM10.2903 377.659C9.88545 377.659 9.53744 377.607 9.24625 377.503C8.95506 377.401 8.7124 377.266 8.51827 377.098C8.3265 376.932 8.17381 376.755 8.06017 376.565L8.72778 376.097C8.80354 376.196 8.89942 376.31 9.01543 376.438C9.13143 376.568 9.29005 376.68 9.49128 376.775C9.69488 376.872 9.96121 376.92 10.2903 376.92C10.7306 376.92 11.094 376.814 11.3805 376.601C11.6669 376.388 11.8102 376.054 11.8102 375.599V374.491H11.7391C11.6776 374.591 11.59 374.714 11.4764 374.861C11.3651 375.005 11.2041 375.134 10.9934 375.248C10.7851 375.359 10.5034 375.415 10.1482 375.415C9.7079 375.415 9.31254 375.311 8.96216 375.102C8.61415 374.894 8.33834 374.591 8.13474 374.193C7.93351 373.795 7.8329 373.312 7.8329 372.744C7.8329 372.186 7.93114 371.699 8.12764 371.285C8.32414 370.868 8.59757 370.546 8.94795 370.319C9.29833 370.089 9.70316 369.974 10.1624 369.974C10.5176 369.974 10.7993 370.034 11.0076 370.152C11.2183 370.268 11.3793 370.401 11.4906 370.55C11.6042 370.696 11.6918 370.817 11.7534 370.912H11.8386V370.045H12.6482V375.656C12.6482 376.125 12.5417 376.506 12.3286 376.8C12.1179 377.096 11.8338 377.312 11.4764 377.45C11.1212 377.589 10.7259 377.659 10.2903 377.659ZM10.2619 374.662C10.598 374.662 10.8821 374.585 11.1141 374.431C11.3462 374.277 11.5225 374.056 11.6433 373.767C11.764 373.478 11.8244 373.133 11.8244 372.73C11.8244 372.337 11.7652 371.99 11.6468 371.69C11.5284 371.389 11.3533 371.153 11.1212 370.983C10.8892 370.812 10.6028 370.727 10.2619 370.727C9.90676 370.727 9.61083 370.817 9.37409 370.997C9.13972 371.177 8.96334 371.419 8.84497 371.722C8.72897 372.025 8.67097 372.361 8.67097 372.73C8.67097 373.109 8.73015 373.444 8.84852 373.735C8.96926 374.024 9.14682 374.251 9.38119 374.417C9.61793 374.58 9.9115 374.662 10.2619 374.662ZM16.9806 375.5V374.861L19.3812 372.233C19.6629 371.925 19.8949 371.658 20.0772 371.43C20.2595 371.201 20.3944 370.985 20.482 370.784C20.572 370.58 20.617 370.367 20.617 370.145C20.617 369.889 20.5554 369.668 20.4323 369.481C20.3116 369.294 20.1459 369.149 19.9352 369.048C19.7245 368.946 19.4877 368.895 19.2249 368.895C18.9456 368.895 18.7017 368.953 18.4934 369.069C18.2874 369.183 18.1276 369.342 18.014 369.548C17.9027 369.754 17.8471 369.996 17.8471 370.273H17.009C17.009 369.847 17.1073 369.473 17.3038 369.151C17.5003 368.829 17.7678 368.578 18.1063 368.398C18.4472 368.218 18.8296 368.128 19.2534 368.128C19.6795 368.128 20.0571 368.218 20.3862 368.398C20.7152 368.578 20.9733 368.82 21.1603 369.126C21.3473 369.431 21.4409 369.771 21.4409 370.145C21.4409 370.412 21.3923 370.674 21.2953 370.93C21.2006 371.183 21.0348 371.466 20.7981 371.778C20.5637 372.089 20.2382 372.467 19.8215 372.915L18.188 374.662V374.719H21.5687V375.5H16.9806ZM25.3507 368.128C25.6489 368.13 25.9472 368.187 26.2455 368.298C26.5438 368.41 26.8161 368.594 27.0623 368.852C27.3085 369.108 27.5062 369.457 27.6553 369.9C27.8045 370.343 27.8791 370.898 27.8791 371.565C27.8791 372.212 27.8175 372.786 27.6944 373.288C27.5737 373.787 27.3985 374.209 27.1688 374.552C26.9416 374.895 26.6646 375.156 26.3379 375.333C26.0135 375.511 25.6466 375.599 25.237 375.599C24.8298 375.599 24.4664 375.519 24.1468 375.358C23.8296 375.195 23.5692 374.969 23.3656 374.68C23.1643 374.388 23.0353 374.051 22.9785 373.668H23.845C23.9231 374.001 24.0782 374.277 24.3102 374.495C24.5445 374.71 24.8535 374.818 25.237 374.818C25.7981 374.818 26.2408 374.573 26.5651 374.083C26.8918 373.593 27.0552 372.901 27.0552 372.006H26.9984C26.8658 372.205 26.7084 372.376 26.5261 372.521C26.3438 372.665 26.1414 372.776 25.9188 372.854C25.6963 372.933 25.4596 372.972 25.2086 372.972C24.7919 372.972 24.4096 372.869 24.0616 372.663C23.7159 372.454 23.439 372.169 23.2306 371.807C23.0247 371.442 22.9217 371.026 22.9217 370.557C22.9217 370.112 23.0211 369.705 23.22 369.335C23.4212 368.964 23.7029 368.668 24.0651 368.447C24.4297 368.227 24.8582 368.121 25.3507 368.128ZM25.3507 368.909C25.0524 368.909 24.7837 368.984 24.5445 369.133C24.3078 369.28 24.1196 369.478 23.9799 369.729C23.8426 369.978 23.7739 370.254 23.7739 370.557C23.7739 370.86 23.8402 371.136 23.9728 371.384C24.1078 371.63 24.2912 371.827 24.5232 371.974C24.7576 372.118 25.0239 372.19 25.3222 372.19C25.5471 372.19 25.7567 372.147 25.9508 372.059C26.1449 371.969 26.3142 371.847 26.4586 371.693C26.6054 371.537 26.7202 371.361 26.8031 371.164C26.8859 370.965 26.9274 370.758 26.9274 370.543C26.9274 370.259 26.8587 369.992 26.7214 369.744C26.5864 369.495 26.3994 369.294 26.1603 369.14C25.9236 368.986 25.6537 368.909 25.3507 368.909Z" fill="#15D6FF"/>
<path d="M166.81 360.5V365.5" stroke="#15D6FF" stroke-linecap="square"/>
<path d="M157.909 370.045C157.866 369.686 157.693 369.406 157.39 369.207C157.087 369.009 156.715 368.909 156.275 368.909C155.953 368.909 155.671 368.961 155.43 369.065C155.191 369.17 155.004 369.313 154.869 369.495C154.736 369.677 154.67 369.884 154.67 370.116C154.67 370.311 154.716 370.478 154.808 370.617C154.903 370.754 155.024 370.869 155.171 370.962C155.317 371.052 155.471 371.126 155.632 371.185C155.793 371.242 155.941 371.288 156.076 371.324L156.815 371.523C157.004 371.572 157.215 371.641 157.447 371.729C157.681 371.816 157.905 371.936 158.118 372.087C158.334 372.237 158.511 372.428 158.651 372.663C158.79 372.897 158.86 373.185 158.86 373.526C158.86 373.919 158.757 374.274 158.551 374.591C158.348 374.908 158.049 375.16 157.656 375.347C157.266 375.534 156.791 375.628 156.232 375.628C155.712 375.628 155.261 375.544 154.879 375.376C154.501 375.208 154.202 374.973 153.985 374.673C153.769 374.372 153.647 374.023 153.619 373.625H154.528C154.552 373.9 154.644 374.127 154.805 374.307C154.968 374.484 155.174 374.617 155.423 374.705C155.674 374.79 155.944 374.832 156.232 374.832C156.569 374.832 156.87 374.778 157.138 374.669C157.405 374.558 157.617 374.404 157.774 374.207C157.93 374.009 158.008 373.777 158.008 373.511C158.008 373.27 157.941 373.073 157.806 372.922C157.671 372.77 157.493 372.647 157.273 372.553C157.053 372.458 156.815 372.375 156.559 372.304L155.664 372.048C155.096 371.885 154.646 371.652 154.315 371.349C153.983 371.046 153.818 370.649 153.818 370.159C153.818 369.752 153.928 369.397 154.148 369.094C154.37 368.788 154.669 368.552 155.043 368.384C155.419 368.213 155.839 368.128 156.303 368.128C156.772 368.128 157.189 368.212 157.553 368.38C157.918 368.546 158.207 368.773 158.42 369.062C158.635 369.351 158.749 369.679 158.761 370.045H157.909ZM162.482 375.614C161.956 375.614 161.503 375.498 161.121 375.266C160.743 375.031 160.45 374.705 160.244 374.286C160.041 373.864 159.939 373.374 159.939 372.815C159.939 372.257 160.041 371.764 160.244 371.338C160.45 370.91 160.737 370.576 161.104 370.337C161.473 370.095 161.904 369.974 162.396 369.974C162.68 369.974 162.961 370.022 163.238 370.116C163.515 370.211 163.767 370.365 163.994 370.578C164.222 370.789 164.403 371.068 164.538 371.416C164.673 371.764 164.74 372.193 164.74 372.702V373.057H160.536V372.332H163.888C163.888 372.025 163.826 371.75 163.703 371.509C163.582 371.267 163.41 371.076 163.185 370.937C162.962 370.797 162.699 370.727 162.396 370.727C162.062 370.727 161.774 370.81 161.53 370.976C161.288 371.139 161.103 371.352 160.972 371.615C160.842 371.878 160.777 372.16 160.777 372.46V372.943C160.777 373.355 160.848 373.704 160.99 373.991C161.134 374.275 161.335 374.491 161.59 374.641C161.846 374.787 162.143 374.861 162.482 374.861C162.702 374.861 162.901 374.83 163.078 374.768C163.258 374.705 163.413 374.61 163.543 374.484C163.674 374.357 163.774 374.198 163.845 374.009L164.655 374.236C164.57 374.51 164.426 374.752 164.225 374.96C164.024 375.166 163.775 375.327 163.479 375.443C163.183 375.557 162.851 375.614 162.482 375.614ZM166.015 377.545V370.045H166.825V370.912H166.924C166.986 370.817 167.071 370.696 167.18 370.55C167.291 370.401 167.45 370.268 167.656 370.152C167.864 370.034 168.146 369.974 168.501 369.974C168.96 369.974 169.365 370.089 169.715 370.319C170.066 370.549 170.339 370.874 170.536 371.295C170.732 371.717 170.83 372.214 170.83 372.787C170.83 373.365 170.732 373.865 170.536 374.289C170.339 374.71 170.067 375.037 169.719 375.269C169.371 375.499 168.969 375.614 168.515 375.614C168.165 375.614 167.884 375.556 167.673 375.44C167.463 375.321 167.3 375.187 167.187 375.038C167.073 374.887 166.986 374.761 166.924 374.662H166.853V377.545H166.015ZM166.839 372.773C166.839 373.185 166.899 373.548 167.02 373.863C167.141 374.175 167.317 374.42 167.549 374.598C167.781 374.773 168.065 374.861 168.401 374.861C168.752 374.861 169.044 374.768 169.278 374.584C169.515 374.397 169.693 374.146 169.811 373.831C169.932 373.514 169.992 373.161 169.992 372.773C169.992 372.389 169.933 372.044 169.815 371.736C169.699 371.426 169.522 371.181 169.286 371.001C169.051 370.818 168.756 370.727 168.401 370.727C168.06 370.727 167.774 370.814 167.542 370.987C167.31 371.157 167.135 371.396 167.016 371.704C166.898 372.009 166.839 372.366 166.839 372.773ZM174.737 374.009V373.284L177.933 368.227H178.458V369.349H178.103L175.688 373.17V373.227H179.992V374.009H174.737ZM178.16 375.5V373.788V373.451V368.227H178.998V375.5H178.16Z" fill="#15D6FF"/>
<path d="M321.983 360.5V365.5" stroke="#15D6FF" stroke-linecap="square"/>
<path d="M311.34 370.045C311.297 369.686 311.124 369.406 310.821 369.207C310.518 369.009 310.147 368.909 309.706 368.909C309.384 368.909 309.103 368.961 308.861 369.065C308.622 369.17 308.435 369.313 308.3 369.495C308.167 369.677 308.101 369.884 308.101 370.116C308.101 370.311 308.147 370.478 308.24 370.617C308.334 370.754 308.455 370.869 308.602 370.962C308.749 371.052 308.902 371.126 309.063 371.185C309.224 371.242 309.372 371.288 309.507 371.324L310.246 371.523C310.435 371.572 310.646 371.641 310.878 371.729C311.112 371.816 311.336 371.936 311.549 372.087C311.765 372.237 311.942 372.428 312.082 372.663C312.222 372.897 312.291 373.185 312.291 373.526C312.291 373.919 312.188 374.274 311.982 374.591C311.779 374.908 311.481 375.16 311.088 375.347C310.697 375.534 310.222 375.628 309.664 375.628C309.143 375.628 308.692 375.544 308.311 375.376C307.932 375.208 307.634 374.973 307.416 374.673C307.2 374.372 307.078 374.023 307.05 373.625H307.959C307.983 373.9 308.075 374.127 308.236 374.307C308.399 374.484 308.605 374.617 308.854 374.705C309.105 374.79 309.375 374.832 309.664 374.832C310 374.832 310.302 374.778 310.569 374.669C310.837 374.558 311.049 374.404 311.205 374.207C311.361 374.009 311.439 373.777 311.439 373.511C311.439 373.27 311.372 373.073 311.237 372.922C311.102 372.77 310.924 372.647 310.704 372.553C310.484 372.458 310.246 372.375 309.99 372.304L309.095 372.048C308.527 371.885 308.077 371.652 307.746 371.349C307.415 371.046 307.249 370.649 307.249 370.159C307.249 369.752 307.359 369.397 307.579 369.094C307.802 368.788 308.1 368.552 308.474 368.384C308.85 368.213 309.271 368.128 309.735 368.128C310.203 368.128 310.62 368.212 310.985 368.38C311.349 368.546 311.638 368.773 311.851 369.062C312.067 369.351 312.18 369.679 312.192 370.045H311.34ZM315.913 375.614C315.387 375.614 314.934 375.498 314.553 375.266C314.174 375.031 313.881 374.705 313.675 374.286C313.472 373.864 313.37 373.374 313.37 372.815C313.37 372.257 313.472 371.764 313.675 371.338C313.881 370.91 314.168 370.576 314.535 370.337C314.904 370.095 315.335 369.974 315.827 369.974C316.112 369.974 316.392 370.022 316.669 370.116C316.946 370.211 317.198 370.365 317.425 370.578C317.653 370.789 317.834 371.068 317.969 371.416C318.104 371.764 318.171 372.193 318.171 372.702V373.057H313.967V372.332H317.319C317.319 372.025 317.257 371.75 317.134 371.509C317.014 371.267 316.841 371.076 316.616 370.937C316.393 370.797 316.131 370.727 315.827 370.727C315.494 370.727 315.205 370.81 314.961 370.976C314.72 371.139 314.534 371.352 314.403 371.615C314.273 371.878 314.208 372.16 314.208 372.46V372.943C314.208 373.355 314.279 373.704 314.421 373.991C314.566 374.275 314.766 374.491 315.021 374.641C315.277 374.787 315.574 374.861 315.913 374.861C316.133 374.861 316.332 374.83 316.509 374.768C316.689 374.705 316.844 374.61 316.975 374.484C317.105 374.357 317.205 374.198 317.276 374.009L318.086 374.236C318.001 374.51 317.858 374.752 317.656 374.96C317.455 375.166 317.207 375.327 316.911 375.443C316.615 375.557 316.282 375.614 315.913 375.614ZM319.446 377.545V370.045H320.256V370.912H320.355C320.417 370.817 320.502 370.696 320.611 370.55C320.722 370.401 320.881 370.268 321.087 370.152C321.295 370.034 321.577 369.974 321.932 369.974C322.391 369.974 322.796 370.089 323.146 370.319C323.497 370.549 323.77 370.874 323.967 371.295C324.163 371.717 324.261 372.214 324.261 372.787C324.261 373.365 324.163 373.865 323.967 374.289C323.77 374.71 323.498 375.037 323.15 375.269C322.802 375.499 322.401 375.614 321.946 375.614C321.596 375.614 321.315 375.556 321.104 375.44C320.894 375.321 320.732 375.187 320.618 375.038C320.504 374.887 320.417 374.761 320.355 374.662H320.284V377.545H319.446ZM320.27 372.773C320.27 373.185 320.33 373.548 320.451 373.863C320.572 374.175 320.748 374.42 320.98 374.598C321.212 374.773 321.496 374.861 321.832 374.861C322.183 374.861 322.475 374.768 322.71 374.584C322.946 374.397 323.124 374.146 323.242 373.831C323.363 373.514 323.423 373.161 323.423 372.773C323.423 372.389 323.364 372.044 323.246 371.736C323.13 371.426 322.953 371.181 322.717 371.001C322.482 370.818 322.188 370.727 321.832 370.727C321.492 370.727 321.205 370.814 320.973 370.987C320.741 371.157 320.566 371.396 320.448 371.704C320.329 372.009 320.27 372.366 320.27 372.773ZM330.895 368.227V375.5H330.014V369.151H329.972L328.196 370.33V369.435L330.014 368.227H330.895ZM335.359 375.599C334.824 375.599 334.368 375.454 333.992 375.163C333.615 374.869 333.327 374.444 333.129 373.888C332.93 373.329 332.83 372.654 332.83 371.864C332.83 371.078 332.93 370.406 333.129 369.85C333.33 369.291 333.619 368.865 333.995 368.572C334.374 368.276 334.828 368.128 335.359 368.128C335.889 368.128 336.342 368.276 336.719 368.572C337.098 368.865 337.386 369.291 337.585 369.85C337.787 370.406 337.887 371.078 337.887 371.864C337.887 372.654 337.788 373.329 337.589 373.888C337.39 374.444 337.102 374.869 336.726 375.163C336.35 375.454 335.894 375.599 335.359 375.599ZM335.359 374.818C335.889 374.818 336.301 374.562 336.595 374.051C336.888 373.54 337.035 372.811 337.035 371.864C337.035 371.234 336.967 370.698 336.832 370.255C336.7 369.812 336.508 369.475 336.257 369.243C336.009 369.011 335.709 368.895 335.359 368.895C334.833 368.895 334.422 369.154 334.126 369.673C333.831 370.189 333.683 370.919 333.683 371.864C333.683 372.493 333.749 373.028 333.881 373.469C334.014 373.909 334.205 374.244 334.453 374.474C334.704 374.703 335.006 374.818 335.359 374.818Z" fill="#15D6FF"/>
<path d="M477.155 360.5V365.5" stroke="#15D6FF" stroke-linecap="square"/>
<path d="M466.017 370.045C465.974 369.686 465.802 369.406 465.499 369.207C465.196 369.009 464.824 368.909 464.384 368.909C464.062 368.909 463.78 368.961 463.538 369.065C463.299 369.17 463.112 369.313 462.977 369.495C462.845 369.677 462.778 369.884 462.778 370.116C462.778 370.311 462.825 370.478 462.917 370.617C463.012 370.754 463.132 370.869 463.279 370.962C463.426 371.052 463.58 371.126 463.741 371.185C463.902 371.242 464.05 371.288 464.185 371.324L464.923 371.523C465.113 371.572 465.323 371.641 465.555 371.729C465.79 371.816 466.013 371.936 466.227 372.087C466.442 372.237 466.62 372.428 466.759 372.663C466.899 372.897 466.969 373.185 466.969 373.526C466.969 373.919 466.866 374.274 466.66 374.591C466.456 374.908 466.158 375.16 465.765 375.347C465.374 375.534 464.9 375.628 464.341 375.628C463.82 375.628 463.369 375.544 462.988 375.376C462.609 375.208 462.311 374.973 462.093 374.673C461.878 374.372 461.756 374.023 461.727 373.625H462.636C462.66 373.9 462.752 374.127 462.913 374.307C463.077 374.484 463.283 374.617 463.531 374.705C463.782 374.79 464.052 374.832 464.341 374.832C464.677 374.832 464.979 374.778 465.246 374.669C465.514 374.558 465.726 374.404 465.882 374.207C466.038 374.009 466.116 373.777 466.116 373.511C466.116 373.27 466.049 373.073 465.914 372.922C465.779 372.77 465.602 372.647 465.381 372.553C465.161 372.458 464.923 372.375 464.668 372.304L463.773 372.048C463.205 371.885 462.755 371.652 462.423 371.349C462.092 371.046 461.926 370.649 461.926 370.159C461.926 369.752 462.036 369.397 462.256 369.094C462.479 368.788 462.777 368.552 463.151 368.384C463.528 368.213 463.948 368.128 464.412 368.128C464.881 368.128 465.297 368.212 465.662 368.38C466.027 368.546 466.315 368.773 466.528 369.062C466.744 369.351 466.857 369.679 466.869 370.045H466.017ZM470.59 375.614C470.064 375.614 469.611 375.498 469.23 375.266C468.851 375.031 468.559 374.705 468.353 374.286C468.149 373.864 468.047 373.374 468.047 372.815C468.047 372.257 468.149 371.764 468.353 371.338C468.559 370.91 468.845 370.576 469.212 370.337C469.581 370.095 470.012 369.974 470.505 369.974C470.789 369.974 471.069 370.022 471.346 370.116C471.623 370.211 471.876 370.365 472.103 370.578C472.33 370.789 472.511 371.068 472.646 371.416C472.781 371.764 472.849 372.193 472.849 372.702V373.057H468.644V372.332H471.996C471.996 372.025 471.935 371.75 471.812 371.509C471.691 371.267 471.518 371.076 471.293 370.937C471.071 370.797 470.808 370.727 470.505 370.727C470.171 370.727 469.882 370.81 469.638 370.976C469.397 371.139 469.211 371.352 469.081 371.615C468.951 371.878 468.885 372.16 468.885 372.46V372.943C468.885 373.355 468.956 373.704 469.099 373.991C469.243 374.275 469.443 374.491 469.699 374.641C469.954 374.787 470.251 374.861 470.59 374.861C470.81 374.861 471.009 374.83 471.187 374.768C471.367 374.705 471.522 374.61 471.652 374.484C471.782 374.357 471.883 374.198 471.954 374.009L472.763 374.236C472.678 374.51 472.535 374.752 472.334 374.96C472.132 375.166 471.884 375.327 471.588 375.443C471.292 375.557 470.959 375.614 470.59 375.614ZM474.123 377.545V370.045H474.933V370.912H475.032C475.094 370.817 475.179 370.696 475.288 370.55C475.399 370.401 475.558 370.268 475.764 370.152C475.972 370.034 476.254 369.974 476.609 369.974C477.068 369.974 477.473 370.089 477.824 370.319C478.174 370.549 478.447 370.874 478.644 371.295C478.84 371.717 478.939 372.214 478.939 372.787C478.939 373.365 478.84 373.865 478.644 374.289C478.447 374.71 478.175 375.037 477.827 375.269C477.479 375.499 477.078 375.614 476.623 375.614C476.273 375.614 475.992 375.556 475.782 375.44C475.571 375.321 475.409 375.187 475.295 375.038C475.182 374.887 475.094 374.761 475.032 374.662H474.961V377.545H474.123ZM474.947 372.773C474.947 373.185 475.008 373.548 475.128 373.863C475.249 374.175 475.425 374.42 475.657 374.598C475.889 374.773 476.174 374.861 476.51 374.861C476.86 374.861 477.153 374.768 477.387 374.584C477.624 374.397 477.801 374.146 477.92 373.831C478.04 373.514 478.101 373.161 478.101 372.773C478.101 372.389 478.041 372.044 477.923 371.736C477.807 371.426 477.631 371.181 477.394 371.001C477.16 370.818 476.865 370.727 476.51 370.727C476.169 370.727 475.882 370.814 475.65 370.987C475.418 371.157 475.243 371.396 475.125 371.704C475.006 372.009 474.947 372.366 474.947 372.773ZM485.572 368.227V375.5H484.692V369.151H484.649L482.873 370.33V369.435L484.692 368.227H485.572ZM490.079 375.599C489.78 375.595 489.482 375.538 489.184 375.429C488.885 375.32 488.613 375.137 488.367 374.879C488.121 374.618 487.923 374.267 487.774 373.824C487.625 373.379 487.55 372.82 487.55 372.148C487.55 371.504 487.611 370.933 487.731 370.436C487.852 369.937 488.027 369.516 488.257 369.175C488.487 368.832 488.764 368.572 489.088 368.394C489.415 368.217 489.783 368.128 490.192 368.128C490.599 368.128 490.962 368.21 491.279 368.373C491.599 368.534 491.859 368.759 492.06 369.048C492.261 369.336 492.392 369.669 492.451 370.045H491.584C491.504 369.719 491.348 369.448 491.116 369.232C490.884 369.017 490.576 368.909 490.192 368.909C489.629 368.909 489.185 369.154 488.861 369.644C488.539 370.134 488.376 370.822 488.374 371.707H488.431C488.564 371.506 488.721 371.335 488.903 371.192C489.088 371.048 489.291 370.937 489.514 370.859C489.737 370.781 489.972 370.741 490.221 370.741C490.637 370.741 491.019 370.846 491.364 371.054C491.71 371.26 491.987 371.545 492.195 371.91C492.403 372.272 492.508 372.688 492.508 373.156C492.508 373.606 492.407 374.018 492.206 374.392C492.005 374.764 491.722 375.06 491.357 375.28C490.995 375.498 490.569 375.604 490.079 375.599ZM490.079 374.818C490.377 374.818 490.644 374.744 490.881 374.594C491.12 374.445 491.309 374.245 491.446 373.994C491.586 373.743 491.655 373.464 491.655 373.156C491.655 372.856 491.588 372.582 491.453 372.336C491.32 372.087 491.137 371.89 490.903 371.743C490.671 371.596 490.405 371.523 490.107 371.523C489.882 371.523 489.673 371.568 489.479 371.658C489.284 371.745 489.114 371.866 488.967 372.02C488.823 372.174 488.709 372.35 488.626 372.549C488.543 372.746 488.502 372.953 488.502 373.17C488.502 373.459 488.569 373.729 488.704 373.98C488.842 374.231 489.029 374.433 489.265 374.587C489.505 374.741 489.776 374.818 490.079 374.818Z" fill="#15D6FF"/>
<path d="M632.328 360.5V365.5" stroke="#15D6FF" stroke-linecap="square"/>
<path d="M620.579 370.045C620.536 369.686 620.364 369.406 620.061 369.207C619.758 369.009 619.386 368.909 618.946 368.909C618.624 368.909 618.342 368.961 618.1 369.065C617.861 369.17 617.674 369.313 617.539 369.495C617.407 369.677 617.34 369.884 617.34 370.116C617.34 370.311 617.387 370.478 617.479 370.617C617.574 370.754 617.694 370.869 617.841 370.962C617.988 371.052 618.142 371.126 618.303 371.185C618.464 371.242 618.612 371.288 618.747 371.324L619.485 371.523C619.675 371.572 619.885 371.641 620.117 371.729C620.352 371.816 620.576 371.936 620.789 372.087C621.004 372.237 621.182 372.428 621.321 372.663C621.461 372.897 621.531 373.185 621.531 373.526C621.531 373.919 621.428 374.274 621.222 374.591C621.018 374.908 620.72 375.16 620.327 375.347C619.936 375.534 619.462 375.628 618.903 375.628C618.382 375.628 617.931 375.544 617.55 375.376C617.171 375.208 616.873 374.973 616.655 374.673C616.44 374.372 616.318 374.023 616.289 373.625H617.198C617.222 373.9 617.314 374.127 617.475 374.307C617.639 374.484 617.845 374.617 618.093 374.705C618.344 374.79 618.614 374.832 618.903 374.832C619.239 374.832 619.541 374.778 619.808 374.669C620.076 374.558 620.288 374.404 620.444 374.207C620.6 374.009 620.679 373.777 620.679 373.511C620.679 373.27 620.611 373.073 620.476 372.922C620.341 372.77 620.164 372.647 619.943 372.553C619.723 372.458 619.485 372.375 619.23 372.304L618.335 372.048C617.767 371.885 617.317 371.652 616.985 371.349C616.654 371.046 616.488 370.649 616.488 370.159C616.488 369.752 616.598 369.397 616.818 369.094C617.041 368.788 617.339 368.552 617.713 368.384C618.09 368.213 618.51 368.128 618.974 368.128C619.443 368.128 619.859 368.212 620.224 368.38C620.589 368.546 620.877 368.773 621.09 369.062C621.306 369.351 621.42 369.679 621.431 370.045H620.579ZM625.152 375.614C624.626 375.614 624.173 375.498 623.792 375.266C623.413 375.031 623.121 374.705 622.915 374.286C622.711 373.864 622.609 373.374 622.609 372.815C622.609 372.257 622.711 371.764 622.915 371.338C623.121 370.91 623.407 370.576 623.774 370.337C624.144 370.095 624.574 369.974 625.067 369.974C625.351 369.974 625.631 370.022 625.908 370.116C626.185 370.211 626.438 370.365 626.665 370.578C626.892 370.789 627.073 371.068 627.208 371.416C627.343 371.764 627.411 372.193 627.411 372.702V373.057H623.206V372.332H626.558C626.558 372.025 626.497 371.75 626.374 371.509C626.253 371.267 626.08 371.076 625.855 370.937C625.633 370.797 625.37 370.727 625.067 370.727C624.733 370.727 624.444 370.81 624.2 370.976C623.959 371.139 623.773 371.352 623.643 371.615C623.513 371.878 623.448 372.16 623.448 372.46V372.943C623.448 373.355 623.519 373.704 623.661 373.991C623.805 374.275 624.005 374.491 624.261 374.641C624.516 374.787 624.814 374.861 625.152 374.861C625.372 374.861 625.571 374.83 625.749 374.768C625.929 374.705 626.084 374.61 626.214 374.484C626.344 374.357 626.445 374.198 626.516 374.009L627.325 374.236C627.24 374.51 627.097 374.752 626.896 374.96C626.694 375.166 626.446 375.327 626.15 375.443C625.854 375.557 625.521 375.614 625.152 375.614ZM628.685 377.545V370.045H629.495V370.912H629.595C629.656 370.817 629.741 370.696 629.85 370.55C629.961 370.401 630.12 370.268 630.326 370.152C630.534 370.034 630.816 369.974 631.171 369.974C631.631 369.974 632.035 370.089 632.386 370.319C632.736 370.549 633.01 370.874 633.206 371.295C633.403 371.717 633.501 372.214 633.501 372.787C633.501 373.365 633.403 373.865 633.206 374.289C633.01 374.71 632.737 375.037 632.389 375.269C632.041 375.499 631.64 375.614 631.185 375.614C630.835 375.614 630.555 375.556 630.344 375.44C630.133 375.321 629.971 375.187 629.857 375.038C629.744 374.887 629.656 374.761 629.595 374.662H629.524V377.545H628.685ZM629.509 372.773C629.509 373.185 629.57 373.548 629.69 373.863C629.811 374.175 629.988 374.42 630.22 374.598C630.452 374.773 630.736 374.861 631.072 374.861C631.422 374.861 631.715 374.768 631.949 374.584C632.186 374.397 632.363 374.146 632.482 373.831C632.602 373.514 632.663 373.161 632.663 372.773C632.663 372.389 632.604 372.044 632.485 371.736C632.369 371.426 632.193 371.181 631.956 371.001C631.722 370.818 631.427 370.727 631.072 370.727C630.731 370.727 630.444 370.814 630.212 370.987C629.98 371.157 629.805 371.396 629.687 371.704C629.568 372.009 629.509 372.366 629.509 372.773ZM637.577 375.5V374.861L639.978 372.233C640.26 371.925 640.492 371.658 640.674 371.43C640.856 371.201 640.991 370.985 641.079 370.784C641.169 370.58 641.214 370.367 641.214 370.145C641.214 369.889 641.152 369.668 641.029 369.481C640.908 369.294 640.743 369.149 640.532 369.048C640.321 368.946 640.085 368.895 639.822 368.895C639.542 368.895 639.299 368.953 639.09 369.069C638.884 369.183 638.725 369.342 638.611 369.548C638.5 369.754 638.444 369.996 638.444 370.273H637.606C637.606 369.847 637.704 369.473 637.901 369.151C638.097 368.829 638.365 368.578 638.703 368.398C639.044 368.218 639.426 368.128 639.85 368.128C640.276 368.128 640.654 368.218 640.983 368.398C641.312 368.578 641.57 368.82 641.757 369.126C641.944 369.431 642.038 369.771 642.038 370.145C642.038 370.412 641.989 370.674 641.892 370.93C641.797 371.183 641.632 371.466 641.395 371.778C641.161 372.089 640.835 372.467 640.418 372.915L638.785 374.662V374.719H642.166V375.5H637.577ZM643.632 375.5V374.861L646.033 372.233C646.314 371.925 646.546 371.658 646.729 371.43C646.911 371.201 647.046 370.985 647.134 370.784C647.224 370.58 647.269 370.367 647.269 370.145C647.269 369.889 647.207 369.668 647.084 369.481C646.963 369.294 646.797 369.149 646.587 369.048C646.376 368.946 646.139 368.895 645.876 368.895C645.597 368.895 645.353 368.953 645.145 369.069C644.939 369.183 644.779 369.342 644.666 369.548C644.554 369.754 644.499 369.996 644.499 370.273H643.661C643.661 369.847 643.759 369.473 643.955 369.151C644.152 368.829 644.419 368.578 644.758 368.398C645.099 368.218 645.481 368.128 645.905 368.128C646.331 368.128 646.709 368.218 647.038 368.398C647.367 368.578 647.625 368.82 647.812 369.126C647.999 369.431 648.092 369.771 648.092 370.145C648.092 370.412 648.044 370.674 647.947 370.93C647.852 371.183 647.686 371.466 647.45 371.778C647.215 372.089 646.89 372.467 646.473 372.915L644.84 374.662V374.719H648.22V375.5H643.632Z" fill="#15D6FF"/>
<path d="M787.5 360.5V365.5" stroke="#15D6FF" stroke-linecap="square"/>
<path d="M775.698 370.045C775.655 369.686 775.482 369.406 775.179 369.207C774.876 369.009 774.505 368.909 774.064 368.909C773.742 368.909 773.461 368.961 773.219 369.065C772.98 369.17 772.793 369.313 772.658 369.495C772.525 369.677 772.459 369.884 772.459 370.116C772.459 370.311 772.505 370.478 772.598 370.617C772.692 370.754 772.813 370.869 772.96 370.962C773.107 371.052 773.261 371.126 773.422 371.185C773.583 371.242 773.73 371.288 773.865 371.324L774.604 371.523C774.793 371.572 775.004 371.641 775.236 371.729C775.471 371.816 775.694 371.936 775.907 372.087C776.123 372.237 776.3 372.428 776.44 372.663C776.58 372.897 776.65 373.185 776.65 373.526C776.65 373.919 776.547 374.274 776.341 374.591C776.137 374.908 775.839 375.16 775.446 375.347C775.055 375.534 774.58 375.628 774.022 375.628C773.501 375.628 773.05 375.544 772.669 375.376C772.29 375.208 771.992 374.973 771.774 374.673C771.558 374.372 771.436 374.023 771.408 373.625H772.317C772.341 373.9 772.433 374.127 772.594 374.307C772.757 374.484 772.963 374.617 773.212 374.705C773.463 374.79 773.733 374.832 774.022 374.832C774.358 374.832 774.66 374.778 774.927 374.669C775.195 374.558 775.407 374.404 775.563 374.207C775.719 374.009 775.797 373.777 775.797 373.511C775.797 373.27 775.73 373.073 775.595 372.922C775.46 372.77 775.282 372.647 775.062 372.553C774.842 372.458 774.604 372.375 774.348 372.304L773.453 372.048C772.885 371.885 772.435 371.652 772.104 371.349C771.773 371.046 771.607 370.649 771.607 370.159C771.607 369.752 771.717 369.397 771.937 369.094C772.16 368.788 772.458 368.552 772.832 368.384C773.208 368.213 773.629 368.128 774.093 368.128C774.561 368.128 774.978 368.212 775.343 368.38C775.707 368.546 775.996 368.773 776.209 369.062C776.425 369.351 776.538 369.679 776.55 370.045H775.698ZM780.271 375.614C779.745 375.614 779.292 375.498 778.911 375.266C778.532 375.031 778.24 374.705 778.034 374.286C777.83 373.864 777.728 373.374 777.728 372.815C777.728 372.257 777.83 371.764 778.034 371.338C778.24 370.91 778.526 370.576 778.893 370.337C779.262 370.095 779.693 369.974 780.186 369.974C780.47 369.974 780.75 370.022 781.027 370.116C781.304 370.211 781.556 370.365 781.784 370.578C782.011 370.789 782.192 371.068 782.327 371.416C782.462 371.764 782.529 372.193 782.529 372.702V373.057H778.325V372.332H781.677C781.677 372.025 781.615 371.75 781.492 371.509C781.372 371.267 781.199 371.076 780.974 370.937C780.751 370.797 780.489 370.727 780.186 370.727C779.852 370.727 779.563 370.81 779.319 370.976C779.078 371.139 778.892 371.352 778.762 371.615C778.631 371.878 778.566 372.16 778.566 372.46V372.943C778.566 373.355 778.637 373.704 778.779 373.991C778.924 374.275 779.124 374.491 779.379 374.641C779.635 374.787 779.932 374.861 780.271 374.861C780.491 374.861 780.69 374.83 780.867 374.768C781.047 374.705 781.202 374.61 781.333 374.484C781.463 374.357 781.563 374.198 781.634 374.009L782.444 374.236C782.359 374.51 782.216 374.752 782.014 374.96C781.813 375.166 781.565 375.327 781.269 375.443C780.973 375.557 780.64 375.614 780.271 375.614ZM783.804 377.545V370.045H784.614V370.912H784.713C784.775 370.817 784.86 370.696 784.969 370.55C785.08 370.401 785.239 370.268 785.445 370.152C785.653 370.034 785.935 369.974 786.29 369.974C786.749 369.974 787.154 370.089 787.504 370.319C787.855 370.549 788.128 370.874 788.325 371.295C788.521 371.717 788.619 372.214 788.619 372.787C788.619 373.365 788.521 373.865 788.325 374.289C788.128 374.71 787.856 375.037 787.508 375.269C787.16 375.499 786.759 375.614 786.304 375.614C785.954 375.614 785.673 375.556 785.463 375.44C785.252 375.321 785.09 375.187 784.976 375.038C784.862 374.887 784.775 374.761 784.713 374.662H784.642V377.545H783.804ZM784.628 372.773C784.628 373.185 784.688 373.548 784.809 373.863C784.93 374.175 785.106 374.42 785.338 374.598C785.57 374.773 785.854 374.861 786.191 374.861C786.541 374.861 786.833 374.768 787.068 374.584C787.304 374.397 787.482 374.146 787.6 373.831C787.721 373.514 787.781 373.161 787.781 372.773C787.781 372.389 787.722 372.044 787.604 371.736C787.488 371.426 787.311 371.181 787.075 371.001C786.84 370.818 786.546 370.727 786.191 370.727C785.85 370.727 785.563 370.814 785.331 370.987C785.099 371.157 784.924 371.396 784.806 371.704C784.687 372.009 784.628 372.366 784.628 372.773ZM792.696 375.5V374.861L795.097 372.233C795.378 371.925 795.61 371.658 795.793 371.43C795.975 371.201 796.11 370.985 796.198 370.784C796.288 370.58 796.333 370.367 796.333 370.145C796.333 369.889 796.271 369.668 796.148 369.481C796.027 369.294 795.861 369.149 795.651 369.048C795.44 368.946 795.203 368.895 794.941 368.895C794.661 368.895 794.417 368.953 794.209 369.069C794.003 369.183 793.843 369.342 793.73 369.548C793.618 369.754 793.563 369.996 793.563 370.273H792.725C792.725 369.847 792.823 369.473 793.019 369.151C793.216 368.829 793.483 368.578 793.822 368.398C794.163 368.218 794.545 368.128 794.969 368.128C795.395 368.128 795.773 368.218 796.102 368.398C796.431 368.578 796.689 368.82 796.876 369.126C797.063 369.431 797.156 369.771 797.156 370.145C797.156 370.412 797.108 370.674 797.011 370.93C796.916 371.183 796.75 371.466 796.514 371.778C796.279 372.089 795.954 372.467 795.537 372.915L793.904 374.662V374.719H797.284V375.5H792.696ZM801.08 375.599C800.593 375.599 800.162 375.513 799.788 375.34C799.416 375.165 799.126 374.925 798.918 374.619C798.709 374.312 798.606 373.961 798.609 373.568C798.606 373.26 798.667 372.976 798.79 372.716C798.913 372.453 799.081 372.234 799.294 372.059C799.51 371.881 799.75 371.769 800.015 371.722V371.679C799.667 371.589 799.39 371.394 799.184 371.093C798.978 370.79 798.876 370.446 798.879 370.06C798.876 369.69 798.97 369.36 799.159 369.069C799.349 368.778 799.609 368.548 799.941 368.38C800.274 368.212 800.654 368.128 801.08 368.128C801.502 368.128 801.878 368.212 802.21 368.38C802.541 368.548 802.802 368.778 802.991 369.069C803.183 369.36 803.28 369.69 803.282 370.06C803.28 370.446 803.174 370.79 802.966 371.093C802.76 371.394 802.487 371.589 802.146 371.679V371.722C802.409 371.769 802.645 371.881 802.856 372.059C803.067 372.234 803.235 372.453 803.36 372.716C803.486 372.976 803.55 373.26 803.552 373.568C803.55 373.961 803.443 374.312 803.232 374.619C803.024 374.925 802.734 375.165 802.362 375.34C801.993 375.513 801.566 375.599 801.08 375.599ZM801.08 374.818C801.41 374.818 801.694 374.765 801.933 374.658C802.172 374.552 802.356 374.402 802.487 374.207C802.617 374.013 802.683 373.786 802.686 373.526C802.683 373.251 802.612 373.008 802.472 372.798C802.333 372.587 802.142 372.421 801.901 372.3C801.662 372.18 801.388 372.119 801.08 372.119C800.77 372.119 800.493 372.18 800.249 372.3C800.008 372.421 799.817 372.587 799.678 372.798C799.54 373.008 799.473 373.251 799.475 373.526C799.473 373.786 799.536 374.013 799.664 374.207C799.794 374.402 799.98 374.552 800.221 374.658C800.463 374.765 800.749 374.818 801.08 374.818ZM801.08 371.366C801.341 371.366 801.572 371.314 801.773 371.21C801.977 371.106 802.136 370.96 802.252 370.773C802.368 370.586 802.427 370.367 802.43 370.116C802.427 369.87 802.369 369.656 802.256 369.474C802.142 369.289 801.985 369.147 801.784 369.048C801.582 368.946 801.348 368.895 801.08 368.895C800.808 368.895 800.57 368.946 800.367 369.048C800.163 369.147 800.006 369.289 799.894 369.474C799.783 369.656 799.729 369.87 799.731 370.116C799.729 370.367 799.784 370.586 799.898 370.773C800.014 370.96 800.174 371.106 800.377 371.21C800.581 371.314 800.815 371.366 801.08 371.366Z" fill="#15D6FF"/>
</g>
<defs>
<clipPath id="clip0_1174_7695">
<rect width="825" height="380" fill="white"/>
</clipPath>
</defs>
</svg>
