<svg width="825" height="380" viewBox="0 0 825 380" fill="none" xmlns="http://www.w3.org/2000/svg">
<g clip-path="url(#clip0_1174_8296)">
<path d="M24.0291 292.488H0V359.5H24.0291V292.488Z" fill="#15D6FF"/>
<path d="M50.7282 291.013H26.699V359.5H50.7282V291.013Z" fill="#15D6FF"/>
<path d="M77.4272 262.655H53.3981V359.5H77.4272V262.655Z" fill="#15D6FF"/>
<path d="M104.126 281.155H80.0971V359.5H104.126V281.155Z" fill="#15D6FF"/>
<path d="M130.825 271.183H106.796V359.5H130.825V271.183Z" fill="#15D6FF"/>
<path d="M157.524 288.165H133.495V359.5H157.524V288.165Z" fill="#15D6FF"/>
<path d="M184.223 293.459H160.194V359.5H184.223V293.459Z" fill="#15D6FF"/>
<path d="M210.922 286.272H186.893V359.5H210.922V286.272Z" fill="#15D6FF"/>
<path d="M237.621 83.4608H213.592V359.5H237.621V83.4608Z" fill="#15D6FF"/>
<path d="M264.32 109.174H240.291V359.5H264.32V109.174Z" fill="#15D6FF"/>
<path d="M291.019 169.182H266.99V359.5H291.019V169.182Z" fill="#15D6FF"/>
<path d="M317.718 213.437H293.689V359.5H317.718V213.437Z" fill="#15D6FF"/>
<path d="M344.417 266.234H320.388V359.5H344.417V266.234Z" fill="#15D6FF"/>
<path d="M371.117 258.493H347.087V359.5H371.117V258.493Z" fill="#15D6FF"/>
<path d="M397.815 275.725H373.786V359.5H397.815V275.725Z" fill="#15D6FF"/>
<path d="M424.515 267.542H400.485V359.5H424.515V267.542Z" fill="#15D6FF"/>
<path d="M451.214 263.336H427.184V359.5H451.214V263.336Z" fill="#15D6FF"/>
<path d="M477.913 262.574H453.883V359.5H477.913V262.574Z" fill="#15D6FF"/>
<path d="M504.612 271.469H480.583V359.5H504.612V271.469Z" fill="#15D6FF"/>
<path d="M531.311 266.216H507.282V359.5H531.311V266.216Z" fill="#15D6FF"/>
<path d="M558.01 258.904H533.981V359.5H558.01V258.904Z" fill="#15D6FF"/>
<path d="M584.709 262.34H560.68V359.5H584.709V262.34Z" fill="#15D6FF"/>
<path d="M611.408 269.095H587.379V359.5H611.408V269.095Z" fill="#15D6FF"/>
<path d="M638.107 273.349H614.078V359.5H638.107V273.349Z" fill="#15D6FF"/>
<path d="M664.806 258.851H640.777V359.5H664.806V258.851Z" fill="#15D6FF"/>
<path d="M691.505 280.606H667.476V359.5H691.505V280.606Z" fill="#15D6FF"/>
<path d="M718.204 288.923H694.175V359.5H718.204V288.923Z" fill="#15D6FF"/>
<path d="M744.903 278.502H720.874V359.5H744.903V278.502Z" fill="#15D6FF"/>
<path d="M771.602 248.18H747.573V359.5H771.602V248.18Z" fill="#15D6FF"/>
<path d="M798.301 259.043H774.272V359.5H798.301V259.043Z" fill="#15D6FF"/>
<path d="M24.0291 281.747H0V291.988H24.0291V281.747Z" fill="#15D6FF"/>
<path d="M50.7282 282.738H26.699V290.513H50.7282V282.738Z" fill="#15D6FF"/>
<path d="M77.4272 252.999H53.3981V262.155H77.4272V252.999Z" fill="#15D6FF"/>
<path d="M104.126 272.091H80.0971V280.655H104.126V272.091Z" fill="#15D6FF"/>
<path d="M130.825 260.634H106.796V270.683H130.825V260.634Z" fill="#15D6FF"/>
<path d="M157.524 280.065H133.495V287.665H157.524V280.065Z" fill="#15D6FF"/>
<path d="M184.223 286.891H160.194V292.959H184.223V286.891Z" fill="#15D6FF"/>
<path d="M210.922 281.814H186.893V285.772H210.922V281.814Z" fill="#15D6FF"/>
<path d="M237.621 69.4664H213.592V82.9608H237.621V69.4664Z" fill="#15D6FF"/>
<path d="M264.32 100.633H240.291V108.674H264.32V100.633Z" fill="#15D6FF"/>
<path d="M291.019 159.68H266.99V168.682H291.019V159.68Z" fill="#15D6FF"/>
<path d="M317.718 206.017H293.689V212.937H317.718V206.017Z" fill="#15D6FF"/>
<path d="M344.417 261.261H320.388V265.734H344.417V261.261Z" fill="#15D6FF"/>
<path d="M371.117 252.662H347.087V257.993H371.117V252.662Z" fill="#15D6FF"/>
<path d="M397.815 270.569H373.786V275.225H397.815V270.569Z" fill="#15D6FF"/>
<path d="M424.515 257.204H400.485V267.042H424.515V257.204Z" fill="#15D6FF"/>
<path d="M451.214 259.072H427.184V262.836H451.214V259.072Z" fill="#15D6FF"/>
<path d="M477.913 258.692H453.883V262.074H477.913V258.692Z" fill="#15D6FF"/>
<path d="M504.612 266.803H480.583V270.969H504.612V266.803Z" fill="#15D6FF"/>
<path d="M531.311 260.91H507.282V265.716H531.311V260.91Z" fill="#15D6FF"/>
<path d="M558.01 253.891H533.981V258.404H558.01V253.891Z" fill="#15D6FF"/>
<path d="M584.709 257.228H560.68V261.84H584.709V257.228Z" fill="#15D6FF"/>
<path d="M611.408 263.194H587.379V268.595H611.408V263.194Z" fill="#15D6FF"/>
<path d="M638.107 267.816H614.078V272.849H638.107V267.816Z" fill="#15D6FF"/>
<path d="M664.806 252.967H640.777V258.351H664.806V252.967Z" fill="#15D6FF"/>
<path d="M691.505 276.68H667.476V280.106H691.505V276.68Z" fill="#15D6FF"/>
<path d="M718.204 284.884H694.175V288.423H718.204V284.884Z" fill="#15D6FF"/>
<path d="M744.903 273.148H720.874V278.002H744.903V273.148Z" fill="#15D6FF"/>
<path d="M771.602 242.289H747.573V247.68H771.602V242.289Z" fill="#15D6FF"/>
<path d="M798.301 253.973H774.272V258.543H798.301V253.973Z" fill="#15D6FF"/>
<path d="M24.0291 280.38H0V281.247H24.0291V280.38Z" fill="#15D6FF"/>
<path d="M50.7282 281.925H26.699V282.238H50.7282V281.925Z" fill="#15D6FF"/>
<path d="M77.4272 251.671H53.3981V252.499H77.4272V251.671Z" fill="#15D6FF"/>
<path d="M104.126 270.607H80.0971V271.591H104.126V270.607Z" fill="#15D6FF"/>
<path d="M130.825 258.899H106.796V260.134H130.825V258.899Z" fill="#15D6FF"/>
<path d="M157.524 278.954H133.495V279.565H157.524V278.954Z" fill="#15D6FF"/>
<path d="M184.223 286.295H160.194V286.391H184.223V286.295Z" fill="#15D6FF"/>
<path d="M210.922 279.675H186.893V281.314H210.922V279.675Z" fill="#15D6FF"/>
<path d="M237.621 64.6312H213.592V68.9664H237.621V64.6312Z" fill="#15D6FF"/>
<path d="M264.32 97.228H240.291V100.133H264.32V97.228Z" fill="#15D6FF"/>
<path d="M291.019 156.787H266.99V159.18H291.019V156.787Z" fill="#15D6FF"/>
<path d="M317.718 204.139H293.689V205.517H317.718V204.139Z" fill="#15D6FF"/>
<path d="M344.417 260.042H320.388V260.761H344.417V260.042Z" fill="#15D6FF"/>
<path d="M371.117 251.118H347.087V252.162H371.117V251.118Z" fill="#15D6FF"/>
<path d="M397.815 269.823H373.786V270.069H397.815V269.823Z" fill="#15D6FF"/>
<path d="M424.515 255.869H400.485V256.704H424.515V255.869Z" fill="#15D6FF"/>
<path d="M451.214 257.091H427.184V258.572H451.214V257.091Z" fill="#15D6FF"/>
<path d="M477.913 257.62H453.883V258.192H477.913V257.62Z" fill="#15D6FF"/>
<path d="M504.612 265.157H480.583V266.303H504.612V265.157Z" fill="#15D6FF"/>
<path d="M531.311 259.764H507.282V260.41H531.311V259.764Z" fill="#15D6FF"/>
<path d="M558.01 252.882H533.981V253.391H558.01V252.882Z" fill="#15D6FF"/>
<path d="M584.709 256.241H560.68V256.728H584.709V256.241Z" fill="#15D6FF"/>
<path d="M611.408 262.388H587.379V262.694H611.408V262.388Z" fill="#15D6FF"/>
<path d="M638.107 266.666H614.078V267.316H638.107V266.666Z" fill="#15D6FF"/>
<path d="M664.806 249.368H640.777V252.467H664.806V249.368Z" fill="#15D6FF"/>
<path d="M691.505 276.025H667.476V276.18H691.505V276.025Z" fill="#15D6FF"/>
<path d="M771.602 241.788H747.573V241.789H771.602V241.788Z" fill="#15D6FF"/>
<path d="M24.0291 279.318H0V279.88H24.0291V279.318Z" fill="#15D6FF"/>
<path d="M77.4272 250.782H53.3981V251.171H77.4272V250.782Z" fill="#15D6FF"/>
<path d="M104.126 269.52H80.0971V270.107H104.126V269.52Z" fill="#15D6FF"/>
<path d="M130.825 257.199H106.796V258.399H130.825V257.199Z" fill="#15D6FF"/>
<path d="M157.524 277.289H133.495V278.454H157.524V277.289Z" fill="#15D6FF"/>
<path d="M210.922 278.743H186.893V279.175H210.922V278.743Z" fill="#15D6FF"/>
<path d="M237.621 62.0232H213.592V64.1312H237.621V62.0232Z" fill="#15D6FF"/>
<path d="M264.32 94.2751H240.291V96.7279H264.32V94.2751Z" fill="#15D6FF"/>
<path d="M291.019 153.967H266.99V156.287H291.019V153.967Z" fill="#15D6FF"/>
<path d="M317.718 200.974H293.689V203.639H317.718V200.974Z" fill="#15D6FF"/>
<path d="M344.417 257.373H320.388V259.542H344.417V257.373Z" fill="#15D6FF"/>
<path d="M371.117 243.426H347.087V250.618H371.117V243.426Z" fill="#15D6FF"/>
<path d="M397.815 268.594H373.786V269.323H397.815V268.594Z" fill="#15D6FF"/>
<path d="M424.515 249.364H400.485V255.369H424.515V249.364Z" fill="#15D6FF"/>
<path d="M451.214 256.379H427.184V256.591H451.214V256.379Z" fill="#15D6FF"/>
<path d="M477.913 256.442H453.883V257.12H477.913V256.442Z" fill="#15D6FF"/>
<path d="M504.612 263.831H480.583V264.657H504.612V263.831Z" fill="#15D6FF"/>
<path d="M531.311 258.594H507.282V259.264H531.311V258.594Z" fill="#15D6FF"/>
<path d="M558.01 251.295H533.981V252.382H558.01V251.295Z" fill="#15D6FF"/>
<path d="M584.709 254.527H560.68V255.741H584.709V254.527Z" fill="#15D6FF"/>
<path d="M611.408 260.457H587.379V261.888H611.408V260.457Z" fill="#15D6FF"/>
<path d="M638.107 264.095H614.078V266.166H638.107V264.095Z" fill="#15D6FF"/>
<path d="M664.806 246.674H640.777V248.868H664.806V246.674Z" fill="#15D6FF"/>
<path d="M691.505 273.178H667.476V275.525H691.505V273.178Z" fill="#15D6FF"/>
<path d="M718.204 281.433H694.175V284.187H718.204V281.433Z" fill="#15D6FF"/>
<path d="M744.903 269.433H720.874V272.414H744.903V269.433Z" fill="#15D6FF"/>
<path d="M771.602 233.002H747.573V241.288H771.602V233.002Z" fill="#15D6FF"/>
<path d="M798.301 249.81H774.272V253.288H798.301V249.81Z" fill="#15D6FF"/>
<path d="M237.621 61.3568H213.592V61.5232H237.621V61.3568Z" fill="#15D6FF"/>
<path d="M264.32 93.1353H240.291V93.7753H264.32V93.1353Z" fill="#15D6FF"/>
<path d="M397.815 268.077H373.786V268.094H397.815V268.077Z" fill="#15D6FF"/>
<path d="M691.505 271.944H667.476V272.678H691.505V271.944Z" fill="#15D6FF"/>
<path d="M744.903 268.429H720.874V268.933H744.903V268.429Z" fill="#15D6FF"/>
<path d="M771.602 231.826H747.573V232.502H771.602V231.826Z" fill="#15D6FF"/>
<path d="M798.301 248.897H774.272V249.31H798.301V248.897Z" fill="#15D6FF"/>
<path d="M451.214 255.742H427.184V255.828H451.214V255.742Z" fill="#15D6FF"/>
<path d="M477.913 254.225H453.883V255.846H477.913V254.225Z" fill="#15D6FF"/>
<path d="M504.612 262.517H480.583V263.007H504.612V262.517Z" fill="#15D6FF"/>
<path d="M531.311 257.834H507.282V258.018H531.311V257.834Z" fill="#15D6FF"/>
<path d="M558.01 250.614H533.981V250.726H558.01V250.614Z" fill="#15D6FF"/>
<path d="M584.709 253.667H560.68V253.997H584.709V253.667Z" fill="#15D6FF"/>
<path d="M611.408 259.774H587.379V259.939H611.408V259.774Z" fill="#15D6FF"/>
<path d="M638.107 263.566H614.078V263.576H638.107V263.566Z" fill="#15D6FF"/>
<path d="M0 360H825" stroke="#15D6FF" stroke-dasharray="4 4"/>
<path d="M0 320H825" stroke="#15D6FF" stroke-dasharray="4 4"/>
<path d="M0 280H825" stroke="#15D6FF" stroke-dasharray="4 4"/>
<path d="M0 240H825" stroke="#15D6FF" stroke-dasharray="4 4"/>
<path d="M0 200H825" stroke="#15D6FF" stroke-dasharray="4 4"/>
<path d="M0 160H825" stroke="#15D6FF" stroke-dasharray="4 4"/>
<path d="M0 120H825" stroke="#15D6FF" stroke-dasharray="4 4"/>
<path d="M0 80H825" stroke="#15D6FF" stroke-dasharray="4 4"/>
<path d="M0 40H825" stroke="#15D6FF" stroke-dasharray="4 4"/>
<path d="M0 0H825" stroke="#15D6FF" stroke-dasharray="4 4"/>
<path opacity="0.6" d="M12.0146 360.5V363.5" stroke="#15D6FF" stroke-linecap="square"/>
<path opacity="0.6" d="M38.7136 360.5V363.5" stroke="#15D6FF" stroke-linecap="square"/>
<path opacity="0.6" d="M65.4126 360.5V363.5" stroke="#15D6FF" stroke-linecap="square"/>
<path opacity="0.6" d="M92.1116 360.5V363.5" stroke="#15D6FF" stroke-linecap="square"/>
<path opacity="0.6" d="M118.811 360.5V363.5" stroke="#15D6FF" stroke-linecap="square"/>
<path opacity="0.6" d="M145.51 360.5V363.5" stroke="#15D6FF" stroke-linecap="square"/>
<path opacity="0.6" d="M172.209 360.5V363.5" stroke="#15D6FF" stroke-linecap="square"/>
<path opacity="0.6" d="M198.908 360.5V363.5" stroke="#15D6FF" stroke-linecap="square"/>
<path opacity="0.6" d="M225.607 360.5V363.5" stroke="#15D6FF" stroke-linecap="square"/>
<path opacity="0.6" d="M252.306 360.5V363.5" stroke="#15D6FF" stroke-linecap="square"/>
<path opacity="0.6" d="M279.005 360.5V363.5" stroke="#15D6FF" stroke-linecap="square"/>
<path opacity="0.6" d="M305.704 360.5V363.5" stroke="#15D6FF" stroke-linecap="square"/>
<path opacity="0.6" d="M332.403 360.5V363.5" stroke="#15D6FF" stroke-linecap="square"/>
<path opacity="0.6" d="M359.102 360.5V363.5" stroke="#15D6FF" stroke-linecap="square"/>
<path opacity="0.6" d="M385.801 360.5V363.5" stroke="#15D6FF" stroke-linecap="square"/>
<path opacity="0.6" d="M412.5 360.5V363.5" stroke="#15D6FF" stroke-linecap="square"/>
<path opacity="0.6" d="M439.199 360.5V363.5" stroke="#15D6FF" stroke-linecap="square"/>
<path opacity="0.6" d="M465.898 360.5V363.5" stroke="#15D6FF" stroke-linecap="square"/>
<path opacity="0.6" d="M492.597 360.5V363.5" stroke="#15D6FF" stroke-linecap="square"/>
<path opacity="0.6" d="M519.296 360.5V363.5" stroke="#15D6FF" stroke-linecap="square"/>
<path opacity="0.6" d="M545.995 360.5V363.5" stroke="#15D6FF" stroke-linecap="square"/>
<path opacity="0.6" d="M572.694 360.5V363.5" stroke="#15D6FF" stroke-linecap="square"/>
<path opacity="0.6" d="M599.393 360.5V363.5" stroke="#15D6FF" stroke-linecap="square"/>
<path opacity="0.6" d="M626.092 360.5V363.5" stroke="#15D6FF" stroke-linecap="square"/>
<path opacity="0.6" d="M652.791 360.5V363.5" stroke="#15D6FF" stroke-linecap="square"/>
<path opacity="0.6" d="M679.49 360.5V363.5" stroke="#15D6FF" stroke-linecap="square"/>
<path opacity="0.6" d="M706.189 360.5V363.5" stroke="#15D6FF" stroke-linecap="square"/>
<path opacity="0.6" d="M732.888 360.5V363.5" stroke="#15D6FF" stroke-linecap="square"/>
<path opacity="0.6" d="M759.587 360.5V363.5" stroke="#15D6FF" stroke-linecap="square"/>
<path opacity="0.6" d="M786.286 360.5V363.5" stroke="#15D6FF" stroke-linecap="square"/>
<path opacity="0.6" d="M812.985 360.5V363.5" stroke="#15D6FF" stroke-linecap="square"/>
<path d="M12.0146 360.5V365.5" stroke="#15D6FF" stroke-linecap="square"/>
<path d="M-3.69123 375.5H-4.61453L-1.94407 368.227H-1.03498L1.63547 375.5H0.712178L-1.46112 369.378H-1.51794L-3.69123 375.5ZM-3.35032 372.659H0.371269V373.44H-3.35032V372.659ZM6.09215 373.27V370.045H6.93022V375.5H6.09215V374.577H6.03533C5.90749 374.854 5.70863 375.089 5.43874 375.283C5.16885 375.475 4.82794 375.571 4.41601 375.571C4.0751 375.571 3.77207 375.496 3.50692 375.347C3.24177 375.196 3.03344 374.969 2.88192 374.665C2.73041 374.36 2.65465 373.975 2.65465 373.511V370.045H3.49272V373.455C3.49272 373.852 3.60399 374.17 3.82652 374.406C4.05143 374.643 4.33789 374.761 4.6859 374.761C4.89423 374.761 5.10612 374.708 5.32155 374.602C5.53936 374.495 5.72165 374.332 5.86843 374.112C6.01758 373.891 6.09215 373.611 6.09215 373.27ZM10.6669 377.659C10.2621 377.659 9.91406 377.607 9.62287 377.503C9.33167 377.401 9.08901 377.266 8.89488 377.098C8.70312 376.932 8.55042 376.755 8.43679 376.565L9.1044 376.097C9.18016 376.196 9.27604 376.31 9.39204 376.438C9.50805 376.568 9.66666 376.68 9.8679 376.775C10.0715 376.872 10.3378 376.92 10.6669 376.92C11.1072 376.92 11.4706 376.814 11.7571 376.601C12.0436 376.388 12.1868 376.054 12.1868 375.599V374.491H12.1158C12.0542 374.591 11.9666 374.714 11.853 374.861C11.7417 375.005 11.5807 375.134 11.37 375.248C11.1617 375.359 10.88 375.415 10.5249 375.415C10.0845 375.415 9.68915 375.311 9.33878 375.102C8.99076 374.894 8.71496 374.591 8.51136 374.193C8.31013 373.795 8.20951 373.312 8.20951 372.744C8.20951 372.186 8.30776 371.699 8.50426 371.285C8.70075 370.868 8.97419 370.546 9.32457 370.319C9.67495 370.089 10.0798 369.974 10.5391 369.974C10.8942 369.974 11.1759 370.034 11.3842 370.152C11.5949 370.268 11.7559 370.401 11.8672 370.55C11.9808 370.696 12.0684 370.817 12.13 370.912H12.2152V370.045H13.0249V375.656C13.0249 376.125 12.9183 376.506 12.7053 376.8C12.4946 377.096 12.2105 377.312 11.853 377.45C11.4979 377.589 11.1025 377.659 10.6669 377.659ZM10.6385 374.662C10.9747 374.662 11.2588 374.585 11.4908 374.431C11.7228 374.277 11.8991 374.056 12.0199 373.767C12.1406 373.478 12.201 373.133 12.201 372.73C12.201 372.337 12.1418 371.99 12.0234 371.69C11.9051 371.389 11.7299 371.153 11.4979 370.983C11.2659 370.812 10.9794 370.727 10.6385 370.727C10.2834 370.727 9.98745 370.817 9.75071 370.997C9.51633 371.177 9.33996 371.419 9.22159 371.722C9.10558 372.025 9.04758 372.361 9.04758 372.73C9.04758 373.109 9.10677 373.444 9.22514 373.735C9.34588 374.024 9.52343 374.251 9.75781 374.417C9.99455 374.58 10.2881 374.662 10.6385 374.662ZM17.3572 375.5V374.861L19.7578 372.233C20.0395 371.925 20.2715 371.658 20.4538 371.43C20.6361 371.201 20.7711 370.985 20.8587 370.784C20.9486 370.58 20.9936 370.367 20.9936 370.145C20.9936 369.889 20.9321 369.668 20.8089 369.481C20.6882 369.294 20.5225 369.149 20.3118 369.048C20.1011 368.946 19.8643 368.895 19.6016 368.895C19.3222 368.895 19.0784 368.953 18.87 369.069C18.6641 369.183 18.5043 369.342 18.3906 369.548C18.2794 369.754 18.2237 369.996 18.2237 370.273H17.3857C17.3857 369.847 17.4839 369.473 17.6804 369.151C17.8769 368.829 18.1444 368.578 18.483 368.398C18.8239 368.218 19.2062 368.128 19.63 368.128C20.0561 368.128 20.4337 368.218 20.7628 368.398C21.0919 368.578 21.3499 368.82 21.5369 369.126C21.724 369.431 21.8175 369.771 21.8175 370.145C21.8175 370.412 21.7689 370.674 21.6719 370.93C21.5772 371.183 21.4115 371.466 21.1747 371.778C20.9403 372.089 20.6148 372.467 20.1982 372.915L18.5646 374.662V374.719H21.9453V375.5H17.3572ZM25.7273 368.128C26.0256 368.13 26.3239 368.187 26.6222 368.298C26.9205 368.41 27.1927 368.594 27.4389 368.852C27.6851 369.108 27.8828 369.457 28.032 369.9C28.1811 370.343 28.2557 370.898 28.2557 371.565C28.2557 372.212 28.1941 372.786 28.071 373.288C27.9503 373.787 27.7751 374.209 27.5455 374.552C27.3182 374.895 27.0412 375.156 26.7145 375.333C26.3901 375.511 26.0232 375.599 25.6136 375.599C25.2064 375.599 24.843 375.519 24.5234 375.358C24.2062 375.195 23.9458 374.969 23.7422 374.68C23.541 374.388 23.4119 374.051 23.3551 373.668H24.2216C24.2997 374.001 24.4548 374.277 24.6868 374.495C24.9212 374.71 25.2301 374.818 25.6136 374.818C26.1747 374.818 26.6174 374.573 26.9418 374.083C27.2685 373.593 27.4318 372.901 27.4318 372.006H27.375C27.2424 372.205 27.085 372.376 26.9027 372.521C26.7204 372.665 26.518 372.776 26.2955 372.854C26.0729 372.933 25.8362 372.972 25.5852 372.972C25.1686 372.972 24.7862 372.869 24.4382 372.663C24.0926 372.454 23.8156 372.169 23.6072 371.807C23.4013 371.442 23.2983 371.026 23.2983 370.557C23.2983 370.112 23.3977 369.705 23.5966 369.335C23.7978 368.964 24.0795 368.668 24.4418 368.447C24.8063 368.227 25.2348 368.121 25.7273 368.128ZM25.7273 368.909C25.429 368.909 25.1603 368.984 24.9212 369.133C24.6844 369.28 24.4962 369.478 24.3565 369.729C24.2192 369.978 24.1506 370.254 24.1506 370.557C24.1506 370.86 24.2169 371.136 24.3494 371.384C24.4844 371.63 24.6678 371.827 24.8999 371.974C25.1342 372.118 25.4006 372.19 25.6989 372.19C25.9238 372.19 26.1333 372.147 26.3274 372.059C26.5215 371.969 26.6908 371.847 26.8352 371.693C26.982 371.537 27.0968 371.361 27.1797 371.164C27.2625 370.965 27.304 370.758 27.304 370.543C27.304 370.259 27.2353 369.992 27.098 369.744C26.9631 369.495 26.776 369.294 26.5369 369.14C26.3002 368.986 26.0303 368.909 25.7273 368.909Z" fill="#15D6FF"/>
<path d="M172.209 360.5V365.5" stroke="#15D6FF" stroke-linecap="square"/>
<path d="M163.307 370.045C163.264 369.686 163.091 369.406 162.788 369.207C162.485 369.009 162.114 368.909 161.673 368.909C161.351 368.909 161.07 368.961 160.828 369.065C160.589 369.17 160.402 369.313 160.267 369.495C160.135 369.677 160.068 369.884 160.068 370.116C160.068 370.311 160.114 370.478 160.207 370.617C160.301 370.754 160.422 370.869 160.569 370.962C160.716 371.052 160.87 371.126 161.031 371.185C161.192 371.242 161.34 371.288 161.475 371.324L162.213 371.523C162.403 371.572 162.613 371.641 162.845 371.729C163.08 371.816 163.303 371.936 163.516 372.087C163.732 372.237 163.909 372.428 164.049 372.663C164.189 372.897 164.259 373.185 164.259 373.526C164.259 373.919 164.156 374.274 163.95 374.591C163.746 374.908 163.448 375.16 163.055 375.347C162.664 375.534 162.19 375.628 161.631 375.628C161.11 375.628 160.659 375.544 160.278 375.376C159.899 375.208 159.601 374.973 159.383 374.673C159.167 374.372 159.046 374.023 159.017 373.625H159.926C159.95 373.9 160.042 374.127 160.203 374.307C160.367 374.484 160.573 374.617 160.821 374.705C161.072 374.79 161.342 374.832 161.631 374.832C161.967 374.832 162.269 374.778 162.536 374.669C162.804 374.558 163.016 374.404 163.172 374.207C163.328 374.009 163.406 373.777 163.406 373.511C163.406 373.27 163.339 373.073 163.204 372.922C163.069 372.77 162.891 372.647 162.671 372.553C162.451 372.458 162.213 372.375 161.957 372.304L161.063 372.048C160.494 371.885 160.045 371.652 159.713 371.349C159.382 371.046 159.216 370.649 159.216 370.159C159.216 369.752 159.326 369.397 159.546 369.094C159.769 368.788 160.067 368.552 160.441 368.384C160.818 368.213 161.238 368.128 161.702 368.128C162.171 368.128 162.587 368.212 162.952 368.38C163.316 368.546 163.605 368.773 163.818 369.062C164.034 369.351 164.147 369.679 164.159 370.045H163.307ZM167.88 375.614C167.354 375.614 166.901 375.498 166.52 375.266C166.141 375.031 165.849 374.705 165.643 374.286C165.439 373.864 165.337 373.374 165.337 372.815C165.337 372.257 165.439 371.764 165.643 371.338C165.849 370.91 166.135 370.576 166.502 370.337C166.871 370.095 167.302 369.974 167.795 369.974C168.079 369.974 168.359 370.022 168.636 370.116C168.913 370.211 169.165 370.365 169.393 370.578C169.62 370.789 169.801 371.068 169.936 371.416C170.071 371.764 170.138 372.193 170.138 372.702V373.057H165.934V372.332H169.286C169.286 372.025 169.225 371.75 169.101 371.509C168.981 371.267 168.808 371.076 168.583 370.937C168.36 370.797 168.098 370.727 167.795 370.727C167.461 370.727 167.172 370.81 166.928 370.976C166.687 371.139 166.501 371.352 166.371 371.615C166.24 371.878 166.175 372.16 166.175 372.46V372.943C166.175 373.355 166.246 373.704 166.388 373.991C166.533 374.275 166.733 374.491 166.989 374.641C167.244 374.787 167.541 374.861 167.88 374.861C168.1 374.861 168.299 374.83 168.476 374.768C168.656 374.705 168.811 374.61 168.942 374.484C169.072 374.357 169.173 374.198 169.244 374.009L170.053 374.236C169.968 374.51 169.825 374.752 169.624 374.96C169.422 375.166 169.174 375.327 168.878 375.443C168.582 375.557 168.249 375.614 167.88 375.614ZM171.413 377.545V370.045H172.223V370.912H172.322C172.384 370.817 172.469 370.696 172.578 370.55C172.689 370.401 172.848 370.268 173.054 370.152C173.262 370.034 173.544 369.974 173.899 369.974C174.358 369.974 174.763 370.089 175.114 370.319C175.464 370.549 175.737 370.874 175.934 371.295C176.13 371.717 176.229 372.214 176.229 372.787C176.229 373.365 176.13 373.865 175.934 374.289C175.737 374.71 175.465 375.037 175.117 375.269C174.769 375.499 174.368 375.614 173.913 375.614C173.563 375.614 173.282 375.556 173.072 375.44C172.861 375.321 172.699 375.187 172.585 375.038C172.472 374.887 172.384 374.761 172.322 374.662H172.251V377.545H171.413ZM172.237 372.773C172.237 373.185 172.298 373.548 172.418 373.863C172.539 374.175 172.715 374.42 172.947 374.598C173.179 374.773 173.463 374.861 173.8 374.861C174.15 374.861 174.442 374.768 174.677 374.584C174.914 374.397 175.091 374.146 175.209 373.831C175.33 373.514 175.391 373.161 175.391 372.773C175.391 372.389 175.331 372.044 175.213 371.736C175.097 371.426 174.921 371.181 174.684 371.001C174.45 370.818 174.155 370.727 173.8 370.727C173.459 370.727 173.172 370.814 172.94 370.987C172.708 371.157 172.533 371.396 172.415 371.704C172.296 372.009 172.237 372.366 172.237 372.773ZM180.135 374.009V373.284L183.331 368.227H183.856V369.349H183.501L181.087 373.17V373.227H185.391V374.009H180.135ZM183.558 375.5V373.788V373.451V368.227H184.396V375.5H183.558Z" fill="#15D6FF"/>
<path d="M332.403 360.5V365.5" stroke="#15D6FF" stroke-linecap="square"/>
<path d="M321.76 370.045C321.717 369.686 321.544 369.406 321.241 369.207C320.938 369.009 320.567 368.909 320.126 368.909C319.804 368.909 319.523 368.961 319.281 369.065C319.042 369.17 318.855 369.313 318.72 369.495C318.588 369.677 318.521 369.884 318.521 370.116C318.521 370.311 318.567 370.478 318.66 370.617C318.754 370.754 318.875 370.869 319.022 370.962C319.169 371.052 319.323 371.126 319.484 371.185C319.645 371.242 319.793 371.288 319.928 371.324L320.666 371.523C320.856 371.572 321.066 371.641 321.298 371.729C321.533 371.816 321.756 371.936 321.969 372.087C322.185 372.237 322.362 372.428 322.502 372.663C322.642 372.897 322.712 373.185 322.712 373.526C322.712 373.919 322.609 374.274 322.403 374.591C322.199 374.908 321.901 375.16 321.508 375.347C321.117 375.534 320.643 375.628 320.084 375.628C319.563 375.628 319.112 375.544 318.731 375.376C318.352 375.208 318.054 374.973 317.836 374.673C317.62 374.372 317.499 374.023 317.47 373.625H318.379C318.403 373.9 318.495 374.127 318.656 374.307C318.82 374.484 319.026 374.617 319.274 374.705C319.525 374.79 319.795 374.832 320.084 374.832C320.42 374.832 320.722 374.778 320.989 374.669C321.257 374.558 321.469 374.404 321.625 374.207C321.781 374.009 321.859 373.777 321.859 373.511C321.859 373.27 321.792 373.073 321.657 372.922C321.522 372.77 321.344 372.647 321.124 372.553C320.904 372.458 320.666 372.375 320.411 372.304L319.516 372.048C318.947 371.885 318.498 371.652 318.166 371.349C317.835 371.046 317.669 370.649 317.669 370.159C317.669 369.752 317.779 369.397 317.999 369.094C318.222 368.788 318.52 368.552 318.894 368.384C319.271 368.213 319.691 368.128 320.155 368.128C320.624 368.128 321.04 368.212 321.405 368.38C321.769 368.546 322.058 368.773 322.271 369.062C322.487 369.351 322.6 369.679 322.612 370.045H321.76ZM326.333 375.614C325.807 375.614 325.354 375.498 324.973 375.266C324.594 375.031 324.302 374.705 324.096 374.286C323.892 373.864 323.79 373.374 323.79 372.815C323.79 372.257 323.892 371.764 324.096 371.338C324.302 370.91 324.588 370.576 324.955 370.337C325.324 370.095 325.755 369.974 326.248 369.974C326.532 369.974 326.812 370.022 327.089 370.116C327.366 370.211 327.618 370.365 327.846 370.578C328.073 370.789 328.254 371.068 328.389 371.416C328.524 371.764 328.591 372.193 328.591 372.702V373.057H324.387V372.332H327.739C327.739 372.025 327.678 371.75 327.554 371.509C327.434 371.267 327.261 371.076 327.036 370.937C326.813 370.797 326.551 370.727 326.248 370.727C325.914 370.727 325.625 370.81 325.381 370.976C325.14 371.139 324.954 371.352 324.824 371.615C324.693 371.878 324.628 372.16 324.628 372.46V372.943C324.628 373.355 324.699 373.704 324.841 373.991C324.986 374.275 325.186 374.491 325.442 374.641C325.697 374.787 325.994 374.861 326.333 374.861C326.553 374.861 326.752 374.83 326.929 374.768C327.109 374.705 327.264 374.61 327.395 374.484C327.525 374.357 327.626 374.198 327.697 374.009L328.506 374.236C328.421 374.51 328.278 374.752 328.077 374.96C327.875 375.166 327.627 375.327 327.331 375.443C327.035 375.557 326.702 375.614 326.333 375.614ZM329.866 377.545V370.045H330.676V370.912H330.775C330.837 370.817 330.922 370.696 331.031 370.55C331.142 370.401 331.301 370.268 331.507 370.152C331.715 370.034 331.997 369.974 332.352 369.974C332.811 369.974 333.216 370.089 333.567 370.319C333.917 370.549 334.19 370.874 334.387 371.295C334.583 371.717 334.682 372.214 334.682 372.787C334.682 373.365 334.583 373.865 334.387 374.289C334.19 374.71 333.918 375.037 333.57 375.269C333.222 375.499 332.821 375.614 332.366 375.614C332.016 375.614 331.735 375.556 331.525 375.44C331.314 375.321 331.152 375.187 331.038 375.038C330.925 374.887 330.837 374.761 330.775 374.662H330.704V377.545H329.866ZM330.69 372.773C330.69 373.185 330.751 373.548 330.871 373.863C330.992 374.175 331.168 374.42 331.4 374.598C331.632 374.773 331.916 374.861 332.253 374.861C332.603 374.861 332.895 374.768 333.13 374.584C333.367 374.397 333.544 374.146 333.662 373.831C333.783 373.514 333.844 373.161 333.844 372.773C333.844 372.389 333.784 372.044 333.666 371.736C333.55 371.426 333.374 371.181 333.137 371.001C332.903 370.818 332.608 370.727 332.253 370.727C331.912 370.727 331.625 370.814 331.393 370.987C331.161 371.157 330.986 371.396 330.868 371.704C330.749 372.009 330.69 372.366 330.69 372.773ZM341.315 368.227V375.5H340.434V369.151H340.392L338.616 370.33V369.435L340.434 368.227H341.315ZM345.779 375.599C345.244 375.599 344.788 375.454 344.412 375.163C344.035 374.869 343.748 374.444 343.549 373.888C343.35 373.329 343.251 372.654 343.251 371.864C343.251 371.078 343.35 370.406 343.549 369.85C343.75 369.291 344.039 368.865 344.415 368.572C344.794 368.276 345.249 368.128 345.779 368.128C346.309 368.128 346.763 368.276 347.139 368.572C347.518 368.865 347.807 369.291 348.005 369.85C348.207 370.406 348.307 371.078 348.307 371.864C348.307 372.654 348.208 373.329 348.009 373.888C347.81 374.444 347.523 374.869 347.146 375.163C346.77 375.454 346.314 375.599 345.779 375.599ZM345.779 374.818C346.309 374.818 346.721 374.562 347.015 374.051C347.308 373.54 347.455 372.811 347.455 371.864C347.455 371.234 347.388 370.698 347.253 370.255C347.12 369.812 346.928 369.475 346.677 369.243C346.429 369.011 346.129 368.895 345.779 368.895C345.253 368.895 344.843 369.154 344.547 369.673C344.251 370.189 344.103 370.919 344.103 371.864C344.103 372.493 344.169 373.028 344.302 373.469C344.434 373.909 344.625 374.244 344.873 374.474C345.124 374.703 345.426 374.818 345.779 374.818Z" fill="#15D6FF"/>
<path d="M492.597 360.5V365.5" stroke="#15D6FF" stroke-linecap="square"/>
<path d="M481.459 370.045C481.416 369.686 481.243 369.406 480.94 369.207C480.637 369.009 480.266 368.909 479.825 368.909C479.503 368.909 479.222 368.961 478.98 369.065C478.741 369.17 478.554 369.313 478.419 369.495C478.287 369.677 478.22 369.884 478.22 370.116C478.22 370.311 478.266 370.478 478.359 370.617C478.453 370.754 478.574 370.869 478.721 370.962C478.868 371.052 479.022 371.126 479.183 371.185C479.344 371.242 479.492 371.288 479.627 371.324L480.365 371.523C480.555 371.572 480.765 371.641 480.997 371.729C481.232 371.816 481.455 371.936 481.668 372.087C481.884 372.237 482.061 372.428 482.201 372.663C482.341 372.897 482.411 373.185 482.411 373.526C482.411 373.919 482.308 374.274 482.102 374.591C481.898 374.908 481.6 375.16 481.207 375.347C480.816 375.534 480.341 375.628 479.783 375.628C479.262 375.628 478.811 375.544 478.43 375.376C478.051 375.208 477.753 374.973 477.535 374.673C477.319 374.372 477.198 374.023 477.169 373.625H478.078C478.102 373.9 478.194 374.127 478.355 374.307C478.519 374.484 478.725 374.617 478.973 374.705C479.224 374.79 479.494 374.832 479.783 374.832C480.119 374.832 480.421 374.778 480.688 374.669C480.956 374.558 481.168 374.404 481.324 374.207C481.48 374.009 481.558 373.777 481.558 373.511C481.558 373.27 481.491 373.073 481.356 372.922C481.221 372.77 481.043 372.647 480.823 372.553C480.603 372.458 480.365 372.375 480.109 372.304L479.215 372.048C478.646 371.885 478.197 371.652 477.865 371.349C477.534 371.046 477.368 370.649 477.368 370.159C477.368 369.752 477.478 369.397 477.698 369.094C477.921 368.788 478.219 368.552 478.593 368.384C478.97 368.213 479.39 368.128 479.854 368.128C480.323 368.128 480.739 368.212 481.104 368.38C481.468 368.546 481.757 368.773 481.97 369.062C482.186 369.351 482.299 369.679 482.311 370.045H481.459ZM486.032 375.614C485.506 375.614 485.053 375.498 484.672 375.266C484.293 375.031 484.001 374.705 483.795 374.286C483.591 373.864 483.489 373.374 483.489 372.815C483.489 372.257 483.591 371.764 483.795 371.338C484.001 370.91 484.287 370.576 484.654 370.337C485.023 370.095 485.454 369.974 485.947 369.974C486.231 369.974 486.511 370.022 486.788 370.116C487.065 370.211 487.317 370.365 487.545 370.578C487.772 370.789 487.953 371.068 488.088 371.416C488.223 371.764 488.29 372.193 488.29 372.702V373.057H484.086V372.332H487.438C487.438 372.025 487.377 371.75 487.253 371.509C487.133 371.267 486.96 371.076 486.735 370.937C486.512 370.797 486.25 370.727 485.947 370.727C485.613 370.727 485.324 370.81 485.08 370.976C484.839 371.139 484.653 371.352 484.523 371.615C484.392 371.878 484.327 372.16 484.327 372.46V372.943C484.327 373.355 484.398 373.704 484.54 373.991C484.685 374.275 484.885 374.491 485.141 374.641C485.396 374.787 485.693 374.861 486.032 374.861C486.252 374.861 486.451 374.83 486.628 374.768C486.808 374.705 486.963 374.61 487.094 374.484C487.224 374.357 487.324 374.198 487.396 374.009L488.205 374.236C488.12 374.51 487.977 374.752 487.775 374.96C487.574 375.166 487.326 375.327 487.03 375.443C486.734 375.557 486.401 375.614 486.032 375.614ZM489.565 377.545V370.045H490.375V370.912H490.474C490.536 370.817 490.621 370.696 490.73 370.55C490.841 370.401 491 370.268 491.206 370.152C491.414 370.034 491.696 369.974 492.051 369.974C492.51 369.974 492.915 370.089 493.266 370.319C493.616 370.549 493.889 370.874 494.086 371.295C494.282 371.717 494.381 372.214 494.381 372.787C494.381 373.365 494.282 373.865 494.086 374.289C493.889 374.71 493.617 375.037 493.269 375.269C492.921 375.499 492.52 375.614 492.065 375.614C491.715 375.614 491.434 375.556 491.224 375.44C491.013 375.321 490.851 375.187 490.737 375.038C490.624 374.887 490.536 374.761 490.474 374.662H490.403V377.545H489.565ZM490.389 372.773C490.389 373.185 490.449 373.548 490.57 373.863C490.691 374.175 490.867 374.42 491.099 374.598C491.331 374.773 491.615 374.861 491.952 374.861C492.302 374.861 492.594 374.768 492.829 374.584C493.066 374.397 493.243 374.146 493.361 373.831C493.482 373.514 493.543 373.161 493.543 372.773C493.543 372.389 493.483 372.044 493.365 371.736C493.249 371.426 493.073 371.181 492.836 371.001C492.601 370.818 492.307 370.727 491.952 370.727C491.611 370.727 491.324 370.814 491.092 370.987C490.86 371.157 490.685 371.396 490.567 371.704C490.448 372.009 490.389 372.366 490.389 372.773ZM501.014 368.227V375.5H500.133V369.151H500.091L498.315 370.33V369.435L500.133 368.227H501.014ZM505.521 375.599C505.222 375.595 504.924 375.538 504.626 375.429C504.327 375.32 504.055 375.137 503.809 374.879C503.563 374.618 503.365 374.267 503.216 373.824C503.067 373.379 502.992 372.82 502.992 372.148C502.992 371.504 503.052 370.933 503.173 370.436C503.294 369.937 503.469 369.516 503.699 369.175C503.928 368.832 504.205 368.572 504.53 368.394C504.856 368.217 505.225 368.128 505.634 368.128C506.041 368.128 506.404 368.21 506.721 368.373C507.04 368.534 507.301 368.759 507.502 369.048C507.703 369.336 507.833 369.669 507.893 370.045H507.026C506.946 369.719 506.789 369.448 506.557 369.232C506.325 369.017 506.018 368.909 505.634 368.909C505.071 368.909 504.627 369.154 504.302 369.644C503.981 370.134 503.818 370.822 503.816 371.707H503.873C504.005 371.506 504.163 371.335 504.345 371.192C504.53 371.048 504.733 370.937 504.956 370.859C505.178 370.781 505.414 370.741 505.663 370.741C506.079 370.741 506.46 370.846 506.806 371.054C507.152 371.26 507.429 371.545 507.637 371.91C507.845 372.272 507.949 372.688 507.949 373.156C507.949 373.606 507.849 374.018 507.648 374.392C507.446 374.764 507.164 375.06 506.799 375.28C506.437 375.498 506.011 375.604 505.521 375.599ZM505.521 374.818C505.819 374.818 506.086 374.744 506.323 374.594C506.562 374.445 506.75 374.245 506.888 373.994C507.027 373.743 507.097 373.464 507.097 373.156C507.097 372.856 507.03 372.582 506.895 372.336C506.762 372.087 506.579 371.89 506.344 371.743C506.112 371.596 505.847 371.523 505.549 371.523C505.324 371.523 505.115 371.568 504.92 371.658C504.726 371.745 504.556 371.866 504.409 372.02C504.265 372.174 504.151 372.35 504.068 372.549C503.985 372.746 503.944 372.953 503.944 373.17C503.944 373.459 504.011 373.729 504.146 373.98C504.284 374.231 504.471 374.433 504.707 374.587C504.946 374.741 505.217 374.818 505.521 374.818Z" fill="#15D6FF"/>
<path d="M652.791 360.5V365.5" stroke="#15D6FF" stroke-linecap="square"/>
<path d="M641.043 370.045C641 369.686 640.827 369.406 640.524 369.207C640.221 369.009 639.85 368.909 639.409 368.909C639.087 368.909 638.806 368.961 638.564 369.065C638.325 369.17 638.138 369.313 638.003 369.495C637.87 369.677 637.804 369.884 637.804 370.116C637.804 370.311 637.85 370.478 637.943 370.617C638.037 370.754 638.158 370.869 638.305 370.962C638.452 371.052 638.606 371.126 638.766 371.185C638.927 371.242 639.075 371.288 639.21 371.324L639.949 371.523C640.138 371.572 640.349 371.641 640.581 371.729C640.815 371.816 641.039 371.936 641.252 372.087C641.468 372.237 641.645 372.428 641.785 372.663C641.925 372.897 641.994 373.185 641.994 373.526C641.994 373.919 641.891 374.274 641.686 374.591C641.482 374.908 641.184 375.16 640.791 375.347C640.4 375.534 639.925 375.628 639.367 375.628C638.846 375.628 638.395 375.544 638.014 375.376C637.635 375.208 637.337 374.973 637.119 374.673C636.903 374.372 636.781 374.023 636.753 373.625H637.662C637.686 373.9 637.778 374.127 637.939 374.307C638.102 374.484 638.308 374.617 638.557 374.705C638.808 374.79 639.078 374.832 639.367 374.832C639.703 374.832 640.005 374.778 640.272 374.669C640.54 374.558 640.752 374.404 640.908 374.207C641.064 374.009 641.142 373.777 641.142 373.511C641.142 373.27 641.075 373.073 640.94 372.922C640.805 372.77 640.627 372.647 640.407 372.553C640.187 372.458 639.949 372.375 639.693 372.304L638.798 372.048C638.23 371.885 637.78 371.652 637.449 371.349C637.118 371.046 636.952 370.649 636.952 370.159C636.952 369.752 637.062 369.397 637.282 369.094C637.505 368.788 637.803 368.552 638.177 368.384C638.553 368.213 638.974 368.128 639.438 368.128C639.906 368.128 640.323 368.212 640.688 368.38C641.052 368.546 641.341 368.773 641.554 369.062C641.77 369.351 641.883 369.679 641.895 370.045H641.043ZM645.616 375.614C645.09 375.614 644.637 375.498 644.256 375.266C643.877 375.031 643.584 374.705 643.379 374.286C643.175 373.864 643.073 373.374 643.073 372.815C643.073 372.257 643.175 371.764 643.379 371.338C643.584 370.91 643.871 370.576 644.238 370.337C644.607 370.095 645.038 369.974 645.531 369.974C645.815 369.974 646.095 370.022 646.372 370.116C646.649 370.211 646.901 370.365 647.129 370.578C647.356 370.789 647.537 371.068 647.672 371.416C647.807 371.764 647.874 372.193 647.874 372.702V373.057H643.67V372.332H647.022C647.022 372.025 646.96 371.75 646.837 371.509C646.717 371.267 646.544 371.076 646.319 370.937C646.096 370.797 645.834 370.727 645.531 370.727C645.197 370.727 644.908 370.81 644.664 370.976C644.423 371.139 644.237 371.352 644.107 371.615C643.976 371.878 643.911 372.16 643.911 372.46V372.943C643.911 373.355 643.982 373.704 644.124 373.991C644.269 374.275 644.469 374.491 644.724 374.641C644.98 374.787 645.277 374.861 645.616 374.861C645.836 374.861 646.035 374.83 646.212 374.768C646.392 374.705 646.547 374.61 646.678 374.484C646.808 374.357 646.908 374.198 646.979 374.009L647.789 374.236C647.704 374.51 647.561 374.752 647.359 374.96C647.158 375.166 646.91 375.327 646.614 375.443C646.318 375.557 645.985 375.614 645.616 375.614ZM649.149 377.545V370.045H649.959V370.912H650.058C650.12 370.817 650.205 370.696 650.314 370.55C650.425 370.401 650.584 370.268 650.79 370.152C650.998 370.034 651.28 369.974 651.635 369.974C652.094 369.974 652.499 370.089 652.849 370.319C653.2 370.549 653.473 370.874 653.67 371.295C653.866 371.717 653.964 372.214 653.964 372.787C653.964 373.365 653.866 373.865 653.67 374.289C653.473 374.71 653.201 375.037 652.853 375.269C652.505 375.499 652.104 375.614 651.649 375.614C651.299 375.614 651.018 375.556 650.808 375.44C650.597 375.321 650.435 375.187 650.321 375.038C650.207 374.887 650.12 374.761 650.058 374.662H649.987V377.545H649.149ZM649.973 372.773C649.973 373.185 650.033 373.548 650.154 373.863C650.275 374.175 650.451 374.42 650.683 374.598C650.915 374.773 651.199 374.861 651.535 374.861C651.886 374.861 652.178 374.768 652.413 374.584C652.649 374.397 652.827 374.146 652.945 373.831C653.066 373.514 653.126 373.161 653.126 372.773C653.126 372.389 653.067 372.044 652.949 371.736C652.833 371.426 652.656 371.181 652.42 371.001C652.185 370.818 651.891 370.727 651.535 370.727C651.195 370.727 650.908 370.814 650.676 370.987C650.444 371.157 650.269 371.396 650.151 371.704C650.032 372.009 649.973 372.366 649.973 372.773ZM658.041 375.5V374.861L660.442 372.233C660.723 371.925 660.955 371.658 661.138 371.43C661.32 371.201 661.455 370.985 661.543 370.784C661.633 370.58 661.678 370.367 661.678 370.145C661.678 369.889 661.616 369.668 661.493 369.481C661.372 369.294 661.206 369.149 660.996 369.048C660.785 368.946 660.548 368.895 660.285 368.895C660.006 368.895 659.762 368.953 659.554 369.069C659.348 369.183 659.188 369.342 659.075 369.548C658.963 369.754 658.908 369.996 658.908 370.273H658.07C658.07 369.847 658.168 369.473 658.364 369.151C658.561 368.829 658.828 368.578 659.167 368.398C659.508 368.218 659.89 368.128 660.314 368.128C660.74 368.128 661.118 368.218 661.447 368.398C661.776 368.578 662.034 368.82 662.221 369.126C662.408 369.431 662.501 369.771 662.501 370.145C662.501 370.412 662.453 370.674 662.356 370.93C662.261 371.183 662.095 371.466 661.859 371.778C661.624 372.089 661.299 372.467 660.882 372.915L659.249 374.662V374.719H662.629V375.5H658.041ZM664.096 375.5V374.861L666.496 372.233C666.778 371.925 667.01 371.658 667.192 371.43C667.375 371.201 667.51 370.985 667.597 370.784C667.687 370.58 667.732 370.367 667.732 370.145C667.732 369.889 667.671 369.668 667.548 369.481C667.427 369.294 667.261 369.149 667.05 369.048C666.84 368.946 666.603 368.895 666.34 368.895C666.061 368.895 665.817 368.953 665.609 369.069C665.403 369.183 665.243 369.342 665.129 369.548C665.018 369.754 664.962 369.996 664.962 370.273H664.124C664.124 369.847 664.223 369.473 664.419 369.151C664.616 368.829 664.883 368.578 665.222 368.398C665.562 368.218 665.945 368.128 666.369 368.128C666.795 368.128 667.172 368.218 667.501 368.398C667.83 368.578 668.089 368.82 668.276 369.126C668.463 369.431 668.556 369.771 668.556 370.145C668.556 370.412 668.508 370.674 668.41 370.93C668.316 371.183 668.15 371.466 667.913 371.778C667.679 372.089 667.353 372.467 666.937 372.915L665.303 374.662V374.719H668.684V375.5H664.096Z" fill="#15D6FF"/>
<path d="M812.985 360.5V365.5" stroke="#15D6FF" stroke-linecap="square"/>
<path d="M801.183 370.045C801.141 369.686 800.968 369.406 800.665 369.207C800.362 369.009 799.99 368.909 799.55 368.909C799.228 368.909 798.946 368.961 798.704 369.065C798.465 369.17 798.278 369.313 798.143 369.495C798.011 369.677 797.945 369.884 797.945 370.116C797.945 370.311 797.991 370.478 798.083 370.617C798.178 370.754 798.298 370.869 798.445 370.962C798.592 371.052 798.746 371.126 798.907 371.185C799.068 371.242 799.216 371.288 799.351 371.324L800.089 371.523C800.279 371.572 800.489 371.641 800.722 371.729C800.956 371.816 801.18 371.936 801.393 372.087C801.608 372.237 801.786 372.428 801.925 372.663C802.065 372.897 802.135 373.185 802.135 373.526C802.135 373.919 802.032 374.274 801.826 374.591C801.622 374.908 801.324 375.16 800.931 375.347C800.54 375.534 800.066 375.628 799.507 375.628C798.986 375.628 798.535 375.544 798.154 375.376C797.775 375.208 797.477 374.973 797.259 374.673C797.044 374.372 796.922 374.023 796.893 373.625H797.802C797.826 373.9 797.918 374.127 798.079 374.307C798.243 374.484 798.449 374.617 798.697 374.705C798.948 374.79 799.218 374.832 799.507 374.832C799.843 374.832 800.145 374.778 800.413 374.669C800.68 374.558 800.892 374.404 801.048 374.207C801.204 374.009 801.283 373.777 801.283 373.511C801.283 373.27 801.215 373.073 801.08 372.922C800.945 372.77 800.768 372.647 800.547 372.553C800.327 372.458 800.089 372.375 799.834 372.304L798.939 372.048C798.371 371.885 797.921 371.652 797.589 371.349C797.258 371.046 797.092 370.649 797.092 370.159C797.092 369.752 797.202 369.397 797.422 369.094C797.645 368.788 797.943 368.552 798.317 368.384C798.694 368.213 799.114 368.128 799.578 368.128C800.047 368.128 800.463 368.212 800.828 368.38C801.193 368.546 801.481 368.773 801.695 369.062C801.91 369.351 802.024 369.679 802.035 370.045H801.183ZM805.756 375.614C805.231 375.614 804.777 375.498 804.396 375.266C804.017 375.031 803.725 374.705 803.519 374.286C803.315 373.864 803.214 373.374 803.214 372.815C803.214 372.257 803.315 371.764 803.519 371.338C803.725 370.91 804.011 370.576 804.378 370.337C804.748 370.095 805.178 369.974 805.671 369.974C805.955 369.974 806.236 370.022 806.513 370.116C806.79 370.211 807.042 370.365 807.269 370.578C807.496 370.789 807.677 371.068 807.812 371.416C807.947 371.764 808.015 372.193 808.015 372.702V373.057H803.81V372.332H807.162C807.162 372.025 807.101 371.75 806.978 371.509C806.857 371.267 806.684 371.076 806.459 370.937C806.237 370.797 805.974 370.727 805.671 370.727C805.337 370.727 805.048 370.81 804.804 370.976C804.563 371.139 804.377 371.352 804.247 371.615C804.117 371.878 804.052 372.16 804.052 372.46V372.943C804.052 373.355 804.123 373.704 804.265 373.991C804.409 374.275 804.609 374.491 804.865 374.641C805.12 374.787 805.418 374.861 805.756 374.861C805.976 374.861 806.175 374.83 806.353 374.768C806.533 374.705 806.688 374.61 806.818 374.484C806.948 374.357 807.049 374.198 807.12 374.009L807.929 374.236C807.844 374.51 807.701 374.752 807.5 374.96C807.299 375.166 807.05 375.327 806.754 375.443C806.458 375.557 806.125 375.614 805.756 375.614ZM809.29 377.545V370.045H810.099V370.912H810.199C810.26 370.817 810.345 370.696 810.454 370.55C810.566 370.401 810.724 370.268 810.93 370.152C811.138 370.034 811.42 369.974 811.775 369.974C812.235 369.974 812.639 370.089 812.99 370.319C813.34 370.549 813.614 370.874 813.81 371.295C814.007 371.717 814.105 372.214 814.105 372.787C814.105 373.365 814.007 373.865 813.81 374.289C813.614 374.71 813.341 375.037 812.993 375.269C812.645 375.499 812.244 375.614 811.79 375.614C811.439 375.614 811.159 375.556 810.948 375.44C810.737 375.321 810.575 375.187 810.461 375.038C810.348 374.887 810.26 374.761 810.199 374.662H810.128V377.545H809.29ZM810.113 372.773C810.113 373.185 810.174 373.548 810.294 373.863C810.415 374.175 810.592 374.42 810.824 374.598C811.056 374.773 811.34 374.861 811.676 374.861C812.026 374.861 812.319 374.768 812.553 374.584C812.79 374.397 812.967 374.146 813.086 373.831C813.206 373.514 813.267 373.161 813.267 372.773C813.267 372.389 813.208 372.044 813.089 371.736C812.973 371.426 812.797 371.181 812.56 371.001C812.326 370.818 812.031 370.727 811.676 370.727C811.335 370.727 811.049 370.814 810.816 370.987C810.584 371.157 810.409 371.396 810.291 371.704C810.173 372.009 810.113 372.366 810.113 372.773ZM818.182 375.5V374.861L820.582 372.233C820.864 371.925 821.096 371.658 821.278 371.43C821.46 371.201 821.595 370.985 821.683 370.784C821.773 370.58 821.818 370.367 821.818 370.145C821.818 369.889 821.756 369.668 821.633 369.481C821.513 369.294 821.347 369.149 821.136 369.048C820.925 368.946 820.689 368.895 820.426 368.895C820.147 368.895 819.903 368.953 819.694 369.069C819.488 369.183 819.329 369.342 819.215 369.548C819.104 369.754 819.048 369.996 819.048 370.273H818.21C818.21 369.847 818.308 369.473 818.505 369.151C818.701 368.829 818.969 368.578 819.307 368.398C819.648 368.218 820.031 368.128 820.454 368.128C820.88 368.128 821.258 368.218 821.587 368.398C821.916 368.578 822.174 368.82 822.361 369.126C822.548 369.431 822.642 369.771 822.642 370.145C822.642 370.412 822.593 370.674 822.496 370.93C822.401 371.183 822.236 371.466 821.999 371.778C821.765 372.089 821.439 372.467 821.022 372.915L819.389 374.662V374.719H822.77V375.5H818.182ZM826.566 375.599C826.078 375.599 825.647 375.513 825.273 375.34C824.901 375.165 824.611 374.925 824.403 374.619C824.195 374.312 824.092 373.961 824.094 373.568C824.092 373.26 824.152 372.976 824.275 372.716C824.398 372.453 824.566 372.234 824.78 372.059C824.995 371.881 825.235 371.769 825.5 371.722V371.679C825.152 371.589 824.875 371.394 824.669 371.093C824.464 370.79 824.362 370.446 824.364 370.06C824.362 369.69 824.455 369.36 824.645 369.069C824.834 368.778 825.094 368.548 825.426 368.38C825.76 368.212 826.14 368.128 826.566 368.128C826.987 368.128 827.364 368.212 827.695 368.38C828.026 368.548 828.287 368.778 828.476 369.069C828.668 369.36 828.765 369.69 828.767 370.06C828.765 370.446 828.66 370.79 828.451 371.093C828.245 371.394 827.972 371.589 827.631 371.679V371.722C827.894 371.769 828.131 371.881 828.341 372.059C828.552 372.234 828.72 372.453 828.846 372.716C828.971 372.976 829.035 373.26 829.037 373.568C829.035 373.961 828.928 374.312 828.718 374.619C828.509 374.925 828.219 375.165 827.848 375.34C827.478 375.513 827.051 375.599 826.566 375.599ZM826.566 374.818C826.895 374.818 827.179 374.765 827.418 374.658C827.657 374.552 827.842 374.402 827.972 374.207C828.102 374.013 828.169 373.786 828.171 373.526C828.169 373.251 828.098 373.008 827.958 372.798C827.818 372.587 827.628 372.421 827.386 372.3C827.147 372.18 826.874 372.119 826.566 372.119C826.256 372.119 825.979 372.18 825.735 372.3C825.493 372.421 825.303 372.587 825.163 372.798C825.026 373.008 824.958 373.251 824.961 373.526C824.958 373.786 825.021 374.013 825.149 374.207C825.279 374.402 825.465 374.552 825.706 374.658C825.948 374.765 826.234 374.818 826.566 374.818ZM826.566 371.366C826.826 371.366 827.057 371.314 827.258 371.21C827.462 371.106 827.622 370.96 827.738 370.773C827.854 370.586 827.913 370.367 827.915 370.116C827.913 369.87 827.855 369.656 827.741 369.474C827.628 369.289 827.47 369.147 827.269 369.048C827.068 368.946 826.833 368.895 826.566 368.895C826.294 368.895 826.056 368.946 825.852 369.048C825.648 369.147 825.491 369.289 825.38 369.474C825.268 369.656 825.214 369.87 825.216 370.116C825.214 370.367 825.27 370.586 825.383 370.773C825.499 370.96 825.659 371.106 825.863 371.21C826.066 371.314 826.301 371.366 826.566 371.366Z" fill="#15D6FF"/>
</g>
<defs>
<clipPath id="clip0_1174_8296">
<rect width="825" height="380" fill="white"/>
</clipPath>
</defs>
</svg>
