<svg width="16" height="16" viewBox="0 0 16 16" fill="none" xmlns="http://www.w3.org/2000/svg">
<path d="M15.1579 4.98983C14.1012 2.06102 12.1991 0 10.5084 0C10.2442 0 10.0328 0.0542373 9.82148 0.108475C9.34596 0.271186 8.92327 0.650848 8.65909 1.13898C5.48893 4.82712 1.10354 6.50847 1.0507 6.50847C-0.00601675 6.88814 -0.323033 8.62373 0.363835 10.522C0.945032 12.1492 2.00175 13.1797 2.9528 13.1797C3.05847 13.1797 3.21698 13.1797 3.32265 13.1254C3.42832 13.0712 4.00952 12.9627 5.06624 12.8L6.12296 15.078C6.1758 15.1864 6.28147 15.2949 6.43998 15.3492L8.13073 15.9458C8.18357 15.9458 8.2364 16 8.28924 16C8.39491 16 8.50058 15.9458 8.60625 15.8915C8.76476 15.7831 8.8176 15.5661 8.8176 15.4034L8.44775 12.3119C9.76865 12.2034 11.2481 12.1492 12.7275 12.2576H12.8331C13.0445 12.3119 13.2558 12.3661 13.4672 12.3661C13.7313 12.3661 13.9427 12.3119 14.154 12.2576C15.0522 11.9322 15.6863 10.9017 15.8448 9.43729C15.9505 8.13559 15.7391 6.50847 15.1579 4.98983V4.98983ZM6.96834 14.3729L6.1758 12.5831L7.39103 12.4203L7.65521 14.5898L6.96834 14.3729ZM10.7725 9.1661C10.4027 8.56949 10.0328 7.86441 9.71581 6.99661C9.45163 6.18305 9.24029 5.42373 9.18745 4.66441C9.34596 4.66441 9.5573 4.82712 9.76865 4.98983C10.1385 5.36949 10.5084 5.9661 10.7197 6.61695C11.1424 7.86441 11.0367 8.84068 10.7725 9.1661V9.1661ZM3.05847 12.0949C3.00564 12.0949 3.00564 12.0949 3.00564 12.0949C2.63578 12.2034 1.84324 11.4983 1.31488 10.1424C0.83936 8.78644 1.0507 7.64746 1.36772 7.53898C1.52623 7.48475 4.96057 6.18305 8.07789 3.25424C8.02506 4.50169 8.2364 5.9661 8.71193 7.37627C9.29312 8.94915 10.0857 10.2508 10.9839 11.1729C6.86267 11.1186 3.21698 12.0407 3.05847 12.0949V12.0949ZM14.7352 9.32881C14.6296 10.3593 14.2597 11.0102 13.7313 11.2271C13.6257 11.2814 13.52 11.2814 13.4143 11.2814C12.8331 11.2814 12.1463 10.8475 11.4066 9.97966C12.1463 9.32881 12.3048 7.86441 11.7236 6.23729C11.4066 5.42373 10.9839 4.71864 10.5084 4.23051C10.0857 3.79661 9.61014 3.57966 9.13461 3.57966C9.13461 3.36271 9.13461 3.2 9.18745 3.03729C9.29312 2.00678 9.66297 1.35593 10.1913 1.13898C10.297 1.08475 10.4027 1.08475 10.5084 1.08475C11.5651 1.08475 13.203 2.71186 14.154 5.36949C14.6824 6.72542 14.8937 8.18983 14.7352 9.32881Z" fill="white"/>
</svg>
