<svg width="379" height="388" viewBox="0 0 379 388" fill="none" xmlns="http://www.w3.org/2000/svg">
<path d="M44.2663 173.782C20.2716 173.782 0.821289 193.223 0.821289 217.227V343.939C0.821289 367.924 20.2716 387.385 44.2663 387.385H50.7372C74.7319 387.385 94.1823 367.934 94.1823 343.94V217.227C94.1823 193.233 74.7309 173.782 50.7372 173.782H44.2663Z" fill="white"/>
<path d="M186.676 387.385H193.145C217.14 387.385 236.59 367.934 236.59 343.94V144.815C236.59 120.831 217.139 101.37 193.145 101.37H186.676C162.681 101.37 143.23 120.822 143.23 144.815V343.94C143.229 367.924 162.681 387.385 186.676 387.385Z" fill="white"/>
<path d="M335.554 387.385C359.548 387.385 379 367.934 379 343.94V43.445C379 19.4608 359.548 0 335.554 0H329.074C305.089 0 285.638 19.4514 285.638 43.445V343.939C285.638 367.923 305.089 387.384 329.074 387.384H335.554V387.385Z" fill="white"/>
</svg>
