<svg width="512" height="452" viewBox="0 0 512 452" fill="none" xmlns="http://www.w3.org/2000/svg">
<path d="M435.413 245.185C402.725 269.7 362.821 286.72 319.391 295.117C315.005 326.182 288.257 350.16 256 350.16C223.743 350.16 196.995 326.182 192.609 295.117C149.179 286.72 109.275 269.7 76.587 245.185C27.199 208.144 0 158.492 0 105.375V377.875C0 418.61 33.141 451.75 73.875 451.75H438.125C478.859 451.75 512 418.61 512 377.875V105.375C512 158.492 484.801 208.144 435.413 245.185Z" fill="white"/>
<path d="M191.965 264.338V237.091C191.965 228.807 198.681 222.091 206.965 222.091H305.035C313.319 222.091 320.035 228.807 320.035 237.091V264.338C413.562 244.037 482 180.463 482 105.375V90.375H361.375V60.567C361.375 27.17 334.204 0 300.808 0H211.193C177.797 0 150.626 27.17 150.626 60.567V90.375H30V105.375C30 180.463 98.438 244.037 191.965 264.338ZM180.625 60.567C180.625 43.712 194.338 30 211.192 30H300.807C317.661 30 331.374 43.712 331.374 60.567V90.375H180.624V60.567H180.625Z" fill="white"/>
<path d="M290.035 252.09H221.965V286.125C221.965 304.892 237.234 320.16 256 320.16C274.766 320.16 290.035 304.892 290.035 286.125V252.09Z" fill="white"/>
</svg>
