<svg width="788" height="374" viewBox="0 0 788 374" fill="none" xmlns="http://www.w3.org/2000/svg">
<path d="M134.573 321.64H743.142" stroke="#15D6FF"/>
<path d="M134.573 248.71H743.142" stroke="#15D6FF"/>
<path d="M134.573 175.78H743.142" stroke="#15D6FF"/>
<path d="M134.573 102.85H743.142" stroke="#15D6FF"/>
<path d="M134.573 29.92H743.142" stroke="#15D6FF"/>
<path d="M134.573 321.64H743.142" stroke="#15D6FF"/>
<path d="M134.573 330.616V321.64" stroke="#15D6FF"/>
<path d="M116.892 319.866V318.929H123.438V319.866H120.694V327.656H119.637V319.866H116.892ZM125.938 323.719V327.656H124.933V318.929H125.938V322.133H126.023C126.177 321.795 126.407 321.527 126.714 321.328C127.023 321.126 127.435 321.025 127.95 321.025C128.396 321.025 128.786 321.115 129.121 321.294C129.457 321.47 129.717 321.741 129.901 322.108C130.089 322.471 130.183 322.934 130.183 323.497V327.656H129.177V323.565C129.177 323.045 129.042 322.643 128.772 322.359C128.505 322.072 128.134 321.929 127.66 321.929C127.33 321.929 127.035 321.998 126.773 322.138C126.515 322.277 126.31 322.48 126.16 322.747C126.012 323.014 125.938 323.338 125.938 323.719ZM136.147 324.98V321.111H137.153V327.656H136.147V326.548H136.079C135.926 326.88 135.687 327.163 135.363 327.396C135.039 327.626 134.63 327.741 134.136 327.741C133.727 327.741 133.363 327.652 133.045 327.473C132.727 327.291 132.477 327.018 132.295 326.655C132.113 326.288 132.022 325.826 132.022 325.27V321.111H133.028V325.201C133.028 325.679 133.162 326.059 133.429 326.344C133.699 326.628 134.042 326.77 134.46 326.77C134.71 326.77 134.964 326.706 135.223 326.578C135.484 326.45 135.703 326.254 135.879 325.99C136.058 325.726 136.147 325.389 136.147 324.98ZM145.421 318.929V327.656H144.364V320.037H144.313L142.183 321.451V320.378L144.364 318.929H145.421ZM150.658 327.775C150.158 327.775 149.708 327.676 149.308 327.477C148.907 327.278 148.586 327.005 148.344 326.659C148.103 326.312 147.971 325.917 147.948 325.474H148.971C149.011 325.869 149.19 326.196 149.508 326.454C149.829 326.71 150.212 326.838 150.658 326.838C151.016 326.838 151.335 326.754 151.613 326.586C151.894 326.419 152.114 326.189 152.273 325.896C152.435 325.601 152.516 325.267 152.516 324.895C152.516 324.514 152.433 324.174 152.265 323.876C152.1 323.575 151.873 323.338 151.583 323.165C151.293 322.991 150.962 322.903 150.59 322.9C150.323 322.897 150.049 322.939 149.768 323.024C149.487 323.106 149.255 323.213 149.073 323.344L148.085 323.224L148.613 318.929H153.147V319.866H149.499L149.193 322.44H149.244C149.423 322.298 149.647 322.18 149.917 322.086C150.187 321.993 150.468 321.946 150.761 321.946C151.295 321.946 151.771 322.074 152.188 322.329C152.609 322.582 152.938 322.929 153.177 323.369C153.418 323.809 153.539 324.312 153.539 324.878C153.539 325.434 153.414 325.932 153.164 326.369C152.917 326.804 152.576 327.147 152.141 327.4C151.707 327.65 151.212 327.775 150.658 327.775Z" fill="#15D6FF"/>
<path d="M562.644 330.616V321.64" stroke="#15D6FF"/>
<path d="M549.085 327.656V318.929H554.318V319.866H550.142V322.815H553.926V323.753H550.142V327.656H549.085ZM555.922 327.656V321.111H556.893V322.099H556.961C557.081 321.775 557.297 321.513 557.609 321.311C557.922 321.109 558.274 321.008 558.666 321.008C558.74 321.008 558.832 321.01 558.943 321.013C559.054 321.015 559.137 321.02 559.194 321.025V322.048C559.16 322.04 559.082 322.027 558.96 322.01C558.841 321.99 558.714 321.98 558.581 321.98C558.262 321.98 557.978 322.047 557.728 322.18C557.481 322.311 557.285 322.493 557.14 322.726C556.998 322.956 556.927 323.219 556.927 323.514V327.656H555.922ZM560.386 327.656V321.111H561.392V327.656H560.386ZM560.898 320.02C560.702 320.02 560.533 319.953 560.391 319.819C560.251 319.686 560.182 319.525 560.182 319.338C560.182 319.15 560.251 318.99 560.391 318.856C560.533 318.723 560.702 318.656 560.898 318.656C561.094 318.656 561.261 318.723 561.401 318.856C561.543 318.99 561.614 319.15 561.614 319.338C561.614 319.525 561.543 319.686 561.401 319.819C561.261 319.953 561.094 320.02 560.898 320.02ZM569.66 318.929V327.656H568.603V320.037H568.552L566.422 321.451V320.378L568.603 318.929H569.66ZM575.068 327.775C574.71 327.77 574.352 327.701 573.994 327.571C573.636 327.44 573.309 327.22 573.014 326.91C572.718 326.598 572.481 326.176 572.302 325.645C572.123 325.111 572.034 324.44 572.034 323.633C572.034 322.861 572.106 322.176 572.251 321.579C572.396 320.98 572.606 320.476 572.882 320.067C573.157 319.655 573.49 319.342 573.879 319.129C574.271 318.916 574.713 318.809 575.204 318.809C575.693 318.809 576.127 318.907 576.508 319.103C576.892 319.297 577.204 319.567 577.446 319.913C577.687 320.26 577.843 320.659 577.914 321.111H576.875C576.778 320.719 576.591 320.393 576.312 320.135C576.034 319.876 575.664 319.747 575.204 319.747C574.528 319.747 573.995 320.041 573.606 320.629C573.22 321.217 573.025 322.042 573.022 323.105H573.091C573.25 322.863 573.439 322.657 573.657 322.487C573.879 322.314 574.123 322.18 574.39 322.086C574.657 321.993 574.94 321.946 575.238 321.946C575.738 321.946 576.196 322.071 576.61 322.321C577.025 322.568 577.358 322.91 577.608 323.348C577.858 323.782 577.983 324.281 577.983 324.844C577.983 325.383 577.862 325.878 577.62 326.326C577.379 326.772 577.039 327.128 576.602 327.392C576.167 327.653 575.656 327.781 575.068 327.775ZM575.068 326.838C575.426 326.838 575.747 326.748 576.031 326.569C576.318 326.39 576.544 326.15 576.708 325.849C576.876 325.548 576.96 325.213 576.96 324.844C576.96 324.483 576.879 324.155 576.717 323.859C576.558 323.561 576.338 323.324 576.056 323.147C575.778 322.971 575.46 322.883 575.102 322.883C574.832 322.883 574.581 322.937 574.348 323.045C574.115 323.15 573.91 323.295 573.734 323.48C573.561 323.665 573.424 323.876 573.325 324.115C573.225 324.351 573.176 324.599 573.176 324.861C573.176 325.207 573.257 325.531 573.419 325.832C573.583 326.133 573.808 326.376 574.092 326.561C574.379 326.745 574.704 326.838 575.068 326.838Z" fill="#15D6FF"/>
<path d="M134.573 29.92V321.64" stroke="#15D6FF"/>
<path d="M125.601 321.64H134.573" stroke="#15D6FF"/>
<path d="M118.861 315.807C118.219 315.807 117.672 315.633 117.22 315.283C116.769 314.931 116.423 314.421 116.185 313.753C115.946 313.083 115.827 312.273 115.827 311.324C115.827 310.381 115.946 309.576 116.185 308.908C116.426 308.238 116.773 307.726 117.225 307.374C117.679 307.019 118.225 306.841 118.861 306.841C119.497 306.841 120.041 307.019 120.493 307.374C120.948 307.726 121.294 308.238 121.533 308.908C121.774 309.576 121.895 310.381 121.895 311.324C121.895 312.273 121.776 313.083 121.537 313.753C121.298 314.421 120.953 314.931 120.502 315.283C120.05 315.633 119.503 315.807 118.861 315.807ZM118.861 314.87C119.497 314.87 119.992 314.563 120.344 313.949C120.696 313.336 120.872 312.461 120.872 311.324C120.872 310.569 120.791 309.925 120.629 309.394C120.47 308.863 120.24 308.458 119.939 308.179C119.641 307.901 119.281 307.762 118.861 307.762C118.23 307.762 117.737 308.073 117.382 308.695C117.027 309.314 116.85 310.191 116.85 311.324C116.85 312.08 116.929 312.722 117.088 313.25C117.247 313.779 117.476 314.181 117.774 314.456C118.075 314.732 118.438 314.87 118.861 314.87Z" fill="#15D6FF"/>
<path d="M125.601 248.71H134.573" stroke="#15D6FF"/>
<path d="M116.249 242.758V241.991L119.129 238.838C119.468 238.468 119.746 238.147 119.965 237.875C120.183 237.599 120.345 237.34 120.45 237.099C120.558 236.855 120.612 236.599 120.612 236.332C120.612 236.025 120.539 235.759 120.391 235.535C120.246 235.311 120.047 235.137 119.794 235.015C119.541 234.893 119.257 234.832 118.942 234.832C118.607 234.832 118.314 234.902 118.064 235.041C117.817 235.177 117.625 235.369 117.489 235.616C117.355 235.863 117.289 236.153 117.289 236.485H116.283C116.283 235.974 116.401 235.525 116.637 235.139C116.872 234.752 117.193 234.451 117.6 234.235C118.009 234.019 118.468 233.911 118.976 233.911C119.487 233.911 119.941 234.019 120.335 234.235C120.73 234.451 121.04 234.742 121.264 235.109C121.489 235.475 121.601 235.883 121.601 236.332C121.601 236.653 121.543 236.967 121.426 237.274C121.313 237.578 121.114 237.917 120.83 238.292C120.548 238.664 120.158 239.119 119.658 239.656L117.698 241.752V241.821H121.754V242.758H116.249Z" fill="#15D6FF"/>
<path d="M125.601 175.78H134.573" stroke="#15D6FF"/>
<path d="M115.611 168.038V167.169L119.446 161.101H120.077V162.447H119.65L116.753 167.033V167.101H121.917V168.038H115.611ZM119.719 169.828V167.774V167.369V161.101H120.724V169.828H119.719Z" fill="#15D6FF"/>
<path d="M125.601 102.85H134.573" stroke="#15D6FF"/>
<path d="M118.924 97.0174C118.566 97.0117 118.208 96.9435 117.85 96.8128C117.492 96.6822 117.165 96.462 116.87 96.1523C116.574 95.8398 116.337 95.418 116.158 94.8867C115.979 94.3526 115.89 93.6822 115.89 92.8753C115.89 92.1026 115.962 91.418 116.107 90.8214C116.252 90.2219 116.462 89.7177 116.738 89.3086C117.013 88.8967 117.346 88.5842 117.735 88.3711C118.127 88.158 118.569 88.0515 119.06 88.0515C119.549 88.0515 119.983 88.1495 120.364 88.3455C120.748 88.5387 121.06 88.8086 121.302 89.1552C121.543 89.5018 121.699 89.9009 121.77 90.3526H120.731C120.634 89.9606 120.447 89.6353 120.168 89.3768C119.89 89.1182 119.52 88.989 119.06 88.989C118.384 88.989 117.851 89.283 117.462 89.8711C117.076 90.4592 116.881 91.2844 116.878 92.3469H116.947C117.106 92.1055 117.295 91.8995 117.513 91.729C117.735 91.5557 117.979 91.4222 118.246 91.3285C118.513 91.2347 118.796 91.1878 119.094 91.1878C119.594 91.1878 120.052 91.3128 120.466 91.5628C120.881 91.81 121.214 92.1523 121.464 92.5898C121.714 93.0245 121.839 93.5231 121.839 94.0856C121.839 94.6253 121.718 95.1197 121.476 95.5685C121.235 96.0145 120.895 96.3697 120.458 96.6339C120.023 96.8952 119.512 97.0231 118.924 97.0174ZM118.924 96.0799C119.282 96.0799 119.603 95.9904 119.887 95.8114C120.174 95.6324 120.4 95.3924 120.564 95.0913C120.732 94.7901 120.816 94.4549 120.816 94.0856C120.816 93.7248 120.735 93.3967 120.573 93.1012C120.414 92.8029 120.194 92.5657 119.912 92.3895C119.634 92.2134 119.316 92.1253 118.958 92.1253C118.688 92.1253 118.437 92.1793 118.204 92.2873C117.971 92.3924 117.766 92.5373 117.59 92.7219C117.417 92.9066 117.28 93.1182 117.181 93.3569C117.082 93.5927 117.032 93.8413 117.032 94.1026C117.032 94.4492 117.113 94.7731 117.275 95.0742C117.439 95.3753 117.664 95.6182 117.948 95.8029C118.235 95.9876 118.56 96.0799 118.924 96.0799Z" fill="#15D6FF"/>
<path d="M125.601 29.92H134.573" stroke="#15D6FF"/>
<path d="M118.915 24.0873C118.33 24.0873 117.813 23.9836 117.364 23.7763C116.918 23.566 116.57 23.2777 116.32 22.9112C116.07 22.5419 115.947 22.1214 115.949 21.6498C115.947 21.2805 116.019 20.9396 116.167 20.6271C116.314 20.3118 116.516 20.049 116.772 19.8388C117.03 19.6257 117.319 19.4907 117.637 19.4339V19.3828C117.219 19.2748 116.887 19.0405 116.64 18.6797C116.393 18.316 116.27 17.9027 116.273 17.4396C116.27 16.9964 116.383 16.6001 116.61 16.2507C116.837 15.9013 117.15 15.6257 117.547 15.424C117.948 15.2223 118.404 15.1214 118.915 15.1214C119.421 15.1214 119.873 15.2223 120.27 15.424C120.668 15.6257 120.981 15.9013 121.208 16.2507C121.438 16.6001 121.555 16.9964 121.557 17.4396C121.555 17.9027 121.428 18.316 121.178 18.6797C120.931 19.0405 120.603 19.2748 120.194 19.3828V19.4339C120.509 19.4907 120.793 19.6257 121.046 19.8388C121.299 20.049 121.501 20.3118 121.651 20.6271C121.802 20.9396 121.878 21.2805 121.881 21.6498C121.878 22.1214 121.751 22.5419 121.498 22.9112C121.248 23.2777 120.9 23.566 120.454 23.7763C120.01 23.9836 119.498 24.0873 118.915 24.0873ZM118.915 23.1498C119.31 23.1498 119.651 23.0859 119.938 22.9581C120.225 22.8302 120.447 22.6498 120.603 22.4169C120.759 22.1839 120.839 21.9112 120.841 21.5987C120.839 21.2692 120.753 20.978 120.586 20.7251C120.418 20.4723 120.189 20.2734 119.9 20.1285C119.613 19.9836 119.285 19.9112 118.915 19.9112C118.543 19.9112 118.211 19.9836 117.918 20.1285C117.628 20.2734 117.4 20.4723 117.232 20.7251C117.067 20.978 116.986 21.2692 116.989 21.5987C116.986 21.9112 117.062 22.1839 117.215 22.4169C117.371 22.6498 117.594 22.8302 117.884 22.9581C118.174 23.0859 118.518 23.1498 118.915 23.1498ZM118.915 19.0078C119.228 19.0078 119.505 18.9453 119.746 18.8203C119.991 18.6953 120.182 18.5206 120.322 18.2961C120.461 18.0717 120.532 17.8089 120.535 17.5078C120.532 17.2123 120.462 16.9552 120.326 16.7365C120.189 16.5149 120.001 16.3444 119.759 16.2251C119.518 16.103 119.236 16.0419 118.915 16.0419C118.589 16.0419 118.303 16.103 118.059 16.2251C117.814 16.3444 117.626 16.5149 117.492 16.7365C117.358 16.9552 117.293 17.2123 117.296 17.5078C117.293 17.8089 117.36 18.0717 117.496 18.2961C117.635 18.5206 117.827 18.6953 118.072 18.8203C118.316 18.9453 118.597 19.0078 118.915 19.0078Z" fill="#15D6FF"/>
<path d="M31.4384 206.09H22.7111V203.142C22.7111 202.457 22.8347 201.897 23.0818 201.463C23.3261 201.025 23.6571 200.701 24.0747 200.491C24.4923 200.281 24.9582 200.176 25.4724 200.176C25.9866 200.176 26.454 200.281 26.8744 200.491C27.2949 200.698 27.6301 201.019 27.8801 201.454C28.1273 201.889 28.2509 202.446 28.2509 203.124V205.238H27.3134V203.159C27.3134 202.69 27.2324 202.313 27.0705 202.029C26.9085 201.745 26.6898 201.539 26.4142 201.411C26.1358 201.281 25.8219 201.215 25.4724 201.215C25.123 201.215 24.8105 201.281 24.5349 201.411C24.2594 201.539 24.0435 201.747 23.8872 202.034C23.7281 202.321 23.6486 202.701 23.6486 203.176V205.034H31.4384V206.09ZM31.4384 198.61H24.8929V197.638H25.8815V197.57C25.5577 197.45 25.2949 197.235 25.0932 196.922C24.8915 196.61 24.7906 196.257 24.7906 195.865C24.7906 195.791 24.792 195.699 24.7949 195.588C24.7977 195.477 24.802 195.394 24.8077 195.337H25.8304C25.8219 195.371 25.8091 195.449 25.792 195.571C25.7722 195.691 25.7622 195.817 25.7622 195.95C25.7622 196.269 25.829 196.553 25.9625 196.803C26.0932 197.05 26.275 197.246 26.508 197.391C26.7381 197.533 27.0009 197.604 27.2963 197.604H31.4384V198.61ZM31.4384 194.145H24.8929V193.139H31.4384V194.145ZM23.802 193.633C23.802 193.829 23.7352 193.998 23.6017 194.14C23.4682 194.28 23.3077 194.349 23.1202 194.349C22.9327 194.349 22.7722 194.28 22.6386 194.14C22.5051 193.998 22.4384 193.829 22.4384 193.633C22.4384 193.437 22.5051 193.27 22.6386 193.131C22.7722 192.988 22.9327 192.917 23.1202 192.917C23.3077 192.917 23.4682 192.988 23.6017 193.131C23.7352 193.27 23.802 193.437 23.802 193.633ZM31.5747 188.638C31.5747 189.252 31.4298 189.78 31.1401 190.223C30.8503 190.666 30.4511 191.007 29.9426 191.246C29.4341 191.485 28.8531 191.604 28.1997 191.604C27.5349 191.604 26.9483 191.482 26.4398 191.237C25.9284 190.99 25.5293 190.647 25.2423 190.206C24.9526 189.763 24.8077 189.246 24.8077 188.655C24.8077 188.195 24.8929 187.78 25.0634 187.411C25.2338 187.041 25.4724 186.739 25.7793 186.503C26.0861 186.267 26.444 186.121 26.8531 186.064V187.07C26.5548 187.147 26.2906 187.317 26.0605 187.581C25.8276 187.843 25.7111 188.195 25.7111 188.638C25.7111 189.03 25.8134 189.374 26.0179 189.669C26.2196 189.962 26.5051 190.191 26.8744 190.355C27.2409 190.517 27.6713 190.598 28.1656 190.598C28.6713 190.598 29.1116 190.519 29.4866 190.36C29.8616 190.198 30.1528 189.97 30.3602 189.678C30.5676 189.382 30.6713 189.036 30.6713 188.638C30.6713 188.377 30.6259 188.139 30.5349 187.926C30.444 187.713 30.3134 187.533 30.1429 187.385C29.9724 187.237 29.7679 187.132 29.5293 187.07V186.064C29.9156 186.121 30.2636 186.262 30.5733 186.486C30.8801 186.708 31.1244 187.002 31.3063 187.368C31.4852 187.732 31.5747 188.155 31.5747 188.638ZM31.5747 181.85C31.5747 182.48 31.4355 183.024 31.1571 183.482C30.8759 183.936 30.4838 184.287 29.981 184.534C29.4753 184.779 28.8872 184.901 28.2168 184.901C27.5463 184.901 26.9554 184.779 26.444 184.534C25.9298 184.287 25.5293 183.943 25.2423 183.503C24.9526 183.06 24.8077 182.543 24.8077 181.952C24.8077 181.611 24.8645 181.274 24.9781 180.942C25.0918 180.61 25.2764 180.307 25.5321 180.034C25.7849 179.762 26.1202 179.544 26.5378 179.382C26.9554 179.22 27.4696 179.139 28.0804 179.139H28.5065L28.5065 184.185H27.6372V180.162C27.2679 180.162 26.9384 180.236 26.6486 180.384C26.3588 180.529 26.1301 180.736 25.9625 181.006C25.7949 181.273 25.7111 181.588 25.7111 181.952C25.7111 182.352 25.8105 182.699 26.0094 182.992C26.2054 183.281 26.4611 183.504 26.7764 183.661C27.0918 183.817 27.4298 183.895 27.7906 183.895H28.3702C28.8645 183.895 29.2835 183.81 29.6273 183.639C29.9682 183.466 30.2281 183.226 30.4071 182.919C30.5832 182.612 30.6713 182.256 30.6713 181.85C30.6713 181.585 30.6344 181.347 30.5605 181.134C30.4838 180.918 30.3702 180.732 30.2196 180.575C30.0662 180.419 29.8759 180.298 29.6486 180.213L29.9213 179.242C30.2509 179.344 30.5406 179.516 30.7906 179.757C31.0378 179.999 31.231 180.297 31.3702 180.652C31.5065 181.007 31.5747 181.406 31.5747 181.85ZM27.0747 173.877C26.0009 173.877 25.0136 173.737 24.1131 173.459C23.2097 173.178 22.3787 172.777 21.6202 172.257V171.371C21.9014 171.575 22.248 171.767 22.6599 171.946C23.069 172.122 23.5193 172.277 24.0108 172.411C24.4994 172.544 25.0051 172.649 25.5278 172.726C26.0506 172.8 26.5662 172.837 27.0747 172.837C27.7509 172.837 28.4369 172.772 29.133 172.641C29.829 172.51 30.4753 172.334 31.0719 172.112C31.6685 171.891 32.1543 171.644 32.5293 171.371V172.257C31.7707 172.777 30.9412 173.178 30.0406 173.459C29.1372 173.737 28.1486 173.877 27.0747 173.877ZM24.8929 164.978C24.4611 165.029 24.1259 165.236 23.8872 165.6C23.6486 165.964 23.5293 166.41 23.5293 166.938C23.5293 167.324 23.5918 167.662 23.7168 167.952C23.8418 168.239 24.0136 168.464 24.2324 168.626C24.4511 168.785 24.6997 168.864 24.9781 168.864C25.2111 168.864 25.4114 168.809 25.579 168.698C25.7438 168.584 25.8815 168.439 25.9923 168.263C26.1003 168.087 26.1898 167.903 26.2608 167.709C26.329 167.516 26.3844 167.339 26.427 167.177L26.6656 166.29C26.7253 166.063 26.8077 165.81 26.9128 165.532C27.0179 165.251 27.1614 164.982 27.3432 164.726C27.5222 164.468 27.7523 164.255 28.0335 164.087C28.3148 163.92 28.6599 163.836 29.069 163.836C29.5406 163.836 29.9668 163.959 30.3474 164.207C30.7281 164.451 31.0307 164.809 31.2551 165.28C31.4795 165.749 31.5918 166.319 31.5918 166.989C31.5918 167.614 31.4909 168.155 31.2892 168.613C31.0875 169.067 30.8063 169.425 30.4455 169.687C30.0847 169.945 29.6656 170.091 29.1884 170.126V169.035C29.5179 169.006 29.7906 168.895 30.0065 168.702C30.2196 168.506 30.3787 168.259 30.4838 167.961C30.5861 167.66 30.6372 167.336 30.6372 166.989C30.6372 166.586 30.5719 166.224 30.4412 165.903C30.3077 165.582 30.123 165.327 29.8872 165.14C29.6486 164.952 29.3702 164.859 29.052 164.859C28.7622 164.859 28.5264 164.939 28.3446 165.101C28.1628 165.263 28.0151 165.476 27.9014 165.741C27.7878 166.005 27.6884 166.29 27.6031 166.597L27.2963 167.671C27.1003 168.353 26.8205 168.893 26.4568 169.29C26.0932 169.688 25.6173 169.887 25.0293 169.887C24.5406 169.887 24.1145 169.755 23.7509 169.491C23.3844 169.224 23.1003 168.866 22.8986 168.417C22.694 167.965 22.5918 167.461 22.5918 166.904C22.5918 166.341 22.6926 165.841 22.8943 165.404C23.0932 164.966 23.3659 164.62 23.7125 164.364C24.0591 164.106 24.4526 163.969 24.8929 163.955V164.978ZM27.0747 154.735C27.9952 154.735 28.7906 154.901 29.4611 155.233C30.1315 155.566 30.6486 156.022 31.0122 156.601C31.3759 157.181 31.5577 157.843 31.5577 158.587C31.5577 159.331 31.3759 159.993 31.0122 160.573C30.6486 161.152 30.1315 161.608 29.4611 161.941C28.7906 162.273 27.9952 162.439 27.0747 162.439C26.1543 162.439 25.3588 162.273 24.6884 161.941C24.0179 161.608 23.5009 161.152 23.1372 160.573C22.7736 159.993 22.5918 159.331 22.5918 158.587C22.5918 157.843 22.7736 157.181 23.1372 156.601C23.5009 156.022 24.0179 155.566 24.6884 155.233C25.3588 154.901 26.1543 154.735 27.0747 154.735ZM27.0747 155.757C26.319 155.757 25.6813 155.884 25.1614 156.137C24.6415 156.387 24.248 156.726 23.981 157.155C23.7139 157.581 23.5804 158.058 23.5804 158.587C23.5804 159.115 23.7139 159.594 23.981 160.023C24.248 160.449 24.6415 160.789 25.1614 161.041C25.6813 161.291 26.319 161.416 27.0747 161.416C27.8304 161.416 28.4682 161.291 28.9881 161.041C29.508 160.789 29.9014 160.449 30.1685 160.023C30.4355 159.594 30.569 159.115 30.569 158.587C30.569 158.058 30.4355 157.581 30.1685 157.155C29.9014 156.726 29.508 156.387 28.9881 156.137C28.4682 155.884 27.8304 155.757 27.0747 155.757ZM31.4384 152.958H22.7111V151.901H30.5009L30.5009 147.844H31.4384L31.4384 152.958ZM27.0747 144.196C28.1486 144.196 29.1372 144.337 30.0406 144.618C30.9412 144.897 31.7707 145.296 32.5293 145.816V146.702C32.248 146.497 31.9014 146.307 31.4895 146.131C31.0804 145.952 30.6315 145.796 30.1429 145.662C29.6514 145.529 29.1443 145.425 28.6216 145.351C28.096 145.274 27.5804 145.236 27.0747 145.236C26.3986 145.236 25.7125 145.301 25.0165 145.432C24.3205 145.563 23.6741 145.739 23.0776 145.96C22.481 146.182 21.9952 146.429 21.6202 146.702V145.816C22.3787 145.296 23.2097 144.897 24.1131 144.618C25.0136 144.337 26.0009 144.196 27.0747 144.196Z" fill="#15D6FF"/>
<path d="M152.954 132.022L743.142 103.579" stroke="#15D6FF"/>
<path d="M152.954 136.51C155.432 136.51 157.44 134.501 157.44 132.022C157.44 129.543 155.432 127.534 152.954 127.534C150.477 127.534 148.469 129.543 148.469 132.022C148.469 134.501 150.477 136.51 152.954 136.51Z" fill="#15D6FF" stroke="#15D6FF"/>
<path d="M743.142 108.067C745.62 108.067 747.628 106.058 747.628 103.579C747.628 101.101 745.62 99.0913 743.142 99.0913C740.665 99.0913 738.656 101.101 738.656 103.579C738.656 106.058 740.665 108.067 743.142 108.067Z" fill="#15D6FF" stroke="#15D6FF"/>
</svg>
