<svg width="18" height="20" viewBox="0 0 18 20" fill="none" xmlns="http://www.w3.org/2000/svg">
<path d="M17.2605 11.9108C17.0091 11.8288 16.7369 11.8541 16.5033 11.9812C16.2697 12.1084 16.0936 12.327 16.0133 12.5895C15.542 14.0978 14.6231 15.4093 13.3903 16.3333C12.1575 17.2573 10.6752 17.7455 9.15904 17.7269C7.28368 17.7492 5.4764 16.9923 4.13351 15.6221C2.79062 14.2519 2.02173 12.3802 1.99543 10.4176C2.02173 8.45492 2.79062 6.58328 4.13351 5.21307C5.4764 3.84286 7.28368 3.08592 9.15904 3.10823C10.8527 3.10395 12.4943 3.72097 13.7984 4.85203L11.6334 4.47612C11.5036 4.45377 11.3709 4.45849 11.2429 4.49001C11.1149 4.52152 10.9941 4.57921 10.8875 4.65976C10.7809 4.7403 10.6905 4.84211 10.6216 4.95933C10.5527 5.07655 10.5066 5.20687 10.486 5.3428C10.4647 5.4786 10.4692 5.61747 10.4993 5.75144C10.5294 5.88541 10.5845 6.01183 10.6615 6.12343C10.7384 6.23502 10.8357 6.32959 10.9477 6.40171C11.0597 6.47382 11.1842 6.52205 11.3141 6.54362L15.5444 7.27455H15.714C15.8297 7.27441 15.9445 7.25321 16.0533 7.2119C16.0898 7.19738 16.1236 7.17616 16.153 7.14925C16.2246 7.12141 16.2918 7.08271 16.3526 7.03439L16.4424 6.91952C16.4424 6.86732 16.5322 6.82555 16.5721 6.7629C16.612 6.70025 16.5721 6.65848 16.622 6.61671C16.6495 6.5559 16.6729 6.49308 16.6918 6.42876L17.4401 2.25199C17.465 2.11487 17.4638 1.97395 17.4367 1.83729C17.4095 1.70064 17.3569 1.57091 17.2819 1.45553C17.2069 1.34014 17.1108 1.24136 16.9993 1.16481C16.8878 1.08826 16.763 1.03546 16.6319 1.0094C16.5009 0.983349 16.3663 0.98456 16.2357 1.01296C16.1051 1.04137 15.9812 1.09641 15.8709 1.17495C15.6483 1.33357 15.4949 1.57826 15.4447 1.8552L15.1753 3.36928C13.5051 1.85441 11.3692 1.02029 9.15904 1.01985C6.75447 0.99757 4.43967 1.97454 2.72257 3.73639C1.00547 5.49824 0.0263306 7.90105 0 10.4176C0.0263306 12.9341 1.00547 15.3369 2.72257 17.0987C4.43967 18.8606 6.75447 19.8376 9.15904 19.8153C11.1077 19.8466 13.0145 19.2223 14.5987 18.0343C16.1829 16.8462 17.3608 15.1573 17.9589 13.216C17.9967 13.0823 18.0086 12.942 17.9938 12.8035C17.979 12.6649 17.9379 12.5308 17.8728 12.4092C17.8077 12.2875 17.72 12.1807 17.6148 12.0951C17.5097 12.0095 17.3892 11.9468 17.2605 11.9108Z" fill="#F8F8F8"/>
</svg>
