<svg width="22" height="21" viewBox="0 0 22 21" fill="none" xmlns="http://www.w3.org/2000/svg">
<path d="M22 4.25675H18.7786C18.3857 2.35239 16.8143 0.944824 14.9286 0.944824C13.0429 0.944824 11.4714 2.35239 11.0786 4.25675H0V5.91271H11.0786C11.4714 7.81707 13.0429 9.22464 14.9286 9.22464C16.8143 9.22464 18.3857 7.81707 18.7786 5.91271H22V4.25675ZM14.9286 7.56868C13.5929 7.56868 12.5714 6.4923 12.5714 5.08473C12.5714 3.67716 13.5929 2.60079 14.9286 2.60079C16.2643 2.60079 17.2857 3.67716 17.2857 5.08473C17.2857 6.4923 16.2643 7.56868 14.9286 7.56868ZM0 17.5045H3.22143C3.61429 19.4088 5.18571 20.8164 7.07143 20.8164C8.95714 20.8164 10.5286 19.4088 10.9214 17.5045H22V15.8485H10.9214C10.5286 13.9441 8.95714 12.5366 7.07143 12.5366C5.18571 12.5366 3.61429 13.9441 3.22143 15.8485H0V17.5045ZM7.07143 14.1925C8.40714 14.1925 9.42857 15.2689 9.42857 16.6765C9.42857 18.084 8.40714 19.1604 7.07143 19.1604C5.73571 19.1604 4.71429 18.084 4.71429 16.6765C4.71429 15.2689 5.73571 14.1925 7.07143 14.1925Z" fill="#F8F8F8"/>
</svg>
