<svg width="427" height="427" viewBox="0 0 427 427" fill="none" xmlns="http://www.w3.org/2000/svg">
<path d="M213.333 0C171.14 0 129.894 12.5118 94.8118 35.9532C59.7293 59.3945 32.3858 92.7126 16.2391 131.694C0.0924339 170.676 -4.13228 213.57 4.09924 254.953C12.3308 296.335 32.6488 334.348 62.484 364.183C92.3192 394.018 130.332 414.336 171.714 422.568C213.097 430.799 255.991 426.574 294.973 410.428C333.954 394.281 367.272 366.937 390.714 331.855C414.155 296.772 426.667 255.527 426.667 213.333C426.667 185.318 421.149 157.577 410.428 131.694C399.707 105.811 383.993 82.2937 364.183 62.4839C344.373 42.6741 320.855 26.96 294.973 16.239C269.09 5.51803 241.349 0 213.333 0ZM280 128C284.219 128 288.344 129.251 291.852 131.595C295.361 133.939 298.095 137.271 299.71 141.169C301.324 145.068 301.747 149.357 300.924 153.495C300.1 157.634 298.069 161.435 295.085 164.418C292.102 167.402 288.3 169.434 284.162 170.257C280.024 171.08 275.734 170.657 271.836 169.043C267.938 167.428 264.606 164.694 262.262 161.186C259.918 157.677 258.667 153.553 258.667 149.333C258.667 143.675 260.914 138.249 264.915 134.248C268.916 130.248 274.342 128 280 128ZM146.667 128C150.886 128 155.011 129.251 158.519 131.595C162.027 133.939 164.762 137.271 166.376 141.169C167.991 145.068 168.413 149.357 167.59 153.495C166.767 157.634 164.735 161.435 161.752 164.418C158.768 167.402 154.967 169.434 150.829 170.257C146.69 171.08 142.401 170.657 138.503 169.043C134.605 167.428 131.273 164.694 128.929 161.186C126.585 157.677 125.333 153.553 125.333 149.333C125.333 143.675 127.581 138.249 131.582 134.248C135.583 130.248 141.009 128 146.667 128ZM213.333 341.333C156.48 341.333 106.667 296.427 106.667 245.333C106.667 242.504 107.791 239.791 109.791 237.791C111.791 235.79 114.504 234.667 117.333 234.667H309.333C312.162 234.667 314.876 235.79 316.876 237.791C318.876 239.791 320 242.504 320 245.333C320 296.427 270.187 341.333 213.333 341.333Z" fill="#6F7A8B"/>
</svg>
