<svg width="15" height="18" viewBox="0 0 15 18" fill="none" xmlns="http://www.w3.org/2000/svg">
<path d="M7.87908 0.0151883C8.82059 -2.82904e-08 9.7567 0.00900048 10.6917 0C10.7484 1.14812 11.1444 2.31762 11.9505 3.12935C12.755 3.96134 13.8929 4.34217 15 4.47099V7.49121C13.9625 7.45577 12.9201 7.23076 11.9785 6.76499C11.5685 6.57147 11.1865 6.32227 10.8126 6.06745C10.8077 8.25907 10.8212 10.4479 10.7991 12.6305C10.743 13.679 10.4112 14.7225 9.8263 15.5866C8.88533 17.025 7.25216 17.9627 5.57472 17.992C4.54581 18.0533 3.51797 17.7608 2.64121 17.2219C1.18822 16.3286 0.16578 14.6933 0.0168656 12.9382C-0.000399826 12.563 -0.00633471 12.1883 0.00823301 11.8221C0.137724 10.395 0.814853 9.02973 1.86589 8.10099C3.0572 7.01925 4.72602 6.50397 6.28854 6.80886C6.30311 7.91986 6.26048 9.02973 6.26048 10.1407C5.54666 9.89997 4.71253 9.96747 4.08881 10.4192C3.63344 10.7269 3.28759 11.1983 3.10738 11.7316C2.95847 12.1118 3.00109 12.5343 3.00972 12.9382C3.18076 14.169 4.31596 15.2035 5.52778 15.0916C6.33116 15.0826 7.10109 14.5965 7.51978 13.8849C7.65517 13.6357 7.80678 13.3809 7.81488 13.0878C7.88556 11.7462 7.8575 10.4102 7.86614 9.06855C7.87207 6.04495 7.8575 3.02979 7.87962 0.0157508L7.87908 0.0151883Z" fill="white"/>
</svg>
