<svg width="512" height="512" viewBox="0 0 512 512" fill="none" xmlns="http://www.w3.org/2000/svg">
<path d="M60.205 333.042L0.565979 392.681C-0.437021 393.637 -0.0620207 395.366 1.33598 395.781L73.164 417.6C83.354 420.7 91.294 428.64 94.393 438.829L116.212 510.657C116.626 512.055 118.356 512.43 119.312 511.427L199.11 431.629C140.069 416.963 91.326 380.155 60.205 333.042Z" fill="#15D6FF"/>
<path d="M511.434 392.681L451.795 333.042C420.896 379.818 372.304 416.87 312.888 431.63L392.686 511.428C393.642 512.431 395.372 512.056 395.786 510.658L417.605 438.83C420.705 428.64 428.645 420.7 438.835 417.601L510.663 395.782C512.065 395.365 512.435 393.634 511.434 392.681Z" fill="#15D6FF"/>
<path d="M460.265 204.265C460.265 91.638 368.637 0 256 0C143.363 0 51.735 91.638 51.735 204.265C51.735 306.1 126.714 390.976 224.611 406.13C348.618 425.42 460.265 328.898 460.265 204.265ZM96.774 254.044C63.087 146.343 144.181 37.469 256 37.469C380.913 37.469 463.476 171.718 402.586 283.833C332.292 412.784 141.016 394.769 96.774 254.044Z" fill="#15D6FF"/>
<path d="M256 67.468C180.572 67.468 119.193 128.837 119.193 204.265C119.193 315.237 245.01 379.953 335.108 315.812C354.412 302.11 370.132 283.378 380.247 261.493C422.278 171.007 355.275 67.468 256 67.468ZM325.048 185.076C323.34 186.344 240.227 248.031 239.75 248.385C233.747 252.859 225.207 252.259 219.87 246.605C181.693 205.919 184.747 209.168 183.831 208.206C177.416 201.375 178.755 190.326 186.781 185.247C186.791 185.237 186.801 185.227 186.811 185.227C192.771 181.487 200.721 182.357 205.711 187.677C213.784 196.281 208.35 190.49 232.6 216.326C235.214 214.377 265.972 191.559 308.288 160.157C314.938 155.217 324.338 156.607 329.267 163.257C333.785 169.321 333.769 178.614 325.048 185.076Z" fill="#15D6FF"/>
</svg>
