<svg width="15" height="11" viewBox="0 0 15 11" fill="none" xmlns="http://www.w3.org/2000/svg">
<path d="M0.750452 11.0001L14.2508 11.0001C14.3875 10.9997 14.5215 10.9628 14.6384 10.8933C14.7552 10.8239 14.8505 10.7245 14.914 10.6059C14.9775 10.4874 15.0068 10.3541 14.9987 10.2205C14.9906 10.0868 14.9454 9.95785 14.8681 9.84746L8.11791 0.297102C7.83815 -0.0988711 7.16463 -0.0988711 6.88413 0.297102L0.133934 9.84746C0.0558005 9.95762 0.0099812 10.0866 0.00145423 10.2205C-0.00707273 10.3544 0.0220188 10.488 0.0855682 10.6068C0.149118 10.7256 0.244694 10.8251 0.361914 10.8944C0.479133 10.9638 0.613513 11.0003 0.750452 11.0001Z" fill="#00DB80"/>
</svg>
