<svg width="448" height="478" viewBox="0 0 448 478" fill="none" xmlns="http://www.w3.org/2000/svg">
<path d="M444.268 202.186L230.921 2.90717C228.915 1.03501 226.207 0 223.371 0C220.535 0 217.826 1.05554 215.822 2.92677L3.11386 202.186C0.0638833 205.033 -0.831818 209.313 0.810633 213.037C2.47408 216.76 6.35578 219.17 10.6633 219.17H127.957V468.045C127.957 473.54 132.735 478 138.621 478H309.231C315.117 478 319.894 473.54 319.894 468.045V219.169H436.74C441.048 219.169 444.929 216.739 446.593 213.017C448.256 209.294 447.317 205.033 444.268 202.186Z" fill="#6F7A8B"/>
</svg>
