<svg width="16" height="11" viewBox="0 0 16 11" fill="none" xmlns="http://www.w3.org/2000/svg">
<path d="M8.35448 10.9856L5.0719 10.9259C4.00907 10.9051 2.9436 10.9466 1.90161 10.7312C0.316498 10.4094 0.20421 8.83141 0.0867006 7.50771C-0.0752011 5.64681 -0.0125272 3.75213 0.293014 1.90675C0.465511 0.871302 1.14432 0.253452 2.19409 0.186212C5.73781 -0.0577887 9.3051 -0.0288788 12.841 0.0849613C13.2144 0.0954013 13.5903 0.152441 13.9586 0.217361C15.7762 0.534022 15.8206 2.32227 15.9384 3.82764C16.0559 5.34851 16.0062 6.87731 15.7817 8.38781C15.6015 9.63851 15.2568 10.6873 13.8019 10.7886C11.9791 10.921 10.1981 11.0276 8.37007 10.9936C8.37017 10.9856 8.35971 10.9856 8.35448 10.9856ZM6.42463 7.81921C7.7983 7.03531 9.14572 6.26451 10.5116 5.48591C9.13536 4.70202 7.79044 3.93121 6.42463 3.15259V7.81921Z" fill="white"/>
</svg>
